<svg xmlns="http://www.w3.org/2000/svg" xmlns:xlink="http://www.w3.org/1999/xlink" width="600" height="400" viewBox="0 0 2400 1600">
<defs>
  <clipPath id="clip500">
    <rect x="0" y="0" width="2400" height="1600"></rect>
  </clipPath>
</defs>
<path clip-path="url(#clip500)" d="M0 1600 L2400 1600 L2400 8.88178e-14 L0 8.88178e-14  Z" fill="#ffffff" fill-rule="evenodd" fill-opacity="1"></path>
<defs>
  <clipPath id="clip501">
    <rect x="480" y="0" width="1681" height="1600"></rect>
  </clipPath>
</defs>
<path clip-path="url(#clip500)" d="M287.366 1423.18 L1152.76 1423.18 L1152.76 47.2441 L287.366 47.2441  Z" fill="#ffffff" fill-rule="evenodd" fill-opacity="1"></path>
<defs>
  <clipPath id="clip502">
    <rect x="287" y="47" width="866" height="1377"></rect>
  </clipPath>
</defs>
<polyline clip-path="url(#clip502)" style="stroke:#000000; stroke-linecap:round; stroke-linejoin:round; stroke-width:2; stroke-opacity:0.1; fill:none" points="307.668,1423.18 307.668,47.2441 "></polyline>
<polyline clip-path="url(#clip502)" style="stroke:#000000; stroke-linecap:round; stroke-linejoin:round; stroke-width:2; stroke-opacity:0.1; fill:none" points="443.27,1423.18 443.27,47.2441 "></polyline>
<polyline clip-path="url(#clip502)" style="stroke:#000000; stroke-linecap:round; stroke-linejoin:round; stroke-width:2; stroke-opacity:0.1; fill:none" points="578.872,1423.18 578.872,47.2441 "></polyline>
<polyline clip-path="url(#clip502)" style="stroke:#000000; stroke-linecap:round; stroke-linejoin:round; stroke-width:2; stroke-opacity:0.1; fill:none" points="714.474,1423.18 714.474,47.2441 "></polyline>
<polyline clip-path="url(#clip502)" style="stroke:#000000; stroke-linecap:round; stroke-linejoin:round; stroke-width:2; stroke-opacity:0.1; fill:none" points="850.076,1423.18 850.076,47.2441 "></polyline>
<polyline clip-path="url(#clip502)" style="stroke:#000000; stroke-linecap:round; stroke-linejoin:round; stroke-width:2; stroke-opacity:0.1; fill:none" points="985.678,1423.18 985.678,47.2441 "></polyline>
<polyline clip-path="url(#clip502)" style="stroke:#000000; stroke-linecap:round; stroke-linejoin:round; stroke-width:2; stroke-opacity:0.1; fill:none" points="1121.28,1423.18 1121.28,47.2441 "></polyline>
<polyline clip-path="url(#clip500)" style="stroke:#000000; stroke-linecap:round; stroke-linejoin:round; stroke-width:4; stroke-opacity:1; fill:none" points="287.366,1423.18 1152.76,1423.18 "></polyline>
<polyline clip-path="url(#clip500)" style="stroke:#000000; stroke-linecap:round; stroke-linejoin:round; stroke-width:4; stroke-opacity:1; fill:none" points="307.668,1423.18 307.668,1404.28 "></polyline>
<polyline clip-path="url(#clip500)" style="stroke:#000000; stroke-linecap:round; stroke-linejoin:round; stroke-width:4; stroke-opacity:1; fill:none" points="443.27,1423.18 443.27,1404.28 "></polyline>
<polyline clip-path="url(#clip500)" style="stroke:#000000; stroke-linecap:round; stroke-linejoin:round; stroke-width:4; stroke-opacity:1; fill:none" points="578.872,1423.18 578.872,1404.28 "></polyline>
<polyline clip-path="url(#clip500)" style="stroke:#000000; stroke-linecap:round; stroke-linejoin:round; stroke-width:4; stroke-opacity:1; fill:none" points="714.474,1423.18 714.474,1404.28 "></polyline>
<polyline clip-path="url(#clip500)" style="stroke:#000000; stroke-linecap:round; stroke-linejoin:round; stroke-width:4; stroke-opacity:1; fill:none" points="850.076,1423.18 850.076,1404.28 "></polyline>
<polyline clip-path="url(#clip500)" style="stroke:#000000; stroke-linecap:round; stroke-linejoin:round; stroke-width:4; stroke-opacity:1; fill:none" points="985.678,1423.18 985.678,1404.28 "></polyline>
<polyline clip-path="url(#clip500)" style="stroke:#000000; stroke-linecap:round; stroke-linejoin:round; stroke-width:4; stroke-opacity:1; fill:none" points="1121.28,1423.18 1121.28,1404.28 "></polyline>
<path clip-path="url(#clip500)" d="M274.914 1481.64 L282.552 1481.64 L282.552 1455.28 L274.242 1456.95 L274.242 1452.69 L282.506 1451.02 L287.182 1451.02 L287.182 1481.64 L294.821 1481.64 L294.821 1485.58 L274.914 1485.58 L274.914 1481.64 Z" fill="#000000" fill-rule="nonzero" fill-opacity="1"></path><path clip-path="url(#clip500)" d="M304.265 1479.7 L309.149 1479.7 L309.149 1485.58 L304.265 1485.58 L304.265 1479.7 Z" fill="#000000" fill-rule="nonzero" fill-opacity="1"></path><path clip-path="url(#clip500)" d="M319.473 1484.86 L319.473 1480.6 Q321.233 1481.44 323.038 1481.88 Q324.844 1482.32 326.58 1482.32 Q331.21 1482.32 333.64 1479.21 Q336.094 1476.09 336.441 1469.75 Q335.098 1471.74 333.038 1472.8 Q330.978 1473.87 328.478 1473.87 Q323.293 1473.87 320.261 1470.74 Q317.251 1467.59 317.251 1462.15 Q317.251 1456.83 320.399 1453.61 Q323.548 1450.39 328.779 1450.39 Q334.774 1450.39 337.922 1455 Q341.094 1459.58 341.094 1468.33 Q341.094 1476.51 337.205 1481.39 Q333.339 1486.25 326.788 1486.25 Q325.029 1486.25 323.223 1485.9 Q321.418 1485.56 319.473 1484.86 M328.779 1470.21 Q331.927 1470.21 333.756 1468.06 Q335.608 1465.9 335.608 1462.15 Q335.608 1458.43 333.756 1456.27 Q331.927 1454.1 328.779 1454.1 Q325.631 1454.1 323.779 1456.27 Q321.95 1458.43 321.95 1462.15 Q321.95 1465.9 323.779 1468.06 Q325.631 1470.21 328.779 1470.21 Z" fill="#000000" fill-rule="nonzero" fill-opacity="1"></path><path clip-path="url(#clip500)" d="M414.509 1481.64 L430.828 1481.64 L430.828 1485.58 L408.884 1485.58 L408.884 1481.64 Q411.546 1478.89 416.129 1474.26 Q420.735 1469.61 421.916 1468.27 Q424.161 1465.74 425.041 1464.01 Q425.944 1462.25 425.944 1460.56 Q425.944 1457.8 423.999 1456.07 Q422.078 1454.33 418.976 1454.33 Q416.777 1454.33 414.323 1455.09 Q411.893 1455.86 409.115 1457.41 L409.115 1452.69 Q411.939 1451.55 414.393 1450.97 Q416.847 1450.39 418.884 1450.39 Q424.254 1450.39 427.448 1453.08 Q430.643 1455.77 430.643 1460.26 Q430.643 1462.39 429.833 1464.31 Q429.046 1466.2 426.939 1468.8 Q426.36 1469.47 423.259 1472.69 Q420.157 1475.88 414.509 1481.64 Z" fill="#000000" fill-rule="nonzero" fill-opacity="1"></path><path clip-path="url(#clip500)" d="M440.643 1479.7 L445.527 1479.7 L445.527 1485.58 L440.643 1485.58 L440.643 1479.7 Z" fill="#000000" fill-rule="nonzero" fill-opacity="1"></path><path clip-path="url(#clip500)" d="M465.712 1454.1 Q462.101 1454.1 460.272 1457.66 Q458.467 1461.2 458.467 1468.33 Q458.467 1475.44 460.272 1479.01 Q462.101 1482.55 465.712 1482.55 Q469.346 1482.55 471.152 1479.01 Q472.981 1475.44 472.981 1468.33 Q472.981 1461.2 471.152 1457.66 Q469.346 1454.1 465.712 1454.1 M465.712 1450.39 Q471.522 1450.39 474.578 1455 Q477.656 1459.58 477.656 1468.33 Q477.656 1477.06 474.578 1481.67 Q471.522 1486.25 465.712 1486.25 Q459.902 1486.25 456.823 1481.67 Q453.768 1477.06 453.768 1468.33 Q453.768 1459.58 456.823 1455 Q459.902 1450.39 465.712 1450.39 Z" fill="#000000" fill-rule="nonzero" fill-opacity="1"></path><path clip-path="url(#clip500)" d="M550.724 1481.64 L567.043 1481.64 L567.043 1485.58 L545.099 1485.58 L545.099 1481.64 Q547.761 1478.89 552.344 1474.26 Q556.951 1469.61 558.131 1468.27 Q560.377 1465.74 561.256 1464.01 Q562.159 1462.25 562.159 1460.56 Q562.159 1457.8 560.215 1456.07 Q558.293 1454.33 555.192 1454.33 Q552.993 1454.33 550.539 1455.09 Q548.108 1455.86 545.331 1457.41 L545.331 1452.69 Q548.155 1451.55 550.608 1450.97 Q553.062 1450.39 555.099 1450.39 Q560.469 1450.39 563.664 1453.08 Q566.858 1455.77 566.858 1460.26 Q566.858 1462.39 566.048 1464.31 Q565.261 1466.2 563.155 1468.8 Q562.576 1469.47 559.474 1472.69 Q556.372 1475.88 550.724 1481.64 Z" fill="#000000" fill-rule="nonzero" fill-opacity="1"></path><path clip-path="url(#clip500)" d="M576.858 1479.7 L581.742 1479.7 L581.742 1485.58 L576.858 1485.58 L576.858 1479.7 Z" fill="#000000" fill-rule="nonzero" fill-opacity="1"></path><path clip-path="url(#clip500)" d="M592.738 1481.64 L600.377 1481.64 L600.377 1455.28 L592.066 1456.95 L592.066 1452.69 L600.33 1451.02 L605.006 1451.02 L605.006 1481.64 L612.645 1481.64 L612.645 1485.58 L592.738 1485.58 L592.738 1481.64 Z" fill="#000000" fill-rule="nonzero" fill-opacity="1"></path><path clip-path="url(#clip500)" d="M686.511 1481.64 L702.831 1481.64 L702.831 1485.58 L680.886 1485.58 L680.886 1481.64 Q683.548 1478.89 688.132 1474.26 Q692.738 1469.61 693.919 1468.27 Q696.164 1465.74 697.044 1464.01 Q697.946 1462.25 697.946 1460.56 Q697.946 1457.8 696.002 1456.07 Q694.081 1454.33 690.979 1454.33 Q688.78 1454.33 686.326 1455.09 Q683.896 1455.86 681.118 1457.41 L681.118 1452.69 Q683.942 1451.55 686.396 1450.97 Q688.849 1450.39 690.886 1450.39 Q696.257 1450.39 699.451 1453.08 Q702.645 1455.77 702.645 1460.26 Q702.645 1462.39 701.835 1464.31 Q701.048 1466.2 698.942 1468.8 Q698.363 1469.47 695.261 1472.69 Q692.159 1475.88 686.511 1481.64 Z" fill="#000000" fill-rule="nonzero" fill-opacity="1"></path><path clip-path="url(#clip500)" d="M712.645 1479.7 L717.53 1479.7 L717.53 1485.58 L712.645 1485.58 L712.645 1479.7 Z" fill="#000000" fill-rule="nonzero" fill-opacity="1"></path><path clip-path="url(#clip500)" d="M731.743 1481.64 L748.062 1481.64 L748.062 1485.58 L726.118 1485.58 L726.118 1481.64 Q728.78 1478.89 733.363 1474.26 Q737.969 1469.61 739.15 1468.27 Q741.395 1465.74 742.275 1464.01 Q743.178 1462.25 743.178 1460.56 Q743.178 1457.8 741.233 1456.07 Q739.312 1454.33 736.21 1454.33 Q734.011 1454.33 731.557 1455.09 Q729.127 1455.86 726.349 1457.41 L726.349 1452.69 Q729.173 1451.55 731.627 1450.97 Q734.081 1450.39 736.118 1450.39 Q741.488 1450.39 744.682 1453.08 Q747.877 1455.77 747.877 1460.26 Q747.877 1462.39 747.067 1464.31 Q746.28 1466.2 744.173 1468.8 Q743.594 1469.47 740.493 1472.69 Q737.391 1475.88 731.743 1481.64 Z" fill="#000000" fill-rule="nonzero" fill-opacity="1"></path><path clip-path="url(#clip500)" d="M821.639 1481.64 L837.958 1481.64 L837.958 1485.58 L816.014 1485.58 L816.014 1481.64 Q818.676 1478.89 823.259 1474.26 Q827.866 1469.61 829.046 1468.27 Q831.292 1465.74 832.171 1464.01 Q833.074 1462.25 833.074 1460.56 Q833.074 1457.8 831.13 1456.07 Q829.208 1454.33 826.106 1454.33 Q823.907 1454.33 821.454 1455.09 Q819.023 1455.86 816.245 1457.41 L816.245 1452.69 Q819.069 1451.55 821.523 1450.97 Q823.977 1450.39 826.014 1450.39 Q831.384 1450.39 834.579 1453.08 Q837.773 1455.77 837.773 1460.26 Q837.773 1462.39 836.963 1464.31 Q836.176 1466.2 834.069 1468.8 Q833.491 1469.47 830.389 1472.69 Q827.287 1475.88 821.639 1481.64 Z" fill="#000000" fill-rule="nonzero" fill-opacity="1"></path><path clip-path="url(#clip500)" d="M847.773 1479.7 L852.657 1479.7 L852.657 1485.58 L847.773 1485.58 L847.773 1479.7 Z" fill="#000000" fill-rule="nonzero" fill-opacity="1"></path><path clip-path="url(#clip500)" d="M877.009 1466.95 Q880.365 1467.66 882.24 1469.93 Q884.138 1472.2 884.138 1475.53 Q884.138 1480.65 880.62 1483.45 Q877.101 1486.25 870.62 1486.25 Q868.444 1486.25 866.129 1485.81 Q863.838 1485.39 861.384 1484.54 L861.384 1480.02 Q863.328 1481.16 865.643 1481.74 Q867.958 1482.32 870.481 1482.32 Q874.879 1482.32 877.171 1480.58 Q879.486 1478.84 879.486 1475.53 Q879.486 1472.48 877.333 1470.77 Q875.203 1469.03 871.384 1469.03 L867.356 1469.03 L867.356 1465.19 L871.569 1465.19 Q875.018 1465.19 876.847 1463.82 Q878.676 1462.43 878.676 1459.84 Q878.676 1457.18 876.777 1455.77 Q874.902 1454.33 871.384 1454.33 Q869.463 1454.33 867.264 1454.75 Q865.065 1455.16 862.426 1456.04 L862.426 1451.88 Q865.088 1451.14 867.402 1450.77 Q869.74 1450.39 871.801 1450.39 Q877.125 1450.39 880.226 1452.83 Q883.328 1455.23 883.328 1459.35 Q883.328 1462.22 881.685 1464.21 Q880.041 1466.18 877.009 1466.95 Z" fill="#000000" fill-rule="nonzero" fill-opacity="1"></path><path clip-path="url(#clip500)" d="M956.674 1481.64 L972.993 1481.64 L972.993 1485.58 L951.049 1485.58 L951.049 1481.64 Q953.711 1478.89 958.294 1474.26 Q962.901 1469.61 964.081 1468.27 Q966.326 1465.74 967.206 1464.01 Q968.109 1462.25 968.109 1460.56 Q968.109 1457.8 966.164 1456.07 Q964.243 1454.33 961.141 1454.33 Q958.942 1454.33 956.489 1455.09 Q954.058 1455.86 951.28 1457.41 L951.28 1452.69 Q954.104 1451.55 956.558 1450.97 Q959.012 1450.39 961.049 1450.39 Q966.419 1450.39 969.613 1453.08 Q972.808 1455.77 972.808 1460.26 Q972.808 1462.39 971.998 1464.31 Q971.211 1466.2 969.104 1468.8 Q968.526 1469.47 965.424 1472.69 Q962.322 1475.88 956.674 1481.64 Z" fill="#000000" fill-rule="nonzero" fill-opacity="1"></path><path clip-path="url(#clip500)" d="M982.808 1479.7 L987.692 1479.7 L987.692 1485.58 L982.808 1485.58 L982.808 1479.7 Z" fill="#000000" fill-rule="nonzero" fill-opacity="1"></path><path clip-path="url(#clip500)" d="M1010.72 1455.09 L998.919 1473.54 L1010.72 1473.54 L1010.72 1455.09 M1009.5 1451.02 L1015.38 1451.02 L1015.38 1473.54 L1020.31 1473.54 L1020.31 1477.43 L1015.38 1477.43 L1015.38 1485.58 L1010.72 1485.58 L1010.72 1477.43 L995.123 1477.43 L995.123 1472.92 L1009.5 1451.02 Z" fill="#000000" fill-rule="nonzero" fill-opacity="1"></path><path clip-path="url(#clip500)" d="M1093.02 1481.64 L1109.34 1481.64 L1109.34 1485.58 L1087.39 1485.58 L1087.39 1481.64 Q1090.05 1478.89 1094.64 1474.26 Q1099.24 1469.61 1100.42 1468.27 Q1102.67 1465.74 1103.55 1464.01 Q1104.45 1462.25 1104.45 1460.56 Q1104.45 1457.8 1102.51 1456.07 Q1100.59 1454.33 1097.48 1454.33 Q1095.29 1454.33 1092.83 1455.09 Q1090.4 1455.86 1087.62 1457.41 L1087.62 1452.69 Q1090.45 1451.55 1092.9 1450.97 Q1095.35 1450.39 1097.39 1450.39 Q1102.76 1450.39 1105.96 1453.08 Q1109.15 1455.77 1109.15 1460.26 Q1109.15 1462.39 1108.34 1464.31 Q1107.55 1466.2 1105.45 1468.8 Q1104.87 1469.47 1101.77 1472.69 Q1098.66 1475.88 1093.02 1481.64 Z" fill="#000000" fill-rule="nonzero" fill-opacity="1"></path><path clip-path="url(#clip500)" d="M1119.15 1479.7 L1124.03 1479.7 L1124.03 1485.58 L1119.15 1485.58 L1119.15 1479.7 Z" fill="#000000" fill-rule="nonzero" fill-opacity="1"></path><path clip-path="url(#clip500)" d="M1134.27 1451.02 L1152.62 1451.02 L1152.62 1454.96 L1138.55 1454.96 L1138.55 1463.43 Q1139.57 1463.08 1140.59 1462.92 Q1141.6 1462.73 1142.62 1462.73 Q1148.41 1462.73 1151.79 1465.9 Q1155.17 1469.08 1155.17 1474.49 Q1155.17 1480.07 1151.7 1483.17 Q1148.22 1486.25 1141.91 1486.25 Q1139.73 1486.25 1137.46 1485.88 Q1135.22 1485.51 1132.81 1484.77 L1132.81 1480.07 Q1134.89 1481.2 1137.11 1481.76 Q1139.34 1482.32 1141.81 1482.32 Q1145.82 1482.32 1148.16 1480.21 Q1150.49 1478.1 1150.49 1474.49 Q1150.49 1470.88 1148.16 1468.77 Q1145.82 1466.67 1141.81 1466.67 Q1139.94 1466.67 1138.06 1467.08 Q1136.21 1467.5 1134.27 1468.38 L1134.27 1451.02 Z" fill="#000000" fill-rule="nonzero" fill-opacity="1"></path><path clip-path="url(#clip500)" d="M536.044 1518.52 L541.901 1518.52 L541.901 1568.04 L536.044 1568.04 L536.044 1518.52 Z" fill="#000000" fill-rule="nonzero" fill-opacity="1"></path><path clip-path="url(#clip500)" d="M567.968 1536.5 Q563.258 1536.5 560.52 1540.19 Q557.783 1543.85 557.783 1550.25 Q557.783 1556.65 560.489 1560.34 Q563.226 1564 567.968 1564 Q572.647 1564 575.384 1560.31 Q578.122 1556.62 578.122 1550.25 Q578.122 1543.92 575.384 1540.23 Q572.647 1536.5 567.968 1536.5 M567.968 1531.54 Q575.607 1531.54 579.968 1536.5 Q584.328 1541.47 584.328 1550.25 Q584.328 1559 579.968 1564 Q575.607 1568.97 567.968 1568.97 Q560.298 1568.97 555.937 1564 Q551.608 1559 551.608 1550.25 Q551.608 1541.47 555.937 1536.5 Q560.298 1531.54 567.968 1531.54 Z" fill="#000000" fill-rule="nonzero" fill-opacity="1"></path><path clip-path="url(#clip500)" d="M617.493 1549.81 Q617.493 1543.44 614.852 1539.94 Q612.242 1536.44 607.499 1536.44 Q602.789 1536.44 600.147 1539.94 Q597.537 1543.44 597.537 1549.81 Q597.537 1556.14 600.147 1559.64 Q602.789 1563.14 607.499 1563.14 Q612.242 1563.14 614.852 1559.64 Q617.493 1556.14 617.493 1549.81 M623.35 1563.62 Q623.35 1572.72 619.308 1577.15 Q615.265 1581.6 606.926 1581.6 Q603.839 1581.6 601.102 1581.13 Q598.365 1580.68 595.786 1579.72 L595.786 1574.03 Q598.365 1575.43 600.879 1576.1 Q603.393 1576.76 606.003 1576.76 Q611.764 1576.76 614.629 1573.74 Q617.493 1570.75 617.493 1564.67 L617.493 1561.77 Q615.679 1564.92 612.846 1566.48 Q610.014 1568.04 606.067 1568.04 Q599.51 1568.04 595.5 1563.05 Q591.49 1558.05 591.49 1549.81 Q591.49 1541.53 595.5 1536.53 Q599.51 1531.54 606.067 1531.54 Q610.014 1531.54 612.846 1533.1 Q615.679 1534.66 617.493 1537.81 L617.493 1532.4 L623.35 1532.4 L623.35 1563.62 Z" fill="#000000" fill-rule="nonzero" fill-opacity="1"></path><path clip-path="url(#clip500)" d="M637.354 1562.63 L647.858 1562.63 L647.858 1526.38 L636.431 1528.67 L636.431 1522.82 L647.794 1520.52 L654.224 1520.52 L654.224 1562.63 L664.727 1562.63 L664.727 1568.04 L637.354 1568.04 L637.354 1562.63 Z" fill="#000000" fill-rule="nonzero" fill-opacity="1"></path><path clip-path="url(#clip500)" d="M691.463 1524.76 Q686.498 1524.76 683.983 1529.66 Q681.501 1534.53 681.501 1544.33 Q681.501 1554.1 683.983 1559 Q686.498 1563.87 691.463 1563.87 Q696.46 1563.87 698.943 1559 Q701.457 1554.1 701.457 1544.33 Q701.457 1534.53 698.943 1529.66 Q696.46 1524.76 691.463 1524.76 M691.463 1519.66 Q699.452 1519.66 703.653 1526 Q707.886 1532.3 707.886 1544.33 Q707.886 1556.33 703.653 1562.66 Q699.452 1568.97 691.463 1568.97 Q683.474 1568.97 679.241 1562.66 Q675.039 1556.33 675.039 1544.33 Q675.039 1532.3 679.241 1526 Q683.474 1519.66 691.463 1519.66 Z" fill="#000000" fill-rule="nonzero" fill-opacity="1"></path><path clip-path="url(#clip500)" d="M732.426 1518.58 Q728.161 1525.9 726.092 1533.06 Q724.024 1540.23 724.024 1547.58 Q724.024 1554.93 726.092 1562.16 Q728.193 1569.35 732.426 1576.64 L727.334 1576.64 Q722.559 1569.16 720.172 1561.93 Q717.817 1554.71 717.817 1547.58 Q717.817 1540.48 720.172 1533.29 Q722.528 1526.09 727.334 1518.58 L732.426 1518.58 Z" fill="#000000" fill-rule="nonzero" fill-opacity="1"></path><path clip-path="url(#clip500)" d="M745.731 1562.63 L756.234 1562.63 L756.234 1526.38 L744.808 1528.67 L744.808 1522.82 L756.17 1520.52 L762.6 1520.52 L762.6 1562.63 L773.103 1562.63 L773.103 1568.04 L745.731 1568.04 L745.731 1562.63 Z" fill="#000000" fill-rule="nonzero" fill-opacity="1"></path><path clip-path="url(#clip500)" d="M795.67 1520.52 L801.08 1520.52 L784.53 1574.09 L779.119 1574.09 L795.67 1520.52 Z" fill="#000000" fill-rule="nonzero" fill-opacity="1"></path><path clip-path="url(#clip500)" d="M823.36 1526.86 L810.311 1562.7 L836.442 1562.7 L823.36 1526.86 M801.59 1568.04 L819.732 1520.52 L827.021 1520.52 L845.131 1568.04 L801.59 1568.04 Z" fill="#000000" fill-rule="nonzero" fill-opacity="1"></path><path clip-path="url(#clip500)" d="M881.447 1532.4 L868.557 1549.74 L882.116 1568.04 L875.209 1568.04 L864.833 1554.04 L854.457 1568.04 L847.55 1568.04 L861.396 1549.39 L848.728 1532.4 L855.635 1532.4 L865.088 1545.1 L874.541 1532.4 L881.447 1532.4 Z" fill="#000000" fill-rule="nonzero" fill-opacity="1"></path><path clip-path="url(#clip500)" d="M889.468 1518.58 L894.561 1518.58 Q899.335 1526.09 901.69 1533.29 Q904.078 1540.48 904.078 1547.58 Q904.078 1554.71 901.69 1561.93 Q899.335 1569.16 894.561 1576.64 L889.468 1576.64 Q893.701 1569.35 895.77 1562.16 Q897.871 1554.93 897.871 1547.58 Q897.871 1540.23 895.77 1533.06 Q893.701 1525.9 889.468 1518.58 Z" fill="#000000" fill-rule="nonzero" fill-opacity="1"></path><polyline clip-path="url(#clip502)" style="stroke:#000000; stroke-linecap:round; stroke-linejoin:round; stroke-width:2; stroke-opacity:0.1; fill:none" points="287.366,1392.6 1152.76,1392.6 "></polyline>
<polyline clip-path="url(#clip502)" style="stroke:#000000; stroke-linecap:round; stroke-linejoin:round; stroke-width:2; stroke-opacity:0.1; fill:none" points="287.366,1123.09 1152.76,1123.09 "></polyline>
<polyline clip-path="url(#clip502)" style="stroke:#000000; stroke-linecap:round; stroke-linejoin:round; stroke-width:2; stroke-opacity:0.1; fill:none" points="287.366,853.59 1152.76,853.59 "></polyline>
<polyline clip-path="url(#clip502)" style="stroke:#000000; stroke-linecap:round; stroke-linejoin:round; stroke-width:2; stroke-opacity:0.1; fill:none" points="287.366,584.088 1152.76,584.088 "></polyline>
<polyline clip-path="url(#clip502)" style="stroke:#000000; stroke-linecap:round; stroke-linejoin:round; stroke-width:2; stroke-opacity:0.1; fill:none" points="287.366,314.586 1152.76,314.586 "></polyline>
<polyline clip-path="url(#clip500)" style="stroke:#000000; stroke-linecap:round; stroke-linejoin:round; stroke-width:4; stroke-opacity:1; fill:none" points="287.366,1423.18 287.366,47.2441 "></polyline>
<polyline clip-path="url(#clip500)" style="stroke:#000000; stroke-linecap:round; stroke-linejoin:round; stroke-width:4; stroke-opacity:1; fill:none" points="287.366,1392.6 306.264,1392.6 "></polyline>
<polyline clip-path="url(#clip500)" style="stroke:#000000; stroke-linecap:round; stroke-linejoin:round; stroke-width:4; stroke-opacity:1; fill:none" points="287.366,1123.09 306.264,1123.09 "></polyline>
<polyline clip-path="url(#clip500)" style="stroke:#000000; stroke-linecap:round; stroke-linejoin:round; stroke-width:4; stroke-opacity:1; fill:none" points="287.366,853.59 306.264,853.59 "></polyline>
<polyline clip-path="url(#clip500)" style="stroke:#000000; stroke-linecap:round; stroke-linejoin:round; stroke-width:4; stroke-opacity:1; fill:none" points="287.366,584.088 306.264,584.088 "></polyline>
<polyline clip-path="url(#clip500)" style="stroke:#000000; stroke-linecap:round; stroke-linejoin:round; stroke-width:4; stroke-opacity:1; fill:none" points="287.366,314.586 306.264,314.586 "></polyline>
<path clip-path="url(#clip500)" d="M114.26 1393.05 L143.936 1393.05 L143.936 1396.98 L114.26 1396.98 L114.26 1393.05 Z" fill="#000000" fill-rule="nonzero" fill-opacity="1"></path><path clip-path="url(#clip500)" d="M166.876 1379.39 L155.07 1397.84 L166.876 1397.84 L166.876 1379.39 M165.649 1375.32 L171.528 1375.32 L171.528 1397.84 L176.459 1397.84 L176.459 1401.73 L171.528 1401.73 L171.528 1409.88 L166.876 1409.88 L166.876 1401.73 L151.274 1401.73 L151.274 1397.21 L165.649 1375.32 Z" fill="#000000" fill-rule="nonzero" fill-opacity="1"></path><path clip-path="url(#clip500)" d="M184.19 1404 L189.075 1404 L189.075 1409.88 L184.19 1409.88 L184.19 1404 Z" fill="#000000" fill-rule="nonzero" fill-opacity="1"></path><path clip-path="url(#clip500)" d="M209.26 1378.39 Q205.649 1378.39 203.82 1381.96 Q202.014 1385.5 202.014 1392.63 Q202.014 1399.74 203.82 1403.3 Q205.649 1406.84 209.26 1406.84 Q212.894 1406.84 214.699 1403.3 Q216.528 1399.74 216.528 1392.63 Q216.528 1385.5 214.699 1381.96 Q212.894 1378.39 209.26 1378.39 M209.26 1374.69 Q215.07 1374.69 218.125 1379.3 Q221.204 1383.88 221.204 1392.63 Q221.204 1401.36 218.125 1405.96 Q215.07 1410.55 209.26 1410.55 Q203.449 1410.55 200.371 1405.96 Q197.315 1401.36 197.315 1392.63 Q197.315 1383.88 200.371 1379.3 Q203.449 1374.69 209.26 1374.69 Z" fill="#000000" fill-rule="nonzero" fill-opacity="1"></path><path clip-path="url(#clip500)" d="M239.422 1378.39 Q235.81 1378.39 233.982 1381.96 Q232.176 1385.5 232.176 1392.63 Q232.176 1399.74 233.982 1403.3 Q235.81 1406.84 239.422 1406.84 Q243.056 1406.84 244.861 1403.3 Q246.69 1399.74 246.69 1392.63 Q246.69 1385.5 244.861 1381.96 Q243.056 1378.39 239.422 1378.39 M239.422 1374.69 Q245.232 1374.69 248.287 1379.3 Q251.366 1383.88 251.366 1392.63 Q251.366 1401.36 248.287 1405.96 Q245.232 1410.55 239.422 1410.55 Q233.611 1410.55 230.533 1405.96 Q227.477 1401.36 227.477 1392.63 Q227.477 1383.88 230.533 1379.3 Q233.611 1374.69 239.422 1374.69 Z" fill="#000000" fill-rule="nonzero" fill-opacity="1"></path><path clip-path="url(#clip500)" d="M115.256 1123.54 L144.931 1123.54 L144.931 1127.48 L115.256 1127.48 L115.256 1123.54 Z" fill="#000000" fill-rule="nonzero" fill-opacity="1"></path><path clip-path="url(#clip500)" d="M169.19 1121.74 Q172.547 1122.46 174.422 1124.72 Q176.32 1126.99 176.32 1130.33 Q176.32 1135.44 172.802 1138.24 Q169.283 1141.04 162.802 1141.04 Q160.626 1141.04 158.311 1140.6 Q156.019 1140.19 153.566 1139.33 L153.566 1134.82 Q155.51 1135.95 157.825 1136.53 Q160.14 1137.11 162.663 1137.11 Q167.061 1137.11 169.352 1135.37 Q171.667 1133.64 171.667 1130.33 Q171.667 1127.27 169.514 1125.56 Q167.385 1123.82 163.565 1123.82 L159.538 1123.82 L159.538 1119.98 L163.751 1119.98 Q167.2 1119.98 169.028 1118.61 Q170.857 1117.22 170.857 1114.63 Q170.857 1111.97 168.959 1110.56 Q167.084 1109.12 163.565 1109.12 Q161.644 1109.12 159.445 1109.54 Q157.246 1109.96 154.607 1110.84 L154.607 1106.67 Q157.269 1105.93 159.584 1105.56 Q161.922 1105.19 163.982 1105.19 Q169.306 1105.19 172.408 1107.62 Q175.51 1110.03 175.51 1114.15 Q175.51 1117.02 173.866 1119.01 Q172.223 1120.97 169.19 1121.74 Z" fill="#000000" fill-rule="nonzero" fill-opacity="1"></path><path clip-path="url(#clip500)" d="M185.186 1134.49 L190.07 1134.49 L190.07 1140.37 L185.186 1140.37 L185.186 1134.49 Z" fill="#000000" fill-rule="nonzero" fill-opacity="1"></path><path clip-path="url(#clip500)" d="M199.075 1105.81 L221.297 1105.81 L221.297 1107.8 L208.75 1140.37 L203.866 1140.37 L215.672 1109.75 L199.075 1109.75 L199.075 1105.81 Z" fill="#000000" fill-rule="nonzero" fill-opacity="1"></path><path clip-path="url(#clip500)" d="M230.463 1105.81 L248.82 1105.81 L248.82 1109.75 L234.746 1109.75 L234.746 1118.22 Q235.764 1117.87 236.783 1117.71 Q237.801 1117.53 238.82 1117.53 Q244.607 1117.53 247.986 1120.7 Q251.366 1123.87 251.366 1129.28 Q251.366 1134.86 247.894 1137.97 Q244.421 1141.04 238.102 1141.04 Q235.926 1141.04 233.658 1140.67 Q231.412 1140.3 229.005 1139.56 L229.005 1134.86 Q231.088 1136 233.31 1136.55 Q235.533 1137.11 238.009 1137.11 Q242.014 1137.11 244.352 1135 Q246.69 1132.9 246.69 1129.28 Q246.69 1125.67 244.352 1123.57 Q242.014 1121.46 238.009 1121.46 Q236.135 1121.46 234.26 1121.88 Q232.408 1122.29 230.463 1123.17 L230.463 1105.81 Z" fill="#000000" fill-rule="nonzero" fill-opacity="1"></path><path clip-path="url(#clip500)" d="M114.26 854.042 L143.936 854.042 L143.936 857.977 L114.26 857.977 L114.26 854.042 Z" fill="#000000" fill-rule="nonzero" fill-opacity="1"></path><path clip-path="url(#clip500)" d="M168.195 852.236 Q171.552 852.954 173.427 855.222 Q175.325 857.491 175.325 860.824 Q175.325 865.94 171.806 868.741 Q168.288 871.542 161.806 871.542 Q159.63 871.542 157.315 871.102 Q155.024 870.685 152.57 869.829 L152.57 865.315 Q154.515 866.449 156.829 867.028 Q159.144 867.607 161.667 867.607 Q166.065 867.607 168.357 865.87 Q170.672 864.134 170.672 860.824 Q170.672 857.769 168.519 856.056 Q166.39 854.32 162.57 854.32 L158.542 854.32 L158.542 850.477 L162.755 850.477 Q166.204 850.477 168.033 849.111 Q169.862 847.722 169.862 845.13 Q169.862 842.468 167.964 841.056 Q166.089 839.621 162.57 839.621 Q160.649 839.621 158.45 840.037 Q156.251 840.454 153.612 841.334 L153.612 837.167 Q156.274 836.426 158.589 836.056 Q160.927 835.685 162.987 835.685 Q168.311 835.685 171.413 838.116 Q174.514 840.523 174.514 844.644 Q174.514 847.514 172.871 849.505 Q171.227 851.472 168.195 852.236 Z" fill="#000000" fill-rule="nonzero" fill-opacity="1"></path><path clip-path="url(#clip500)" d="M184.19 864.991 L189.075 864.991 L189.075 870.87 L184.19 870.87 L184.19 864.991 Z" fill="#000000" fill-rule="nonzero" fill-opacity="1"></path><path clip-path="url(#clip500)" d="M199.306 836.31 L217.662 836.31 L217.662 840.246 L203.588 840.246 L203.588 848.718 Q204.607 848.371 205.625 848.208 Q206.644 848.023 207.662 848.023 Q213.449 848.023 216.829 851.195 Q220.209 854.366 220.209 859.783 Q220.209 865.361 216.736 868.463 Q213.264 871.542 206.945 871.542 Q204.769 871.542 202.5 871.171 Q200.255 870.801 197.848 870.06 L197.848 865.361 Q199.931 866.495 202.153 867.051 Q204.375 867.607 206.852 867.607 Q210.857 867.607 213.195 865.5 Q215.533 863.394 215.533 859.783 Q215.533 856.171 213.195 854.065 Q210.857 851.958 206.852 851.958 Q204.977 851.958 203.102 852.375 Q201.25 852.792 199.306 853.671 L199.306 836.31 Z" fill="#000000" fill-rule="nonzero" fill-opacity="1"></path><path clip-path="url(#clip500)" d="M239.422 839.389 Q235.81 839.389 233.982 842.954 Q232.176 846.496 232.176 853.625 Q232.176 860.732 233.982 864.296 Q235.81 867.838 239.422 867.838 Q243.056 867.838 244.861 864.296 Q246.69 860.732 246.69 853.625 Q246.69 846.496 244.861 842.954 Q243.056 839.389 239.422 839.389 M239.422 835.685 Q245.232 835.685 248.287 840.292 Q251.366 844.875 251.366 853.625 Q251.366 862.352 248.287 866.958 Q245.232 871.542 239.422 871.542 Q233.611 871.542 230.533 866.958 Q227.477 862.352 227.477 853.625 Q227.477 844.875 230.533 840.292 Q233.611 835.685 239.422 835.685 Z" fill="#000000" fill-rule="nonzero" fill-opacity="1"></path><path clip-path="url(#clip500)" d="M115.256 584.539 L144.931 584.539 L144.931 588.475 L115.256 588.475 L115.256 584.539 Z" fill="#000000" fill-rule="nonzero" fill-opacity="1"></path><path clip-path="url(#clip500)" d="M169.19 582.734 Q172.547 583.452 174.422 585.72 Q176.32 587.989 176.32 591.322 Q176.32 596.438 172.802 599.238 Q169.283 602.039 162.802 602.039 Q160.626 602.039 158.311 601.6 Q156.019 601.183 153.566 600.326 L153.566 595.813 Q155.51 596.947 157.825 597.526 Q160.14 598.104 162.663 598.104 Q167.061 598.104 169.352 596.368 Q171.667 594.632 171.667 591.322 Q171.667 588.266 169.514 586.553 Q167.385 584.817 163.565 584.817 L159.538 584.817 L159.538 580.975 L163.751 580.975 Q167.2 580.975 169.028 579.609 Q170.857 578.22 170.857 575.627 Q170.857 572.965 168.959 571.553 Q167.084 570.118 163.565 570.118 Q161.644 570.118 159.445 570.535 Q157.246 570.952 154.607 571.831 L154.607 567.665 Q157.269 566.924 159.584 566.553 Q161.922 566.183 163.982 566.183 Q169.306 566.183 172.408 568.614 Q175.51 571.021 175.51 575.141 Q175.51 578.012 173.866 580.002 Q172.223 581.97 169.19 582.734 Z" fill="#000000" fill-rule="nonzero" fill-opacity="1"></path><path clip-path="url(#clip500)" d="M185.186 595.488 L190.07 595.488 L190.07 601.368 L185.186 601.368 L185.186 595.488 Z" fill="#000000" fill-rule="nonzero" fill-opacity="1"></path><path clip-path="url(#clip500)" d="M204.283 597.433 L220.602 597.433 L220.602 601.368 L198.658 601.368 L198.658 597.433 Q201.32 594.678 205.903 590.049 Q210.51 585.396 211.69 584.053 Q213.936 581.53 214.815 579.794 Q215.718 578.035 215.718 576.345 Q215.718 573.59 213.774 571.854 Q211.852 570.118 208.75 570.118 Q206.551 570.118 204.098 570.882 Q201.667 571.646 198.889 573.197 L198.889 568.475 Q201.713 567.34 204.167 566.762 Q206.621 566.183 208.658 566.183 Q214.028 566.183 217.223 568.868 Q220.417 571.553 220.417 576.044 Q220.417 578.174 219.607 580.095 Q218.82 581.993 216.713 584.586 Q216.135 585.257 213.033 588.475 Q209.931 591.669 204.283 597.433 Z" fill="#000000" fill-rule="nonzero" fill-opacity="1"></path><path clip-path="url(#clip500)" d="M230.463 566.808 L248.82 566.808 L248.82 570.743 L234.746 570.743 L234.746 579.215 Q235.764 578.868 236.783 578.706 Q237.801 578.521 238.82 578.521 Q244.607 578.521 247.986 581.692 Q251.366 584.864 251.366 590.28 Q251.366 595.859 247.894 598.961 Q244.421 602.039 238.102 602.039 Q235.926 602.039 233.658 601.669 Q231.412 601.299 229.005 600.558 L229.005 595.859 Q231.088 596.993 233.31 597.549 Q235.533 598.104 238.009 598.104 Q242.014 598.104 244.352 595.998 Q246.69 593.891 246.69 590.28 Q246.69 586.669 244.352 584.563 Q242.014 582.456 238.009 582.456 Q236.135 582.456 234.26 582.873 Q232.408 583.289 230.463 584.169 L230.463 566.808 Z" fill="#000000" fill-rule="nonzero" fill-opacity="1"></path><path clip-path="url(#clip500)" d="M114.26 315.037 L143.936 315.037 L143.936 318.972 L114.26 318.972 L114.26 315.037 Z" fill="#000000" fill-rule="nonzero" fill-opacity="1"></path><path clip-path="url(#clip500)" d="M168.195 313.232 Q171.552 313.949 173.427 316.218 Q175.325 318.486 175.325 321.819 Q175.325 326.935 171.806 329.736 Q168.288 332.537 161.806 332.537 Q159.63 332.537 157.315 332.097 Q155.024 331.681 152.57 330.824 L152.57 326.31 Q154.515 327.444 156.829 328.023 Q159.144 328.602 161.667 328.602 Q166.065 328.602 168.357 326.866 Q170.672 325.13 170.672 321.819 Q170.672 318.764 168.519 317.051 Q166.39 315.315 162.57 315.315 L158.542 315.315 L158.542 311.472 L162.755 311.472 Q166.204 311.472 168.033 310.107 Q169.862 308.718 169.862 306.125 Q169.862 303.463 167.964 302.051 Q166.089 300.616 162.57 300.616 Q160.649 300.616 158.45 301.033 Q156.251 301.449 153.612 302.329 L153.612 298.162 Q156.274 297.421 158.589 297.051 Q160.927 296.681 162.987 296.681 Q168.311 296.681 171.413 299.111 Q174.514 301.519 174.514 305.639 Q174.514 308.509 172.871 310.5 Q171.227 312.468 168.195 313.232 Z" fill="#000000" fill-rule="nonzero" fill-opacity="1"></path><path clip-path="url(#clip500)" d="M184.19 325.986 L189.075 325.986 L189.075 331.866 L184.19 331.866 L184.19 325.986 Z" fill="#000000" fill-rule="nonzero" fill-opacity="1"></path><path clip-path="url(#clip500)" d="M209.26 300.384 Q205.649 300.384 203.82 303.949 Q202.014 307.491 202.014 314.62 Q202.014 321.727 203.82 325.292 Q205.649 328.833 209.26 328.833 Q212.894 328.833 214.699 325.292 Q216.528 321.727 216.528 314.62 Q216.528 307.491 214.699 303.949 Q212.894 300.384 209.26 300.384 M209.26 296.681 Q215.07 296.681 218.125 301.287 Q221.204 305.871 221.204 314.62 Q221.204 323.347 218.125 327.954 Q215.07 332.537 209.26 332.537 Q203.449 332.537 200.371 327.954 Q197.315 323.347 197.315 314.62 Q197.315 305.871 200.371 301.287 Q203.449 296.681 209.26 296.681 Z" fill="#000000" fill-rule="nonzero" fill-opacity="1"></path><path clip-path="url(#clip500)" d="M239.422 300.384 Q235.81 300.384 233.982 303.949 Q232.176 307.491 232.176 314.62 Q232.176 321.727 233.982 325.292 Q235.81 328.833 239.422 328.833 Q243.056 328.833 244.861 325.292 Q246.69 321.727 246.69 314.62 Q246.69 307.491 244.861 303.949 Q243.056 300.384 239.422 300.384 M239.422 296.681 Q245.232 296.681 248.287 301.287 Q251.366 305.871 251.366 314.62 Q251.366 323.347 248.287 327.954 Q245.232 332.537 239.422 332.537 Q233.611 332.537 230.533 327.954 Q227.477 323.347 227.477 314.62 Q227.477 305.871 230.533 301.287 Q233.611 296.681 239.422 296.681 Z" fill="#000000" fill-rule="nonzero" fill-opacity="1"></path><path clip-path="url(#clip500)" d="M14.479 885.268 L14.479 879.411 L64.0042 879.411 L64.0042 885.268 L14.479 885.268 Z" fill="#000000" fill-rule="nonzero" fill-opacity="1"></path><path clip-path="url(#clip500)" d="M32.4621 853.344 Q32.4621 858.054 36.1542 860.791 Q39.8145 863.529 46.212 863.529 Q52.6095 863.529 56.3017 860.823 Q59.9619 858.086 59.9619 853.344 Q59.9619 848.665 56.2698 845.928 Q52.5777 843.19 46.212 843.19 Q39.8781 843.19 36.186 845.928 Q32.4621 848.665 32.4621 853.344 M27.4968 853.344 Q27.4968 845.705 32.4621 841.344 Q37.4273 836.984 46.212 836.984 Q54.9649 836.984 59.9619 841.344 Q64.9272 845.705 64.9272 853.344 Q64.9272 861.014 59.9619 865.375 Q54.9649 869.703 46.212 869.703 Q37.4273 869.703 32.4621 865.375 Q27.4968 861.014 27.4968 853.344 Z" fill="#000000" fill-rule="nonzero" fill-opacity="1"></path><path clip-path="url(#clip500)" d="M45.7664 803.818 Q39.4007 803.818 35.8996 806.46 Q32.3984 809.07 32.3984 813.813 Q32.3984 818.523 35.8996 821.165 Q39.4007 823.775 45.7664 823.775 Q52.1003 823.775 55.6014 821.165 Q59.1026 818.523 59.1026 813.813 Q59.1026 809.07 55.6014 806.46 Q52.1003 803.818 45.7664 803.818 M59.58 797.962 Q68.683 797.962 73.1071 802.004 Q77.5631 806.046 77.5631 814.385 Q77.5631 817.473 77.0857 820.21 Q76.6401 822.947 75.6852 825.525 L69.9879 825.525 Q71.3884 822.947 72.0568 820.433 Q72.7252 817.918 72.7252 815.308 Q72.7252 809.548 69.7015 806.683 Q66.7096 803.818 60.6303 803.818 L57.7339 803.818 Q60.885 805.633 62.4446 808.465 Q64.0042 811.298 64.0042 815.245 Q64.0042 821.801 59.0071 825.812 Q54.01 829.822 45.7664 829.822 Q37.491 829.822 32.4939 825.812 Q27.4968 821.801 27.4968 815.245 Q27.4968 811.298 29.0564 808.465 Q30.616 805.633 33.7671 803.818 L28.3562 803.818 L28.3562 797.962 L59.58 797.962 Z" fill="#000000" fill-rule="nonzero" fill-opacity="1"></path><path clip-path="url(#clip500)" d="M58.5933 783.957 L58.5933 773.454 L22.3406 773.454 L24.6323 784.88 L18.7758 784.88 L16.4842 773.518 L16.4842 767.088 L58.5933 767.088 L58.5933 756.585 L64.0042 756.585 L64.0042 783.957 L58.5933 783.957 Z" fill="#000000" fill-rule="nonzero" fill-opacity="1"></path><path clip-path="url(#clip500)" d="M20.7174 729.849 Q20.7174 734.814 25.6189 737.329 Q30.4887 739.811 40.2919 739.811 Q50.0633 739.811 54.9649 737.329 Q59.8346 734.814 59.8346 729.849 Q59.8346 724.852 54.9649 722.369 Q50.0633 719.855 40.2919 719.855 Q30.4887 719.855 25.6189 722.369 Q20.7174 724.852 20.7174 729.849 M15.6248 729.849 Q15.6248 721.86 21.9587 717.659 Q28.2607 713.425 40.2919 713.425 Q52.2913 713.425 58.6251 717.659 Q64.9272 721.86 64.9272 729.849 Q64.9272 737.838 58.6251 742.071 Q52.2913 746.272 40.2919 746.272 Q28.2607 746.272 21.9587 742.071 Q15.6248 737.838 15.6248 729.849 Z" fill="#000000" fill-rule="nonzero" fill-opacity="1"></path><path clip-path="url(#clip500)" d="M14.5426 688.886 Q21.8632 693.151 29.0246 695.219 Q36.186 697.288 43.5384 697.288 Q50.8908 697.288 58.1159 695.219 Q65.3091 693.119 72.5979 688.886 L72.5979 693.978 Q65.1182 698.752 57.8931 701.14 Q50.668 703.495 43.5384 703.495 Q36.4406 703.495 29.2474 701.14 Q22.0542 698.784 14.5426 693.978 L14.5426 688.886 Z" fill="#000000" fill-rule="nonzero" fill-opacity="1"></path><path clip-path="url(#clip500)" d="M34.0217 652.346 Q33.6079 653.524 33.2896 654.702 Q32.4621 657.853 32.4621 661.227 Q32.4621 667.051 35.6131 670.298 Q38.5413 673.321 43.9204 673.894 L43.9204 652.346 L48.5037 652.346 L48.5037 673.894 Q53.8827 673.321 56.8109 670.298 Q59.9619 667.051 59.9619 661.227 Q59.9619 657.152 59.1344 654.702 L58.3387 652.346 L63.654 652.346 L64.227 654.861 Q64.9272 658.171 64.9272 661.577 Q64.9272 670.107 59.9619 675.072 Q54.9967 680.069 46.212 680.069 Q37.4273 680.069 32.4621 675.072 Q27.4968 670.107 27.4968 661.577 Q27.4968 658.362 28.1971 654.861 Q28.4517 653.588 28.8336 652.346 L34.0217 652.346 Z" fill="#000000" fill-rule="nonzero" fill-opacity="1"></path><path clip-path="url(#clip500)" d="M28.3562 607.786 L45.7028 620.677 L64.0042 607.118 L64.0042 614.025 L49.9996 624.401 L64.0042 634.777 L64.0042 641.684 L45.3526 627.838 L28.3562 640.506 L28.3562 633.599 L41.0558 624.146 L28.3562 614.693 L28.3562 607.786 Z" fill="#000000" fill-rule="nonzero" fill-opacity="1"></path><path clip-path="url(#clip500)" d="M14.5426 599.766 L14.5426 594.673 Q22.0542 589.899 29.2474 587.543 Q36.4406 585.156 43.5384 585.156 Q50.668 585.156 57.8931 587.543 Q65.1182 589.899 72.5979 594.673 L72.5979 599.766 Q65.3091 595.532 58.1159 593.464 Q50.8908 591.363 43.5384 591.363 Q36.186 591.363 29.0246 593.464 Q21.8632 595.532 14.5426 599.766 Z" fill="#000000" fill-rule="nonzero" fill-opacity="1"></path><circle clip-path="url(#clip502)" cx="311.858" cy="86.1857" r="14.4" fill="#009af9" fill-rule="evenodd" fill-opacity="1" stroke="#000000" stroke-opacity="1" stroke-width="3.2"></circle>
<circle clip-path="url(#clip502)" cx="720.061" cy="734.277" r="14.4" fill="#009af9" fill-rule="evenodd" fill-opacity="1" stroke="#000000" stroke-opacity="1" stroke-width="3.2"></circle>
<circle clip-path="url(#clip502)" cx="1128.26" cy="1382.94" r="14.4" fill="#009af9" fill-rule="evenodd" fill-opacity="1" stroke="#000000" stroke-opacity="1" stroke-width="3.2"></circle>
<polyline clip-path="url(#clip502)" style="stroke:#e26f46; stroke-linecap:round; stroke-linejoin:round; stroke-width:4; stroke-opacity:1; fill:none" points="311.858,86.1857 720.061,410.699 1128.26,735.212 "></polyline>
<polyline clip-path="url(#clip502)" style="stroke:#3da44d; stroke-linecap:round; stroke-linejoin:round; stroke-width:4; stroke-opacity:1; fill:none" points="311.858,86.1857 720.061,735.212 1128.26,1384.24 "></polyline>
<path clip-path="url(#clip500)" d="M976.931 300.469 L1123.91 300.469 L1123.91 93.1086 L976.931 93.1086  Z" fill="#ffffff" fill-rule="evenodd" fill-opacity="1"></path>
<polyline clip-path="url(#clip500)" style="stroke:#000000; stroke-linecap:round; stroke-linejoin:round; stroke-width:4; stroke-opacity:1; fill:none" points="976.931,300.469 1123.91,300.469 1123.91,93.1086 976.931,93.1086 976.931,300.469 "></polyline>
<circle clip-path="url(#clip500)" cx="1015.39" cy="144.949" r="20.48" fill="#009af9" fill-rule="evenodd" fill-opacity="1" stroke="#000000" stroke-opacity="1" stroke-width="4.55111"></circle>
<path clip-path="url(#clip500)" d="M1074.02 140.423 Q1073.16 140.122 1072.3 139.891 Q1070.01 139.289 1067.56 139.289 Q1063.32 139.289 1060.96 141.581 Q1058.76 143.71 1058.35 147.622 L1074.02 147.622 L1074.02 150.956 L1058.35 150.956 Q1058.76 154.868 1060.96 156.997 Q1063.32 159.289 1067.56 159.289 Q1070.52 159.289 1072.3 158.687 L1074.02 158.108 L1074.02 161.974 L1072.19 162.391 Q1069.78 162.9 1067.3 162.9 Q1061.1 162.9 1057.49 159.289 Q1053.85 155.678 1053.85 149.289 Q1053.85 142.9 1057.49 139.289 Q1061.1 135.678 1067.3 135.678 Q1069.64 135.678 1072.19 136.187 Q1073.11 136.372 1074.02 136.65 L1074.02 140.423 Z" fill="#000000" fill-rule="nonzero" fill-opacity="1"></path><polyline clip-path="url(#clip500)" style="stroke:#e26f46; stroke-linecap:round; stroke-linejoin:round; stroke-width:4; stroke-opacity:1; fill:none" points="986.547,196.789 1044.24,196.789 "></polyline>
<path clip-path="url(#clip500)" d="M1069.87 182.68 Q1064.78 182.68 1061.77 186.476 Q1058.79 190.272 1058.79 196.823 Q1058.79 203.351 1061.77 207.147 Q1064.78 210.944 1069.87 210.944 Q1074.97 210.944 1077.93 207.147 Q1080.91 203.351 1080.91 196.823 Q1080.91 190.272 1077.93 186.476 Q1074.97 182.68 1069.87 182.68 M1069.87 178.884 Q1077.14 178.884 1081.49 183.768 Q1085.85 188.629 1085.85 196.823 Q1085.85 204.995 1081.49 209.879 Q1077.14 214.74 1069.87 214.74 Q1062.58 214.74 1058.21 209.879 Q1053.85 205.018 1053.85 196.823 Q1053.85 188.629 1058.21 183.768 Q1062.58 178.884 1069.87 178.884 Z" fill="#000000" fill-rule="nonzero" fill-opacity="1"></path><path clip-path="url(#clip500)" d="M1094.39 210.133 L1102.03 210.133 L1102.03 183.768 L1093.72 185.435 L1093.72 181.175 L1101.98 179.509 L1106.66 179.509 L1106.66 210.133 L1114.29 210.133 L1114.29 214.069 L1094.39 214.069 L1094.39 210.133 Z" fill="#000000" fill-rule="nonzero" fill-opacity="1"></path><polyline clip-path="url(#clip500)" style="stroke:#3da44d; stroke-linecap:round; stroke-linejoin:round; stroke-width:4; stroke-opacity:1; fill:none" points="986.547,248.629 1044.24,248.629 "></polyline>
<path clip-path="url(#clip500)" d="M1069.87 234.52 Q1064.78 234.52 1061.77 238.316 Q1058.79 242.112 1058.79 248.663 Q1058.79 255.191 1061.77 258.987 Q1064.78 262.784 1069.87 262.784 Q1074.97 262.784 1077.93 258.987 Q1080.91 255.191 1080.91 248.663 Q1080.91 242.112 1077.93 238.316 Q1074.97 234.52 1069.87 234.52 M1069.87 230.724 Q1077.14 230.724 1081.49 235.608 Q1085.85 240.469 1085.85 248.663 Q1085.85 256.835 1081.49 261.719 Q1077.14 266.58 1069.87 266.58 Q1062.58 266.58 1058.21 261.719 Q1053.85 256.858 1053.85 248.663 Q1053.85 240.469 1058.21 235.608 Q1062.58 230.724 1069.87 230.724 Z" fill="#000000" fill-rule="nonzero" fill-opacity="1"></path><path clip-path="url(#clip500)" d="M1097.6 261.973 L1113.92 261.973 L1113.92 265.909 L1091.98 265.909 L1091.98 261.973 Q1094.64 259.219 1099.22 254.589 Q1103.83 249.936 1105.01 248.594 Q1107.26 246.071 1108.14 244.335 Q1109.04 242.575 1109.04 240.886 Q1109.04 238.131 1107.1 236.395 Q1105.17 234.659 1102.07 234.659 Q1099.87 234.659 1097.42 235.423 Q1094.99 236.187 1092.21 237.737 L1092.21 233.015 Q1095.03 231.881 1097.49 231.302 Q1099.94 230.724 1101.98 230.724 Q1107.35 230.724 1110.54 233.409 Q1113.74 236.094 1113.74 240.585 Q1113.74 242.714 1112.93 244.636 Q1112.14 246.534 1110.03 249.126 Q1109.46 249.798 1106.35 253.015 Q1103.25 256.21 1097.6 261.973 Z" fill="#000000" fill-rule="nonzero" fill-opacity="1"></path><path clip-path="url(#clip500)" d="M1487.37 1423.18 L2352.76 1423.18 L2352.76 47.2441 L1487.37 47.2441  Z" fill="#ffffff" fill-rule="evenodd" fill-opacity="1"></path>
<defs>
  <clipPath id="clip503">
    <rect x="1487" y="47" width="866" height="1377"></rect>
  </clipPath>
</defs>
<polyline clip-path="url(#clip503)" style="stroke:#000000; stroke-linecap:round; stroke-linejoin:round; stroke-width:2; stroke-opacity:0.1; fill:none" points="1506.27,1423.18 1506.27,47.2441 "></polyline>
<polyline clip-path="url(#clip503)" style="stroke:#000000; stroke-linecap:round; stroke-linejoin:round; stroke-width:2; stroke-opacity:0.1; fill:none" points="1641.87,1423.18 1641.87,47.2441 "></polyline>
<polyline clip-path="url(#clip503)" style="stroke:#000000; stroke-linecap:round; stroke-linejoin:round; stroke-width:2; stroke-opacity:0.1; fill:none" points="1777.48,1423.18 1777.48,47.2441 "></polyline>
<polyline clip-path="url(#clip503)" style="stroke:#000000; stroke-linecap:round; stroke-linejoin:round; stroke-width:2; stroke-opacity:0.1; fill:none" points="1913.08,1423.18 1913.08,47.2441 "></polyline>
<polyline clip-path="url(#clip503)" style="stroke:#000000; stroke-linecap:round; stroke-linejoin:round; stroke-width:2; stroke-opacity:0.1; fill:none" points="2048.68,1423.18 2048.68,47.2441 "></polyline>
<polyline clip-path="url(#clip503)" style="stroke:#000000; stroke-linecap:round; stroke-linejoin:round; stroke-width:2; stroke-opacity:0.1; fill:none" points="2184.28,1423.18 2184.28,47.2441 "></polyline>
<polyline clip-path="url(#clip503)" style="stroke:#000000; stroke-linecap:round; stroke-linejoin:round; stroke-width:2; stroke-opacity:0.1; fill:none" points="2319.88,1423.18 2319.88,47.2441 "></polyline>
<polyline clip-path="url(#clip500)" style="stroke:#000000; stroke-linecap:round; stroke-linejoin:round; stroke-width:4; stroke-opacity:1; fill:none" points="1487.37,1423.18 2352.76,1423.18 "></polyline>
<polyline clip-path="url(#clip500)" style="stroke:#000000; stroke-linecap:round; stroke-linejoin:round; stroke-width:4; stroke-opacity:1; fill:none" points="1506.27,1423.18 1506.27,1404.28 "></polyline>
<polyline clip-path="url(#clip500)" style="stroke:#000000; stroke-linecap:round; stroke-linejoin:round; stroke-width:4; stroke-opacity:1; fill:none" points="1641.87,1423.18 1641.87,1404.28 "></polyline>
<polyline clip-path="url(#clip500)" style="stroke:#000000; stroke-linecap:round; stroke-linejoin:round; stroke-width:4; stroke-opacity:1; fill:none" points="1777.48,1423.18 1777.48,1404.28 "></polyline>
<polyline clip-path="url(#clip500)" style="stroke:#000000; stroke-linecap:round; stroke-linejoin:round; stroke-width:4; stroke-opacity:1; fill:none" points="1913.08,1423.18 1913.08,1404.28 "></polyline>
<polyline clip-path="url(#clip500)" style="stroke:#000000; stroke-linecap:round; stroke-linejoin:round; stroke-width:4; stroke-opacity:1; fill:none" points="2048.68,1423.18 2048.68,1404.28 "></polyline>
<polyline clip-path="url(#clip500)" style="stroke:#000000; stroke-linecap:round; stroke-linejoin:round; stroke-width:4; stroke-opacity:1; fill:none" points="2184.28,1423.18 2184.28,1404.28 "></polyline>
<polyline clip-path="url(#clip500)" style="stroke:#000000; stroke-linecap:round; stroke-linejoin:round; stroke-width:4; stroke-opacity:1; fill:none" points="2319.88,1423.18 2319.88,1404.28 "></polyline>
<path clip-path="url(#clip500)" d="M1487.71 1455.09 L1475.9 1473.54 L1487.71 1473.54 L1487.71 1455.09 M1486.48 1451.02 L1492.36 1451.02 L1492.36 1473.54 L1497.29 1473.54 L1497.29 1477.43 L1492.36 1477.43 L1492.36 1485.58 L1487.71 1485.58 L1487.71 1477.43 L1472.1 1477.43 L1472.1 1472.92 L1486.48 1451.02 Z" fill="#000000" fill-rule="nonzero" fill-opacity="1"></path><path clip-path="url(#clip500)" d="M1505.02 1479.7 L1509.91 1479.7 L1509.91 1485.58 L1505.02 1485.58 L1505.02 1479.7 Z" fill="#000000" fill-rule="nonzero" fill-opacity="1"></path><path clip-path="url(#clip500)" d="M1524.12 1481.64 L1540.44 1481.64 L1540.44 1485.58 L1518.49 1485.58 L1518.49 1481.64 Q1521.16 1478.89 1525.74 1474.26 Q1530.35 1469.61 1531.53 1468.27 Q1533.77 1465.74 1534.65 1464.01 Q1535.55 1462.25 1535.55 1460.56 Q1535.55 1457.8 1533.61 1456.07 Q1531.69 1454.33 1528.59 1454.33 Q1526.39 1454.33 1523.93 1455.09 Q1521.5 1455.86 1518.72 1457.41 L1518.72 1452.69 Q1521.55 1451.55 1524 1450.97 Q1526.46 1450.39 1528.49 1450.39 Q1533.86 1450.39 1537.06 1453.08 Q1540.25 1455.77 1540.25 1460.26 Q1540.25 1462.39 1539.44 1464.31 Q1538.66 1466.2 1536.55 1468.8 Q1535.97 1469.47 1532.87 1472.69 Q1529.77 1475.88 1524.12 1481.64 Z" fill="#000000" fill-rule="nonzero" fill-opacity="1"></path><path clip-path="url(#clip500)" d="M1622.83 1455.09 L1611.03 1473.54 L1622.83 1473.54 L1622.83 1455.09 M1621.61 1451.02 L1627.49 1451.02 L1627.49 1473.54 L1632.42 1473.54 L1632.42 1477.43 L1627.49 1477.43 L1627.49 1485.58 L1622.83 1485.58 L1622.83 1477.43 L1607.23 1477.43 L1607.23 1472.92 L1621.61 1451.02 Z" fill="#000000" fill-rule="nonzero" fill-opacity="1"></path><path clip-path="url(#clip500)" d="M1640.15 1479.7 L1645.03 1479.7 L1645.03 1485.58 L1640.15 1485.58 L1640.15 1479.7 Z" fill="#000000" fill-rule="nonzero" fill-opacity="1"></path><path clip-path="url(#clip500)" d="M1669.38 1466.95 Q1672.74 1467.66 1674.62 1469.93 Q1676.51 1472.2 1676.51 1475.53 Q1676.51 1480.65 1673 1483.45 Q1669.48 1486.25 1663 1486.25 Q1660.82 1486.25 1658.51 1485.81 Q1656.21 1485.39 1653.76 1484.54 L1653.76 1480.02 Q1655.7 1481.16 1658.02 1481.74 Q1660.33 1482.32 1662.86 1482.32 Q1667.26 1482.32 1669.55 1480.58 Q1671.86 1478.84 1671.86 1475.53 Q1671.86 1472.48 1669.71 1470.77 Q1667.58 1469.03 1663.76 1469.03 L1659.73 1469.03 L1659.73 1465.19 L1663.94 1465.19 Q1667.39 1465.19 1669.22 1463.82 Q1671.05 1462.43 1671.05 1459.84 Q1671.05 1457.18 1669.15 1455.77 Q1667.28 1454.33 1663.76 1454.33 Q1661.84 1454.33 1659.64 1454.75 Q1657.44 1455.16 1654.8 1456.04 L1654.8 1451.88 Q1657.46 1451.14 1659.78 1450.77 Q1662.12 1450.39 1664.18 1450.39 Q1669.5 1450.39 1672.6 1452.83 Q1675.7 1455.23 1675.7 1459.35 Q1675.7 1462.22 1674.06 1464.21 Q1672.42 1466.18 1669.38 1466.95 Z" fill="#000000" fill-rule="nonzero" fill-opacity="1"></path><path clip-path="url(#clip500)" d="M1757.87 1455.09 L1746.06 1473.54 L1757.87 1473.54 L1757.87 1455.09 M1756.64 1451.02 L1762.52 1451.02 L1762.52 1473.54 L1767.45 1473.54 L1767.45 1477.43 L1762.52 1477.43 L1762.52 1485.58 L1757.87 1485.58 L1757.87 1477.43 L1742.27 1477.43 L1742.27 1472.92 L1756.64 1451.02 Z" fill="#000000" fill-rule="nonzero" fill-opacity="1"></path><path clip-path="url(#clip500)" d="M1775.18 1479.7 L1780.07 1479.7 L1780.07 1485.58 L1775.18 1485.58 L1775.18 1479.7 Z" fill="#000000" fill-rule="nonzero" fill-opacity="1"></path><path clip-path="url(#clip500)" d="M1803.1 1455.09 L1791.29 1473.54 L1803.1 1473.54 L1803.1 1455.09 M1801.87 1451.02 L1807.75 1451.02 L1807.75 1473.54 L1812.68 1473.54 L1812.68 1477.43 L1807.75 1477.43 L1807.75 1485.58 L1803.1 1485.58 L1803.1 1477.43 L1787.5 1477.43 L1787.5 1472.92 L1801.87 1451.02 Z" fill="#000000" fill-rule="nonzero" fill-opacity="1"></path><path clip-path="url(#clip500)" d="M1894.21 1455.09 L1882.41 1473.54 L1894.21 1473.54 L1894.21 1455.09 M1892.98 1451.02 L1898.86 1451.02 L1898.86 1473.54 L1903.8 1473.54 L1903.8 1477.43 L1898.86 1477.43 L1898.86 1485.58 L1894.21 1485.58 L1894.21 1477.43 L1878.61 1477.43 L1878.61 1472.92 L1892.98 1451.02 Z" fill="#000000" fill-rule="nonzero" fill-opacity="1"></path><path clip-path="url(#clip500)" d="M1911.53 1479.7 L1916.41 1479.7 L1916.41 1485.58 L1911.53 1485.58 L1911.53 1479.7 Z" fill="#000000" fill-rule="nonzero" fill-opacity="1"></path><path clip-path="url(#clip500)" d="M1926.64 1451.02 L1945 1451.02 L1945 1454.96 L1930.92 1454.96 L1930.92 1463.43 Q1931.94 1463.08 1932.96 1462.92 Q1933.98 1462.73 1935 1462.73 Q1940.79 1462.73 1944.17 1465.9 Q1947.54 1469.08 1947.54 1474.49 Q1947.54 1480.07 1944.07 1483.17 Q1940.6 1486.25 1934.28 1486.25 Q1932.11 1486.25 1929.84 1485.88 Q1927.59 1485.51 1925.18 1484.77 L1925.18 1480.07 Q1927.27 1481.2 1929.49 1481.76 Q1931.71 1482.32 1934.19 1482.32 Q1938.19 1482.32 1940.53 1480.21 Q1942.87 1478.1 1942.87 1474.49 Q1942.87 1470.88 1940.53 1468.77 Q1938.19 1466.67 1934.19 1466.67 Q1932.31 1466.67 1930.44 1467.08 Q1928.59 1467.5 1926.64 1468.38 L1926.64 1451.02 Z" fill="#000000" fill-rule="nonzero" fill-opacity="1"></path><path clip-path="url(#clip500)" d="M2029.24 1455.09 L2017.43 1473.54 L2029.24 1473.54 L2029.24 1455.09 M2028.01 1451.02 L2033.89 1451.02 L2033.89 1473.54 L2038.82 1473.54 L2038.82 1477.43 L2033.89 1477.43 L2033.89 1485.58 L2029.24 1485.58 L2029.24 1477.43 L2013.63 1477.43 L2013.63 1472.92 L2028.01 1451.02 Z" fill="#000000" fill-rule="nonzero" fill-opacity="1"></path><path clip-path="url(#clip500)" d="M2046.55 1479.7 L2051.43 1479.7 L2051.43 1485.58 L2046.55 1485.58 L2046.55 1479.7 Z" fill="#000000" fill-rule="nonzero" fill-opacity="1"></path><path clip-path="url(#clip500)" d="M2072.2 1466.44 Q2069.05 1466.44 2067.2 1468.59 Q2065.37 1470.74 2065.37 1474.49 Q2065.37 1478.22 2067.2 1480.39 Q2069.05 1482.55 2072.2 1482.55 Q2075.35 1482.55 2077.17 1480.39 Q2079.03 1478.22 2079.03 1474.49 Q2079.03 1470.74 2077.17 1468.59 Q2075.35 1466.44 2072.2 1466.44 M2081.48 1451.78 L2081.48 1456.04 Q2079.72 1455.21 2077.92 1454.77 Q2076.13 1454.33 2074.37 1454.33 Q2069.74 1454.33 2067.29 1457.45 Q2064.86 1460.58 2064.51 1466.9 Q2065.88 1464.89 2067.94 1463.82 Q2070 1462.73 2072.48 1462.73 Q2077.68 1462.73 2080.69 1465.9 Q2083.73 1469.05 2083.73 1474.49 Q2083.73 1479.82 2080.58 1483.03 Q2077.43 1486.25 2072.2 1486.25 Q2066.2 1486.25 2063.03 1481.67 Q2059.86 1477.06 2059.86 1468.33 Q2059.86 1460.14 2063.75 1455.28 Q2067.64 1450.39 2074.19 1450.39 Q2075.95 1450.39 2077.73 1450.74 Q2079.54 1451.09 2081.48 1451.78 Z" fill="#000000" fill-rule="nonzero" fill-opacity="1"></path><path clip-path="url(#clip500)" d="M2165.37 1455.09 L2153.56 1473.54 L2165.37 1473.54 L2165.37 1455.09 M2164.14 1451.02 L2170.02 1451.02 L2170.02 1473.54 L2174.95 1473.54 L2174.95 1477.43 L2170.02 1477.43 L2170.02 1485.58 L2165.37 1485.58 L2165.37 1477.43 L2149.77 1477.43 L2149.77 1472.92 L2164.14 1451.02 Z" fill="#000000" fill-rule="nonzero" fill-opacity="1"></path><path clip-path="url(#clip500)" d="M2182.68 1479.7 L2187.57 1479.7 L2187.57 1485.58 L2182.68 1485.58 L2182.68 1479.7 Z" fill="#000000" fill-rule="nonzero" fill-opacity="1"></path><path clip-path="url(#clip500)" d="M2196.57 1451.02 L2218.8 1451.02 L2218.8 1453.01 L2206.25 1485.58 L2201.36 1485.58 L2213.17 1454.96 L2196.57 1454.96 L2196.57 1451.02 Z" fill="#000000" fill-rule="nonzero" fill-opacity="1"></path><path clip-path="url(#clip500)" d="M2300.57 1455.09 L2288.76 1473.54 L2300.57 1473.54 L2300.57 1455.09 M2299.34 1451.02 L2305.22 1451.02 L2305.22 1473.54 L2310.15 1473.54 L2310.15 1477.43 L2305.22 1477.43 L2305.22 1485.58 L2300.57 1485.58 L2300.57 1477.43 L2284.96 1477.43 L2284.96 1472.92 L2299.34 1451.02 Z" fill="#000000" fill-rule="nonzero" fill-opacity="1"></path><path clip-path="url(#clip500)" d="M2317.88 1479.7 L2322.77 1479.7 L2322.77 1485.58 L2317.88 1485.58 L2317.88 1479.7 Z" fill="#000000" fill-rule="nonzero" fill-opacity="1"></path><path clip-path="url(#clip500)" d="M2342.95 1469.17 Q2339.62 1469.17 2337.7 1470.95 Q2335.8 1472.73 2335.8 1475.86 Q2335.8 1478.98 2337.7 1480.77 Q2339.62 1482.55 2342.95 1482.55 Q2346.28 1482.55 2348.21 1480.77 Q2350.13 1478.96 2350.13 1475.86 Q2350.13 1472.73 2348.21 1470.95 Q2346.31 1469.17 2342.95 1469.17 M2338.27 1467.18 Q2335.27 1466.44 2333.58 1464.38 Q2331.91 1462.32 2331.91 1459.35 Q2331.91 1455.21 2334.85 1452.8 Q2337.81 1450.39 2342.95 1450.39 Q2348.11 1450.39 2351.05 1452.8 Q2353.99 1455.21 2353.99 1459.35 Q2353.99 1462.32 2352.3 1464.38 Q2350.64 1466.44 2347.65 1467.18 Q2351.03 1467.96 2352.9 1470.26 Q2354.8 1472.55 2354.8 1475.86 Q2354.8 1480.88 2351.72 1483.57 Q2348.67 1486.25 2342.95 1486.25 Q2337.23 1486.25 2334.15 1483.57 Q2331.1 1480.88 2331.1 1475.86 Q2331.1 1472.55 2333 1470.26 Q2334.9 1467.96 2338.27 1467.18 M2336.56 1459.79 Q2336.56 1462.48 2338.23 1463.98 Q2339.92 1465.49 2342.95 1465.49 Q2345.96 1465.49 2347.65 1463.98 Q2349.36 1462.48 2349.36 1459.79 Q2349.36 1457.11 2347.65 1455.6 Q2345.96 1454.1 2342.95 1454.1 Q2339.92 1454.1 2338.23 1455.6 Q2336.56 1457.11 2336.56 1459.79 Z" fill="#000000" fill-rule="nonzero" fill-opacity="1"></path><path clip-path="url(#clip500)" d="M1742.55 1518.52 L1748.41 1518.52 L1748.41 1568.04 L1742.55 1568.04 L1742.55 1518.52 Z" fill="#000000" fill-rule="nonzero" fill-opacity="1"></path><path clip-path="url(#clip500)" d="M1774.48 1536.5 Q1769.77 1536.5 1767.03 1540.19 Q1764.29 1543.85 1764.29 1550.25 Q1764.29 1556.65 1767 1560.34 Q1769.73 1564 1774.48 1564 Q1779.16 1564 1781.89 1560.31 Q1784.63 1556.62 1784.63 1550.25 Q1784.63 1543.92 1781.89 1540.23 Q1779.16 1536.5 1774.48 1536.5 M1774.48 1531.54 Q1782.12 1531.54 1786.48 1536.5 Q1790.84 1541.47 1790.84 1550.25 Q1790.84 1559 1786.48 1564 Q1782.12 1568.97 1774.48 1568.97 Q1766.81 1568.97 1762.45 1564 Q1758.12 1559 1758.12 1550.25 Q1758.12 1541.47 1762.45 1536.5 Q1766.81 1531.54 1774.48 1531.54 Z" fill="#000000" fill-rule="nonzero" fill-opacity="1"></path><path clip-path="url(#clip500)" d="M1824 1549.81 Q1824 1543.44 1821.36 1539.94 Q1818.75 1536.44 1814.01 1536.44 Q1809.3 1536.44 1806.66 1539.94 Q1804.05 1543.44 1804.05 1549.81 Q1804.05 1556.14 1806.66 1559.64 Q1809.3 1563.14 1814.01 1563.14 Q1818.75 1563.14 1821.36 1559.64 Q1824 1556.14 1824 1549.81 M1829.86 1563.62 Q1829.86 1572.72 1825.82 1577.15 Q1821.77 1581.6 1813.44 1581.6 Q1810.35 1581.6 1807.61 1581.13 Q1804.87 1580.68 1802.3 1579.72 L1802.3 1574.03 Q1804.87 1575.43 1807.39 1576.1 Q1809.9 1576.76 1812.51 1576.76 Q1818.27 1576.76 1821.14 1573.74 Q1824 1570.75 1824 1564.67 L1824 1561.77 Q1822.19 1564.92 1819.36 1566.48 Q1816.52 1568.04 1812.58 1568.04 Q1806.02 1568.04 1802.01 1563.05 Q1798 1558.05 1798 1549.81 Q1798 1541.53 1802.01 1536.53 Q1806.02 1531.54 1812.58 1531.54 Q1816.52 1531.54 1819.36 1533.1 Q1822.19 1534.66 1824 1537.81 L1824 1532.4 L1829.86 1532.4 L1829.86 1563.62 Z" fill="#000000" fill-rule="nonzero" fill-opacity="1"></path><path clip-path="url(#clip500)" d="M1843.86 1562.63 L1854.37 1562.63 L1854.37 1526.38 L1842.94 1528.67 L1842.94 1522.82 L1854.3 1520.52 L1860.73 1520.52 L1860.73 1562.63 L1871.24 1562.63 L1871.24 1568.04 L1843.86 1568.04 L1843.86 1562.63 Z" fill="#000000" fill-rule="nonzero" fill-opacity="1"></path><path clip-path="url(#clip500)" d="M1897.97 1524.76 Q1893.01 1524.76 1890.49 1529.66 Q1888.01 1534.53 1888.01 1544.33 Q1888.01 1554.1 1890.49 1559 Q1893.01 1563.87 1897.97 1563.87 Q1902.97 1563.87 1905.45 1559 Q1907.97 1554.1 1907.97 1544.33 Q1907.97 1534.53 1905.45 1529.66 Q1902.97 1524.76 1897.97 1524.76 M1897.97 1519.66 Q1905.96 1519.66 1910.16 1526 Q1914.4 1532.3 1914.4 1544.33 Q1914.4 1556.33 1910.16 1562.66 Q1905.96 1568.97 1897.97 1568.97 Q1889.98 1568.97 1885.75 1562.66 Q1881.55 1556.33 1881.55 1544.33 Q1881.55 1532.3 1885.75 1526 Q1889.98 1519.66 1897.97 1519.66 Z" fill="#000000" fill-rule="nonzero" fill-opacity="1"></path><path clip-path="url(#clip500)" d="M1938.94 1518.58 Q1934.67 1525.9 1932.6 1533.06 Q1930.53 1540.23 1930.53 1547.58 Q1930.53 1554.93 1932.6 1562.16 Q1934.7 1569.35 1938.94 1576.64 L1933.84 1576.64 Q1929.07 1569.16 1926.68 1561.93 Q1924.33 1554.71 1924.33 1547.58 Q1924.33 1540.48 1926.68 1533.29 Q1929.04 1526.09 1933.84 1518.58 L1938.94 1518.58 Z" fill="#000000" fill-rule="nonzero" fill-opacity="1"></path><path clip-path="url(#clip500)" d="M1952.24 1562.63 L1962.74 1562.63 L1962.74 1526.38 L1951.32 1528.67 L1951.32 1522.82 L1962.68 1520.52 L1969.11 1520.52 L1969.11 1562.63 L1979.61 1562.63 L1979.61 1568.04 L1952.24 1568.04 L1952.24 1562.63 Z" fill="#000000" fill-rule="nonzero" fill-opacity="1"></path><path clip-path="url(#clip500)" d="M2002.18 1520.52 L2007.59 1520.52 L1991.04 1574.09 L1985.63 1574.09 L2002.18 1520.52 Z" fill="#000000" fill-rule="nonzero" fill-opacity="1"></path><path clip-path="url(#clip500)" d="M2029.87 1526.86 L2016.82 1562.7 L2042.95 1562.7 L2029.87 1526.86 M2008.1 1568.04 L2026.24 1520.52 L2033.53 1520.52 L2051.64 1568.04 L2008.1 1568.04 Z" fill="#000000" fill-rule="nonzero" fill-opacity="1"></path><path clip-path="url(#clip500)" d="M2064.12 1522.27 L2064.12 1532.4 L2076.18 1532.4 L2076.18 1536.95 L2064.12 1536.95 L2064.12 1556.3 Q2064.12 1560.66 2065.29 1561.9 Q2066.5 1563.14 2070.16 1563.14 L2076.18 1563.14 L2076.18 1568.04 L2070.16 1568.04 Q2063.38 1568.04 2060.81 1565.53 Q2058.23 1562.98 2058.23 1556.3 L2058.23 1536.95 L2053.93 1536.95 L2053.93 1532.4 L2058.23 1532.4 L2058.23 1522.27 L2064.12 1522.27 Z" fill="#000000" fill-rule="nonzero" fill-opacity="1"></path><path clip-path="url(#clip500)" d="M2082.96 1518.58 L2088.05 1518.58 Q2092.83 1526.09 2095.18 1533.29 Q2097.57 1540.48 2097.57 1547.58 Q2097.57 1554.71 2095.18 1561.93 Q2092.83 1569.16 2088.05 1576.64 L2082.96 1576.64 Q2087.19 1569.35 2089.26 1562.16 Q2091.36 1554.93 2091.36 1547.58 Q2091.36 1540.23 2089.26 1533.06 Q2087.19 1525.9 2082.96 1518.58 Z" fill="#000000" fill-rule="nonzero" fill-opacity="1"></path><polyline clip-path="url(#clip503)" style="stroke:#000000; stroke-linecap:round; stroke-linejoin:round; stroke-width:2; stroke-opacity:0.1; fill:none" points="1487.37,1232.58 2352.76,1232.58 "></polyline>
<polyline clip-path="url(#clip503)" style="stroke:#000000; stroke-linecap:round; stroke-linejoin:round; stroke-width:2; stroke-opacity:0.1; fill:none" points="1487.37,963.08 2352.76,963.08 "></polyline>
<polyline clip-path="url(#clip503)" style="stroke:#000000; stroke-linecap:round; stroke-linejoin:round; stroke-width:2; stroke-opacity:0.1; fill:none" points="1487.37,693.578 2352.76,693.578 "></polyline>
<polyline clip-path="url(#clip503)" style="stroke:#000000; stroke-linecap:round; stroke-linejoin:round; stroke-width:2; stroke-opacity:0.1; fill:none" points="1487.37,424.075 2352.76,424.075 "></polyline>
<polyline clip-path="url(#clip503)" style="stroke:#000000; stroke-linecap:round; stroke-linejoin:round; stroke-width:2; stroke-opacity:0.1; fill:none" points="1487.37,154.573 2352.76,154.573 "></polyline>
<polyline clip-path="url(#clip500)" style="stroke:#000000; stroke-linecap:round; stroke-linejoin:round; stroke-width:4; stroke-opacity:1; fill:none" points="1487.37,1423.18 1487.37,47.2441 "></polyline>
<polyline clip-path="url(#clip500)" style="stroke:#000000; stroke-linecap:round; stroke-linejoin:round; stroke-width:4; stroke-opacity:1; fill:none" points="1487.37,1232.58 1506.26,1232.58 "></polyline>
<polyline clip-path="url(#clip500)" style="stroke:#000000; stroke-linecap:round; stroke-linejoin:round; stroke-width:4; stroke-opacity:1; fill:none" points="1487.37,963.08 1506.26,963.08 "></polyline>
<polyline clip-path="url(#clip500)" style="stroke:#000000; stroke-linecap:round; stroke-linejoin:round; stroke-width:4; stroke-opacity:1; fill:none" points="1487.37,693.578 1506.26,693.578 "></polyline>
<polyline clip-path="url(#clip500)" style="stroke:#000000; stroke-linecap:round; stroke-linejoin:round; stroke-width:4; stroke-opacity:1; fill:none" points="1487.37,424.075 1506.26,424.075 "></polyline>
<polyline clip-path="url(#clip500)" style="stroke:#000000; stroke-linecap:round; stroke-linejoin:round; stroke-width:4; stroke-opacity:1; fill:none" points="1487.37,154.573 1506.26,154.573 "></polyline>
<path clip-path="url(#clip500)" d="M1314.26 1233.03 L1343.94 1233.03 L1343.94 1236.97 L1314.26 1236.97 L1314.26 1233.03 Z" fill="#000000" fill-rule="nonzero" fill-opacity="1"></path><path clip-path="url(#clip500)" d="M1366.88 1219.38 L1355.07 1237.83 L1366.88 1237.83 L1366.88 1219.38 M1365.65 1215.3 L1371.53 1215.3 L1371.53 1237.83 L1376.46 1237.83 L1376.46 1241.71 L1371.53 1241.71 L1371.53 1249.86 L1366.88 1249.86 L1366.88 1241.71 L1351.27 1241.71 L1351.27 1237.2 L1365.65 1215.3 Z" fill="#000000" fill-rule="nonzero" fill-opacity="1"></path><path clip-path="url(#clip500)" d="M1384.19 1243.98 L1389.07 1243.98 L1389.07 1249.86 L1384.19 1249.86 L1384.19 1243.98 Z" fill="#000000" fill-rule="nonzero" fill-opacity="1"></path><path clip-path="url(#clip500)" d="M1399.31 1215.3 L1417.66 1215.3 L1417.66 1219.24 L1403.59 1219.24 L1403.59 1227.71 Q1404.61 1227.36 1405.63 1227.2 Q1406.64 1227.02 1407.66 1227.02 Q1413.45 1227.02 1416.83 1230.19 Q1420.21 1233.36 1420.21 1238.77 Q1420.21 1244.35 1416.74 1247.45 Q1413.26 1250.53 1406.94 1250.53 Q1404.77 1250.53 1402.5 1250.16 Q1400.26 1249.79 1397.85 1249.05 L1397.85 1244.35 Q1399.93 1245.49 1402.15 1246.04 Q1404.38 1246.6 1406.85 1246.6 Q1410.86 1246.6 1413.19 1244.49 Q1415.53 1242.39 1415.53 1238.77 Q1415.53 1235.16 1413.19 1233.06 Q1410.86 1230.95 1406.85 1230.95 Q1404.98 1230.95 1403.1 1231.37 Q1401.25 1231.78 1399.31 1232.66 L1399.31 1215.3 Z" fill="#000000" fill-rule="nonzero" fill-opacity="1"></path><path clip-path="url(#clip500)" d="M1439.42 1218.38 Q1435.81 1218.38 1433.98 1221.95 Q1432.18 1225.49 1432.18 1232.62 Q1432.18 1239.72 1433.98 1243.29 Q1435.81 1246.83 1439.42 1246.83 Q1443.06 1246.83 1444.86 1243.29 Q1446.69 1239.72 1446.69 1232.62 Q1446.69 1225.49 1444.86 1221.95 Q1443.06 1218.38 1439.42 1218.38 M1439.42 1214.68 Q1445.23 1214.68 1448.29 1219.28 Q1451.37 1223.87 1451.37 1232.62 Q1451.37 1241.34 1448.29 1245.95 Q1445.23 1250.53 1439.42 1250.53 Q1433.61 1250.53 1430.53 1245.95 Q1427.48 1241.34 1427.48 1232.62 Q1427.48 1223.87 1430.53 1219.28 Q1433.61 1214.68 1439.42 1214.68 Z" fill="#000000" fill-rule="nonzero" fill-opacity="1"></path><path clip-path="url(#clip500)" d="M1315.26 963.531 L1344.93 963.531 L1344.93 967.466 L1315.26 967.466 L1315.26 963.531 Z" fill="#000000" fill-rule="nonzero" fill-opacity="1"></path><path clip-path="url(#clip500)" d="M1367.87 949.874 L1356.07 968.323 L1367.87 968.323 L1367.87 949.874 M1366.64 945.8 L1372.52 945.8 L1372.52 968.323 L1377.45 968.323 L1377.45 972.212 L1372.52 972.212 L1372.52 980.36 L1367.87 980.36 L1367.87 972.212 L1352.27 972.212 L1352.27 967.698 L1366.64 945.8 Z" fill="#000000" fill-rule="nonzero" fill-opacity="1"></path><path clip-path="url(#clip500)" d="M1385.19 974.48 L1390.07 974.48 L1390.07 980.36 L1385.19 980.36 L1385.19 974.48 Z" fill="#000000" fill-rule="nonzero" fill-opacity="1"></path><path clip-path="url(#clip500)" d="M1404.28 976.425 L1420.6 976.425 L1420.6 980.36 L1398.66 980.36 L1398.66 976.425 Q1401.32 973.67 1405.9 969.04 Q1410.51 964.388 1411.69 963.045 Q1413.94 960.522 1414.82 958.786 Q1415.72 957.027 1415.72 955.337 Q1415.72 952.582 1413.77 950.846 Q1411.85 949.11 1408.75 949.11 Q1406.55 949.11 1404.1 949.874 Q1401.67 950.638 1398.89 952.189 L1398.89 947.467 Q1401.71 946.332 1404.17 945.754 Q1406.62 945.175 1408.66 945.175 Q1414.03 945.175 1417.22 947.86 Q1420.42 950.545 1420.42 955.036 Q1420.42 957.166 1419.61 959.087 Q1418.82 960.985 1416.71 963.578 Q1416.13 964.249 1413.03 967.466 Q1409.93 970.661 1404.28 976.425 Z" fill="#000000" fill-rule="nonzero" fill-opacity="1"></path><path clip-path="url(#clip500)" d="M1430.46 945.8 L1448.82 945.8 L1448.82 949.735 L1434.75 949.735 L1434.75 958.207 Q1435.76 957.86 1436.78 957.698 Q1437.8 957.513 1438.82 957.513 Q1444.61 957.513 1447.99 960.684 Q1451.37 963.855 1451.37 969.272 Q1451.37 974.851 1447.89 977.952 Q1444.42 981.031 1438.1 981.031 Q1435.93 981.031 1433.66 980.661 Q1431.41 980.29 1429 979.55 L1429 974.851 Q1431.09 975.985 1433.31 976.54 Q1435.53 977.096 1438.01 977.096 Q1442.01 977.096 1444.35 974.99 Q1446.69 972.883 1446.69 969.272 Q1446.69 965.661 1444.35 963.554 Q1442.01 961.448 1438.01 961.448 Q1436.13 961.448 1434.26 961.865 Q1432.41 962.281 1430.46 963.161 L1430.46 945.8 Z" fill="#000000" fill-rule="nonzero" fill-opacity="1"></path><path clip-path="url(#clip500)" d="M1314.26 694.029 L1343.94 694.029 L1343.94 697.964 L1314.26 697.964 L1314.26 694.029 Z" fill="#000000" fill-rule="nonzero" fill-opacity="1"></path><path clip-path="url(#clip500)" d="M1366.88 680.372 L1355.07 698.821 L1366.88 698.821 L1366.88 680.372 M1365.65 676.298 L1371.53 676.298 L1371.53 698.821 L1376.46 698.821 L1376.46 702.709 L1371.53 702.709 L1371.53 710.858 L1366.88 710.858 L1366.88 702.709 L1351.27 702.709 L1351.27 698.196 L1365.65 676.298 Z" fill="#000000" fill-rule="nonzero" fill-opacity="1"></path><path clip-path="url(#clip500)" d="M1384.19 704.978 L1389.07 704.978 L1389.07 710.858 L1384.19 710.858 L1384.19 704.978 Z" fill="#000000" fill-rule="nonzero" fill-opacity="1"></path><path clip-path="url(#clip500)" d="M1409.26 679.376 Q1405.65 679.376 1403.82 682.941 Q1402.01 686.483 1402.01 693.612 Q1402.01 700.719 1403.82 704.284 Q1405.65 707.825 1409.26 707.825 Q1412.89 707.825 1414.7 704.284 Q1416.53 700.719 1416.53 693.612 Q1416.53 686.483 1414.7 682.941 Q1412.89 679.376 1409.26 679.376 M1409.26 675.673 Q1415.07 675.673 1418.13 680.279 Q1421.2 684.862 1421.2 693.612 Q1421.2 702.339 1418.13 706.946 Q1415.07 711.529 1409.26 711.529 Q1403.45 711.529 1400.37 706.946 Q1397.32 702.339 1397.32 693.612 Q1397.32 684.862 1400.37 680.279 Q1403.45 675.673 1409.26 675.673 Z" fill="#000000" fill-rule="nonzero" fill-opacity="1"></path><path clip-path="url(#clip500)" d="M1439.42 679.376 Q1435.81 679.376 1433.98 682.941 Q1432.18 686.483 1432.18 693.612 Q1432.18 700.719 1433.98 704.284 Q1435.81 707.825 1439.42 707.825 Q1443.06 707.825 1444.86 704.284 Q1446.69 700.719 1446.69 693.612 Q1446.69 686.483 1444.86 682.941 Q1443.06 679.376 1439.42 679.376 M1439.42 675.673 Q1445.23 675.673 1448.29 680.279 Q1451.37 684.862 1451.37 693.612 Q1451.37 702.339 1448.29 706.946 Q1445.23 711.529 1439.42 711.529 Q1433.61 711.529 1430.53 706.946 Q1427.48 702.339 1427.48 693.612 Q1427.48 684.862 1430.53 680.279 Q1433.61 675.673 1439.42 675.673 Z" fill="#000000" fill-rule="nonzero" fill-opacity="1"></path><path clip-path="url(#clip500)" d="M1315.26 424.527 L1344.93 424.527 L1344.93 428.462 L1315.26 428.462 L1315.26 424.527 Z" fill="#000000" fill-rule="nonzero" fill-opacity="1"></path><path clip-path="url(#clip500)" d="M1369.19 422.721 Q1372.55 423.439 1374.42 425.707 Q1376.32 427.976 1376.32 431.309 Q1376.32 436.425 1372.8 439.226 Q1369.28 442.026 1362.8 442.026 Q1360.63 442.026 1358.31 441.587 Q1356.02 441.17 1353.57 440.314 L1353.57 435.8 Q1355.51 436.934 1357.82 437.513 Q1360.14 438.091 1362.66 438.091 Q1367.06 438.091 1369.35 436.355 Q1371.67 434.619 1371.67 431.309 Q1371.67 428.253 1369.51 426.54 Q1367.38 424.804 1363.57 424.804 L1359.54 424.804 L1359.54 420.962 L1363.75 420.962 Q1367.2 420.962 1369.03 419.596 Q1370.86 418.207 1370.86 415.615 Q1370.86 412.953 1368.96 411.541 Q1367.08 410.105 1363.57 410.105 Q1361.64 410.105 1359.45 410.522 Q1357.25 410.939 1354.61 411.818 L1354.61 407.652 Q1357.27 406.911 1359.58 406.541 Q1361.92 406.17 1363.98 406.17 Q1369.31 406.17 1372.41 408.601 Q1375.51 411.008 1375.51 415.128 Q1375.51 417.999 1373.87 419.99 Q1372.22 421.957 1369.19 422.721 Z" fill="#000000" fill-rule="nonzero" fill-opacity="1"></path><path clip-path="url(#clip500)" d="M1385.19 435.476 L1390.07 435.476 L1390.07 441.355 L1385.19 441.355 L1385.19 435.476 Z" fill="#000000" fill-rule="nonzero" fill-opacity="1"></path><path clip-path="url(#clip500)" d="M1399.07 406.795 L1421.3 406.795 L1421.3 408.786 L1408.75 441.355 L1403.87 441.355 L1415.67 410.73 L1399.07 410.73 L1399.07 406.795 Z" fill="#000000" fill-rule="nonzero" fill-opacity="1"></path><path clip-path="url(#clip500)" d="M1430.46 406.795 L1448.82 406.795 L1448.82 410.73 L1434.75 410.73 L1434.75 419.203 Q1435.76 418.855 1436.78 418.693 Q1437.8 418.508 1438.82 418.508 Q1444.61 418.508 1447.99 421.679 Q1451.37 424.851 1451.37 430.267 Q1451.37 435.846 1447.89 438.948 Q1444.42 442.026 1438.1 442.026 Q1435.93 442.026 1433.66 441.656 Q1431.41 441.286 1429 440.545 L1429 435.846 Q1431.09 436.98 1433.31 437.536 Q1435.53 438.091 1438.01 438.091 Q1442.01 438.091 1444.35 435.985 Q1446.69 433.878 1446.69 430.267 Q1446.69 426.656 1444.35 424.55 Q1442.01 422.443 1438.01 422.443 Q1436.13 422.443 1434.26 422.86 Q1432.41 423.277 1430.46 424.156 L1430.46 406.795 Z" fill="#000000" fill-rule="nonzero" fill-opacity="1"></path><path clip-path="url(#clip500)" d="M1314.26 155.024 L1343.94 155.024 L1343.94 158.959 L1314.26 158.959 L1314.26 155.024 Z" fill="#000000" fill-rule="nonzero" fill-opacity="1"></path><path clip-path="url(#clip500)" d="M1368.2 153.219 Q1371.55 153.936 1373.43 156.205 Q1375.32 158.473 1375.32 161.807 Q1375.32 166.922 1371.81 169.723 Q1368.29 172.524 1361.81 172.524 Q1359.63 172.524 1357.32 172.084 Q1355.02 171.668 1352.57 170.811 L1352.57 166.297 Q1354.51 167.432 1356.83 168.01 Q1359.14 168.589 1361.67 168.589 Q1366.07 168.589 1368.36 166.853 Q1370.67 165.117 1370.67 161.807 Q1370.67 158.751 1368.52 157.038 Q1366.39 155.302 1362.57 155.302 L1358.54 155.302 L1358.54 151.459 L1362.76 151.459 Q1366.2 151.459 1368.03 150.094 Q1369.86 148.705 1369.86 146.112 Q1369.86 143.45 1367.96 142.038 Q1366.09 140.603 1362.57 140.603 Q1360.65 140.603 1358.45 141.02 Q1356.25 141.436 1353.61 142.316 L1353.61 138.149 Q1356.27 137.409 1358.59 137.038 Q1360.93 136.668 1362.99 136.668 Q1368.31 136.668 1371.41 139.098 Q1374.51 141.506 1374.51 145.626 Q1374.51 148.497 1372.87 150.487 Q1371.23 152.455 1368.2 153.219 Z" fill="#000000" fill-rule="nonzero" fill-opacity="1"></path><path clip-path="url(#clip500)" d="M1384.19 165.973 L1389.07 165.973 L1389.07 171.853 L1384.19 171.853 L1384.19 165.973 Z" fill="#000000" fill-rule="nonzero" fill-opacity="1"></path><path clip-path="url(#clip500)" d="M1399.31 137.293 L1417.66 137.293 L1417.66 141.228 L1403.59 141.228 L1403.59 149.7 Q1404.61 149.353 1405.63 149.191 Q1406.64 149.006 1407.66 149.006 Q1413.45 149.006 1416.83 152.177 Q1420.21 155.348 1420.21 160.765 Q1420.21 166.344 1416.74 169.445 Q1413.26 172.524 1406.94 172.524 Q1404.77 172.524 1402.5 172.154 Q1400.26 171.783 1397.85 171.043 L1397.85 166.344 Q1399.93 167.478 1402.15 168.033 Q1404.38 168.589 1406.85 168.589 Q1410.86 168.589 1413.19 166.483 Q1415.53 164.376 1415.53 160.765 Q1415.53 157.154 1413.19 155.047 Q1410.86 152.941 1406.85 152.941 Q1404.98 152.941 1403.1 153.358 Q1401.25 153.774 1399.31 154.654 L1399.31 137.293 Z" fill="#000000" fill-rule="nonzero" fill-opacity="1"></path><path clip-path="url(#clip500)" d="M1439.42 140.372 Q1435.81 140.372 1433.98 143.936 Q1432.18 147.478 1432.18 154.608 Q1432.18 161.714 1433.98 165.279 Q1435.81 168.82 1439.42 168.82 Q1443.06 168.82 1444.86 165.279 Q1446.69 161.714 1446.69 154.608 Q1446.69 147.478 1444.86 143.936 Q1443.06 140.372 1439.42 140.372 M1439.42 136.668 Q1445.23 136.668 1448.29 141.274 Q1451.37 145.858 1451.37 154.608 Q1451.37 163.334 1448.29 167.941 Q1445.23 172.524 1439.42 172.524 Q1433.61 172.524 1430.53 167.941 Q1427.48 163.334 1427.48 154.608 Q1427.48 145.858 1430.53 141.274 Q1433.61 136.668 1439.42 136.668 Z" fill="#000000" fill-rule="nonzero" fill-opacity="1"></path><path clip-path="url(#clip500)" d="M1214.48 878.759 L1214.48 872.902 L1264 872.902 L1264 878.759 L1214.48 878.759 Z" fill="#000000" fill-rule="nonzero" fill-opacity="1"></path><path clip-path="url(#clip500)" d="M1232.46 846.835 Q1232.46 851.545 1236.15 854.283 Q1239.81 857.02 1246.21 857.02 Q1252.61 857.02 1256.3 854.314 Q1259.96 851.577 1259.96 846.835 Q1259.96 842.156 1256.27 839.419 Q1252.58 836.681 1246.21 836.681 Q1239.88 836.681 1236.19 839.419 Q1232.46 842.156 1232.46 846.835 M1227.5 846.835 Q1227.5 839.196 1232.46 834.835 Q1237.43 830.475 1246.21 830.475 Q1254.96 830.475 1259.96 834.835 Q1264.93 839.196 1264.93 846.835 Q1264.93 854.505 1259.96 858.866 Q1254.96 863.195 1246.21 863.195 Q1237.43 863.195 1232.46 858.866 Q1227.5 854.505 1227.5 846.835 Z" fill="#000000" fill-rule="nonzero" fill-opacity="1"></path><path clip-path="url(#clip500)" d="M1245.77 797.309 Q1239.4 797.309 1235.9 799.951 Q1232.4 802.561 1232.4 807.304 Q1232.4 812.014 1235.9 814.656 Q1239.4 817.266 1245.77 817.266 Q1252.1 817.266 1255.6 814.656 Q1259.1 812.014 1259.1 807.304 Q1259.1 802.561 1255.6 799.951 Q1252.1 797.309 1245.77 797.309 M1259.58 791.453 Q1268.68 791.453 1273.11 795.495 Q1277.56 799.537 1277.56 807.877 Q1277.56 810.964 1277.09 813.701 Q1276.64 816.438 1275.69 819.016 L1269.99 819.016 Q1271.39 816.438 1272.06 813.924 Q1272.73 811.409 1272.73 808.8 Q1272.73 803.039 1269.7 800.174 Q1266.71 797.309 1260.63 797.309 L1257.73 797.309 Q1260.88 799.124 1262.44 801.956 Q1264 804.789 1264 808.736 Q1264 815.293 1259.01 819.303 Q1254.01 823.313 1245.77 823.313 Q1237.49 823.313 1232.49 819.303 Q1227.5 815.293 1227.5 808.736 Q1227.5 804.789 1229.06 801.956 Q1230.62 799.124 1233.77 797.309 L1228.36 797.309 L1228.36 791.453 L1259.58 791.453 Z" fill="#000000" fill-rule="nonzero" fill-opacity="1"></path><path clip-path="url(#clip500)" d="M1258.59 777.448 L1258.59 766.945 L1222.34 766.945 L1224.63 778.371 L1218.78 778.371 L1216.48 767.009 L1216.48 760.579 L1258.59 760.579 L1258.59 750.076 L1264 750.076 L1264 777.448 L1258.59 777.448 Z" fill="#000000" fill-rule="nonzero" fill-opacity="1"></path><path clip-path="url(#clip500)" d="M1220.72 723.34 Q1220.72 728.305 1225.62 730.82 Q1230.49 733.302 1240.29 733.302 Q1250.06 733.302 1254.96 730.82 Q1259.83 728.305 1259.83 723.34 Q1259.83 718.343 1254.96 715.86 Q1250.06 713.346 1240.29 713.346 Q1230.49 713.346 1225.62 715.86 Q1220.72 718.343 1220.72 723.34 M1215.62 723.34 Q1215.62 715.351 1221.96 711.15 Q1228.26 706.916 1240.29 706.916 Q1252.29 706.916 1258.63 711.15 Q1264.93 715.351 1264.93 723.34 Q1264.93 731.329 1258.63 735.562 Q1252.29 739.763 1240.29 739.763 Q1228.26 739.763 1221.96 735.562 Q1215.62 731.329 1215.62 723.34 Z" fill="#000000" fill-rule="nonzero" fill-opacity="1"></path><path clip-path="url(#clip500)" d="M1214.54 682.377 Q1221.86 686.642 1229.02 688.71 Q1236.19 690.779 1243.54 690.779 Q1250.89 690.779 1258.12 688.71 Q1265.31 686.61 1272.6 682.377 L1272.6 687.469 Q1265.12 692.243 1257.89 694.631 Q1250.67 696.986 1243.54 696.986 Q1236.44 696.986 1229.25 694.631 Q1222.05 692.275 1214.54 687.469 L1214.54 682.377 Z" fill="#000000" fill-rule="nonzero" fill-opacity="1"></path><path clip-path="url(#clip500)" d="M1234.02 645.837 Q1233.61 647.015 1233.29 648.193 Q1232.46 651.344 1232.46 654.718 Q1232.46 660.542 1235.61 663.789 Q1238.54 666.812 1243.92 667.385 L1243.92 645.837 L1248.5 645.837 L1248.5 667.385 Q1253.88 666.812 1256.81 663.789 Q1259.96 660.542 1259.96 654.718 Q1259.96 650.644 1259.13 648.193 L1258.34 645.837 L1263.65 645.837 L1264.23 648.352 Q1264.93 651.662 1264.93 655.068 Q1264.93 663.598 1259.96 668.563 Q1255 673.56 1246.21 673.56 Q1237.43 673.56 1232.46 668.563 Q1227.5 663.598 1227.5 655.068 Q1227.5 651.853 1228.2 648.352 Q1228.45 647.079 1228.83 645.837 L1234.02 645.837 Z" fill="#000000" fill-rule="nonzero" fill-opacity="1"></path><path clip-path="url(#clip500)" d="M1218.23 625.117 L1228.36 625.117 L1228.36 613.054 L1232.91 613.054 L1232.91 625.117 L1252.26 625.117 Q1256.62 625.117 1257.86 623.939 Q1259.1 622.73 1259.1 619.07 L1259.1 613.054 L1264 613.054 L1264 619.07 Q1264 625.849 1261.49 628.427 Q1258.94 631.005 1252.26 631.005 L1232.91 631.005 L1232.91 635.302 L1228.36 635.302 L1228.36 631.005 L1218.23 631.005 L1218.23 625.117 Z" fill="#000000" fill-rule="nonzero" fill-opacity="1"></path><path clip-path="url(#clip500)" d="M1214.54 606.275 L1214.54 601.182 Q1222.05 596.408 1229.25 594.052 Q1236.44 591.665 1243.54 591.665 Q1250.67 591.665 1257.89 594.052 Q1265.12 596.408 1272.6 601.182 L1272.6 606.275 Q1265.31 602.041 1258.12 599.973 Q1250.89 597.872 1243.54 597.872 Q1236.19 597.872 1229.02 599.973 Q1221.86 602.041 1214.54 606.275 Z" fill="#000000" fill-rule="nonzero" fill-opacity="1"></path><circle clip-path="url(#clip503)" cx="1511.86" cy="86.1857" r="14.4" fill="#009af9" fill-rule="evenodd" fill-opacity="1" stroke="#000000" stroke-opacity="1" stroke-width="3.2"></circle>
<circle clip-path="url(#clip503)" cx="1920.06" cy="720.654" r="14.4" fill="#009af9" fill-rule="evenodd" fill-opacity="1" stroke="#000000" stroke-opacity="1" stroke-width="3.2"></circle>
<circle clip-path="url(#clip503)" cx="2328.26" cy="1362.73" r="14.4" fill="#009af9" fill-rule="evenodd" fill-opacity="1" stroke="#000000" stroke-opacity="1" stroke-width="3.2"></circle>
<polyline clip-path="url(#clip503)" style="stroke:#e26f46; stroke-linecap:round; stroke-linejoin:round; stroke-width:4; stroke-opacity:1; fill:none" points="1511.86,86.1857 1920.06,410.699 2328.26,735.212 "></polyline>
<polyline clip-path="url(#clip503)" style="stroke:#3da44d; stroke-linecap:round; stroke-linejoin:round; stroke-width:4; stroke-opacity:1; fill:none" points="1511.86,86.1857 1920.06,735.212 2328.26,1384.24 "></polyline>
<path clip-path="url(#clip500)" d="M2176.93 300.469 L2323.91 300.469 L2323.91 93.1086 L2176.93 93.1086  Z" fill="#ffffff" fill-rule="evenodd" fill-opacity="1"></path>
<polyline clip-path="url(#clip500)" style="stroke:#000000; stroke-linecap:round; stroke-linejoin:round; stroke-width:4; stroke-opacity:1; fill:none" points="2176.93,300.469 2323.91,300.469 2323.91,93.1086 2176.93,93.1086 2176.93,300.469 "></polyline>
<circle clip-path="url(#clip500)" cx="2215.39" cy="144.949" r="20.48" fill="#009af9" fill-rule="evenodd" fill-opacity="1" stroke="#000000" stroke-opacity="1" stroke-width="4.55111"></circle>
<path clip-path="url(#clip500)" d="M2274.02 140.423 Q2273.16 140.122 2272.3 139.891 Q2270.01 139.289 2267.56 139.289 Q2263.32 139.289 2260.96 141.581 Q2258.76 143.71 2258.35 147.622 L2274.02 147.622 L2274.02 150.956 L2258.35 150.956 Q2258.76 154.868 2260.96 156.997 Q2263.32 159.289 2267.56 159.289 Q2270.52 159.289 2272.3 158.687 L2274.02 158.108 L2274.02 161.974 L2272.19 162.391 Q2269.78 162.9 2267.3 162.9 Q2261.1 162.9 2257.49 159.289 Q2253.85 155.678 2253.85 149.289 Q2253.85 142.9 2257.49 139.289 Q2261.1 135.678 2267.3 135.678 Q2269.64 135.678 2272.19 136.187 Q2273.11 136.372 2274.02 136.65 L2274.02 140.423 Z" fill="#000000" fill-rule="nonzero" fill-opacity="1"></path><polyline clip-path="url(#clip500)" style="stroke:#e26f46; stroke-linecap:round; stroke-linejoin:round; stroke-width:4; stroke-opacity:1; fill:none" points="2186.55,196.789 2244.24,196.789 "></polyline>
<path clip-path="url(#clip500)" d="M2269.87 182.68 Q2264.78 182.68 2261.77 186.476 Q2258.79 190.272 2258.79 196.823 Q2258.79 203.351 2261.77 207.147 Q2264.78 210.944 2269.87 210.944 Q2274.97 210.944 2277.93 207.147 Q2280.91 203.351 2280.91 196.823 Q2280.91 190.272 2277.93 186.476 Q2274.97 182.68 2269.87 182.68 M2269.87 178.884 Q2277.14 178.884 2281.49 183.768 Q2285.85 188.629 2285.85 196.823 Q2285.85 204.995 2281.49 209.879 Q2277.14 214.74 2269.87 214.74 Q2262.58 214.74 2258.21 209.879 Q2253.85 205.018 2253.85 196.823 Q2253.85 188.629 2258.21 183.768 Q2262.58 178.884 2269.87 178.884 Z" fill="#000000" fill-rule="nonzero" fill-opacity="1"></path><path clip-path="url(#clip500)" d="M2294.39 210.133 L2302.03 210.133 L2302.03 183.768 L2293.72 185.435 L2293.72 181.175 L2301.98 179.509 L2306.66 179.509 L2306.66 210.133 L2314.29 210.133 L2314.29 214.069 L2294.39 214.069 L2294.39 210.133 Z" fill="#000000" fill-rule="nonzero" fill-opacity="1"></path><polyline clip-path="url(#clip500)" style="stroke:#3da44d; stroke-linecap:round; stroke-linejoin:round; stroke-width:4; stroke-opacity:1; fill:none" points="2186.55,248.629 2244.24,248.629 "></polyline>
<path clip-path="url(#clip500)" d="M2269.87 234.52 Q2264.78 234.52 2261.77 238.316 Q2258.79 242.112 2258.79 248.663 Q2258.79 255.191 2261.77 258.987 Q2264.78 262.784 2269.87 262.784 Q2274.97 262.784 2277.93 258.987 Q2280.91 255.191 2280.91 248.663 Q2280.91 242.112 2277.93 238.316 Q2274.97 234.52 2269.87 234.52 M2269.87 230.724 Q2277.14 230.724 2281.49 235.608 Q2285.85 240.469 2285.85 248.663 Q2285.85 256.835 2281.49 261.719 Q2277.14 266.58 2269.87 266.58 Q2262.58 266.58 2258.21 261.719 Q2253.85 256.858 2253.85 248.663 Q2253.85 240.469 2258.21 235.608 Q2262.58 230.724 2269.87 230.724 Z" fill="#000000" fill-rule="nonzero" fill-opacity="1"></path><path clip-path="url(#clip500)" d="M2297.6 261.973 L2313.92 261.973 L2313.92 265.909 L2291.98 265.909 L2291.98 261.973 Q2294.64 259.219 2299.22 254.589 Q2303.83 249.936 2305.01 248.594 Q2307.26 246.071 2308.14 244.335 Q2309.04 242.575 2309.04 240.886 Q2309.04 238.131 2307.1 236.395 Q2305.17 234.659 2302.07 234.659 Q2299.87 234.659 2297.42 235.423 Q2294.99 236.187 2292.21 237.737 L2292.21 233.015 Q2295.03 231.881 2297.49 231.302 Q2299.94 230.724 2301.98 230.724 Q2307.35 230.724 2310.54 233.409 Q2313.74 236.094 2313.74 240.585 Q2313.74 242.714 2312.93 244.636 Q2312.14 246.534 2310.03 249.126 Q2309.46 249.798 2306.35 253.015 Q2303.25 256.21 2297.6 261.973 Z" fill="#000000" fill-rule="nonzero" fill-opacity="1"></path></svg>