<svg xmlns="http://www.w3.org/2000/svg" xmlns:xlink="http://www.w3.org/1999/xlink" width="600" height="400" viewBox="0 0 2400 1600">
<defs>
  <clipPath id="clip140">
    <rect x="0" y="0" width="2400" height="1600"></rect>
  </clipPath>
</defs>
<path clip-path="url(#clip140)" d="M0 1600 L2400 1600 L2400 8.88178e-14 L0 8.88178e-14  Z" fill="#ffffff" fill-rule="evenodd" fill-opacity="1"></path>
<defs>
  <clipPath id="clip141">
    <rect x="480" y="0" width="1681" height="1600"></rect>
  </clipPath>
</defs>
<path clip-path="url(#clip140)" d="M257.204 1423.18 L1152.76 1423.18 L1152.76 47.2441 L257.204 47.2441  Z" fill="#ffffff" fill-rule="evenodd" fill-opacity="1"></path>
<defs>
  <clipPath id="clip142">
    <rect x="257" y="47" width="897" height="1377"></rect>
  </clipPath>
</defs>
<polyline clip-path="url(#clip142)" style="stroke:#000000; stroke-linecap:round; stroke-linejoin:round; stroke-width:2; stroke-opacity:0.1; fill:none" points="422.155,1423.18 422.155,47.2441 "></polyline>
<polyline clip-path="url(#clip142)" style="stroke:#000000; stroke-linecap:round; stroke-linejoin:round; stroke-width:2; stroke-opacity:0.1; fill:none" points="597.566,1423.18 597.566,47.2441 "></polyline>
<polyline clip-path="url(#clip142)" style="stroke:#000000; stroke-linecap:round; stroke-linejoin:round; stroke-width:2; stroke-opacity:0.1; fill:none" points="772.976,1423.18 772.976,47.2441 "></polyline>
<polyline clip-path="url(#clip142)" style="stroke:#000000; stroke-linecap:round; stroke-linejoin:round; stroke-width:2; stroke-opacity:0.1; fill:none" points="948.386,1423.18 948.386,47.2441 "></polyline>
<polyline clip-path="url(#clip142)" style="stroke:#000000; stroke-linecap:round; stroke-linejoin:round; stroke-width:2; stroke-opacity:0.1; fill:none" points="1123.8,1423.18 1123.8,47.2441 "></polyline>
<polyline clip-path="url(#clip140)" style="stroke:#000000; stroke-linecap:round; stroke-linejoin:round; stroke-width:4; stroke-opacity:1; fill:none" points="257.204,1423.18 1152.76,1423.18 "></polyline>
<polyline clip-path="url(#clip140)" style="stroke:#000000; stroke-linecap:round; stroke-linejoin:round; stroke-width:4; stroke-opacity:1; fill:none" points="422.155,1423.18 422.155,1404.28 "></polyline>
<polyline clip-path="url(#clip140)" style="stroke:#000000; stroke-linecap:round; stroke-linejoin:round; stroke-width:4; stroke-opacity:1; fill:none" points="597.566,1423.18 597.566,1404.28 "></polyline>
<polyline clip-path="url(#clip140)" style="stroke:#000000; stroke-linecap:round; stroke-linejoin:round; stroke-width:4; stroke-opacity:1; fill:none" points="772.976,1423.18 772.976,1404.28 "></polyline>
<polyline clip-path="url(#clip140)" style="stroke:#000000; stroke-linecap:round; stroke-linejoin:round; stroke-width:4; stroke-opacity:1; fill:none" points="948.386,1423.18 948.386,1404.28 "></polyline>
<polyline clip-path="url(#clip140)" style="stroke:#000000; stroke-linecap:round; stroke-linejoin:round; stroke-width:4; stroke-opacity:1; fill:none" points="1123.8,1423.18 1123.8,1404.28 "></polyline>
<path clip-path="url(#clip140)" d="M374.227 1481.64 L381.866 1481.64 L381.866 1455.28 L373.556 1456.95 L373.556 1452.69 L381.82 1451.02 L386.496 1451.02 L386.496 1481.64 L394.135 1481.64 L394.135 1485.58 L374.227 1485.58 L374.227 1481.64 Z" fill="#000000" fill-rule="nonzero" fill-opacity="1"></path><path clip-path="url(#clip140)" d="M403.579 1479.7 L408.463 1479.7 L408.463 1485.58 L403.579 1485.58 L403.579 1479.7 Z" fill="#000000" fill-rule="nonzero" fill-opacity="1"></path><path clip-path="url(#clip140)" d="M418.695 1451.02 L437.051 1451.02 L437.051 1454.96 L422.977 1454.96 L422.977 1463.43 Q423.996 1463.08 425.014 1462.92 Q426.033 1462.73 427.051 1462.73 Q432.838 1462.73 436.218 1465.9 Q439.597 1469.08 439.597 1474.49 Q439.597 1480.07 436.125 1483.17 Q432.653 1486.25 426.334 1486.25 Q424.158 1486.25 421.889 1485.88 Q419.644 1485.51 417.236 1484.77 L417.236 1480.07 Q419.32 1481.2 421.542 1481.76 Q423.764 1482.32 426.241 1482.32 Q430.246 1482.32 432.584 1480.21 Q434.922 1478.1 434.922 1474.49 Q434.922 1470.88 432.584 1468.77 Q430.246 1466.67 426.241 1466.67 Q424.366 1466.67 422.491 1467.08 Q420.639 1467.5 418.695 1468.38 L418.695 1451.02 Z" fill="#000000" fill-rule="nonzero" fill-opacity="1"></path><path clip-path="url(#clip140)" d="M458.81 1454.1 Q455.199 1454.1 453.371 1457.66 Q451.565 1461.2 451.565 1468.33 Q451.565 1475.44 453.371 1479.01 Q455.199 1482.55 458.81 1482.55 Q462.445 1482.55 464.25 1479.01 Q466.079 1475.44 466.079 1468.33 Q466.079 1461.2 464.25 1457.66 Q462.445 1454.1 458.81 1454.1 M458.81 1450.39 Q464.62 1450.39 467.676 1455 Q470.755 1459.58 470.755 1468.33 Q470.755 1477.06 467.676 1481.67 Q464.62 1486.25 458.81 1486.25 Q453 1486.25 449.921 1481.67 Q446.866 1477.06 446.866 1468.33 Q446.866 1459.58 449.921 1455 Q453 1450.39 458.81 1450.39 Z" fill="#000000" fill-rule="nonzero" fill-opacity="1"></path><path clip-path="url(#clip140)" d="M550.135 1481.64 L557.774 1481.64 L557.774 1455.28 L549.464 1456.95 L549.464 1452.69 L557.728 1451.02 L562.404 1451.02 L562.404 1481.64 L570.043 1481.64 L570.043 1485.58 L550.135 1485.58 L550.135 1481.64 Z" fill="#000000" fill-rule="nonzero" fill-opacity="1"></path><path clip-path="url(#clip140)" d="M579.487 1479.7 L584.371 1479.7 L584.371 1485.58 L579.487 1485.58 L579.487 1479.7 Z" fill="#000000" fill-rule="nonzero" fill-opacity="1"></path><path clip-path="url(#clip140)" d="M593.376 1451.02 L615.598 1451.02 L615.598 1453.01 L603.052 1485.58 L598.168 1485.58 L609.973 1454.96 L593.376 1454.96 L593.376 1451.02 Z" fill="#000000" fill-rule="nonzero" fill-opacity="1"></path><path clip-path="url(#clip140)" d="M624.765 1451.02 L643.121 1451.02 L643.121 1454.96 L629.047 1454.96 L629.047 1463.43 Q630.066 1463.08 631.084 1462.92 Q632.103 1462.73 633.121 1462.73 Q638.908 1462.73 642.288 1465.9 Q645.667 1469.08 645.667 1474.49 Q645.667 1480.07 642.195 1483.17 Q638.723 1486.25 632.403 1486.25 Q630.228 1486.25 627.959 1485.88 Q625.714 1485.51 623.306 1484.77 L623.306 1480.07 Q625.39 1481.2 627.612 1481.76 Q629.834 1482.32 632.311 1482.32 Q636.316 1482.32 638.653 1480.21 Q640.991 1478.1 640.991 1474.49 Q640.991 1470.88 638.653 1468.77 Q636.316 1466.67 632.311 1466.67 Q630.436 1466.67 628.561 1467.08 Q626.709 1467.5 624.765 1468.38 L624.765 1451.02 Z" fill="#000000" fill-rule="nonzero" fill-opacity="1"></path><path clip-path="url(#clip140)" d="M729.134 1481.64 L745.453 1481.64 L745.453 1485.58 L723.509 1485.58 L723.509 1481.64 Q726.171 1478.89 730.754 1474.26 Q735.36 1469.61 736.541 1468.27 Q738.786 1465.74 739.666 1464.01 Q740.569 1462.25 740.569 1460.56 Q740.569 1457.8 738.624 1456.07 Q736.703 1454.33 733.601 1454.33 Q731.402 1454.33 728.948 1455.09 Q726.518 1455.86 723.74 1457.41 L723.74 1452.69 Q726.564 1451.55 729.018 1450.97 Q731.472 1450.39 733.509 1450.39 Q738.879 1450.39 742.073 1453.08 Q745.268 1455.77 745.268 1460.26 Q745.268 1462.39 744.458 1464.31 Q743.671 1466.2 741.564 1468.8 Q740.985 1469.47 737.884 1472.69 Q734.782 1475.88 729.134 1481.64 Z" fill="#000000" fill-rule="nonzero" fill-opacity="1"></path><path clip-path="url(#clip140)" d="M755.268 1479.7 L760.152 1479.7 L760.152 1485.58 L755.268 1485.58 L755.268 1479.7 Z" fill="#000000" fill-rule="nonzero" fill-opacity="1"></path><path clip-path="url(#clip140)" d="M780.337 1454.1 Q776.726 1454.1 774.897 1457.66 Q773.092 1461.2 773.092 1468.33 Q773.092 1475.44 774.897 1479.01 Q776.726 1482.55 780.337 1482.55 Q783.971 1482.55 785.777 1479.01 Q787.606 1475.44 787.606 1468.33 Q787.606 1461.2 785.777 1457.66 Q783.971 1454.1 780.337 1454.1 M780.337 1450.39 Q786.147 1450.39 789.203 1455 Q792.281 1459.58 792.281 1468.33 Q792.281 1477.06 789.203 1481.67 Q786.147 1486.25 780.337 1486.25 Q774.527 1486.25 771.448 1481.67 Q768.393 1477.06 768.393 1468.33 Q768.393 1459.58 771.448 1455 Q774.527 1450.39 780.337 1450.39 Z" fill="#000000" fill-rule="nonzero" fill-opacity="1"></path><path clip-path="url(#clip140)" d="M810.499 1454.1 Q806.888 1454.1 805.059 1457.66 Q803.254 1461.2 803.254 1468.33 Q803.254 1475.44 805.059 1479.01 Q806.888 1482.55 810.499 1482.55 Q814.133 1482.55 815.939 1479.01 Q817.767 1475.44 817.767 1468.33 Q817.767 1461.2 815.939 1457.66 Q814.133 1454.1 810.499 1454.1 M810.499 1450.39 Q816.309 1450.39 819.365 1455 Q822.443 1459.58 822.443 1468.33 Q822.443 1477.06 819.365 1481.67 Q816.309 1486.25 810.499 1486.25 Q804.689 1486.25 801.61 1481.67 Q798.555 1477.06 798.555 1468.33 Q798.555 1459.58 801.61 1455 Q804.689 1450.39 810.499 1450.39 Z" fill="#000000" fill-rule="nonzero" fill-opacity="1"></path><path clip-path="url(#clip140)" d="M905.042 1481.64 L921.361 1481.64 L921.361 1485.58 L899.417 1485.58 L899.417 1481.64 Q902.079 1478.89 906.662 1474.26 Q911.268 1469.61 912.449 1468.27 Q914.694 1465.74 915.574 1464.01 Q916.477 1462.25 916.477 1460.56 Q916.477 1457.8 914.532 1456.07 Q912.611 1454.33 909.509 1454.33 Q907.31 1454.33 904.856 1455.09 Q902.426 1455.86 899.648 1457.41 L899.648 1452.69 Q902.472 1451.55 904.926 1450.97 Q907.38 1450.39 909.417 1450.39 Q914.787 1450.39 917.981 1453.08 Q921.176 1455.77 921.176 1460.26 Q921.176 1462.39 920.366 1464.31 Q919.579 1466.2 917.472 1468.8 Q916.893 1469.47 913.792 1472.69 Q910.69 1475.88 905.042 1481.64 Z" fill="#000000" fill-rule="nonzero" fill-opacity="1"></path><path clip-path="url(#clip140)" d="M931.176 1479.7 L936.06 1479.7 L936.06 1485.58 L931.176 1485.58 L931.176 1479.7 Z" fill="#000000" fill-rule="nonzero" fill-opacity="1"></path><path clip-path="url(#clip140)" d="M950.273 1481.64 L966.592 1481.64 L966.592 1485.58 L944.648 1485.58 L944.648 1481.64 Q947.31 1478.89 951.893 1474.26 Q956.5 1469.61 957.68 1468.27 Q959.926 1465.74 960.805 1464.01 Q961.708 1462.25 961.708 1460.56 Q961.708 1457.8 959.764 1456.07 Q957.842 1454.33 954.74 1454.33 Q952.541 1454.33 950.088 1455.09 Q947.657 1455.86 944.879 1457.41 L944.879 1452.69 Q947.703 1451.55 950.157 1450.97 Q952.611 1450.39 954.648 1450.39 Q960.018 1450.39 963.213 1453.08 Q966.407 1455.77 966.407 1460.26 Q966.407 1462.39 965.597 1464.31 Q964.81 1466.2 962.703 1468.8 Q962.125 1469.47 959.023 1472.69 Q955.921 1475.88 950.273 1481.64 Z" fill="#000000" fill-rule="nonzero" fill-opacity="1"></path><path clip-path="url(#clip140)" d="M976.453 1451.02 L994.81 1451.02 L994.81 1454.96 L980.736 1454.96 L980.736 1463.43 Q981.754 1463.08 982.773 1462.92 Q983.791 1462.73 984.81 1462.73 Q990.597 1462.73 993.976 1465.9 Q997.356 1469.08 997.356 1474.49 Q997.356 1480.07 993.884 1483.17 Q990.412 1486.25 984.092 1486.25 Q981.916 1486.25 979.648 1485.88 Q977.402 1485.51 974.995 1484.77 L974.995 1480.07 Q977.078 1481.2 979.301 1481.76 Q981.523 1482.32 984 1482.32 Q988.004 1482.32 990.342 1480.21 Q992.68 1478.1 992.68 1474.49 Q992.68 1470.88 990.342 1468.77 Q988.004 1466.67 984 1466.67 Q982.125 1466.67 980.25 1467.08 Q978.398 1467.5 976.453 1468.38 L976.453 1451.02 Z" fill="#000000" fill-rule="nonzero" fill-opacity="1"></path><path clip-path="url(#clip140)" d="M1079.95 1481.64 L1096.27 1481.64 L1096.27 1485.58 L1074.33 1485.58 L1074.33 1481.64 Q1076.99 1478.89 1081.57 1474.26 Q1086.18 1469.61 1087.36 1468.27 Q1089.61 1465.74 1090.49 1464.01 Q1091.39 1462.25 1091.39 1460.56 Q1091.39 1457.8 1089.44 1456.07 Q1087.52 1454.33 1084.42 1454.33 Q1082.22 1454.33 1079.77 1455.09 Q1077.34 1455.86 1074.56 1457.41 L1074.56 1452.69 Q1077.38 1451.55 1079.84 1450.97 Q1082.29 1450.39 1084.33 1450.39 Q1089.7 1450.39 1092.89 1453.08 Q1096.09 1455.77 1096.09 1460.26 Q1096.09 1462.39 1095.28 1464.31 Q1094.49 1466.2 1092.38 1468.8 Q1091.81 1469.47 1088.7 1472.69 Q1085.6 1475.88 1079.95 1481.64 Z" fill="#000000" fill-rule="nonzero" fill-opacity="1"></path><path clip-path="url(#clip140)" d="M1106.09 1479.7 L1110.97 1479.7 L1110.97 1485.58 L1106.09 1485.58 L1106.09 1479.7 Z" fill="#000000" fill-rule="nonzero" fill-opacity="1"></path><path clip-path="url(#clip140)" d="M1121.2 1451.02 L1139.56 1451.02 L1139.56 1454.96 L1125.49 1454.96 L1125.49 1463.43 Q1126.5 1463.08 1127.52 1462.92 Q1128.54 1462.73 1129.56 1462.73 Q1135.35 1462.73 1138.73 1465.9 Q1142.11 1469.08 1142.11 1474.49 Q1142.11 1480.07 1138.63 1483.17 Q1135.16 1486.25 1128.84 1486.25 Q1126.67 1486.25 1124.4 1485.88 Q1122.15 1485.51 1119.75 1484.77 L1119.75 1480.07 Q1121.83 1481.2 1124.05 1481.76 Q1126.27 1482.32 1128.75 1482.32 Q1132.75 1482.32 1135.09 1480.21 Q1137.43 1478.1 1137.43 1474.49 Q1137.43 1470.88 1135.09 1468.77 Q1132.75 1466.67 1128.75 1466.67 Q1126.88 1466.67 1125 1467.08 Q1123.15 1467.5 1121.2 1468.38 L1121.2 1451.02 Z" fill="#000000" fill-rule="nonzero" fill-opacity="1"></path><path clip-path="url(#clip140)" d="M1161.32 1454.1 Q1157.71 1454.1 1155.88 1457.66 Q1154.07 1461.2 1154.07 1468.33 Q1154.07 1475.44 1155.88 1479.01 Q1157.71 1482.55 1161.32 1482.55 Q1164.95 1482.55 1166.76 1479.01 Q1168.59 1475.44 1168.59 1468.33 Q1168.59 1461.2 1166.76 1457.66 Q1164.95 1454.1 1161.32 1454.1 M1161.32 1450.39 Q1167.13 1450.39 1170.19 1455 Q1173.26 1459.58 1173.26 1468.33 Q1173.26 1477.06 1170.19 1481.67 Q1167.13 1486.25 1161.32 1486.25 Q1155.51 1486.25 1152.43 1481.67 Q1149.38 1477.06 1149.38 1468.33 Q1149.38 1459.58 1152.43 1455 Q1155.51 1450.39 1161.32 1450.39 Z" fill="#000000" fill-rule="nonzero" fill-opacity="1"></path><path clip-path="url(#clip140)" d="M520.963 1518.52 L526.82 1518.52 L526.82 1568.04 L520.963 1568.04 L520.963 1518.52 Z" fill="#000000" fill-rule="nonzero" fill-opacity="1"></path><path clip-path="url(#clip140)" d="M552.887 1536.5 Q548.177 1536.5 545.439 1540.19 Q542.702 1543.85 542.702 1550.25 Q542.702 1556.65 545.408 1560.34 Q548.145 1564 552.887 1564 Q557.566 1564 560.303 1560.31 Q563.041 1556.62 563.041 1550.25 Q563.041 1543.92 560.303 1540.23 Q557.566 1536.5 552.887 1536.5 M552.887 1531.54 Q560.526 1531.54 564.887 1536.5 Q569.247 1541.47 569.247 1550.25 Q569.247 1559 564.887 1564 Q560.526 1568.97 552.887 1568.97 Q545.217 1568.97 540.856 1564 Q536.527 1559 536.527 1550.25 Q536.527 1541.47 540.856 1536.5 Q545.217 1531.54 552.887 1531.54 Z" fill="#000000" fill-rule="nonzero" fill-opacity="1"></path><path clip-path="url(#clip140)" d="M602.413 1549.81 Q602.413 1543.44 599.771 1539.94 Q597.161 1536.44 592.418 1536.44 Q587.708 1536.44 585.066 1539.94 Q582.456 1543.44 582.456 1549.81 Q582.456 1556.14 585.066 1559.64 Q587.708 1563.14 592.418 1563.14 Q597.161 1563.14 599.771 1559.64 Q602.413 1556.14 602.413 1549.81 M608.269 1563.62 Q608.269 1572.72 604.227 1577.15 Q600.185 1581.6 591.845 1581.6 Q588.758 1581.6 586.021 1581.13 Q583.284 1580.68 580.705 1579.72 L580.705 1574.03 Q583.284 1575.43 585.798 1576.1 Q588.312 1576.76 590.922 1576.76 Q596.683 1576.76 599.548 1573.74 Q602.413 1570.75 602.413 1564.67 L602.413 1561.77 Q600.598 1564.92 597.766 1566.48 Q594.933 1568.04 590.986 1568.04 Q584.429 1568.04 580.419 1563.05 Q576.409 1558.05 576.409 1549.81 Q576.409 1541.53 580.419 1536.53 Q584.429 1531.54 590.986 1531.54 Q594.933 1531.54 597.766 1533.1 Q600.598 1534.66 602.413 1537.81 L602.413 1532.4 L608.269 1532.4 L608.269 1563.62 Z" fill="#000000" fill-rule="nonzero" fill-opacity="1"></path><path clip-path="url(#clip140)" d="M622.274 1562.63 L632.777 1562.63 L632.777 1526.38 L621.35 1528.67 L621.35 1522.82 L632.713 1520.52 L639.143 1520.52 L639.143 1562.63 L649.646 1562.63 L649.646 1568.04 L622.274 1568.04 L622.274 1562.63 Z" fill="#000000" fill-rule="nonzero" fill-opacity="1"></path><path clip-path="url(#clip140)" d="M676.382 1524.76 Q671.417 1524.76 668.902 1529.66 Q666.42 1534.53 666.42 1544.33 Q666.42 1554.1 668.902 1559 Q671.417 1563.87 676.382 1563.87 Q681.379 1563.87 683.862 1559 Q686.376 1554.1 686.376 1544.33 Q686.376 1534.53 683.862 1529.66 Q681.379 1524.76 676.382 1524.76 M676.382 1519.66 Q684.371 1519.66 688.572 1526 Q692.806 1532.3 692.806 1544.33 Q692.806 1556.33 688.572 1562.66 Q684.371 1568.97 676.382 1568.97 Q668.393 1568.97 664.16 1562.66 Q659.959 1556.33 659.959 1544.33 Q659.959 1532.3 664.16 1526 Q668.393 1519.66 676.382 1519.66 Z" fill="#000000" fill-rule="nonzero" fill-opacity="1"></path><path clip-path="url(#clip140)" d="M717.345 1518.58 Q713.08 1525.9 711.011 1533.06 Q708.943 1540.23 708.943 1547.58 Q708.943 1554.93 711.011 1562.16 Q713.112 1569.35 717.345 1576.64 L712.253 1576.64 Q707.479 1569.16 705.091 1561.93 Q702.736 1554.71 702.736 1547.58 Q702.736 1540.48 705.091 1533.29 Q707.447 1526.09 712.253 1518.58 L717.345 1518.58 Z" fill="#000000" fill-rule="nonzero" fill-opacity="1"></path><path clip-path="url(#clip140)" d="M730.65 1562.63 L741.153 1562.63 L741.153 1526.38 L729.727 1528.67 L729.727 1522.82 L741.089 1520.52 L747.519 1520.52 L747.519 1562.63 L758.022 1562.63 L758.022 1568.04 L730.65 1568.04 L730.65 1562.63 Z" fill="#000000" fill-rule="nonzero" fill-opacity="1"></path><path clip-path="url(#clip140)" d="M780.589 1520.52 L785.999 1520.52 L769.449 1574.09 L764.038 1574.09 L780.589 1520.52 Z" fill="#000000" fill-rule="nonzero" fill-opacity="1"></path><path clip-path="url(#clip140)" d="M808.279 1526.86 L795.23 1562.7 L821.361 1562.7 L808.279 1526.86 M786.509 1568.04 L804.651 1520.52 L811.94 1520.52 L830.05 1568.04 L786.509 1568.04 Z" fill="#000000" fill-rule="nonzero" fill-opacity="1"></path><path clip-path="url(#clip140)" d="M866.367 1532.4 L853.476 1549.74 L867.035 1568.04 L860.128 1568.04 L849.752 1554.04 L839.376 1568.04 L832.469 1568.04 L846.315 1549.39 L833.647 1532.4 L840.554 1532.4 L850.007 1545.1 L859.46 1532.4 L866.367 1532.4 Z" fill="#000000" fill-rule="nonzero" fill-opacity="1"></path><path clip-path="url(#clip140)" d="M874.387 1518.58 L879.48 1518.58 Q884.254 1526.09 886.609 1533.29 Q888.997 1540.48 888.997 1547.58 Q888.997 1554.71 886.609 1561.93 Q884.254 1569.16 879.48 1576.64 L874.387 1576.64 Q878.621 1569.35 880.689 1562.16 Q882.79 1554.93 882.79 1547.58 Q882.79 1540.23 880.689 1533.06 Q878.621 1525.9 874.387 1518.58 Z" fill="#000000" fill-rule="nonzero" fill-opacity="1"></path><polyline clip-path="url(#clip142)" style="stroke:#000000; stroke-linecap:round; stroke-linejoin:round; stroke-width:2; stroke-opacity:0.1; fill:none" points="257.204,1290.02 1152.76,1290.02 "></polyline>
<polyline clip-path="url(#clip142)" style="stroke:#000000; stroke-linecap:round; stroke-linejoin:round; stroke-width:2; stroke-opacity:0.1; fill:none" points="257.204,1020.52 1152.76,1020.52 "></polyline>
<polyline clip-path="url(#clip142)" style="stroke:#000000; stroke-linecap:round; stroke-linejoin:round; stroke-width:2; stroke-opacity:0.1; fill:none" points="257.204,751.014 1152.76,751.014 "></polyline>
<polyline clip-path="url(#clip142)" style="stroke:#000000; stroke-linecap:round; stroke-linejoin:round; stroke-width:2; stroke-opacity:0.1; fill:none" points="257.204,481.511 1152.76,481.511 "></polyline>
<polyline clip-path="url(#clip142)" style="stroke:#000000; stroke-linecap:round; stroke-linejoin:round; stroke-width:2; stroke-opacity:0.1; fill:none" points="257.204,212.009 1152.76,212.009 "></polyline>
<polyline clip-path="url(#clip140)" style="stroke:#000000; stroke-linecap:round; stroke-linejoin:round; stroke-width:4; stroke-opacity:1; fill:none" points="257.204,1423.18 257.204,47.2441 "></polyline>
<polyline clip-path="url(#clip140)" style="stroke:#000000; stroke-linecap:round; stroke-linejoin:round; stroke-width:4; stroke-opacity:1; fill:none" points="257.204,1290.02 276.102,1290.02 "></polyline>
<polyline clip-path="url(#clip140)" style="stroke:#000000; stroke-linecap:round; stroke-linejoin:round; stroke-width:4; stroke-opacity:1; fill:none" points="257.204,1020.52 276.102,1020.52 "></polyline>
<polyline clip-path="url(#clip140)" style="stroke:#000000; stroke-linecap:round; stroke-linejoin:round; stroke-width:4; stroke-opacity:1; fill:none" points="257.204,751.014 276.102,751.014 "></polyline>
<polyline clip-path="url(#clip140)" style="stroke:#000000; stroke-linecap:round; stroke-linejoin:round; stroke-width:4; stroke-opacity:1; fill:none" points="257.204,481.511 276.102,481.511 "></polyline>
<polyline clip-path="url(#clip140)" style="stroke:#000000; stroke-linecap:round; stroke-linejoin:round; stroke-width:4; stroke-opacity:1; fill:none" points="257.204,212.009 276.102,212.009 "></polyline>
<path clip-path="url(#clip140)" d="M115.256 1290.47 L144.931 1290.47 L144.931 1294.4 L115.256 1294.4 L115.256 1290.47 Z" fill="#000000" fill-rule="nonzero" fill-opacity="1"></path><path clip-path="url(#clip140)" d="M167.871 1276.81 L156.065 1295.26 L167.871 1295.26 L167.871 1276.81 M166.644 1272.74 L172.524 1272.74 L172.524 1295.26 L177.454 1295.26 L177.454 1299.15 L172.524 1299.15 L172.524 1307.3 L167.871 1307.3 L167.871 1299.15 L152.269 1299.15 L152.269 1294.64 L166.644 1272.74 Z" fill="#000000" fill-rule="nonzero" fill-opacity="1"></path><path clip-path="url(#clip140)" d="M185.186 1301.42 L190.07 1301.42 L190.07 1307.3 L185.186 1307.3 L185.186 1301.42 Z" fill="#000000" fill-rule="nonzero" fill-opacity="1"></path><path clip-path="url(#clip140)" d="M200.301 1272.74 L218.658 1272.74 L218.658 1276.67 L204.584 1276.67 L204.584 1285.15 Q205.602 1284.8 206.621 1284.64 Q207.639 1284.45 208.658 1284.45 Q214.445 1284.45 217.824 1287.62 Q221.204 1290.79 221.204 1296.21 Q221.204 1301.79 217.732 1304.89 Q214.26 1307.97 207.94 1307.97 Q205.764 1307.97 203.496 1307.6 Q201.25 1307.23 198.843 1306.49 L198.843 1301.79 Q200.926 1302.92 203.149 1303.48 Q205.371 1304.03 207.848 1304.03 Q211.852 1304.03 214.19 1301.93 Q216.528 1299.82 216.528 1296.21 Q216.528 1292.6 214.19 1290.49 Q211.852 1288.39 207.848 1288.39 Q205.973 1288.39 204.098 1288.8 Q202.246 1289.22 200.301 1290.1 L200.301 1272.74 Z" fill="#000000" fill-rule="nonzero" fill-opacity="1"></path><path clip-path="url(#clip140)" d="M114.26 1020.97 L143.936 1020.97 L143.936 1024.9 L114.26 1024.9 L114.26 1020.97 Z" fill="#000000" fill-rule="nonzero" fill-opacity="1"></path><path clip-path="url(#clip140)" d="M166.876 1007.31 L155.07 1025.76 L166.876 1025.76 L166.876 1007.31 M165.649 1003.24 L171.528 1003.24 L171.528 1025.76 L176.459 1025.76 L176.459 1029.65 L171.528 1029.65 L171.528 1037.8 L166.876 1037.8 L166.876 1029.65 L151.274 1029.65 L151.274 1025.13 L165.649 1003.24 Z" fill="#000000" fill-rule="nonzero" fill-opacity="1"></path><path clip-path="url(#clip140)" d="M184.19 1031.92 L189.075 1031.92 L189.075 1037.8 L184.19 1037.8 L184.19 1031.92 Z" fill="#000000" fill-rule="nonzero" fill-opacity="1"></path><path clip-path="url(#clip140)" d="M209.26 1006.31 Q205.649 1006.31 203.82 1009.88 Q202.014 1013.42 202.014 1020.55 Q202.014 1027.66 203.82 1031.22 Q205.649 1034.76 209.26 1034.76 Q212.894 1034.76 214.699 1031.22 Q216.528 1027.66 216.528 1020.55 Q216.528 1013.42 214.699 1009.88 Q212.894 1006.31 209.26 1006.31 M209.26 1002.61 Q215.07 1002.61 218.125 1007.22 Q221.204 1011.8 221.204 1020.55 Q221.204 1029.28 218.125 1033.88 Q215.07 1038.47 209.26 1038.47 Q203.449 1038.47 200.371 1033.88 Q197.315 1029.28 197.315 1020.55 Q197.315 1011.8 200.371 1007.22 Q203.449 1002.61 209.26 1002.61 Z" fill="#000000" fill-rule="nonzero" fill-opacity="1"></path><path clip-path="url(#clip140)" d="M115.256 751.465 L144.931 751.465 L144.931 755.4 L115.256 755.4 L115.256 751.465 Z" fill="#000000" fill-rule="nonzero" fill-opacity="1"></path><path clip-path="url(#clip140)" d="M169.19 749.659 Q172.547 750.377 174.422 752.646 Q176.32 754.914 176.32 758.247 Q176.32 763.363 172.802 766.164 Q169.283 768.965 162.802 768.965 Q160.626 768.965 158.311 768.525 Q156.019 768.108 153.566 767.252 L153.566 762.738 Q155.51 763.872 157.825 764.451 Q160.14 765.03 162.663 765.03 Q167.061 765.03 169.352 763.294 Q171.667 761.558 171.667 758.247 Q171.667 755.192 169.514 753.479 Q167.385 751.743 163.565 751.743 L159.538 751.743 L159.538 747.9 L163.751 747.9 Q167.2 747.9 169.028 746.534 Q170.857 745.146 170.857 742.553 Q170.857 739.891 168.959 738.479 Q167.084 737.044 163.565 737.044 Q161.644 737.044 159.445 737.46 Q157.246 737.877 154.607 738.757 L154.607 734.59 Q157.269 733.849 159.584 733.479 Q161.922 733.109 163.982 733.109 Q169.306 733.109 172.408 735.539 Q175.51 737.947 175.51 742.067 Q175.51 744.937 173.866 746.928 Q172.223 748.896 169.19 749.659 Z" fill="#000000" fill-rule="nonzero" fill-opacity="1"></path><path clip-path="url(#clip140)" d="M185.186 762.414 L190.07 762.414 L190.07 768.294 L185.186 768.294 L185.186 762.414 Z" fill="#000000" fill-rule="nonzero" fill-opacity="1"></path><path clip-path="url(#clip140)" d="M200.301 733.734 L218.658 733.734 L218.658 737.669 L204.584 737.669 L204.584 746.141 Q205.602 745.794 206.621 745.632 Q207.639 745.447 208.658 745.447 Q214.445 745.447 217.824 748.618 Q221.204 751.789 221.204 757.206 Q221.204 762.784 217.732 765.886 Q214.26 768.965 207.94 768.965 Q205.764 768.965 203.496 768.595 Q201.25 768.224 198.843 767.483 L198.843 762.784 Q200.926 763.919 203.149 764.474 Q205.371 765.03 207.848 765.03 Q211.852 765.03 214.19 762.923 Q216.528 760.817 216.528 757.206 Q216.528 753.595 214.19 751.488 Q211.852 749.382 207.848 749.382 Q205.973 749.382 204.098 749.798 Q202.246 750.215 200.301 751.095 L200.301 733.734 Z" fill="#000000" fill-rule="nonzero" fill-opacity="1"></path><path clip-path="url(#clip140)" d="M114.26 481.963 L143.936 481.963 L143.936 485.898 L114.26 485.898 L114.26 481.963 Z" fill="#000000" fill-rule="nonzero" fill-opacity="1"></path><path clip-path="url(#clip140)" d="M168.195 480.157 Q171.552 480.875 173.427 483.143 Q175.325 485.412 175.325 488.745 Q175.325 493.861 171.806 496.662 Q168.288 499.463 161.806 499.463 Q159.63 499.463 157.315 499.023 Q155.024 498.606 152.57 497.75 L152.57 493.236 Q154.515 494.37 156.829 494.949 Q159.144 495.527 161.667 495.527 Q166.065 495.527 168.357 493.791 Q170.672 492.055 170.672 488.745 Q170.672 485.689 168.519 483.977 Q166.39 482.24 162.57 482.24 L158.542 482.24 L158.542 478.398 L162.755 478.398 Q166.204 478.398 168.033 477.032 Q169.862 475.643 169.862 473.051 Q169.862 470.389 167.964 468.977 Q166.089 467.541 162.57 467.541 Q160.649 467.541 158.45 467.958 Q156.251 468.375 153.612 469.254 L153.612 465.088 Q156.274 464.347 158.589 463.977 Q160.927 463.606 162.987 463.606 Q168.311 463.606 171.413 466.037 Q174.514 468.444 174.514 472.565 Q174.514 475.435 172.871 477.426 Q171.227 479.393 168.195 480.157 Z" fill="#000000" fill-rule="nonzero" fill-opacity="1"></path><path clip-path="url(#clip140)" d="M184.19 492.912 L189.075 492.912 L189.075 498.791 L184.19 498.791 L184.19 492.912 Z" fill="#000000" fill-rule="nonzero" fill-opacity="1"></path><path clip-path="url(#clip140)" d="M209.26 467.31 Q205.649 467.31 203.82 470.875 Q202.014 474.416 202.014 481.546 Q202.014 488.652 203.82 492.217 Q205.649 495.759 209.26 495.759 Q212.894 495.759 214.699 492.217 Q216.528 488.652 216.528 481.546 Q216.528 474.416 214.699 470.875 Q212.894 467.31 209.26 467.31 M209.26 463.606 Q215.07 463.606 218.125 468.213 Q221.204 472.796 221.204 481.546 Q221.204 490.273 218.125 494.879 Q215.07 499.463 209.26 499.463 Q203.449 499.463 200.371 494.879 Q197.315 490.273 197.315 481.546 Q197.315 472.796 200.371 468.213 Q203.449 463.606 209.26 463.606 Z" fill="#000000" fill-rule="nonzero" fill-opacity="1"></path><path clip-path="url(#clip140)" d="M115.256 212.46 L144.931 212.46 L144.931 216.395 L115.256 216.395 L115.256 212.46 Z" fill="#000000" fill-rule="nonzero" fill-opacity="1"></path><path clip-path="url(#clip140)" d="M159.052 225.354 L175.371 225.354 L175.371 229.289 L153.427 229.289 L153.427 225.354 Q156.089 222.599 160.672 217.97 Q165.278 213.317 166.459 211.974 Q168.704 209.451 169.584 207.715 Q170.487 205.956 170.487 204.266 Q170.487 201.511 168.542 199.775 Q166.621 198.039 163.519 198.039 Q161.32 198.039 158.866 198.803 Q156.436 199.567 153.658 201.118 L153.658 196.396 Q156.482 195.261 158.936 194.683 Q161.39 194.104 163.427 194.104 Q168.797 194.104 171.991 196.789 Q175.186 199.474 175.186 203.965 Q175.186 206.095 174.376 208.016 Q173.589 209.914 171.482 212.507 Q170.903 213.178 167.802 216.395 Q164.7 219.59 159.052 225.354 Z" fill="#000000" fill-rule="nonzero" fill-opacity="1"></path><path clip-path="url(#clip140)" d="M185.186 223.409 L190.07 223.409 L190.07 229.289 L185.186 229.289 L185.186 223.409 Z" fill="#000000" fill-rule="nonzero" fill-opacity="1"></path><path clip-path="url(#clip140)" d="M200.301 194.729 L218.658 194.729 L218.658 198.664 L204.584 198.664 L204.584 207.136 Q205.602 206.789 206.621 206.627 Q207.639 206.442 208.658 206.442 Q214.445 206.442 217.824 209.613 Q221.204 212.784 221.204 218.201 Q221.204 223.78 217.732 226.882 Q214.26 229.96 207.94 229.96 Q205.764 229.96 203.496 229.59 Q201.25 229.219 198.843 228.479 L198.843 223.78 Q200.926 224.914 203.149 225.47 Q205.371 226.025 207.848 226.025 Q211.852 226.025 214.19 223.919 Q216.528 221.812 216.528 218.201 Q216.528 214.59 214.19 212.483 Q211.852 210.377 207.848 210.377 Q205.973 210.377 204.098 210.794 Q202.246 211.21 200.301 212.09 L200.301 194.729 Z" fill="#000000" fill-rule="nonzero" fill-opacity="1"></path><path clip-path="url(#clip140)" d="M14.479 885.268 L14.479 879.411 L64.0042 879.411 L64.0042 885.268 L14.479 885.268 Z" fill="#000000" fill-rule="nonzero" fill-opacity="1"></path><path clip-path="url(#clip140)" d="M32.4621 853.344 Q32.4621 858.054 36.1542 860.791 Q39.8145 863.529 46.212 863.529 Q52.6095 863.529 56.3017 860.823 Q59.9619 858.086 59.9619 853.344 Q59.9619 848.665 56.2698 845.928 Q52.5777 843.19 46.212 843.19 Q39.8781 843.19 36.186 845.928 Q32.4621 848.665 32.4621 853.344 M27.4968 853.344 Q27.4968 845.705 32.4621 841.344 Q37.4273 836.984 46.212 836.984 Q54.9649 836.984 59.9619 841.344 Q64.9272 845.705 64.9272 853.344 Q64.9272 861.014 59.9619 865.375 Q54.9649 869.703 46.212 869.703 Q37.4273 869.703 32.4621 865.375 Q27.4968 861.014 27.4968 853.344 Z" fill="#000000" fill-rule="nonzero" fill-opacity="1"></path><path clip-path="url(#clip140)" d="M45.7664 803.818 Q39.4007 803.818 35.8996 806.46 Q32.3984 809.07 32.3984 813.813 Q32.3984 818.523 35.8996 821.165 Q39.4007 823.775 45.7664 823.775 Q52.1003 823.775 55.6014 821.165 Q59.1026 818.523 59.1026 813.813 Q59.1026 809.07 55.6014 806.46 Q52.1003 803.818 45.7664 803.818 M59.58 797.962 Q68.683 797.962 73.1071 802.004 Q77.5631 806.046 77.5631 814.385 Q77.5631 817.473 77.0857 820.21 Q76.6401 822.947 75.6852 825.525 L69.9879 825.525 Q71.3884 822.947 72.0568 820.433 Q72.7252 817.918 72.7252 815.308 Q72.7252 809.548 69.7015 806.683 Q66.7096 803.818 60.6303 803.818 L57.7339 803.818 Q60.885 805.633 62.4446 808.465 Q64.0042 811.298 64.0042 815.245 Q64.0042 821.801 59.0071 825.812 Q54.01 829.822 45.7664 829.822 Q37.491 829.822 32.4939 825.812 Q27.4968 821.801 27.4968 815.245 Q27.4968 811.298 29.0564 808.465 Q30.616 805.633 33.7671 803.818 L28.3562 803.818 L28.3562 797.962 L59.58 797.962 Z" fill="#000000" fill-rule="nonzero" fill-opacity="1"></path><path clip-path="url(#clip140)" d="M58.5933 783.957 L58.5933 773.454 L22.3406 773.454 L24.6323 784.88 L18.7758 784.88 L16.4842 773.518 L16.4842 767.088 L58.5933 767.088 L58.5933 756.585 L64.0042 756.585 L64.0042 783.957 L58.5933 783.957 Z" fill="#000000" fill-rule="nonzero" fill-opacity="1"></path><path clip-path="url(#clip140)" d="M20.7174 729.849 Q20.7174 734.814 25.6189 737.329 Q30.4887 739.811 40.2919 739.811 Q50.0633 739.811 54.9649 737.329 Q59.8346 734.814 59.8346 729.849 Q59.8346 724.852 54.9649 722.369 Q50.0633 719.855 40.2919 719.855 Q30.4887 719.855 25.6189 722.369 Q20.7174 724.852 20.7174 729.849 M15.6248 729.849 Q15.6248 721.86 21.9587 717.659 Q28.2607 713.425 40.2919 713.425 Q52.2913 713.425 58.6251 717.659 Q64.9272 721.86 64.9272 729.849 Q64.9272 737.838 58.6251 742.071 Q52.2913 746.272 40.2919 746.272 Q28.2607 746.272 21.9587 742.071 Q15.6248 737.838 15.6248 729.849 Z" fill="#000000" fill-rule="nonzero" fill-opacity="1"></path><path clip-path="url(#clip140)" d="M14.5426 688.886 Q21.8632 693.151 29.0246 695.219 Q36.186 697.288 43.5384 697.288 Q50.8908 697.288 58.1159 695.219 Q65.3091 693.119 72.5979 688.886 L72.5979 693.978 Q65.1182 698.752 57.8931 701.14 Q50.668 703.495 43.5384 703.495 Q36.4406 703.495 29.2474 701.14 Q22.0542 698.784 14.5426 693.978 L14.5426 688.886 Z" fill="#000000" fill-rule="nonzero" fill-opacity="1"></path><path clip-path="url(#clip140)" d="M34.0217 652.346 Q33.6079 653.524 33.2896 654.702 Q32.4621 657.853 32.4621 661.227 Q32.4621 667.051 35.6131 670.298 Q38.5413 673.321 43.9204 673.894 L43.9204 652.346 L48.5037 652.346 L48.5037 673.894 Q53.8827 673.321 56.8109 670.298 Q59.9619 667.051 59.9619 661.227 Q59.9619 657.152 59.1344 654.702 L58.3387 652.346 L63.654 652.346 L64.227 654.861 Q64.9272 658.171 64.9272 661.577 Q64.9272 670.107 59.9619 675.072 Q54.9967 680.069 46.212 680.069 Q37.4273 680.069 32.4621 675.072 Q27.4968 670.107 27.4968 661.577 Q27.4968 658.362 28.1971 654.861 Q28.4517 653.588 28.8336 652.346 L34.0217 652.346 Z" fill="#000000" fill-rule="nonzero" fill-opacity="1"></path><path clip-path="url(#clip140)" d="M28.3562 607.786 L45.7028 620.677 L64.0042 607.118 L64.0042 614.025 L49.9996 624.401 L64.0042 634.777 L64.0042 641.684 L45.3526 627.838 L28.3562 640.506 L28.3562 633.599 L41.0558 624.146 L28.3562 614.693 L28.3562 607.786 Z" fill="#000000" fill-rule="nonzero" fill-opacity="1"></path><path clip-path="url(#clip140)" d="M14.5426 599.766 L14.5426 594.673 Q22.0542 589.899 29.2474 587.543 Q36.4406 585.156 43.5384 585.156 Q50.668 585.156 57.8931 587.543 Q65.1182 589.899 72.5979 594.673 L72.5979 599.766 Q65.3091 595.532 58.1159 593.464 Q50.8908 591.363 43.5384 591.363 Q36.186 591.363 29.0246 593.464 Q21.8632 595.532 14.5426 599.766 Z" fill="#000000" fill-rule="nonzero" fill-opacity="1"></path><circle clip-path="url(#clip142)" cx="282.55" cy="86.1857" r="14.4" fill="#009af9" fill-rule="evenodd" fill-opacity="1" stroke="#000000" stroke-opacity="1" stroke-width="3.2"></circle>
<circle clip-path="url(#clip142)" cx="493.765" cy="399.532" r="14.4" fill="#009af9" fill-rule="evenodd" fill-opacity="1" stroke="#000000" stroke-opacity="1" stroke-width="3.2"></circle>
<circle clip-path="url(#clip142)" cx="704.98" cy="723.742" r="14.4" fill="#009af9" fill-rule="evenodd" fill-opacity="1" stroke="#000000" stroke-opacity="1" stroke-width="3.2"></circle>
<circle clip-path="url(#clip142)" cx="916.195" cy="1048.27" r="14.4" fill="#009af9" fill-rule="evenodd" fill-opacity="1" stroke="#000000" stroke-opacity="1" stroke-width="3.2"></circle>
<circle clip-path="url(#clip142)" cx="1127.41" cy="1372.66" r="14.4" fill="#009af9" fill-rule="evenodd" fill-opacity="1" stroke="#000000" stroke-opacity="1" stroke-width="3.2"></circle>
<polyline clip-path="url(#clip142)" style="stroke:#e26f46; stroke-linecap:round; stroke-linejoin:round; stroke-width:4; stroke-opacity:1; fill:none" points="282.55,86.1857 493.765,248.442 704.98,410.699 916.195,572.955 1127.41,735.212 "></polyline>
<polyline clip-path="url(#clip142)" style="stroke:#3da44d; stroke-linecap:round; stroke-linejoin:round; stroke-width:4; stroke-opacity:1; fill:none" points="282.55,86.1857 493.765,410.699 704.98,735.212 916.195,1059.73 1127.41,1384.24 "></polyline>
<path clip-path="url(#clip140)" d="M972.909 300.469 L1122.9 300.469 L1122.9 93.1086 L972.909 93.1086  Z" fill="#ffffff" fill-rule="evenodd" fill-opacity="1"></path>
<polyline clip-path="url(#clip140)" style="stroke:#000000; stroke-linecap:round; stroke-linejoin:round; stroke-width:4; stroke-opacity:1; fill:none" points="972.909,300.469 1122.9,300.469 1122.9,93.1086 972.909,93.1086 972.909,300.469 "></polyline>
<circle clip-path="url(#clip140)" cx="1012.71" cy="144.949" r="20.48" fill="#009af9" fill-rule="evenodd" fill-opacity="1" stroke="#000000" stroke-opacity="1" stroke-width="4.55111"></circle>
<path clip-path="url(#clip140)" d="M1072.68 140.423 Q1071.82 140.122 1070.96 139.891 Q1068.67 139.289 1066.22 139.289 Q1061.98 139.289 1059.62 141.581 Q1057.42 143.71 1057 147.622 L1072.68 147.622 L1072.68 150.956 L1057 150.956 Q1057.42 154.868 1059.62 156.997 Q1061.98 159.289 1066.22 159.289 Q1069.18 159.289 1070.96 158.687 L1072.68 158.108 L1072.68 161.974 L1070.85 162.391 Q1068.44 162.9 1065.96 162.9 Q1059.76 162.9 1056.15 159.289 Q1052.51 155.678 1052.51 149.289 Q1052.51 142.9 1056.15 139.289 Q1059.76 135.678 1065.96 135.678 Q1068.3 135.678 1070.85 136.187 Q1071.77 136.372 1072.68 136.65 L1072.68 140.423 Z" fill="#000000" fill-rule="nonzero" fill-opacity="1"></path><polyline clip-path="url(#clip140)" style="stroke:#e26f46; stroke-linecap:round; stroke-linejoin:round; stroke-width:4; stroke-opacity:1; fill:none" points="982.86,196.789 1042.56,196.789 "></polyline>
<path clip-path="url(#clip140)" d="M1068.53 182.68 Q1063.44 182.68 1060.43 186.476 Q1057.44 190.272 1057.44 196.823 Q1057.44 203.351 1060.43 207.147 Q1063.44 210.944 1068.53 210.944 Q1073.63 210.944 1076.59 207.147 Q1079.57 203.351 1079.57 196.823 Q1079.57 190.272 1076.59 186.476 Q1073.63 182.68 1068.53 182.68 M1068.53 178.884 Q1075.8 178.884 1080.15 183.768 Q1084.5 188.629 1084.5 196.823 Q1084.5 204.995 1080.15 209.879 Q1075.8 214.74 1068.53 214.74 Q1061.24 214.74 1056.87 209.879 Q1052.51 205.018 1052.51 196.823 Q1052.51 188.629 1056.87 183.768 Q1061.24 178.884 1068.53 178.884 Z" fill="#000000" fill-rule="nonzero" fill-opacity="1"></path><path clip-path="url(#clip140)" d="M1093.05 210.133 L1100.69 210.133 L1100.69 183.768 L1092.38 185.435 L1092.38 181.175 L1100.64 179.509 L1105.31 179.509 L1105.31 210.133 L1112.95 210.133 L1112.95 214.069 L1093.05 214.069 L1093.05 210.133 Z" fill="#000000" fill-rule="nonzero" fill-opacity="1"></path><polyline clip-path="url(#clip140)" style="stroke:#3da44d; stroke-linecap:round; stroke-linejoin:round; stroke-width:4; stroke-opacity:1; fill:none" points="982.86,248.629 1042.56,248.629 "></polyline>
<path clip-path="url(#clip140)" d="M1068.53 234.52 Q1063.44 234.52 1060.43 238.316 Q1057.44 242.112 1057.44 248.663 Q1057.44 255.191 1060.43 258.987 Q1063.44 262.784 1068.53 262.784 Q1073.63 262.784 1076.59 258.987 Q1079.57 255.191 1079.57 248.663 Q1079.57 242.112 1076.59 238.316 Q1073.63 234.52 1068.53 234.52 M1068.53 230.724 Q1075.8 230.724 1080.15 235.608 Q1084.5 240.469 1084.5 248.663 Q1084.5 256.835 1080.15 261.719 Q1075.8 266.58 1068.53 266.58 Q1061.24 266.58 1056.87 261.719 Q1052.51 256.858 1052.51 248.663 Q1052.51 240.469 1056.87 235.608 Q1061.24 230.724 1068.53 230.724 Z" fill="#000000" fill-rule="nonzero" fill-opacity="1"></path><path clip-path="url(#clip140)" d="M1096.26 261.973 L1112.58 261.973 L1112.58 265.909 L1090.64 265.909 L1090.64 261.973 Q1093.3 259.219 1097.88 254.589 Q1102.49 249.936 1103.67 248.594 Q1105.92 246.071 1106.8 244.335 Q1107.7 242.575 1107.7 240.886 Q1107.7 238.131 1105.75 236.395 Q1103.83 234.659 1100.73 234.659 Q1098.53 234.659 1096.08 235.423 Q1093.65 236.187 1090.87 237.737 L1090.87 233.015 Q1093.69 231.881 1096.15 231.302 Q1098.6 230.724 1100.64 230.724 Q1106.01 230.724 1109.2 233.409 Q1112.4 236.094 1112.4 240.585 Q1112.4 242.714 1111.59 244.636 Q1110.8 246.534 1108.69 249.126 Q1108.12 249.798 1105.01 253.015 Q1101.91 256.21 1096.26 261.973 Z" fill="#000000" fill-rule="nonzero" fill-opacity="1"></path><path clip-path="url(#clip140)" d="M1457.2 1423.18 L2352.76 1423.18 L2352.76 47.2441 L1457.2 47.2441  Z" fill="#ffffff" fill-rule="evenodd" fill-opacity="1"></path>
<defs>
  <clipPath id="clip143">
    <rect x="1457" y="47" width="897" height="1377"></rect>
  </clipPath>
</defs>
<polyline clip-path="url(#clip143)" style="stroke:#000000; stroke-linecap:round; stroke-linejoin:round; stroke-width:2; stroke-opacity:0.1; fill:none" points="1482.55,1423.18 1482.55,47.2441 "></polyline>
<polyline clip-path="url(#clip143)" style="stroke:#000000; stroke-linecap:round; stroke-linejoin:round; stroke-width:2; stroke-opacity:0.1; fill:none" points="1716.43,1423.18 1716.43,47.2441 "></polyline>
<polyline clip-path="url(#clip143)" style="stroke:#000000; stroke-linecap:round; stroke-linejoin:round; stroke-width:2; stroke-opacity:0.1; fill:none" points="1950.31,1423.18 1950.31,47.2441 "></polyline>
<polyline clip-path="url(#clip143)" style="stroke:#000000; stroke-linecap:round; stroke-linejoin:round; stroke-width:2; stroke-opacity:0.1; fill:none" points="2184.19,1423.18 2184.19,47.2441 "></polyline>
<polyline clip-path="url(#clip140)" style="stroke:#000000; stroke-linecap:round; stroke-linejoin:round; stroke-width:4; stroke-opacity:1; fill:none" points="1457.2,1423.18 2352.76,1423.18 "></polyline>
<polyline clip-path="url(#clip140)" style="stroke:#000000; stroke-linecap:round; stroke-linejoin:round; stroke-width:4; stroke-opacity:1; fill:none" points="1482.55,1423.18 1482.55,1404.28 "></polyline>
<polyline clip-path="url(#clip140)" style="stroke:#000000; stroke-linecap:round; stroke-linejoin:round; stroke-width:4; stroke-opacity:1; fill:none" points="1716.43,1423.18 1716.43,1404.28 "></polyline>
<polyline clip-path="url(#clip140)" style="stroke:#000000; stroke-linecap:round; stroke-linejoin:round; stroke-width:4; stroke-opacity:1; fill:none" points="1950.31,1423.18 1950.31,1404.28 "></polyline>
<polyline clip-path="url(#clip140)" style="stroke:#000000; stroke-linecap:round; stroke-linejoin:round; stroke-width:4; stroke-opacity:1; fill:none" points="2184.19,1423.18 2184.19,1404.28 "></polyline>
<path clip-path="url(#clip140)" d="M1463.86 1466.95 Q1467.21 1467.66 1469.09 1469.93 Q1470.99 1472.2 1470.99 1475.53 Q1470.99 1480.65 1467.47 1483.45 Q1463.95 1486.25 1457.47 1486.25 Q1455.29 1486.25 1452.98 1485.81 Q1450.69 1485.39 1448.23 1484.54 L1448.23 1480.02 Q1450.18 1481.16 1452.49 1481.74 Q1454.81 1482.32 1457.33 1482.32 Q1461.73 1482.32 1464.02 1480.58 Q1466.33 1478.84 1466.33 1475.53 Q1466.33 1472.48 1464.18 1470.77 Q1462.05 1469.03 1458.23 1469.03 L1454.21 1469.03 L1454.21 1465.19 L1458.42 1465.19 Q1461.87 1465.19 1463.7 1463.82 Q1465.52 1462.43 1465.52 1459.84 Q1465.52 1457.18 1463.63 1455.77 Q1461.75 1454.33 1458.23 1454.33 Q1456.31 1454.33 1454.11 1454.75 Q1451.91 1455.16 1449.27 1456.04 L1449.27 1451.88 Q1451.94 1451.14 1454.25 1450.77 Q1456.59 1450.39 1458.65 1450.39 Q1463.97 1450.39 1467.08 1452.83 Q1470.18 1455.23 1470.18 1459.35 Q1470.18 1462.22 1468.53 1464.21 Q1466.89 1466.18 1463.86 1466.95 Z" fill="#000000" fill-rule="nonzero" fill-opacity="1"></path><path clip-path="url(#clip140)" d="M1479.85 1479.7 L1484.74 1479.7 L1484.74 1485.58 L1479.85 1485.58 L1479.85 1479.7 Z" fill="#000000" fill-rule="nonzero" fill-opacity="1"></path><path clip-path="url(#clip140)" d="M1504.92 1454.1 Q1501.31 1454.1 1499.48 1457.66 Q1497.68 1461.2 1497.68 1468.33 Q1497.68 1475.44 1499.48 1479.01 Q1501.31 1482.55 1504.92 1482.55 Q1508.56 1482.55 1510.36 1479.01 Q1512.19 1475.44 1512.19 1468.33 Q1512.19 1461.2 1510.36 1457.66 Q1508.56 1454.1 1504.92 1454.1 M1504.92 1450.39 Q1510.73 1450.39 1513.79 1455 Q1516.87 1459.58 1516.87 1468.33 Q1516.87 1477.06 1513.79 1481.67 Q1510.73 1486.25 1504.92 1486.25 Q1499.11 1486.25 1496.03 1481.67 Q1492.98 1477.06 1492.98 1468.33 Q1492.98 1459.58 1496.03 1455 Q1499.11 1450.39 1504.92 1450.39 Z" fill="#000000" fill-rule="nonzero" fill-opacity="1"></path><path clip-path="url(#clip140)" d="M1698.24 1466.95 Q1701.59 1467.66 1703.47 1469.93 Q1705.37 1472.2 1705.37 1475.53 Q1705.37 1480.65 1701.85 1483.45 Q1698.33 1486.25 1691.85 1486.25 Q1689.67 1486.25 1687.36 1485.81 Q1685.06 1485.39 1682.61 1484.54 L1682.61 1480.02 Q1684.56 1481.16 1686.87 1481.74 Q1689.19 1482.32 1691.71 1482.32 Q1696.11 1482.32 1698.4 1480.58 Q1700.71 1478.84 1700.71 1475.53 Q1700.71 1472.48 1698.56 1470.77 Q1696.43 1469.03 1692.61 1469.03 L1688.58 1469.03 L1688.58 1465.19 L1692.8 1465.19 Q1696.25 1465.19 1698.07 1463.82 Q1699.9 1462.43 1699.9 1459.84 Q1699.9 1457.18 1698 1455.77 Q1696.13 1454.33 1692.61 1454.33 Q1690.69 1454.33 1688.49 1454.75 Q1686.29 1455.16 1683.65 1456.04 L1683.65 1451.88 Q1686.31 1451.14 1688.63 1450.77 Q1690.97 1450.39 1693.03 1450.39 Q1698.35 1450.39 1701.45 1452.83 Q1704.56 1455.23 1704.56 1459.35 Q1704.56 1462.22 1702.91 1464.21 Q1701.27 1466.18 1698.24 1466.95 Z" fill="#000000" fill-rule="nonzero" fill-opacity="1"></path><path clip-path="url(#clip140)" d="M1714.23 1479.7 L1719.12 1479.7 L1719.12 1485.58 L1714.23 1485.58 L1714.23 1479.7 Z" fill="#000000" fill-rule="nonzero" fill-opacity="1"></path><path clip-path="url(#clip140)" d="M1729.35 1451.02 L1747.7 1451.02 L1747.7 1454.96 L1733.63 1454.96 L1733.63 1463.43 Q1734.65 1463.08 1735.67 1462.92 Q1736.68 1462.73 1737.7 1462.73 Q1743.49 1462.73 1746.87 1465.9 Q1750.25 1469.08 1750.25 1474.49 Q1750.25 1480.07 1746.78 1483.17 Q1743.31 1486.25 1736.99 1486.25 Q1734.81 1486.25 1732.54 1485.88 Q1730.3 1485.51 1727.89 1484.77 L1727.89 1480.07 Q1729.97 1481.2 1732.19 1481.76 Q1734.42 1482.32 1736.89 1482.32 Q1740.9 1482.32 1743.24 1480.21 Q1745.57 1478.1 1745.57 1474.49 Q1745.57 1470.88 1743.24 1468.77 Q1740.9 1466.67 1736.89 1466.67 Q1735.02 1466.67 1733.14 1467.08 Q1731.29 1467.5 1729.35 1468.38 L1729.35 1451.02 Z" fill="#000000" fill-rule="nonzero" fill-opacity="1"></path><path clip-path="url(#clip140)" d="M1930.95 1455.09 L1919.14 1473.54 L1930.95 1473.54 L1930.95 1455.09 M1929.72 1451.02 L1935.6 1451.02 L1935.6 1473.54 L1940.53 1473.54 L1940.53 1477.43 L1935.6 1477.43 L1935.6 1485.58 L1930.95 1485.58 L1930.95 1477.43 L1915.35 1477.43 L1915.35 1472.92 L1929.72 1451.02 Z" fill="#000000" fill-rule="nonzero" fill-opacity="1"></path><path clip-path="url(#clip140)" d="M1948.26 1479.7 L1953.15 1479.7 L1953.15 1485.58 L1948.26 1485.58 L1948.26 1479.7 Z" fill="#000000" fill-rule="nonzero" fill-opacity="1"></path><path clip-path="url(#clip140)" d="M1973.33 1454.1 Q1969.72 1454.1 1967.89 1457.66 Q1966.09 1461.2 1966.09 1468.33 Q1966.09 1475.44 1967.89 1479.01 Q1969.72 1482.55 1973.33 1482.55 Q1976.97 1482.55 1978.77 1479.01 Q1980.6 1475.44 1980.6 1468.33 Q1980.6 1461.2 1978.77 1457.66 Q1976.97 1454.1 1973.33 1454.1 M1973.33 1450.39 Q1979.14 1450.39 1982.2 1455 Q1985.28 1459.58 1985.28 1468.33 Q1985.28 1477.06 1982.2 1481.67 Q1979.14 1486.25 1973.33 1486.25 Q1967.52 1486.25 1964.44 1481.67 Q1961.39 1477.06 1961.39 1468.33 Q1961.39 1459.58 1964.44 1455 Q1967.52 1450.39 1973.33 1450.39 Z" fill="#000000" fill-rule="nonzero" fill-opacity="1"></path><path clip-path="url(#clip140)" d="M2165.33 1455.09 L2153.52 1473.54 L2165.33 1473.54 L2165.33 1455.09 M2164.1 1451.02 L2169.98 1451.02 L2169.98 1473.54 L2174.91 1473.54 L2174.91 1477.43 L2169.98 1477.43 L2169.98 1485.58 L2165.33 1485.58 L2165.33 1477.43 L2149.72 1477.43 L2149.72 1472.92 L2164.1 1451.02 Z" fill="#000000" fill-rule="nonzero" fill-opacity="1"></path><path clip-path="url(#clip140)" d="M2182.64 1479.7 L2187.52 1479.7 L2187.52 1485.58 L2182.64 1485.58 L2182.64 1479.7 Z" fill="#000000" fill-rule="nonzero" fill-opacity="1"></path><path clip-path="url(#clip140)" d="M2197.76 1451.02 L2216.11 1451.02 L2216.11 1454.96 L2202.04 1454.96 L2202.04 1463.43 Q2203.06 1463.08 2204.08 1462.92 Q2205.09 1462.73 2206.11 1462.73 Q2211.9 1462.73 2215.28 1465.9 Q2218.66 1469.08 2218.66 1474.49 Q2218.66 1480.07 2215.19 1483.17 Q2211.71 1486.25 2205.39 1486.25 Q2203.22 1486.25 2200.95 1485.88 Q2198.7 1485.51 2196.3 1484.77 L2196.3 1480.07 Q2198.38 1481.2 2200.6 1481.76 Q2202.83 1482.32 2205.3 1482.32 Q2209.31 1482.32 2211.64 1480.21 Q2213.98 1478.1 2213.98 1474.49 Q2213.98 1470.88 2211.64 1468.77 Q2209.31 1466.67 2205.3 1466.67 Q2203.43 1466.67 2201.55 1467.08 Q2199.7 1467.5 2197.76 1468.38 L2197.76 1451.02 Z" fill="#000000" fill-rule="nonzero" fill-opacity="1"></path><path clip-path="url(#clip140)" d="M1727.47 1518.52 L1733.33 1518.52 L1733.33 1568.04 L1727.47 1568.04 L1727.47 1518.52 Z" fill="#000000" fill-rule="nonzero" fill-opacity="1"></path><path clip-path="url(#clip140)" d="M1759.4 1536.5 Q1754.69 1536.5 1751.95 1540.19 Q1749.21 1543.85 1749.21 1550.25 Q1749.21 1556.65 1751.92 1560.34 Q1754.65 1564 1759.4 1564 Q1764.08 1564 1766.81 1560.31 Q1769.55 1556.62 1769.55 1550.25 Q1769.55 1543.92 1766.81 1540.23 Q1764.08 1536.5 1759.4 1536.5 M1759.4 1531.54 Q1767.04 1531.54 1771.4 1536.5 Q1775.76 1541.47 1775.76 1550.25 Q1775.76 1559 1771.4 1564 Q1767.04 1568.97 1759.4 1568.97 Q1751.73 1568.97 1747.37 1564 Q1743.04 1559 1743.04 1550.25 Q1743.04 1541.47 1747.37 1536.5 Q1751.73 1531.54 1759.4 1531.54 Z" fill="#000000" fill-rule="nonzero" fill-opacity="1"></path><path clip-path="url(#clip140)" d="M1808.92 1549.81 Q1808.92 1543.44 1806.28 1539.94 Q1803.67 1536.44 1798.93 1536.44 Q1794.22 1536.44 1791.57 1539.94 Q1788.96 1543.44 1788.96 1549.81 Q1788.96 1556.14 1791.57 1559.64 Q1794.22 1563.14 1798.93 1563.14 Q1803.67 1563.14 1806.28 1559.64 Q1808.92 1556.14 1808.92 1549.81 M1814.78 1563.62 Q1814.78 1572.72 1810.74 1577.15 Q1806.69 1581.6 1798.35 1581.6 Q1795.27 1581.6 1792.53 1581.13 Q1789.79 1580.68 1787.21 1579.72 L1787.21 1574.03 Q1789.79 1575.43 1792.31 1576.1 Q1794.82 1576.76 1797.43 1576.76 Q1803.19 1576.76 1806.06 1573.74 Q1808.92 1570.75 1808.92 1564.67 L1808.92 1561.77 Q1807.11 1564.92 1804.27 1566.48 Q1801.44 1568.04 1797.5 1568.04 Q1790.94 1568.04 1786.93 1563.05 Q1782.92 1558.05 1782.92 1549.81 Q1782.92 1541.53 1786.93 1536.53 Q1790.94 1531.54 1797.5 1531.54 Q1801.44 1531.54 1804.27 1533.1 Q1807.11 1534.66 1808.92 1537.81 L1808.92 1532.4 L1814.78 1532.4 L1814.78 1563.62 Z" fill="#000000" fill-rule="nonzero" fill-opacity="1"></path><path clip-path="url(#clip140)" d="M1828.78 1562.63 L1839.29 1562.63 L1839.29 1526.38 L1827.86 1528.67 L1827.86 1522.82 L1839.22 1520.52 L1845.65 1520.52 L1845.65 1562.63 L1856.15 1562.63 L1856.15 1568.04 L1828.78 1568.04 L1828.78 1562.63 Z" fill="#000000" fill-rule="nonzero" fill-opacity="1"></path><path clip-path="url(#clip140)" d="M1882.89 1524.76 Q1877.93 1524.76 1875.41 1529.66 Q1872.93 1534.53 1872.93 1544.33 Q1872.93 1554.1 1875.41 1559 Q1877.93 1563.87 1882.89 1563.87 Q1887.89 1563.87 1890.37 1559 Q1892.89 1554.1 1892.89 1544.33 Q1892.89 1534.53 1890.37 1529.66 Q1887.89 1524.76 1882.89 1524.76 M1882.89 1519.66 Q1890.88 1519.66 1895.08 1526 Q1899.31 1532.3 1899.31 1544.33 Q1899.31 1556.33 1895.08 1562.66 Q1890.88 1568.97 1882.89 1568.97 Q1874.9 1568.97 1870.67 1562.66 Q1866.47 1556.33 1866.47 1544.33 Q1866.47 1532.3 1870.67 1526 Q1874.9 1519.66 1882.89 1519.66 Z" fill="#000000" fill-rule="nonzero" fill-opacity="1"></path><path clip-path="url(#clip140)" d="M1923.85 1518.58 Q1919.59 1525.9 1917.52 1533.06 Q1915.45 1540.23 1915.45 1547.58 Q1915.45 1554.93 1917.52 1562.16 Q1919.62 1569.35 1923.85 1576.64 L1918.76 1576.64 Q1913.99 1569.16 1911.6 1561.93 Q1909.24 1554.71 1909.24 1547.58 Q1909.24 1540.48 1911.6 1533.29 Q1913.96 1526.09 1918.76 1518.58 L1923.85 1518.58 Z" fill="#000000" fill-rule="nonzero" fill-opacity="1"></path><path clip-path="url(#clip140)" d="M1937.16 1562.63 L1947.66 1562.63 L1947.66 1526.38 L1936.24 1528.67 L1936.24 1522.82 L1947.6 1520.52 L1954.03 1520.52 L1954.03 1562.63 L1964.53 1562.63 L1964.53 1568.04 L1937.16 1568.04 L1937.16 1562.63 Z" fill="#000000" fill-rule="nonzero" fill-opacity="1"></path><path clip-path="url(#clip140)" d="M1987.1 1520.52 L1992.51 1520.52 L1975.96 1574.09 L1970.55 1574.09 L1987.1 1520.52 Z" fill="#000000" fill-rule="nonzero" fill-opacity="1"></path><path clip-path="url(#clip140)" d="M2014.79 1526.86 L2001.74 1562.7 L2027.87 1562.7 L2014.79 1526.86 M1993.02 1568.04 L2011.16 1520.52 L2018.45 1520.52 L2036.56 1568.04 L1993.02 1568.04 Z" fill="#000000" fill-rule="nonzero" fill-opacity="1"></path><path clip-path="url(#clip140)" d="M2049.04 1522.27 L2049.04 1532.4 L2061.1 1532.4 L2061.1 1536.95 L2049.04 1536.95 L2049.04 1556.3 Q2049.04 1560.66 2050.21 1561.9 Q2051.42 1563.14 2055.08 1563.14 L2061.1 1563.14 L2061.1 1568.04 L2055.08 1568.04 Q2048.3 1568.04 2045.73 1565.53 Q2043.15 1562.98 2043.15 1556.3 L2043.15 1536.95 L2038.85 1536.95 L2038.85 1532.4 L2043.15 1532.4 L2043.15 1522.27 L2049.04 1522.27 Z" fill="#000000" fill-rule="nonzero" fill-opacity="1"></path><path clip-path="url(#clip140)" d="M2067.88 1518.58 L2072.97 1518.58 Q2077.75 1526.09 2080.1 1533.29 Q2082.49 1540.48 2082.49 1547.58 Q2082.49 1554.71 2080.1 1561.93 Q2077.75 1569.16 2072.97 1576.64 L2067.88 1576.64 Q2072.11 1569.35 2074.18 1562.16 Q2076.28 1554.93 2076.28 1547.58 Q2076.28 1540.23 2074.18 1533.06 Q2072.11 1525.9 2067.88 1518.58 Z" fill="#000000" fill-rule="nonzero" fill-opacity="1"></path><polyline clip-path="url(#clip143)" style="stroke:#000000; stroke-linecap:round; stroke-linejoin:round; stroke-width:2; stroke-opacity:0.1; fill:none" points="1457.2,1407.35 2352.76,1407.35 "></polyline>
<polyline clip-path="url(#clip143)" style="stroke:#000000; stroke-linecap:round; stroke-linejoin:round; stroke-width:2; stroke-opacity:0.1; fill:none" points="1457.2,1048.01 2352.76,1048.01 "></polyline>
<polyline clip-path="url(#clip143)" style="stroke:#000000; stroke-linecap:round; stroke-linejoin:round; stroke-width:2; stroke-opacity:0.1; fill:none" points="1457.2,688.676 2352.76,688.676 "></polyline>
<polyline clip-path="url(#clip143)" style="stroke:#000000; stroke-linecap:round; stroke-linejoin:round; stroke-width:2; stroke-opacity:0.1; fill:none" points="1457.2,329.339 2352.76,329.339 "></polyline>
<polyline clip-path="url(#clip140)" style="stroke:#000000; stroke-linecap:round; stroke-linejoin:round; stroke-width:4; stroke-opacity:1; fill:none" points="1457.2,1423.18 1457.2,47.2441 "></polyline>
<polyline clip-path="url(#clip140)" style="stroke:#000000; stroke-linecap:round; stroke-linejoin:round; stroke-width:4; stroke-opacity:1; fill:none" points="1457.2,1407.35 1476.1,1407.35 "></polyline>
<polyline clip-path="url(#clip140)" style="stroke:#000000; stroke-linecap:round; stroke-linejoin:round; stroke-width:4; stroke-opacity:1; fill:none" points="1457.2,1048.01 1476.1,1048.01 "></polyline>
<polyline clip-path="url(#clip140)" style="stroke:#000000; stroke-linecap:round; stroke-linejoin:round; stroke-width:4; stroke-opacity:1; fill:none" points="1457.2,688.676 1476.1,688.676 "></polyline>
<polyline clip-path="url(#clip140)" style="stroke:#000000; stroke-linecap:round; stroke-linejoin:round; stroke-width:4; stroke-opacity:1; fill:none" points="1457.2,329.339 1476.1,329.339 "></polyline>
<path clip-path="url(#clip140)" d="M1315.26 1407.8 L1344.93 1407.8 L1344.93 1411.74 L1315.26 1411.74 L1315.26 1407.8 Z" fill="#000000" fill-rule="nonzero" fill-opacity="1"></path><path clip-path="url(#clip140)" d="M1367.87 1394.14 L1356.07 1412.59 L1367.87 1412.59 L1367.87 1394.14 M1366.64 1390.07 L1372.52 1390.07 L1372.52 1412.59 L1377.45 1412.59 L1377.45 1416.48 L1372.52 1416.48 L1372.52 1424.63 L1367.87 1424.63 L1367.87 1416.48 L1352.27 1416.48 L1352.27 1411.97 L1366.64 1390.07 Z" fill="#000000" fill-rule="nonzero" fill-opacity="1"></path><path clip-path="url(#clip140)" d="M1385.19 1418.75 L1390.07 1418.75 L1390.07 1424.63 L1385.19 1424.63 L1385.19 1418.75 Z" fill="#000000" fill-rule="nonzero" fill-opacity="1"></path><path clip-path="url(#clip140)" d="M1400.3 1390.07 L1418.66 1390.07 L1418.66 1394 L1404.58 1394 L1404.58 1402.48 Q1405.6 1402.13 1406.62 1401.97 Q1407.64 1401.78 1408.66 1401.78 Q1414.44 1401.78 1417.82 1404.95 Q1421.2 1408.12 1421.2 1413.54 Q1421.2 1419.12 1417.73 1422.22 Q1414.26 1425.3 1407.94 1425.3 Q1405.76 1425.3 1403.5 1424.93 Q1401.25 1424.56 1398.84 1423.82 L1398.84 1419.12 Q1400.93 1420.25 1403.15 1420.81 Q1405.37 1421.36 1407.85 1421.36 Q1411.85 1421.36 1414.19 1419.26 Q1416.53 1417.15 1416.53 1413.54 Q1416.53 1409.93 1414.19 1407.82 Q1411.85 1405.72 1407.85 1405.72 Q1405.97 1405.72 1404.1 1406.13 Q1402.25 1406.55 1400.3 1407.43 L1400.3 1390.07 Z" fill="#000000" fill-rule="nonzero" fill-opacity="1"></path><path clip-path="url(#clip140)" d="M1314.26 1048.46 L1343.94 1048.46 L1343.94 1052.4 L1314.26 1052.4 L1314.26 1048.46 Z" fill="#000000" fill-rule="nonzero" fill-opacity="1"></path><path clip-path="url(#clip140)" d="M1366.88 1034.81 L1355.07 1053.26 L1366.88 1053.26 L1366.88 1034.81 M1365.65 1030.73 L1371.53 1030.73 L1371.53 1053.26 L1376.46 1053.26 L1376.46 1057.14 L1371.53 1057.14 L1371.53 1065.29 L1366.88 1065.29 L1366.88 1057.14 L1351.27 1057.14 L1351.27 1052.63 L1365.65 1030.73 Z" fill="#000000" fill-rule="nonzero" fill-opacity="1"></path><path clip-path="url(#clip140)" d="M1384.19 1059.41 L1389.07 1059.41 L1389.07 1065.29 L1384.19 1065.29 L1384.19 1059.41 Z" fill="#000000" fill-rule="nonzero" fill-opacity="1"></path><path clip-path="url(#clip140)" d="M1409.26 1033.81 Q1405.65 1033.81 1403.82 1037.38 Q1402.01 1040.92 1402.01 1048.05 Q1402.01 1055.15 1403.82 1058.72 Q1405.65 1062.26 1409.26 1062.26 Q1412.89 1062.26 1414.7 1058.72 Q1416.53 1055.15 1416.53 1048.05 Q1416.53 1040.92 1414.7 1037.38 Q1412.89 1033.81 1409.26 1033.81 M1409.26 1030.11 Q1415.07 1030.11 1418.13 1034.71 Q1421.2 1039.3 1421.2 1048.05 Q1421.2 1056.77 1418.13 1061.38 Q1415.07 1065.96 1409.26 1065.96 Q1403.45 1065.96 1400.37 1061.38 Q1397.32 1056.77 1397.32 1048.05 Q1397.32 1039.3 1400.37 1034.71 Q1403.45 1030.11 1409.26 1030.11 Z" fill="#000000" fill-rule="nonzero" fill-opacity="1"></path><path clip-path="url(#clip140)" d="M1315.26 689.127 L1344.93 689.127 L1344.93 693.062 L1315.26 693.062 L1315.26 689.127 Z" fill="#000000" fill-rule="nonzero" fill-opacity="1"></path><path clip-path="url(#clip140)" d="M1369.19 687.321 Q1372.55 688.039 1374.42 690.308 Q1376.32 692.576 1376.32 695.909 Q1376.32 701.025 1372.8 703.826 Q1369.28 706.627 1362.8 706.627 Q1360.63 706.627 1358.31 706.187 Q1356.02 705.77 1353.57 704.914 L1353.57 700.4 Q1355.51 701.534 1357.82 702.113 Q1360.14 702.692 1362.66 702.692 Q1367.06 702.692 1369.35 700.956 Q1371.67 699.22 1371.67 695.909 Q1371.67 692.854 1369.51 691.141 Q1367.38 689.405 1363.57 689.405 L1359.54 689.405 L1359.54 685.562 L1363.75 685.562 Q1367.2 685.562 1369.03 684.196 Q1370.86 682.808 1370.86 680.215 Q1370.86 677.553 1368.96 676.141 Q1367.08 674.706 1363.57 674.706 Q1361.64 674.706 1359.45 675.122 Q1357.25 675.539 1354.61 676.419 L1354.61 672.252 Q1357.27 671.511 1359.58 671.141 Q1361.92 670.771 1363.98 670.771 Q1369.31 670.771 1372.41 673.201 Q1375.51 675.609 1375.51 679.729 Q1375.51 682.599 1373.87 684.59 Q1372.22 686.558 1369.19 687.321 Z" fill="#000000" fill-rule="nonzero" fill-opacity="1"></path><path clip-path="url(#clip140)" d="M1385.19 700.076 L1390.07 700.076 L1390.07 705.956 L1385.19 705.956 L1385.19 700.076 Z" fill="#000000" fill-rule="nonzero" fill-opacity="1"></path><path clip-path="url(#clip140)" d="M1400.3 671.396 L1418.66 671.396 L1418.66 675.331 L1404.58 675.331 L1404.58 683.803 Q1405.6 683.456 1406.62 683.294 Q1407.64 683.108 1408.66 683.108 Q1414.44 683.108 1417.82 686.28 Q1421.2 689.451 1421.2 694.868 Q1421.2 700.446 1417.73 703.548 Q1414.26 706.627 1407.94 706.627 Q1405.76 706.627 1403.5 706.257 Q1401.25 705.886 1398.84 705.145 L1398.84 700.446 Q1400.93 701.581 1403.15 702.136 Q1405.37 702.692 1407.85 702.692 Q1411.85 702.692 1414.19 700.585 Q1416.53 698.479 1416.53 694.868 Q1416.53 691.257 1414.19 689.15 Q1411.85 687.044 1407.85 687.044 Q1405.97 687.044 1404.1 687.46 Q1402.25 687.877 1400.3 688.757 L1400.3 671.396 Z" fill="#000000" fill-rule="nonzero" fill-opacity="1"></path><path clip-path="url(#clip140)" d="M1314.26 329.791 L1343.94 329.791 L1343.94 333.726 L1314.26 333.726 L1314.26 329.791 Z" fill="#000000" fill-rule="nonzero" fill-opacity="1"></path><path clip-path="url(#clip140)" d="M1368.2 327.985 Q1371.55 328.703 1373.43 330.971 Q1375.32 333.24 1375.32 336.573 Q1375.32 341.689 1371.81 344.49 Q1368.29 347.29 1361.81 347.29 Q1359.63 347.29 1357.32 346.851 Q1355.02 346.434 1352.57 345.577 L1352.57 341.064 Q1354.51 342.198 1356.83 342.777 Q1359.14 343.355 1361.67 343.355 Q1366.07 343.355 1368.36 341.619 Q1370.67 339.883 1370.67 336.573 Q1370.67 333.517 1368.52 331.804 Q1366.39 330.068 1362.57 330.068 L1358.54 330.068 L1358.54 326.226 L1362.76 326.226 Q1366.2 326.226 1368.03 324.86 Q1369.86 323.471 1369.86 320.879 Q1369.86 318.217 1367.96 316.804 Q1366.09 315.369 1362.57 315.369 Q1360.65 315.369 1358.45 315.786 Q1356.25 316.203 1353.61 317.082 L1353.61 312.916 Q1356.27 312.175 1358.59 311.805 Q1360.93 311.434 1362.99 311.434 Q1368.31 311.434 1371.41 313.865 Q1374.51 316.272 1374.51 320.392 Q1374.51 323.263 1372.87 325.254 Q1371.23 327.221 1368.2 327.985 Z" fill="#000000" fill-rule="nonzero" fill-opacity="1"></path><path clip-path="url(#clip140)" d="M1384.19 340.74 L1389.07 340.74 L1389.07 346.619 L1384.19 346.619 L1384.19 340.74 Z" fill="#000000" fill-rule="nonzero" fill-opacity="1"></path><path clip-path="url(#clip140)" d="M1409.26 315.138 Q1405.65 315.138 1403.82 318.703 Q1402.01 322.244 1402.01 329.374 Q1402.01 336.48 1403.82 340.045 Q1405.65 343.587 1409.26 343.587 Q1412.89 343.587 1414.7 340.045 Q1416.53 336.48 1416.53 329.374 Q1416.53 322.244 1414.7 318.703 Q1412.89 315.138 1409.26 315.138 M1409.26 311.434 Q1415.07 311.434 1418.13 316.041 Q1421.2 320.624 1421.2 329.374 Q1421.2 338.101 1418.13 342.707 Q1415.07 347.29 1409.26 347.29 Q1403.45 347.29 1400.37 342.707 Q1397.32 338.101 1397.32 329.374 Q1397.32 320.624 1400.37 316.041 Q1403.45 311.434 1409.26 311.434 Z" fill="#000000" fill-rule="nonzero" fill-opacity="1"></path><path clip-path="url(#clip140)" d="M1214.48 878.759 L1214.48 872.902 L1264 872.902 L1264 878.759 L1214.48 878.759 Z" fill="#000000" fill-rule="nonzero" fill-opacity="1"></path><path clip-path="url(#clip140)" d="M1232.46 846.835 Q1232.46 851.545 1236.15 854.283 Q1239.81 857.02 1246.21 857.02 Q1252.61 857.02 1256.3 854.314 Q1259.96 851.577 1259.96 846.835 Q1259.96 842.156 1256.27 839.419 Q1252.58 836.681 1246.21 836.681 Q1239.88 836.681 1236.19 839.419 Q1232.46 842.156 1232.46 846.835 M1227.5 846.835 Q1227.5 839.196 1232.46 834.835 Q1237.43 830.475 1246.21 830.475 Q1254.96 830.475 1259.96 834.835 Q1264.93 839.196 1264.93 846.835 Q1264.93 854.505 1259.96 858.866 Q1254.96 863.195 1246.21 863.195 Q1237.43 863.195 1232.46 858.866 Q1227.5 854.505 1227.5 846.835 Z" fill="#000000" fill-rule="nonzero" fill-opacity="1"></path><path clip-path="url(#clip140)" d="M1245.77 797.309 Q1239.4 797.309 1235.9 799.951 Q1232.4 802.561 1232.4 807.304 Q1232.4 812.014 1235.9 814.656 Q1239.4 817.266 1245.77 817.266 Q1252.1 817.266 1255.6 814.656 Q1259.1 812.014 1259.1 807.304 Q1259.1 802.561 1255.6 799.951 Q1252.1 797.309 1245.77 797.309 M1259.58 791.453 Q1268.68 791.453 1273.11 795.495 Q1277.56 799.537 1277.56 807.877 Q1277.56 810.964 1277.09 813.701 Q1276.64 816.438 1275.69 819.016 L1269.99 819.016 Q1271.39 816.438 1272.06 813.924 Q1272.73 811.409 1272.73 808.8 Q1272.73 803.039 1269.7 800.174 Q1266.71 797.309 1260.63 797.309 L1257.73 797.309 Q1260.88 799.124 1262.44 801.956 Q1264 804.789 1264 808.736 Q1264 815.293 1259.01 819.303 Q1254.01 823.313 1245.77 823.313 Q1237.49 823.313 1232.49 819.303 Q1227.5 815.293 1227.5 808.736 Q1227.5 804.789 1229.06 801.956 Q1230.62 799.124 1233.77 797.309 L1228.36 797.309 L1228.36 791.453 L1259.58 791.453 Z" fill="#000000" fill-rule="nonzero" fill-opacity="1"></path><path clip-path="url(#clip140)" d="M1258.59 777.448 L1258.59 766.945 L1222.34 766.945 L1224.63 778.371 L1218.78 778.371 L1216.48 767.009 L1216.48 760.579 L1258.59 760.579 L1258.59 750.076 L1264 750.076 L1264 777.448 L1258.59 777.448 Z" fill="#000000" fill-rule="nonzero" fill-opacity="1"></path><path clip-path="url(#clip140)" d="M1220.72 723.34 Q1220.72 728.305 1225.62 730.82 Q1230.49 733.302 1240.29 733.302 Q1250.06 733.302 1254.96 730.82 Q1259.83 728.305 1259.83 723.34 Q1259.83 718.343 1254.96 715.86 Q1250.06 713.346 1240.29 713.346 Q1230.49 713.346 1225.62 715.86 Q1220.72 718.343 1220.72 723.34 M1215.62 723.34 Q1215.62 715.351 1221.96 711.15 Q1228.26 706.916 1240.29 706.916 Q1252.29 706.916 1258.63 711.15 Q1264.93 715.351 1264.93 723.34 Q1264.93 731.329 1258.63 735.562 Q1252.29 739.763 1240.29 739.763 Q1228.26 739.763 1221.96 735.562 Q1215.62 731.329 1215.62 723.34 Z" fill="#000000" fill-rule="nonzero" fill-opacity="1"></path><path clip-path="url(#clip140)" d="M1214.54 682.377 Q1221.86 686.642 1229.02 688.71 Q1236.19 690.779 1243.54 690.779 Q1250.89 690.779 1258.12 688.71 Q1265.31 686.61 1272.6 682.377 L1272.6 687.469 Q1265.12 692.243 1257.89 694.631 Q1250.67 696.986 1243.54 696.986 Q1236.44 696.986 1229.25 694.631 Q1222.05 692.275 1214.54 687.469 L1214.54 682.377 Z" fill="#000000" fill-rule="nonzero" fill-opacity="1"></path><path clip-path="url(#clip140)" d="M1234.02 645.837 Q1233.61 647.015 1233.29 648.193 Q1232.46 651.344 1232.46 654.718 Q1232.46 660.542 1235.61 663.789 Q1238.54 666.812 1243.92 667.385 L1243.92 645.837 L1248.5 645.837 L1248.5 667.385 Q1253.88 666.812 1256.81 663.789 Q1259.96 660.542 1259.96 654.718 Q1259.96 650.644 1259.13 648.193 L1258.34 645.837 L1263.65 645.837 L1264.23 648.352 Q1264.93 651.662 1264.93 655.068 Q1264.93 663.598 1259.96 668.563 Q1255 673.56 1246.21 673.56 Q1237.43 673.56 1232.46 668.563 Q1227.5 663.598 1227.5 655.068 Q1227.5 651.853 1228.2 648.352 Q1228.45 647.079 1228.83 645.837 L1234.02 645.837 Z" fill="#000000" fill-rule="nonzero" fill-opacity="1"></path><path clip-path="url(#clip140)" d="M1218.23 625.117 L1228.36 625.117 L1228.36 613.054 L1232.91 613.054 L1232.91 625.117 L1252.26 625.117 Q1256.62 625.117 1257.86 623.939 Q1259.1 622.73 1259.1 619.07 L1259.1 613.054 L1264 613.054 L1264 619.07 Q1264 625.849 1261.49 628.427 Q1258.94 631.005 1252.26 631.005 L1232.91 631.005 L1232.91 635.302 L1228.36 635.302 L1228.36 631.005 L1218.23 631.005 L1218.23 625.117 Z" fill="#000000" fill-rule="nonzero" fill-opacity="1"></path><path clip-path="url(#clip140)" d="M1214.54 606.275 L1214.54 601.182 Q1222.05 596.408 1229.25 594.052 Q1236.44 591.665 1243.54 591.665 Q1250.67 591.665 1257.89 594.052 Q1265.12 596.408 1272.6 601.182 L1272.6 606.275 Q1265.31 602.041 1258.12 599.973 Q1250.89 597.872 1243.54 597.872 Q1236.19 597.872 1229.02 599.973 Q1221.86 602.041 1214.54 606.275 Z" fill="#000000" fill-rule="nonzero" fill-opacity="1"></path><circle clip-path="url(#clip143)" cx="1482.55" cy="86.1857" r="14.4" fill="#009af9" fill-rule="evenodd" fill-opacity="1" stroke="#000000" stroke-opacity="1" stroke-width="3.2"></circle>
<circle clip-path="url(#clip143)" cx="1623.36" cy="293.403" r="14.4" fill="#009af9" fill-rule="evenodd" fill-opacity="1" stroke="#000000" stroke-opacity="1" stroke-width="3.2"></circle>
<circle clip-path="url(#clip143)" cx="1764.17" cy="505.03" r="14.4" fill="#009af9" fill-rule="evenodd" fill-opacity="1" stroke="#000000" stroke-opacity="1" stroke-width="3.2"></circle>
<circle clip-path="url(#clip143)" cx="1904.98" cy="718.499" r="14.4" fill="#009af9" fill-rule="evenodd" fill-opacity="1" stroke="#000000" stroke-opacity="1" stroke-width="3.2"></circle>
<circle clip-path="url(#clip143)" cx="2045.79" cy="932.657" r="14.4" fill="#009af9" fill-rule="evenodd" fill-opacity="1" stroke="#000000" stroke-opacity="1" stroke-width="3.2"></circle>
<circle clip-path="url(#clip143)" cx="2186.6" cy="1147.98" r="14.4" fill="#009af9" fill-rule="evenodd" fill-opacity="1" stroke="#000000" stroke-opacity="1" stroke-width="3.2"></circle>
<circle clip-path="url(#clip143)" cx="2327.41" cy="1363.6" r="14.4" fill="#009af9" fill-rule="evenodd" fill-opacity="1" stroke="#000000" stroke-opacity="1" stroke-width="3.2"></circle>
<polyline clip-path="url(#clip143)" style="stroke:#e26f46; stroke-linecap:round; stroke-linejoin:round; stroke-width:4; stroke-opacity:1; fill:none" points="1482.55,86.1857 1623.36,302.528 1764.17,518.87 1904.98,735.212 2045.79,951.554 2186.6,1167.9 2327.41,1384.24 "></polyline>
<path clip-path="url(#clip140)" d="M2172.91 248.629 L2322.9 248.629 L2322.9 93.1086 L2172.91 93.1086  Z" fill="#ffffff" fill-rule="evenodd" fill-opacity="1"></path>
<polyline clip-path="url(#clip140)" style="stroke:#000000; stroke-linecap:round; stroke-linejoin:round; stroke-width:4; stroke-opacity:1; fill:none" points="2172.91,248.629 2322.9,248.629 2322.9,93.1086 2172.91,93.1086 2172.91,248.629 "></polyline>
<circle clip-path="url(#clip140)" cx="2212.71" cy="144.949" r="20.48" fill="#009af9" fill-rule="evenodd" fill-opacity="1" stroke="#000000" stroke-opacity="1" stroke-width="4.55111"></circle>
<path clip-path="url(#clip140)" d="M2272.68 140.423 Q2271.82 140.122 2270.96 139.891 Q2268.67 139.289 2266.22 139.289 Q2261.98 139.289 2259.62 141.581 Q2257.42 143.71 2257 147.622 L2272.68 147.622 L2272.68 150.956 L2257 150.956 Q2257.42 154.868 2259.62 156.997 Q2261.98 159.289 2266.22 159.289 Q2269.18 159.289 2270.96 158.687 L2272.68 158.108 L2272.68 161.974 L2270.85 162.391 Q2268.44 162.9 2265.96 162.9 Q2259.76 162.9 2256.15 159.289 Q2252.51 155.678 2252.51 149.289 Q2252.51 142.9 2256.15 139.289 Q2259.76 135.678 2265.96 135.678 Q2268.3 135.678 2270.85 136.187 Q2271.77 136.372 2272.68 136.65 L2272.68 140.423 Z" fill="#000000" fill-rule="nonzero" fill-opacity="1"></path><polyline clip-path="url(#clip140)" style="stroke:#e26f46; stroke-linecap:round; stroke-linejoin:round; stroke-width:4; stroke-opacity:1; fill:none" points="2182.86,196.789 2242.56,196.789 "></polyline>
<path clip-path="url(#clip140)" d="M2268.53 182.68 Q2263.44 182.68 2260.43 186.476 Q2257.44 190.272 2257.44 196.823 Q2257.44 203.351 2260.43 207.147 Q2263.44 210.944 2268.53 210.944 Q2273.63 210.944 2276.59 207.147 Q2279.57 203.351 2279.57 196.823 Q2279.57 190.272 2276.59 186.476 Q2273.63 182.68 2268.53 182.68 M2268.53 178.884 Q2275.8 178.884 2280.15 183.768 Q2284.5 188.629 2284.5 196.823 Q2284.5 204.995 2280.15 209.879 Q2275.8 214.74 2268.53 214.74 Q2261.24 214.74 2256.87 209.879 Q2252.51 205.018 2252.51 196.823 Q2252.51 188.629 2256.87 183.768 Q2261.24 178.884 2268.53 178.884 Z" fill="#000000" fill-rule="nonzero" fill-opacity="1"></path><path clip-path="url(#clip140)" d="M2293.05 210.133 L2300.69 210.133 L2300.69 183.768 L2292.38 185.435 L2292.38 181.175 L2300.64 179.509 L2305.31 179.509 L2305.31 210.133 L2312.95 210.133 L2312.95 214.069 L2293.05 214.069 L2293.05 210.133 Z" fill="#000000" fill-rule="nonzero" fill-opacity="1"></path></svg>