<svg xmlns="http://www.w3.org/2000/svg" xmlns:xlink="http://www.w3.org/1999/xlink" width="600" height="400" viewBox="0 0 2400 1600">
<defs>
  <clipPath id="clip970">
    <rect x="0" y="0" width="2400" height="1600"></rect>
  </clipPath>
</defs>
<path clip-path="url(#clip970)" d="M0 1600 L2400 1600 L2400 8.88178e-14 L0 8.88178e-14  Z" fill="#ffffff" fill-rule="evenodd" fill-opacity="1"></path>
<defs>
  <clipPath id="clip971">
    <rect x="480" y="0" width="1681" height="1600"></rect>
  </clipPath>
</defs>
<path clip-path="url(#clip970)" d="M257.204 1423.18 L1152.76 1423.18 L1152.76 47.2441 L257.204 47.2441  Z" fill="#ffffff" fill-rule="evenodd" fill-opacity="1"></path>
<defs>
  <clipPath id="clip972">
    <rect x="257" y="47" width="897" height="1377"></rect>
  </clipPath>
</defs>
<polyline clip-path="url(#clip972)" style="stroke:#000000; stroke-linecap:round; stroke-linejoin:round; stroke-width:2; stroke-opacity:0.1; fill:none" points="375.138,1423.18 375.138,47.2441 "></polyline>
<polyline clip-path="url(#clip972)" style="stroke:#000000; stroke-linecap:round; stroke-linejoin:round; stroke-width:2; stroke-opacity:0.1; fill:none" points="562.243,1423.18 562.243,47.2441 "></polyline>
<polyline clip-path="url(#clip972)" style="stroke:#000000; stroke-linecap:round; stroke-linejoin:round; stroke-width:2; stroke-opacity:0.1; fill:none" points="749.347,1423.18 749.347,47.2441 "></polyline>
<polyline clip-path="url(#clip972)" style="stroke:#000000; stroke-linecap:round; stroke-linejoin:round; stroke-width:2; stroke-opacity:0.1; fill:none" points="936.451,1423.18 936.451,47.2441 "></polyline>
<polyline clip-path="url(#clip972)" style="stroke:#000000; stroke-linecap:round; stroke-linejoin:round; stroke-width:2; stroke-opacity:0.1; fill:none" points="1123.56,1423.18 1123.56,47.2441 "></polyline>
<polyline clip-path="url(#clip970)" style="stroke:#000000; stroke-linecap:round; stroke-linejoin:round; stroke-width:4; stroke-opacity:1; fill:none" points="257.204,1423.18 1152.76,1423.18 "></polyline>
<polyline clip-path="url(#clip970)" style="stroke:#000000; stroke-linecap:round; stroke-linejoin:round; stroke-width:4; stroke-opacity:1; fill:none" points="375.138,1423.18 375.138,1404.28 "></polyline>
<polyline clip-path="url(#clip970)" style="stroke:#000000; stroke-linecap:round; stroke-linejoin:round; stroke-width:4; stroke-opacity:1; fill:none" points="562.243,1423.18 562.243,1404.28 "></polyline>
<polyline clip-path="url(#clip970)" style="stroke:#000000; stroke-linecap:round; stroke-linejoin:round; stroke-width:4; stroke-opacity:1; fill:none" points="749.347,1423.18 749.347,1404.28 "></polyline>
<polyline clip-path="url(#clip970)" style="stroke:#000000; stroke-linecap:round; stroke-linejoin:round; stroke-width:4; stroke-opacity:1; fill:none" points="936.451,1423.18 936.451,1404.28 "></polyline>
<polyline clip-path="url(#clip970)" style="stroke:#000000; stroke-linecap:round; stroke-linejoin:round; stroke-width:4; stroke-opacity:1; fill:none" points="1123.56,1423.18 1123.56,1404.28 "></polyline>
<path clip-path="url(#clip970)" d="M342.048 1481.64 L349.687 1481.64 L349.687 1455.28 L341.377 1456.95 L341.377 1452.69 L349.641 1451.02 L354.317 1451.02 L354.317 1481.64 L361.956 1481.64 L361.956 1485.58 L342.048 1485.58 L342.048 1481.64 Z" fill="#000000" fill-rule="nonzero" fill-opacity="1"></path><path clip-path="url(#clip970)" d="M371.4 1479.7 L376.284 1479.7 L376.284 1485.58 L371.4 1485.58 L371.4 1479.7 Z" fill="#000000" fill-rule="nonzero" fill-opacity="1"></path><path clip-path="url(#clip970)" d="M399.317 1455.09 L387.511 1473.54 L399.317 1473.54 L399.317 1455.09 M398.09 1451.02 L403.969 1451.02 L403.969 1473.54 L408.9 1473.54 L408.9 1477.43 L403.969 1477.43 L403.969 1485.58 L399.317 1485.58 L399.317 1477.43 L383.715 1477.43 L383.715 1472.92 L398.09 1451.02 Z" fill="#000000" fill-rule="nonzero" fill-opacity="1"></path><path clip-path="url(#clip970)" d="M529.315 1481.64 L536.954 1481.64 L536.954 1455.28 L528.643 1456.95 L528.643 1452.69 L536.907 1451.02 L541.583 1451.02 L541.583 1481.64 L549.222 1481.64 L549.222 1485.58 L529.315 1485.58 L529.315 1481.64 Z" fill="#000000" fill-rule="nonzero" fill-opacity="1"></path><path clip-path="url(#clip970)" d="M558.666 1479.7 L563.551 1479.7 L563.551 1485.58 L558.666 1485.58 L558.666 1479.7 Z" fill="#000000" fill-rule="nonzero" fill-opacity="1"></path><path clip-path="url(#clip970)" d="M584.314 1466.44 Q581.166 1466.44 579.314 1468.59 Q577.486 1470.74 577.486 1474.49 Q577.486 1478.22 579.314 1480.39 Q581.166 1482.55 584.314 1482.55 Q587.463 1482.55 589.291 1480.39 Q591.143 1478.22 591.143 1474.49 Q591.143 1470.74 589.291 1468.59 Q587.463 1466.44 584.314 1466.44 M593.597 1451.78 L593.597 1456.04 Q591.838 1455.21 590.032 1454.77 Q588.25 1454.33 586.49 1454.33 Q581.861 1454.33 579.407 1457.45 Q576.976 1460.58 576.629 1466.9 Q577.995 1464.89 580.055 1463.82 Q582.115 1462.73 584.592 1462.73 Q589.8 1462.73 592.81 1465.9 Q595.842 1469.05 595.842 1474.49 Q595.842 1479.82 592.694 1483.03 Q589.546 1486.25 584.314 1486.25 Q578.319 1486.25 575.148 1481.67 Q571.977 1477.06 571.977 1468.33 Q571.977 1460.14 575.865 1455.28 Q579.754 1450.39 586.305 1450.39 Q588.064 1450.39 589.847 1450.74 Q591.652 1451.09 593.597 1451.78 Z" fill="#000000" fill-rule="nonzero" fill-opacity="1"></path><path clip-path="url(#clip970)" d="M716.546 1481.64 L724.185 1481.64 L724.185 1455.28 L715.875 1456.95 L715.875 1452.69 L724.139 1451.02 L728.815 1451.02 L728.815 1481.64 L736.454 1481.64 L736.454 1485.58 L716.546 1485.58 L716.546 1481.64 Z" fill="#000000" fill-rule="nonzero" fill-opacity="1"></path><path clip-path="url(#clip970)" d="M745.898 1479.7 L750.782 1479.7 L750.782 1485.58 L745.898 1485.58 L745.898 1479.7 Z" fill="#000000" fill-rule="nonzero" fill-opacity="1"></path><path clip-path="url(#clip970)" d="M770.967 1469.17 Q767.634 1469.17 765.713 1470.95 Q763.815 1472.73 763.815 1475.86 Q763.815 1478.98 765.713 1480.77 Q767.634 1482.55 770.967 1482.55 Q774.301 1482.55 776.222 1480.77 Q778.143 1478.96 778.143 1475.86 Q778.143 1472.73 776.222 1470.95 Q774.324 1469.17 770.967 1469.17 M766.291 1467.18 Q763.282 1466.44 761.592 1464.38 Q759.926 1462.32 759.926 1459.35 Q759.926 1455.21 762.866 1452.8 Q765.828 1450.39 770.967 1450.39 Q776.129 1450.39 779.069 1452.8 Q782.009 1455.21 782.009 1459.35 Q782.009 1462.32 780.319 1464.38 Q778.652 1466.44 775.666 1467.18 Q779.046 1467.96 780.921 1470.26 Q782.819 1472.55 782.819 1475.86 Q782.819 1480.88 779.74 1483.57 Q776.685 1486.25 770.967 1486.25 Q765.25 1486.25 762.171 1483.57 Q759.116 1480.88 759.116 1475.86 Q759.116 1472.55 761.014 1470.26 Q762.912 1467.96 766.291 1467.18 M764.578 1459.79 Q764.578 1462.48 766.245 1463.98 Q767.935 1465.49 770.967 1465.49 Q773.977 1465.49 775.666 1463.98 Q777.379 1462.48 777.379 1459.79 Q777.379 1457.11 775.666 1455.6 Q773.977 1454.1 770.967 1454.1 Q767.935 1454.1 766.245 1455.6 Q764.578 1457.11 764.578 1459.79 Z" fill="#000000" fill-rule="nonzero" fill-opacity="1"></path><path clip-path="url(#clip970)" d="M907.69 1481.64 L924.009 1481.64 L924.009 1485.58 L902.065 1485.58 L902.065 1481.64 Q904.727 1478.89 909.31 1474.26 Q913.917 1469.61 915.097 1468.27 Q917.343 1465.74 918.222 1464.01 Q919.125 1462.25 919.125 1460.56 Q919.125 1457.8 917.181 1456.07 Q915.259 1454.33 912.158 1454.33 Q909.959 1454.33 907.505 1455.09 Q905.074 1455.86 902.297 1457.41 L902.297 1452.69 Q905.121 1451.55 907.574 1450.97 Q910.028 1450.39 912.065 1450.39 Q917.435 1450.39 920.63 1453.08 Q923.824 1455.77 923.824 1460.26 Q923.824 1462.39 923.014 1464.31 Q922.227 1466.2 920.12 1468.8 Q919.542 1469.47 916.44 1472.69 Q913.338 1475.88 907.69 1481.64 Z" fill="#000000" fill-rule="nonzero" fill-opacity="1"></path><path clip-path="url(#clip970)" d="M933.824 1479.7 L938.708 1479.7 L938.708 1485.58 L933.824 1485.58 L933.824 1479.7 Z" fill="#000000" fill-rule="nonzero" fill-opacity="1"></path><path clip-path="url(#clip970)" d="M958.893 1454.1 Q955.282 1454.1 953.454 1457.66 Q951.648 1461.2 951.648 1468.33 Q951.648 1475.44 953.454 1479.01 Q955.282 1482.55 958.893 1482.55 Q962.528 1482.55 964.333 1479.01 Q966.162 1475.44 966.162 1468.33 Q966.162 1461.2 964.333 1457.66 Q962.528 1454.1 958.893 1454.1 M958.893 1450.39 Q964.704 1450.39 967.759 1455 Q970.838 1459.58 970.838 1468.33 Q970.838 1477.06 967.759 1481.67 Q964.704 1486.25 958.893 1486.25 Q953.083 1486.25 950.005 1481.67 Q946.949 1477.06 946.949 1468.33 Q946.949 1459.58 950.005 1455 Q953.083 1450.39 958.893 1450.39 Z" fill="#000000" fill-rule="nonzero" fill-opacity="1"></path><path clip-path="url(#clip970)" d="M1095.59 1481.64 L1111.91 1481.64 L1111.91 1485.58 L1089.97 1485.58 L1089.97 1481.64 Q1092.63 1478.89 1097.21 1474.26 Q1101.82 1469.61 1103 1468.27 Q1105.25 1465.74 1106.13 1464.01 Q1107.03 1462.25 1107.03 1460.56 Q1107.03 1457.8 1105.08 1456.07 Q1103.16 1454.33 1100.06 1454.33 Q1097.86 1454.33 1095.41 1455.09 Q1092.98 1455.86 1090.2 1457.41 L1090.2 1452.69 Q1093.02 1451.55 1095.48 1450.97 Q1097.93 1450.39 1099.97 1450.39 Q1105.34 1450.39 1108.53 1453.08 Q1111.73 1455.77 1111.73 1460.26 Q1111.73 1462.39 1110.92 1464.31 Q1110.13 1466.2 1108.02 1468.8 Q1107.44 1469.47 1104.34 1472.69 Q1101.24 1475.88 1095.59 1481.64 Z" fill="#000000" fill-rule="nonzero" fill-opacity="1"></path><path clip-path="url(#clip970)" d="M1121.73 1479.7 L1126.61 1479.7 L1126.61 1485.58 L1121.73 1485.58 L1121.73 1479.7 Z" fill="#000000" fill-rule="nonzero" fill-opacity="1"></path><path clip-path="url(#clip970)" d="M1140.82 1481.64 L1157.14 1481.64 L1157.14 1485.58 L1135.2 1485.58 L1135.2 1481.64 Q1137.86 1478.89 1142.44 1474.26 Q1147.05 1469.61 1148.23 1468.27 Q1150.48 1465.74 1151.36 1464.01 Q1152.26 1462.25 1152.26 1460.56 Q1152.26 1457.8 1150.31 1456.07 Q1148.39 1454.33 1145.29 1454.33 Q1143.09 1454.33 1140.64 1455.09 Q1138.21 1455.86 1135.43 1457.41 L1135.43 1452.69 Q1138.25 1451.55 1140.71 1450.97 Q1143.16 1450.39 1145.2 1450.39 Q1150.57 1450.39 1153.76 1453.08 Q1156.96 1455.77 1156.96 1460.26 Q1156.96 1462.39 1156.15 1464.31 Q1155.36 1466.2 1153.25 1468.8 Q1152.68 1469.47 1149.57 1472.69 Q1146.47 1475.88 1140.82 1481.64 Z" fill="#000000" fill-rule="nonzero" fill-opacity="1"></path><path clip-path="url(#clip970)" d="M520.963 1518.52 L526.82 1518.52 L526.82 1568.04 L520.963 1568.04 L520.963 1518.52 Z" fill="#000000" fill-rule="nonzero" fill-opacity="1"></path><path clip-path="url(#clip970)" d="M552.887 1536.5 Q548.177 1536.5 545.439 1540.19 Q542.702 1543.85 542.702 1550.25 Q542.702 1556.65 545.408 1560.34 Q548.145 1564 552.887 1564 Q557.566 1564 560.303 1560.31 Q563.041 1556.62 563.041 1550.25 Q563.041 1543.92 560.303 1540.23 Q557.566 1536.5 552.887 1536.5 M552.887 1531.54 Q560.526 1531.54 564.887 1536.5 Q569.247 1541.47 569.247 1550.25 Q569.247 1559 564.887 1564 Q560.526 1568.97 552.887 1568.97 Q545.217 1568.97 540.856 1564 Q536.527 1559 536.527 1550.25 Q536.527 1541.47 540.856 1536.5 Q545.217 1531.54 552.887 1531.54 Z" fill="#000000" fill-rule="nonzero" fill-opacity="1"></path><path clip-path="url(#clip970)" d="M602.413 1549.81 Q602.413 1543.44 599.771 1539.94 Q597.161 1536.44 592.418 1536.44 Q587.708 1536.44 585.066 1539.94 Q582.456 1543.44 582.456 1549.81 Q582.456 1556.14 585.066 1559.64 Q587.708 1563.14 592.418 1563.14 Q597.161 1563.14 599.771 1559.64 Q602.413 1556.14 602.413 1549.81 M608.269 1563.62 Q608.269 1572.72 604.227 1577.15 Q600.185 1581.6 591.845 1581.6 Q588.758 1581.6 586.021 1581.13 Q583.284 1580.68 580.705 1579.72 L580.705 1574.03 Q583.284 1575.43 585.798 1576.1 Q588.312 1576.76 590.922 1576.76 Q596.683 1576.76 599.548 1573.74 Q602.413 1570.75 602.413 1564.67 L602.413 1561.77 Q600.598 1564.92 597.766 1566.48 Q594.933 1568.04 590.986 1568.04 Q584.429 1568.04 580.419 1563.05 Q576.409 1558.05 576.409 1549.81 Q576.409 1541.53 580.419 1536.53 Q584.429 1531.54 590.986 1531.54 Q594.933 1531.54 597.766 1533.1 Q600.598 1534.66 602.413 1537.81 L602.413 1532.4 L608.269 1532.4 L608.269 1563.62 Z" fill="#000000" fill-rule="nonzero" fill-opacity="1"></path><path clip-path="url(#clip970)" d="M622.274 1562.63 L632.777 1562.63 L632.777 1526.38 L621.35 1528.67 L621.35 1522.82 L632.713 1520.52 L639.143 1520.52 L639.143 1562.63 L649.646 1562.63 L649.646 1568.04 L622.274 1568.04 L622.274 1562.63 Z" fill="#000000" fill-rule="nonzero" fill-opacity="1"></path><path clip-path="url(#clip970)" d="M676.382 1524.76 Q671.417 1524.76 668.902 1529.66 Q666.42 1534.53 666.42 1544.33 Q666.42 1554.1 668.902 1559 Q671.417 1563.87 676.382 1563.87 Q681.379 1563.87 683.862 1559 Q686.376 1554.1 686.376 1544.33 Q686.376 1534.53 683.862 1529.66 Q681.379 1524.76 676.382 1524.76 M676.382 1519.66 Q684.371 1519.66 688.572 1526 Q692.806 1532.3 692.806 1544.33 Q692.806 1556.33 688.572 1562.66 Q684.371 1568.97 676.382 1568.97 Q668.393 1568.97 664.16 1562.66 Q659.959 1556.33 659.959 1544.33 Q659.959 1532.3 664.16 1526 Q668.393 1519.66 676.382 1519.66 Z" fill="#000000" fill-rule="nonzero" fill-opacity="1"></path><path clip-path="url(#clip970)" d="M717.345 1518.58 Q713.08 1525.9 711.011 1533.06 Q708.943 1540.23 708.943 1547.58 Q708.943 1554.93 711.011 1562.16 Q713.112 1569.35 717.345 1576.64 L712.253 1576.64 Q707.479 1569.16 705.091 1561.93 Q702.736 1554.71 702.736 1547.58 Q702.736 1540.48 705.091 1533.29 Q707.447 1526.09 712.253 1518.58 L717.345 1518.58 Z" fill="#000000" fill-rule="nonzero" fill-opacity="1"></path><path clip-path="url(#clip970)" d="M730.65 1562.63 L741.153 1562.63 L741.153 1526.38 L729.727 1528.67 L729.727 1522.82 L741.089 1520.52 L747.519 1520.52 L747.519 1562.63 L758.022 1562.63 L758.022 1568.04 L730.65 1568.04 L730.65 1562.63 Z" fill="#000000" fill-rule="nonzero" fill-opacity="1"></path><path clip-path="url(#clip970)" d="M780.589 1520.52 L785.999 1520.52 L769.449 1574.09 L764.038 1574.09 L780.589 1520.52 Z" fill="#000000" fill-rule="nonzero" fill-opacity="1"></path><path clip-path="url(#clip970)" d="M808.279 1526.86 L795.23 1562.7 L821.361 1562.7 L808.279 1526.86 M786.509 1568.04 L804.651 1520.52 L811.94 1520.52 L830.05 1568.04 L786.509 1568.04 Z" fill="#000000" fill-rule="nonzero" fill-opacity="1"></path><path clip-path="url(#clip970)" d="M866.367 1532.4 L853.476 1549.74 L867.035 1568.04 L860.128 1568.04 L849.752 1554.04 L839.376 1568.04 L832.469 1568.04 L846.315 1549.39 L833.647 1532.4 L840.554 1532.4 L850.007 1545.1 L859.46 1532.4 L866.367 1532.4 Z" fill="#000000" fill-rule="nonzero" fill-opacity="1"></path><path clip-path="url(#clip970)" d="M874.387 1518.58 L879.48 1518.58 Q884.254 1526.09 886.609 1533.29 Q888.997 1540.48 888.997 1547.58 Q888.997 1554.71 886.609 1561.93 Q884.254 1569.16 879.48 1576.64 L874.387 1576.64 Q878.621 1569.35 880.689 1562.16 Q882.79 1554.93 882.79 1547.58 Q882.79 1540.23 880.689 1533.06 Q878.621 1525.9 874.387 1518.58 Z" fill="#000000" fill-rule="nonzero" fill-opacity="1"></path><polyline clip-path="url(#clip972)" style="stroke:#000000; stroke-linecap:round; stroke-linejoin:round; stroke-width:2; stroke-opacity:0.1; fill:none" points="257.204,1331.96 1152.76,1331.96 "></polyline>
<polyline clip-path="url(#clip972)" style="stroke:#000000; stroke-linecap:round; stroke-linejoin:round; stroke-width:2; stroke-opacity:0.1; fill:none" points="257.204,972.623 1152.76,972.623 "></polyline>
<polyline clip-path="url(#clip972)" style="stroke:#000000; stroke-linecap:round; stroke-linejoin:round; stroke-width:2; stroke-opacity:0.1; fill:none" points="257.204,613.286 1152.76,613.286 "></polyline>
<polyline clip-path="url(#clip972)" style="stroke:#000000; stroke-linecap:round; stroke-linejoin:round; stroke-width:2; stroke-opacity:0.1; fill:none" points="257.204,253.95 1152.76,253.95 "></polyline>
<polyline clip-path="url(#clip970)" style="stroke:#000000; stroke-linecap:round; stroke-linejoin:round; stroke-width:4; stroke-opacity:1; fill:none" points="257.204,1423.18 257.204,47.2441 "></polyline>
<polyline clip-path="url(#clip970)" style="stroke:#000000; stroke-linecap:round; stroke-linejoin:round; stroke-width:4; stroke-opacity:1; fill:none" points="257.204,1331.96 276.102,1331.96 "></polyline>
<polyline clip-path="url(#clip970)" style="stroke:#000000; stroke-linecap:round; stroke-linejoin:round; stroke-width:4; stroke-opacity:1; fill:none" points="257.204,972.623 276.102,972.623 "></polyline>
<polyline clip-path="url(#clip970)" style="stroke:#000000; stroke-linecap:round; stroke-linejoin:round; stroke-width:4; stroke-opacity:1; fill:none" points="257.204,613.286 276.102,613.286 "></polyline>
<polyline clip-path="url(#clip970)" style="stroke:#000000; stroke-linecap:round; stroke-linejoin:round; stroke-width:4; stroke-opacity:1; fill:none" points="257.204,253.95 276.102,253.95 "></polyline>
<path clip-path="url(#clip970)" d="M114.26 1332.41 L143.936 1332.41 L143.936 1336.35 L114.26 1336.35 L114.26 1332.41 Z" fill="#000000" fill-rule="nonzero" fill-opacity="1"></path><path clip-path="url(#clip970)" d="M166.876 1318.75 L155.07 1337.2 L166.876 1337.2 L166.876 1318.75 M165.649 1314.68 L171.528 1314.68 L171.528 1337.2 L176.459 1337.2 L176.459 1341.09 L171.528 1341.09 L171.528 1349.24 L166.876 1349.24 L166.876 1341.09 L151.274 1341.09 L151.274 1336.58 L165.649 1314.68 Z" fill="#000000" fill-rule="nonzero" fill-opacity="1"></path><path clip-path="url(#clip970)" d="M184.19 1343.36 L189.075 1343.36 L189.075 1349.24 L184.19 1349.24 L184.19 1343.36 Z" fill="#000000" fill-rule="nonzero" fill-opacity="1"></path><path clip-path="url(#clip970)" d="M209.26 1317.76 Q205.649 1317.76 203.82 1321.32 Q202.014 1324.86 202.014 1331.99 Q202.014 1339.1 203.82 1342.67 Q205.649 1346.21 209.26 1346.21 Q212.894 1346.21 214.699 1342.67 Q216.528 1339.1 216.528 1331.99 Q216.528 1324.86 214.699 1321.32 Q212.894 1317.76 209.26 1317.76 M209.26 1314.05 Q215.07 1314.05 218.125 1318.66 Q221.204 1323.24 221.204 1331.99 Q221.204 1340.72 218.125 1345.33 Q215.07 1349.91 209.26 1349.91 Q203.449 1349.91 200.371 1345.33 Q197.315 1340.72 197.315 1331.99 Q197.315 1323.24 200.371 1318.66 Q203.449 1314.05 209.26 1314.05 Z" fill="#000000" fill-rule="nonzero" fill-opacity="1"></path><path clip-path="url(#clip970)" d="M115.256 973.074 L144.931 973.074 L144.931 977.009 L115.256 977.009 L115.256 973.074 Z" fill="#000000" fill-rule="nonzero" fill-opacity="1"></path><path clip-path="url(#clip970)" d="M169.19 971.269 Q172.547 971.986 174.422 974.255 Q176.32 976.523 176.32 979.857 Q176.32 984.972 172.802 987.773 Q169.283 990.574 162.802 990.574 Q160.626 990.574 158.311 990.134 Q156.019 989.718 153.566 988.861 L153.566 984.347 Q155.51 985.482 157.825 986.06 Q160.14 986.639 162.663 986.639 Q167.061 986.639 169.352 984.903 Q171.667 983.167 171.667 979.857 Q171.667 976.801 169.514 975.088 Q167.385 973.352 163.565 973.352 L159.538 973.352 L159.538 969.51 L163.751 969.51 Q167.2 969.51 169.028 968.144 Q170.857 966.755 170.857 964.162 Q170.857 961.5 168.959 960.088 Q167.084 958.653 163.565 958.653 Q161.644 958.653 159.445 959.07 Q157.246 959.486 154.607 960.366 L154.607 956.199 Q157.269 955.459 159.584 955.088 Q161.922 954.718 163.982 954.718 Q169.306 954.718 172.408 957.148 Q175.51 959.556 175.51 963.676 Q175.51 966.547 173.866 968.537 Q172.223 970.505 169.19 971.269 Z" fill="#000000" fill-rule="nonzero" fill-opacity="1"></path><path clip-path="url(#clip970)" d="M185.186 984.023 L190.07 984.023 L190.07 989.903 L185.186 989.903 L185.186 984.023 Z" fill="#000000" fill-rule="nonzero" fill-opacity="1"></path><path clip-path="url(#clip970)" d="M200.301 955.343 L218.658 955.343 L218.658 959.278 L204.584 959.278 L204.584 967.75 Q205.602 967.403 206.621 967.241 Q207.639 967.056 208.658 967.056 Q214.445 967.056 217.824 970.227 Q221.204 973.398 221.204 978.815 Q221.204 984.394 217.732 987.496 Q214.26 990.574 207.94 990.574 Q205.764 990.574 203.496 990.204 Q201.25 989.833 198.843 989.093 L198.843 984.394 Q200.926 985.528 203.149 986.083 Q205.371 986.639 207.848 986.639 Q211.852 986.639 214.19 984.533 Q216.528 982.426 216.528 978.815 Q216.528 975.204 214.19 973.097 Q211.852 970.991 207.848 970.991 Q205.973 970.991 204.098 971.408 Q202.246 971.824 200.301 972.704 L200.301 955.343 Z" fill="#000000" fill-rule="nonzero" fill-opacity="1"></path><path clip-path="url(#clip970)" d="M114.26 613.738 L143.936 613.738 L143.936 617.673 L114.26 617.673 L114.26 613.738 Z" fill="#000000" fill-rule="nonzero" fill-opacity="1"></path><path clip-path="url(#clip970)" d="M168.195 611.932 Q171.552 612.65 173.427 614.918 Q175.325 617.187 175.325 620.52 Q175.325 625.636 171.806 628.437 Q168.288 631.238 161.806 631.238 Q159.63 631.238 157.315 630.798 Q155.024 630.381 152.57 629.525 L152.57 625.011 Q154.515 626.145 156.829 626.724 Q159.144 627.303 161.667 627.303 Q166.065 627.303 168.357 625.566 Q170.672 623.83 170.672 620.52 Q170.672 617.465 168.519 615.752 Q166.39 614.016 162.57 614.016 L158.542 614.016 L158.542 610.173 L162.755 610.173 Q166.204 610.173 168.033 608.807 Q169.862 607.418 169.862 604.826 Q169.862 602.164 167.964 600.752 Q166.089 599.317 162.57 599.317 Q160.649 599.317 158.45 599.733 Q156.251 600.15 153.612 601.03 L153.612 596.863 Q156.274 596.122 158.589 595.752 Q160.927 595.381 162.987 595.381 Q168.311 595.381 171.413 597.812 Q174.514 600.219 174.514 604.34 Q174.514 607.21 172.871 609.201 Q171.227 611.168 168.195 611.932 Z" fill="#000000" fill-rule="nonzero" fill-opacity="1"></path><path clip-path="url(#clip970)" d="M184.19 624.687 L189.075 624.687 L189.075 630.566 L184.19 630.566 L184.19 624.687 Z" fill="#000000" fill-rule="nonzero" fill-opacity="1"></path><path clip-path="url(#clip970)" d="M209.26 599.085 Q205.649 599.085 203.82 602.65 Q202.014 606.192 202.014 613.321 Q202.014 620.428 203.82 623.992 Q205.649 627.534 209.26 627.534 Q212.894 627.534 214.699 623.992 Q216.528 620.428 216.528 613.321 Q216.528 606.192 214.699 602.65 Q212.894 599.085 209.26 599.085 M209.26 595.381 Q215.07 595.381 218.125 599.988 Q221.204 604.571 221.204 613.321 Q221.204 622.048 218.125 626.654 Q215.07 631.238 209.26 631.238 Q203.449 631.238 200.371 626.654 Q197.315 622.048 197.315 613.321 Q197.315 604.571 200.371 599.988 Q203.449 595.381 209.26 595.381 Z" fill="#000000" fill-rule="nonzero" fill-opacity="1"></path><path clip-path="url(#clip970)" d="M115.256 254.401 L144.931 254.401 L144.931 258.337 L115.256 258.337 L115.256 254.401 Z" fill="#000000" fill-rule="nonzero" fill-opacity="1"></path><path clip-path="url(#clip970)" d="M159.052 267.295 L175.371 267.295 L175.371 271.23 L153.427 271.23 L153.427 267.295 Q156.089 264.54 160.672 259.911 Q165.278 255.258 166.459 253.915 Q168.704 251.392 169.584 249.656 Q170.487 247.897 170.487 246.207 Q170.487 243.452 168.542 241.716 Q166.621 239.98 163.519 239.98 Q161.32 239.98 158.866 240.744 Q156.436 241.508 153.658 243.059 L153.658 238.337 Q156.482 237.202 158.936 236.624 Q161.39 236.045 163.427 236.045 Q168.797 236.045 171.991 238.73 Q175.186 241.415 175.186 245.906 Q175.186 248.036 174.376 249.957 Q173.589 251.855 171.482 254.448 Q170.903 255.119 167.802 258.337 Q164.7 261.531 159.052 267.295 Z" fill="#000000" fill-rule="nonzero" fill-opacity="1"></path><path clip-path="url(#clip970)" d="M185.186 265.35 L190.07 265.35 L190.07 271.23 L185.186 271.23 L185.186 265.35 Z" fill="#000000" fill-rule="nonzero" fill-opacity="1"></path><path clip-path="url(#clip970)" d="M200.301 236.67 L218.658 236.67 L218.658 240.605 L204.584 240.605 L204.584 249.077 Q205.602 248.73 206.621 248.568 Q207.639 248.383 208.658 248.383 Q214.445 248.383 217.824 251.554 Q221.204 254.725 221.204 260.142 Q221.204 265.721 217.732 268.823 Q214.26 271.901 207.94 271.901 Q205.764 271.901 203.496 271.531 Q201.25 271.161 198.843 270.42 L198.843 265.721 Q200.926 266.855 203.149 267.411 Q205.371 267.966 207.848 267.966 Q211.852 267.966 214.19 265.86 Q216.528 263.753 216.528 260.142 Q216.528 256.531 214.19 254.425 Q211.852 252.318 207.848 252.318 Q205.973 252.318 204.098 252.735 Q202.246 253.151 200.301 254.031 L200.301 236.67 Z" fill="#000000" fill-rule="nonzero" fill-opacity="1"></path><path clip-path="url(#clip970)" d="M14.479 885.268 L14.479 879.411 L64.0042 879.411 L64.0042 885.268 L14.479 885.268 Z" fill="#000000" fill-rule="nonzero" fill-opacity="1"></path><path clip-path="url(#clip970)" d="M32.4621 853.344 Q32.4621 858.054 36.1542 860.791 Q39.8145 863.529 46.212 863.529 Q52.6095 863.529 56.3017 860.823 Q59.9619 858.086 59.9619 853.344 Q59.9619 848.665 56.2698 845.928 Q52.5777 843.19 46.212 843.19 Q39.8781 843.19 36.186 845.928 Q32.4621 848.665 32.4621 853.344 M27.4968 853.344 Q27.4968 845.705 32.4621 841.344 Q37.4273 836.984 46.212 836.984 Q54.9649 836.984 59.9619 841.344 Q64.9272 845.705 64.9272 853.344 Q64.9272 861.014 59.9619 865.375 Q54.9649 869.703 46.212 869.703 Q37.4273 869.703 32.4621 865.375 Q27.4968 861.014 27.4968 853.344 Z" fill="#000000" fill-rule="nonzero" fill-opacity="1"></path><path clip-path="url(#clip970)" d="M45.7664 803.818 Q39.4007 803.818 35.8996 806.46 Q32.3984 809.07 32.3984 813.813 Q32.3984 818.523 35.8996 821.165 Q39.4007 823.775 45.7664 823.775 Q52.1003 823.775 55.6014 821.165 Q59.1026 818.523 59.1026 813.813 Q59.1026 809.07 55.6014 806.46 Q52.1003 803.818 45.7664 803.818 M59.58 797.962 Q68.683 797.962 73.1071 802.004 Q77.5631 806.046 77.5631 814.385 Q77.5631 817.473 77.0857 820.21 Q76.6401 822.947 75.6852 825.525 L69.9879 825.525 Q71.3884 822.947 72.0568 820.433 Q72.7252 817.918 72.7252 815.308 Q72.7252 809.548 69.7015 806.683 Q66.7096 803.818 60.6303 803.818 L57.7339 803.818 Q60.885 805.633 62.4446 808.465 Q64.0042 811.298 64.0042 815.245 Q64.0042 821.801 59.0071 825.812 Q54.01 829.822 45.7664 829.822 Q37.491 829.822 32.4939 825.812 Q27.4968 821.801 27.4968 815.245 Q27.4968 811.298 29.0564 808.465 Q30.616 805.633 33.7671 803.818 L28.3562 803.818 L28.3562 797.962 L59.58 797.962 Z" fill="#000000" fill-rule="nonzero" fill-opacity="1"></path><path clip-path="url(#clip970)" d="M58.5933 783.957 L58.5933 773.454 L22.3406 773.454 L24.6323 784.88 L18.7758 784.88 L16.4842 773.518 L16.4842 767.088 L58.5933 767.088 L58.5933 756.585 L64.0042 756.585 L64.0042 783.957 L58.5933 783.957 Z" fill="#000000" fill-rule="nonzero" fill-opacity="1"></path><path clip-path="url(#clip970)" d="M20.7174 729.849 Q20.7174 734.814 25.6189 737.329 Q30.4887 739.811 40.2919 739.811 Q50.0633 739.811 54.9649 737.329 Q59.8346 734.814 59.8346 729.849 Q59.8346 724.852 54.9649 722.369 Q50.0633 719.855 40.2919 719.855 Q30.4887 719.855 25.6189 722.369 Q20.7174 724.852 20.7174 729.849 M15.6248 729.849 Q15.6248 721.86 21.9587 717.659 Q28.2607 713.425 40.2919 713.425 Q52.2913 713.425 58.6251 717.659 Q64.9272 721.86 64.9272 729.849 Q64.9272 737.838 58.6251 742.071 Q52.2913 746.272 40.2919 746.272 Q28.2607 746.272 21.9587 742.071 Q15.6248 737.838 15.6248 729.849 Z" fill="#000000" fill-rule="nonzero" fill-opacity="1"></path><path clip-path="url(#clip970)" d="M14.5426 688.886 Q21.8632 693.151 29.0246 695.219 Q36.186 697.288 43.5384 697.288 Q50.8908 697.288 58.1159 695.219 Q65.3091 693.119 72.5979 688.886 L72.5979 693.978 Q65.1182 698.752 57.8931 701.14 Q50.668 703.495 43.5384 703.495 Q36.4406 703.495 29.2474 701.14 Q22.0542 698.784 14.5426 693.978 L14.5426 688.886 Z" fill="#000000" fill-rule="nonzero" fill-opacity="1"></path><path clip-path="url(#clip970)" d="M34.0217 652.346 Q33.6079 653.524 33.2896 654.702 Q32.4621 657.853 32.4621 661.227 Q32.4621 667.051 35.6131 670.298 Q38.5413 673.321 43.9204 673.894 L43.9204 652.346 L48.5037 652.346 L48.5037 673.894 Q53.8827 673.321 56.8109 670.298 Q59.9619 667.051 59.9619 661.227 Q59.9619 657.152 59.1344 654.702 L58.3387 652.346 L63.654 652.346 L64.227 654.861 Q64.9272 658.171 64.9272 661.577 Q64.9272 670.107 59.9619 675.072 Q54.9967 680.069 46.212 680.069 Q37.4273 680.069 32.4621 675.072 Q27.4968 670.107 27.4968 661.577 Q27.4968 658.362 28.1971 654.861 Q28.4517 653.588 28.8336 652.346 L34.0217 652.346 Z" fill="#000000" fill-rule="nonzero" fill-opacity="1"></path><path clip-path="url(#clip970)" d="M28.3562 607.786 L45.7028 620.677 L64.0042 607.118 L64.0042 614.025 L49.9996 624.401 L64.0042 634.777 L64.0042 641.684 L45.3526 627.838 L28.3562 640.506 L28.3562 633.599 L41.0558 624.146 L28.3562 614.693 L28.3562 607.786 Z" fill="#000000" fill-rule="nonzero" fill-opacity="1"></path><path clip-path="url(#clip970)" d="M14.5426 599.766 L14.5426 594.673 Q22.0542 589.899 29.2474 587.543 Q36.4406 585.156 43.5384 585.156 Q50.668 585.156 57.8931 587.543 Q65.1182 589.899 72.5979 594.673 L72.5979 599.766 Q65.3091 595.532 58.1159 593.464 Q50.8908 591.363 43.5384 591.363 Q36.186 591.363 29.0246 593.464 Q21.8632 595.532 14.5426 599.766 Z" fill="#000000" fill-rule="nonzero" fill-opacity="1"></path><circle clip-path="url(#clip972)" cx="282.55" cy="86.1857" r="14.4" fill="#009af9" fill-rule="evenodd" fill-opacity="1" stroke="#000000" stroke-opacity="1" stroke-width="3.2"></circle>
<circle clip-path="url(#clip972)" cx="564.17" cy="503.981" r="14.4" fill="#009af9" fill-rule="evenodd" fill-opacity="1" stroke="#000000" stroke-opacity="1" stroke-width="3.2"></circle>
<circle clip-path="url(#clip972)" cx="845.79" cy="936.26" r="14.4" fill="#009af9" fill-rule="evenodd" fill-opacity="1" stroke="#000000" stroke-opacity="1" stroke-width="3.2"></circle>
<circle clip-path="url(#clip972)" cx="1127.41" cy="1368.97" r="14.4" fill="#009af9" fill-rule="evenodd" fill-opacity="1" stroke="#000000" stroke-opacity="1" stroke-width="3.2"></circle>
<polyline clip-path="url(#clip972)" style="stroke:#e26f46; stroke-linecap:round; stroke-linejoin:round; stroke-width:4; stroke-opacity:1; fill:none" points="282.55,86.1857 564.17,302.528 845.79,518.87 1127.41,735.212 "></polyline>
<polyline clip-path="url(#clip972)" style="stroke:#3da44d; stroke-linecap:round; stroke-linejoin:round; stroke-width:4; stroke-opacity:1; fill:none" points="282.55,86.1857 564.17,518.87 845.79,951.554 1127.41,1384.24 "></polyline>
<path clip-path="url(#clip970)" d="M972.909 300.469 L1122.9 300.469 L1122.9 93.1086 L972.909 93.1086  Z" fill="#ffffff" fill-rule="evenodd" fill-opacity="1"></path>
<polyline clip-path="url(#clip970)" style="stroke:#000000; stroke-linecap:round; stroke-linejoin:round; stroke-width:4; stroke-opacity:1; fill:none" points="972.909,300.469 1122.9,300.469 1122.9,93.1086 972.909,93.1086 972.909,300.469 "></polyline>
<circle clip-path="url(#clip970)" cx="1012.71" cy="144.949" r="20.48" fill="#009af9" fill-rule="evenodd" fill-opacity="1" stroke="#000000" stroke-opacity="1" stroke-width="4.55111"></circle>
<path clip-path="url(#clip970)" d="M1072.68 140.423 Q1071.82 140.122 1070.96 139.891 Q1068.67 139.289 1066.22 139.289 Q1061.98 139.289 1059.62 141.581 Q1057.42 143.71 1057 147.622 L1072.68 147.622 L1072.68 150.956 L1057 150.956 Q1057.42 154.868 1059.62 156.997 Q1061.98 159.289 1066.22 159.289 Q1069.18 159.289 1070.96 158.687 L1072.68 158.108 L1072.68 161.974 L1070.85 162.391 Q1068.44 162.9 1065.96 162.9 Q1059.76 162.9 1056.15 159.289 Q1052.51 155.678 1052.51 149.289 Q1052.51 142.9 1056.15 139.289 Q1059.76 135.678 1065.96 135.678 Q1068.3 135.678 1070.85 136.187 Q1071.77 136.372 1072.68 136.65 L1072.68 140.423 Z" fill="#000000" fill-rule="nonzero" fill-opacity="1"></path><polyline clip-path="url(#clip970)" style="stroke:#e26f46; stroke-linecap:round; stroke-linejoin:round; stroke-width:4; stroke-opacity:1; fill:none" points="982.86,196.789 1042.56,196.789 "></polyline>
<path clip-path="url(#clip970)" d="M1068.53 182.68 Q1063.44 182.68 1060.43 186.476 Q1057.44 190.272 1057.44 196.823 Q1057.44 203.351 1060.43 207.147 Q1063.44 210.944 1068.53 210.944 Q1073.63 210.944 1076.59 207.147 Q1079.57 203.351 1079.57 196.823 Q1079.57 190.272 1076.59 186.476 Q1073.63 182.68 1068.53 182.68 M1068.53 178.884 Q1075.8 178.884 1080.15 183.768 Q1084.5 188.629 1084.5 196.823 Q1084.5 204.995 1080.15 209.879 Q1075.8 214.74 1068.53 214.74 Q1061.24 214.74 1056.87 209.879 Q1052.51 205.018 1052.51 196.823 Q1052.51 188.629 1056.87 183.768 Q1061.24 178.884 1068.53 178.884 Z" fill="#000000" fill-rule="nonzero" fill-opacity="1"></path><path clip-path="url(#clip970)" d="M1093.05 210.133 L1100.69 210.133 L1100.69 183.768 L1092.38 185.435 L1092.38 181.175 L1100.64 179.509 L1105.31 179.509 L1105.31 210.133 L1112.95 210.133 L1112.95 214.069 L1093.05 214.069 L1093.05 210.133 Z" fill="#000000" fill-rule="nonzero" fill-opacity="1"></path><polyline clip-path="url(#clip970)" style="stroke:#3da44d; stroke-linecap:round; stroke-linejoin:round; stroke-width:4; stroke-opacity:1; fill:none" points="982.86,248.629 1042.56,248.629 "></polyline>
<path clip-path="url(#clip970)" d="M1068.53 234.52 Q1063.44 234.52 1060.43 238.316 Q1057.44 242.112 1057.44 248.663 Q1057.44 255.191 1060.43 258.987 Q1063.44 262.784 1068.53 262.784 Q1073.63 262.784 1076.59 258.987 Q1079.57 255.191 1079.57 248.663 Q1079.57 242.112 1076.59 238.316 Q1073.63 234.52 1068.53 234.52 M1068.53 230.724 Q1075.8 230.724 1080.15 235.608 Q1084.5 240.469 1084.5 248.663 Q1084.5 256.835 1080.15 261.719 Q1075.8 266.58 1068.53 266.58 Q1061.24 266.58 1056.87 261.719 Q1052.51 256.858 1052.51 248.663 Q1052.51 240.469 1056.87 235.608 Q1061.24 230.724 1068.53 230.724 Z" fill="#000000" fill-rule="nonzero" fill-opacity="1"></path><path clip-path="url(#clip970)" d="M1096.26 261.973 L1112.58 261.973 L1112.58 265.909 L1090.64 265.909 L1090.64 261.973 Q1093.3 259.219 1097.88 254.589 Q1102.49 249.936 1103.67 248.594 Q1105.92 246.071 1106.8 244.335 Q1107.7 242.575 1107.7 240.886 Q1107.7 238.131 1105.75 236.395 Q1103.83 234.659 1100.73 234.659 Q1098.53 234.659 1096.08 235.423 Q1093.65 236.187 1090.87 237.737 L1090.87 233.015 Q1093.69 231.881 1096.15 231.302 Q1098.6 230.724 1100.64 230.724 Q1106.01 230.724 1109.2 233.409 Q1112.4 236.094 1112.4 240.585 Q1112.4 242.714 1111.59 244.636 Q1110.8 246.534 1108.69 249.126 Q1108.12 249.798 1105.01 253.015 Q1101.91 256.21 1096.26 261.973 Z" fill="#000000" fill-rule="nonzero" fill-opacity="1"></path><path clip-path="url(#clip970)" d="M1457.2 1423.18 L2352.76 1423.18 L2352.76 47.2441 L1457.2 47.2441  Z" fill="#ffffff" fill-rule="evenodd" fill-opacity="1"></path>
<defs>
  <clipPath id="clip973">
    <rect x="1457" y="47" width="897" height="1377"></rect>
  </clipPath>
</defs>
<polyline clip-path="url(#clip973)" style="stroke:#000000; stroke-linecap:round; stroke-linejoin:round; stroke-width:2; stroke-opacity:0.1; fill:none" points="1480.62,1423.18 1480.62,47.2441 "></polyline>
<polyline clip-path="url(#clip973)" style="stroke:#000000; stroke-linecap:round; stroke-linejoin:round; stroke-width:2; stroke-opacity:0.1; fill:none" points="1667.73,1423.18 1667.73,47.2441 "></polyline>
<polyline clip-path="url(#clip973)" style="stroke:#000000; stroke-linecap:round; stroke-linejoin:round; stroke-width:2; stroke-opacity:0.1; fill:none" points="1854.83,1423.18 1854.83,47.2441 "></polyline>
<polyline clip-path="url(#clip973)" style="stroke:#000000; stroke-linecap:round; stroke-linejoin:round; stroke-width:2; stroke-opacity:0.1; fill:none" points="2041.94,1423.18 2041.94,47.2441 "></polyline>
<polyline clip-path="url(#clip973)" style="stroke:#000000; stroke-linecap:round; stroke-linejoin:round; stroke-width:2; stroke-opacity:0.1; fill:none" points="2229.04,1423.18 2229.04,47.2441 "></polyline>
<polyline clip-path="url(#clip970)" style="stroke:#000000; stroke-linecap:round; stroke-linejoin:round; stroke-width:4; stroke-opacity:1; fill:none" points="1457.2,1423.18 2352.76,1423.18 "></polyline>
<polyline clip-path="url(#clip970)" style="stroke:#000000; stroke-linecap:round; stroke-linejoin:round; stroke-width:4; stroke-opacity:1; fill:none" points="1480.62,1423.18 1480.62,1404.28 "></polyline>
<polyline clip-path="url(#clip970)" style="stroke:#000000; stroke-linecap:round; stroke-linejoin:round; stroke-width:4; stroke-opacity:1; fill:none" points="1667.73,1423.18 1667.73,1404.28 "></polyline>
<polyline clip-path="url(#clip970)" style="stroke:#000000; stroke-linecap:round; stroke-linejoin:round; stroke-width:4; stroke-opacity:1; fill:none" points="1854.83,1423.18 1854.83,1404.28 "></polyline>
<polyline clip-path="url(#clip970)" style="stroke:#000000; stroke-linecap:round; stroke-linejoin:round; stroke-width:4; stroke-opacity:1; fill:none" points="2041.94,1423.18 2041.94,1404.28 "></polyline>
<polyline clip-path="url(#clip970)" style="stroke:#000000; stroke-linecap:round; stroke-linejoin:round; stroke-width:4; stroke-opacity:1; fill:none" points="2229.04,1423.18 2229.04,1404.28 "></polyline>
<path clip-path="url(#clip970)" d="M1461.85 1466.95 Q1465.21 1467.66 1467.08 1469.93 Q1468.98 1472.2 1468.98 1475.53 Q1468.98 1480.65 1465.46 1483.45 Q1461.94 1486.25 1455.46 1486.25 Q1453.28 1486.25 1450.97 1485.81 Q1448.68 1485.39 1446.22 1484.54 L1446.22 1480.02 Q1448.17 1481.16 1450.48 1481.74 Q1452.8 1482.32 1455.32 1482.32 Q1459.72 1482.32 1462.01 1480.58 Q1464.33 1478.84 1464.33 1475.53 Q1464.33 1472.48 1462.17 1470.77 Q1460.04 1469.03 1456.22 1469.03 L1452.2 1469.03 L1452.2 1465.19 L1456.41 1465.19 Q1459.86 1465.19 1461.69 1463.82 Q1463.52 1462.43 1463.52 1459.84 Q1463.52 1457.18 1461.62 1455.77 Q1459.74 1454.33 1456.22 1454.33 Q1454.3 1454.33 1452.1 1454.75 Q1449.91 1455.16 1447.27 1456.04 L1447.27 1451.88 Q1449.93 1451.14 1452.24 1450.77 Q1454.58 1450.39 1456.64 1450.39 Q1461.97 1450.39 1465.07 1452.83 Q1468.17 1455.23 1468.17 1459.35 Q1468.17 1462.22 1466.53 1464.21 Q1464.88 1466.18 1461.85 1466.95 Z" fill="#000000" fill-rule="nonzero" fill-opacity="1"></path><path clip-path="url(#clip970)" d="M1477.84 1479.7 L1482.73 1479.7 L1482.73 1485.58 L1477.84 1485.58 L1477.84 1479.7 Z" fill="#000000" fill-rule="nonzero" fill-opacity="1"></path><path clip-path="url(#clip970)" d="M1503.49 1466.44 Q1500.34 1466.44 1498.49 1468.59 Q1496.66 1470.74 1496.66 1474.49 Q1496.66 1478.22 1498.49 1480.39 Q1500.34 1482.55 1503.49 1482.55 Q1506.64 1482.55 1508.47 1480.39 Q1510.32 1478.22 1510.32 1474.49 Q1510.32 1470.74 1508.47 1468.59 Q1506.64 1466.44 1503.49 1466.44 M1512.78 1451.78 L1512.78 1456.04 Q1511.02 1455.21 1509.21 1454.77 Q1507.43 1454.33 1505.67 1454.33 Q1501.04 1454.33 1498.59 1457.45 Q1496.15 1460.58 1495.81 1466.9 Q1497.17 1464.89 1499.23 1463.82 Q1501.29 1462.73 1503.77 1462.73 Q1508.98 1462.73 1511.99 1465.9 Q1515.02 1469.05 1515.02 1474.49 Q1515.02 1479.82 1511.87 1483.03 Q1508.72 1486.25 1503.49 1486.25 Q1497.5 1486.25 1494.33 1481.67 Q1491.16 1477.06 1491.16 1468.33 Q1491.16 1460.14 1495.04 1455.28 Q1498.93 1450.39 1505.48 1450.39 Q1507.24 1450.39 1509.03 1450.74 Q1510.83 1451.09 1512.78 1451.78 Z" fill="#000000" fill-rule="nonzero" fill-opacity="1"></path><path clip-path="url(#clip970)" d="M1649.08 1466.95 Q1652.44 1467.66 1654.31 1469.93 Q1656.21 1472.2 1656.21 1475.53 Q1656.21 1480.65 1652.69 1483.45 Q1649.17 1486.25 1642.69 1486.25 Q1640.52 1486.25 1638.2 1485.81 Q1635.91 1485.39 1633.46 1484.54 L1633.46 1480.02 Q1635.4 1481.16 1637.72 1481.74 Q1640.03 1482.32 1642.55 1482.32 Q1646.95 1482.32 1649.24 1480.58 Q1651.56 1478.84 1651.56 1475.53 Q1651.56 1472.48 1649.41 1470.77 Q1647.28 1469.03 1643.46 1469.03 L1639.43 1469.03 L1639.43 1465.19 L1643.64 1465.19 Q1647.09 1465.19 1648.92 1463.82 Q1650.75 1462.43 1650.75 1459.84 Q1650.75 1457.18 1648.85 1455.77 Q1646.97 1454.33 1643.46 1454.33 Q1641.54 1454.33 1639.34 1454.75 Q1637.14 1455.16 1634.5 1456.04 L1634.5 1451.88 Q1637.16 1451.14 1639.47 1450.77 Q1641.81 1450.39 1643.87 1450.39 Q1649.2 1450.39 1652.3 1452.83 Q1655.4 1455.23 1655.4 1459.35 Q1655.4 1462.22 1653.76 1464.21 Q1652.11 1466.18 1649.08 1466.95 Z" fill="#000000" fill-rule="nonzero" fill-opacity="1"></path><path clip-path="url(#clip970)" d="M1665.08 1479.7 L1669.96 1479.7 L1669.96 1485.58 L1665.08 1485.58 L1665.08 1479.7 Z" fill="#000000" fill-rule="nonzero" fill-opacity="1"></path><path clip-path="url(#clip970)" d="M1690.15 1469.17 Q1686.81 1469.17 1684.89 1470.95 Q1682.99 1472.73 1682.99 1475.86 Q1682.99 1478.98 1684.89 1480.77 Q1686.81 1482.55 1690.15 1482.55 Q1693.48 1482.55 1695.4 1480.77 Q1697.32 1478.96 1697.32 1475.86 Q1697.32 1472.73 1695.4 1470.95 Q1693.5 1469.17 1690.15 1469.17 M1685.47 1467.18 Q1682.46 1466.44 1680.77 1464.38 Q1679.1 1462.32 1679.1 1459.35 Q1679.1 1455.21 1682.04 1452.8 Q1685.01 1450.39 1690.15 1450.39 Q1695.31 1450.39 1698.25 1452.8 Q1701.19 1455.21 1701.19 1459.35 Q1701.19 1462.32 1699.5 1464.38 Q1697.83 1466.44 1694.84 1467.18 Q1698.22 1467.96 1700.1 1470.26 Q1702 1472.55 1702 1475.86 Q1702 1480.88 1698.92 1483.57 Q1695.86 1486.25 1690.15 1486.25 Q1684.43 1486.25 1681.35 1483.57 Q1678.29 1480.88 1678.29 1475.86 Q1678.29 1472.55 1680.19 1470.26 Q1682.09 1467.96 1685.47 1467.18 M1683.76 1459.79 Q1683.76 1462.48 1685.42 1463.98 Q1687.11 1465.49 1690.15 1465.49 Q1693.16 1465.49 1694.84 1463.98 Q1696.56 1462.48 1696.56 1459.79 Q1696.56 1457.11 1694.84 1455.6 Q1693.16 1454.1 1690.15 1454.1 Q1687.11 1454.1 1685.42 1455.6 Q1683.76 1457.11 1683.76 1459.79 Z" fill="#000000" fill-rule="nonzero" fill-opacity="1"></path><path clip-path="url(#clip970)" d="M1835.47 1455.09 L1823.66 1473.54 L1835.47 1473.54 L1835.47 1455.09 M1834.24 1451.02 L1840.12 1451.02 L1840.12 1473.54 L1845.05 1473.54 L1845.05 1477.43 L1840.12 1477.43 L1840.12 1485.58 L1835.47 1485.58 L1835.47 1477.43 L1819.87 1477.43 L1819.87 1472.92 L1834.24 1451.02 Z" fill="#000000" fill-rule="nonzero" fill-opacity="1"></path><path clip-path="url(#clip970)" d="M1852.78 1479.7 L1857.67 1479.7 L1857.67 1485.58 L1852.78 1485.58 L1852.78 1479.7 Z" fill="#000000" fill-rule="nonzero" fill-opacity="1"></path><path clip-path="url(#clip970)" d="M1877.85 1454.1 Q1874.24 1454.1 1872.41 1457.66 Q1870.61 1461.2 1870.61 1468.33 Q1870.61 1475.44 1872.41 1479.01 Q1874.24 1482.55 1877.85 1482.55 Q1881.49 1482.55 1883.29 1479.01 Q1885.12 1475.44 1885.12 1468.33 Q1885.12 1461.2 1883.29 1457.66 Q1881.49 1454.1 1877.85 1454.1 M1877.85 1450.39 Q1883.66 1450.39 1886.72 1455 Q1889.8 1459.58 1889.8 1468.33 Q1889.8 1477.06 1886.72 1481.67 Q1883.66 1486.25 1877.85 1486.25 Q1872.04 1486.25 1868.96 1481.67 Q1865.91 1477.06 1865.91 1468.33 Q1865.91 1459.58 1868.96 1455 Q1872.04 1450.39 1877.85 1450.39 Z" fill="#000000" fill-rule="nonzero" fill-opacity="1"></path><path clip-path="url(#clip970)" d="M2023.37 1455.09 L2011.57 1473.54 L2023.37 1473.54 L2023.37 1455.09 M2022.14 1451.02 L2028.02 1451.02 L2028.02 1473.54 L2032.95 1473.54 L2032.95 1477.43 L2028.02 1477.43 L2028.02 1485.58 L2023.37 1485.58 L2023.37 1477.43 L2007.77 1477.43 L2007.77 1472.92 L2022.14 1451.02 Z" fill="#000000" fill-rule="nonzero" fill-opacity="1"></path><path clip-path="url(#clip970)" d="M2040.69 1479.7 L2045.57 1479.7 L2045.57 1485.58 L2040.69 1485.58 L2040.69 1479.7 Z" fill="#000000" fill-rule="nonzero" fill-opacity="1"></path><path clip-path="url(#clip970)" d="M2059.78 1481.64 L2076.1 1481.64 L2076.1 1485.58 L2054.16 1485.58 L2054.16 1481.64 Q2056.82 1478.89 2061.4 1474.26 Q2066.01 1469.61 2067.19 1468.27 Q2069.44 1465.74 2070.32 1464.01 Q2071.22 1462.25 2071.22 1460.56 Q2071.22 1457.8 2069.27 1456.07 Q2067.35 1454.33 2064.25 1454.33 Q2062.05 1454.33 2059.6 1455.09 Q2057.17 1455.86 2054.39 1457.41 L2054.39 1452.69 Q2057.21 1451.55 2059.67 1450.97 Q2062.12 1450.39 2064.16 1450.39 Q2069.53 1450.39 2072.72 1453.08 Q2075.92 1455.77 2075.92 1460.26 Q2075.92 1462.39 2075.11 1464.31 Q2074.32 1466.2 2072.21 1468.8 Q2071.63 1469.47 2068.53 1472.69 Q2065.43 1475.88 2059.78 1481.64 Z" fill="#000000" fill-rule="nonzero" fill-opacity="1"></path><path clip-path="url(#clip970)" d="M2209.43 1455.09 L2197.63 1473.54 L2209.43 1473.54 L2209.43 1455.09 M2208.21 1451.02 L2214.09 1451.02 L2214.09 1473.54 L2219.02 1473.54 L2219.02 1477.43 L2214.09 1477.43 L2214.09 1485.58 L2209.43 1485.58 L2209.43 1477.43 L2193.83 1477.43 L2193.83 1472.92 L2208.21 1451.02 Z" fill="#000000" fill-rule="nonzero" fill-opacity="1"></path><path clip-path="url(#clip970)" d="M2226.75 1479.7 L2231.63 1479.7 L2231.63 1485.58 L2226.75 1485.58 L2226.75 1479.7 Z" fill="#000000" fill-rule="nonzero" fill-opacity="1"></path><path clip-path="url(#clip970)" d="M2254.66 1455.09 L2242.86 1473.54 L2254.66 1473.54 L2254.66 1455.09 M2253.44 1451.02 L2259.32 1451.02 L2259.32 1473.54 L2264.25 1473.54 L2264.25 1477.43 L2259.32 1477.43 L2259.32 1485.58 L2254.66 1485.58 L2254.66 1477.43 L2239.06 1477.43 L2239.06 1472.92 L2253.44 1451.02 Z" fill="#000000" fill-rule="nonzero" fill-opacity="1"></path><path clip-path="url(#clip970)" d="M1727.47 1518.52 L1733.33 1518.52 L1733.33 1568.04 L1727.47 1568.04 L1727.47 1518.52 Z" fill="#000000" fill-rule="nonzero" fill-opacity="1"></path><path clip-path="url(#clip970)" d="M1759.4 1536.5 Q1754.69 1536.5 1751.95 1540.19 Q1749.21 1543.85 1749.21 1550.25 Q1749.21 1556.65 1751.92 1560.34 Q1754.65 1564 1759.4 1564 Q1764.08 1564 1766.81 1560.31 Q1769.55 1556.62 1769.55 1550.25 Q1769.55 1543.92 1766.81 1540.23 Q1764.08 1536.5 1759.4 1536.5 M1759.4 1531.54 Q1767.04 1531.54 1771.4 1536.5 Q1775.76 1541.47 1775.76 1550.25 Q1775.76 1559 1771.4 1564 Q1767.04 1568.97 1759.4 1568.97 Q1751.73 1568.97 1747.37 1564 Q1743.04 1559 1743.04 1550.25 Q1743.04 1541.47 1747.37 1536.5 Q1751.73 1531.54 1759.4 1531.54 Z" fill="#000000" fill-rule="nonzero" fill-opacity="1"></path><path clip-path="url(#clip970)" d="M1808.92 1549.81 Q1808.92 1543.44 1806.28 1539.94 Q1803.67 1536.44 1798.93 1536.44 Q1794.22 1536.44 1791.57 1539.94 Q1788.96 1543.44 1788.96 1549.81 Q1788.96 1556.14 1791.57 1559.64 Q1794.22 1563.14 1798.93 1563.14 Q1803.67 1563.14 1806.28 1559.64 Q1808.92 1556.14 1808.92 1549.81 M1814.78 1563.62 Q1814.78 1572.72 1810.74 1577.15 Q1806.69 1581.6 1798.35 1581.6 Q1795.27 1581.6 1792.53 1581.13 Q1789.79 1580.68 1787.21 1579.72 L1787.21 1574.03 Q1789.79 1575.43 1792.31 1576.1 Q1794.82 1576.76 1797.43 1576.76 Q1803.19 1576.76 1806.06 1573.74 Q1808.92 1570.75 1808.92 1564.67 L1808.92 1561.77 Q1807.11 1564.92 1804.27 1566.48 Q1801.44 1568.04 1797.5 1568.04 Q1790.94 1568.04 1786.93 1563.05 Q1782.92 1558.05 1782.92 1549.81 Q1782.92 1541.53 1786.93 1536.53 Q1790.94 1531.54 1797.5 1531.54 Q1801.44 1531.54 1804.27 1533.1 Q1807.11 1534.66 1808.92 1537.81 L1808.92 1532.4 L1814.78 1532.4 L1814.78 1563.62 Z" fill="#000000" fill-rule="nonzero" fill-opacity="1"></path><path clip-path="url(#clip970)" d="M1828.78 1562.63 L1839.29 1562.63 L1839.29 1526.38 L1827.86 1528.67 L1827.86 1522.82 L1839.22 1520.52 L1845.65 1520.52 L1845.65 1562.63 L1856.15 1562.63 L1856.15 1568.04 L1828.78 1568.04 L1828.78 1562.63 Z" fill="#000000" fill-rule="nonzero" fill-opacity="1"></path><path clip-path="url(#clip970)" d="M1882.89 1524.76 Q1877.93 1524.76 1875.41 1529.66 Q1872.93 1534.53 1872.93 1544.33 Q1872.93 1554.1 1875.41 1559 Q1877.93 1563.87 1882.89 1563.87 Q1887.89 1563.87 1890.37 1559 Q1892.89 1554.1 1892.89 1544.33 Q1892.89 1534.53 1890.37 1529.66 Q1887.89 1524.76 1882.89 1524.76 M1882.89 1519.66 Q1890.88 1519.66 1895.08 1526 Q1899.31 1532.3 1899.31 1544.33 Q1899.31 1556.33 1895.08 1562.66 Q1890.88 1568.97 1882.89 1568.97 Q1874.9 1568.97 1870.67 1562.66 Q1866.47 1556.33 1866.47 1544.33 Q1866.47 1532.3 1870.67 1526 Q1874.9 1519.66 1882.89 1519.66 Z" fill="#000000" fill-rule="nonzero" fill-opacity="1"></path><path clip-path="url(#clip970)" d="M1923.85 1518.58 Q1919.59 1525.9 1917.52 1533.06 Q1915.45 1540.23 1915.45 1547.58 Q1915.45 1554.93 1917.52 1562.16 Q1919.62 1569.35 1923.85 1576.64 L1918.76 1576.64 Q1913.99 1569.16 1911.6 1561.93 Q1909.24 1554.71 1909.24 1547.58 Q1909.24 1540.48 1911.6 1533.29 Q1913.96 1526.09 1918.76 1518.58 L1923.85 1518.58 Z" fill="#000000" fill-rule="nonzero" fill-opacity="1"></path><path clip-path="url(#clip970)" d="M1937.16 1562.63 L1947.66 1562.63 L1947.66 1526.38 L1936.24 1528.67 L1936.24 1522.82 L1947.6 1520.52 L1954.03 1520.52 L1954.03 1562.63 L1964.53 1562.63 L1964.53 1568.04 L1937.16 1568.04 L1937.16 1562.63 Z" fill="#000000" fill-rule="nonzero" fill-opacity="1"></path><path clip-path="url(#clip970)" d="M1987.1 1520.52 L1992.51 1520.52 L1975.96 1574.09 L1970.55 1574.09 L1987.1 1520.52 Z" fill="#000000" fill-rule="nonzero" fill-opacity="1"></path><path clip-path="url(#clip970)" d="M2014.79 1526.86 L2001.74 1562.7 L2027.87 1562.7 L2014.79 1526.86 M1993.02 1568.04 L2011.16 1520.52 L2018.45 1520.52 L2036.56 1568.04 L1993.02 1568.04 Z" fill="#000000" fill-rule="nonzero" fill-opacity="1"></path><path clip-path="url(#clip970)" d="M2049.04 1522.27 L2049.04 1532.4 L2061.1 1532.4 L2061.1 1536.95 L2049.04 1536.95 L2049.04 1556.3 Q2049.04 1560.66 2050.21 1561.9 Q2051.42 1563.14 2055.08 1563.14 L2061.1 1563.14 L2061.1 1568.04 L2055.08 1568.04 Q2048.3 1568.04 2045.73 1565.53 Q2043.15 1562.98 2043.15 1556.3 L2043.15 1536.95 L2038.85 1536.95 L2038.85 1532.4 L2043.15 1532.4 L2043.15 1522.27 L2049.04 1522.27 Z" fill="#000000" fill-rule="nonzero" fill-opacity="1"></path><path clip-path="url(#clip970)" d="M2067.88 1518.58 L2072.97 1518.58 Q2077.75 1526.09 2080.1 1533.29 Q2082.49 1540.48 2082.49 1547.58 Q2082.49 1554.71 2080.1 1561.93 Q2077.75 1569.16 2072.97 1576.64 L2067.88 1576.64 Q2072.11 1569.35 2074.18 1562.16 Q2076.28 1554.93 2076.28 1547.58 Q2076.28 1540.23 2074.18 1533.06 Q2072.11 1525.9 2067.88 1518.58 Z" fill="#000000" fill-rule="nonzero" fill-opacity="1"></path><polyline clip-path="url(#clip973)" style="stroke:#000000; stroke-linecap:round; stroke-linejoin:round; stroke-width:2; stroke-opacity:0.1; fill:none" points="1457.2,1296.42 2352.76,1296.42 "></polyline>
<polyline clip-path="url(#clip973)" style="stroke:#000000; stroke-linecap:round; stroke-linejoin:round; stroke-width:2; stroke-opacity:0.1; fill:none" points="1457.2,937.082 2352.76,937.082 "></polyline>
<polyline clip-path="url(#clip973)" style="stroke:#000000; stroke-linecap:round; stroke-linejoin:round; stroke-width:2; stroke-opacity:0.1; fill:none" points="1457.2,577.746 2352.76,577.746 "></polyline>
<polyline clip-path="url(#clip973)" style="stroke:#000000; stroke-linecap:round; stroke-linejoin:round; stroke-width:2; stroke-opacity:0.1; fill:none" points="1457.2,218.409 2352.76,218.409 "></polyline>
<polyline clip-path="url(#clip970)" style="stroke:#000000; stroke-linecap:round; stroke-linejoin:round; stroke-width:4; stroke-opacity:1; fill:none" points="1457.2,1423.18 1457.2,47.2441 "></polyline>
<polyline clip-path="url(#clip970)" style="stroke:#000000; stroke-linecap:round; stroke-linejoin:round; stroke-width:4; stroke-opacity:1; fill:none" points="1457.2,1296.42 1476.1,1296.42 "></polyline>
<polyline clip-path="url(#clip970)" style="stroke:#000000; stroke-linecap:round; stroke-linejoin:round; stroke-width:4; stroke-opacity:1; fill:none" points="1457.2,937.082 1476.1,937.082 "></polyline>
<polyline clip-path="url(#clip970)" style="stroke:#000000; stroke-linecap:round; stroke-linejoin:round; stroke-width:4; stroke-opacity:1; fill:none" points="1457.2,577.746 1476.1,577.746 "></polyline>
<polyline clip-path="url(#clip970)" style="stroke:#000000; stroke-linecap:round; stroke-linejoin:round; stroke-width:4; stroke-opacity:1; fill:none" points="1457.2,218.409 1476.1,218.409 "></polyline>
<path clip-path="url(#clip970)" d="M1314.26 1296.87 L1343.94 1296.87 L1343.94 1300.8 L1314.26 1300.8 L1314.26 1296.87 Z" fill="#000000" fill-rule="nonzero" fill-opacity="1"></path><path clip-path="url(#clip970)" d="M1354.07 1279.14 L1372.43 1279.14 L1372.43 1283.07 L1358.36 1283.07 L1358.36 1291.55 Q1359.38 1291.2 1360.39 1291.04 Q1361.41 1290.85 1362.43 1290.85 Q1368.22 1290.85 1371.6 1294.02 Q1374.98 1297.19 1374.98 1302.61 Q1374.98 1308.19 1371.51 1311.29 Q1368.03 1314.37 1361.71 1314.37 Q1359.54 1314.37 1357.27 1314 Q1355.02 1313.63 1352.62 1312.89 L1352.62 1308.19 Q1354.7 1309.32 1356.92 1309.88 Q1359.14 1310.43 1361.62 1310.43 Q1365.63 1310.43 1367.96 1308.33 Q1370.3 1306.22 1370.3 1302.61 Q1370.3 1299 1367.96 1296.89 Q1365.63 1294.79 1361.62 1294.79 Q1359.75 1294.79 1357.87 1295.2 Q1356.02 1295.62 1354.07 1296.5 L1354.07 1279.14 Z" fill="#000000" fill-rule="nonzero" fill-opacity="1"></path><path clip-path="url(#clip970)" d="M1384.19 1307.82 L1389.07 1307.82 L1389.07 1313.7 L1384.19 1313.7 L1384.19 1307.82 Z" fill="#000000" fill-rule="nonzero" fill-opacity="1"></path><path clip-path="url(#clip970)" d="M1409.26 1282.22 Q1405.65 1282.22 1403.82 1285.78 Q1402.01 1289.32 1402.01 1296.45 Q1402.01 1303.56 1403.82 1307.12 Q1405.65 1310.67 1409.26 1310.67 Q1412.89 1310.67 1414.7 1307.12 Q1416.53 1303.56 1416.53 1296.45 Q1416.53 1289.32 1414.7 1285.78 Q1412.89 1282.22 1409.26 1282.22 M1409.26 1278.51 Q1415.07 1278.51 1418.13 1283.12 Q1421.2 1287.7 1421.2 1296.45 Q1421.2 1305.18 1418.13 1309.79 Q1415.07 1314.37 1409.26 1314.37 Q1403.45 1314.37 1400.37 1309.79 Q1397.32 1305.18 1397.32 1296.45 Q1397.32 1287.7 1400.37 1283.12 Q1403.45 1278.51 1409.26 1278.51 Z" fill="#000000" fill-rule="nonzero" fill-opacity="1"></path><path clip-path="url(#clip970)" d="M1315.26 937.533 L1344.93 937.533 L1344.93 941.469 L1315.26 941.469 L1315.26 937.533 Z" fill="#000000" fill-rule="nonzero" fill-opacity="1"></path><path clip-path="url(#clip970)" d="M1367.87 923.876 L1356.07 942.325 L1367.87 942.325 L1367.87 923.876 M1366.64 919.802 L1372.52 919.802 L1372.52 942.325 L1377.45 942.325 L1377.45 946.214 L1372.52 946.214 L1372.52 954.362 L1367.87 954.362 L1367.87 946.214 L1352.27 946.214 L1352.27 941.7 L1366.64 919.802 Z" fill="#000000" fill-rule="nonzero" fill-opacity="1"></path><path clip-path="url(#clip970)" d="M1385.19 948.482 L1390.07 948.482 L1390.07 954.362 L1385.19 954.362 L1385.19 948.482 Z" fill="#000000" fill-rule="nonzero" fill-opacity="1"></path><path clip-path="url(#clip970)" d="M1400.3 919.802 L1418.66 919.802 L1418.66 923.737 L1404.58 923.737 L1404.58 932.209 Q1405.6 931.862 1406.62 931.7 Q1407.64 931.515 1408.66 931.515 Q1414.44 931.515 1417.82 934.686 Q1421.2 937.857 1421.2 943.274 Q1421.2 948.853 1417.73 951.955 Q1414.26 955.033 1407.94 955.033 Q1405.76 955.033 1403.5 954.663 Q1401.25 954.293 1398.84 953.552 L1398.84 948.853 Q1400.93 949.987 1403.15 950.543 Q1405.37 951.098 1407.85 951.098 Q1411.85 951.098 1414.19 948.992 Q1416.53 946.885 1416.53 943.274 Q1416.53 939.663 1414.19 937.556 Q1411.85 935.45 1407.85 935.45 Q1405.97 935.45 1404.1 935.867 Q1402.25 936.283 1400.3 937.163 L1400.3 919.802 Z" fill="#000000" fill-rule="nonzero" fill-opacity="1"></path><path clip-path="url(#clip970)" d="M1314.26 578.197 L1343.94 578.197 L1343.94 582.132 L1314.26 582.132 L1314.26 578.197 Z" fill="#000000" fill-rule="nonzero" fill-opacity="1"></path><path clip-path="url(#clip970)" d="M1366.88 564.54 L1355.07 582.989 L1366.88 582.989 L1366.88 564.54 M1365.65 560.466 L1371.53 560.466 L1371.53 582.989 L1376.46 582.989 L1376.46 586.877 L1371.53 586.877 L1371.53 595.026 L1366.88 595.026 L1366.88 586.877 L1351.27 586.877 L1351.27 582.364 L1365.65 560.466 Z" fill="#000000" fill-rule="nonzero" fill-opacity="1"></path><path clip-path="url(#clip970)" d="M1384.19 589.146 L1389.07 589.146 L1389.07 595.026 L1384.19 595.026 L1384.19 589.146 Z" fill="#000000" fill-rule="nonzero" fill-opacity="1"></path><path clip-path="url(#clip970)" d="M1409.26 563.544 Q1405.65 563.544 1403.82 567.109 Q1402.01 570.651 1402.01 577.78 Q1402.01 584.887 1403.82 588.451 Q1405.65 591.993 1409.26 591.993 Q1412.89 591.993 1414.7 588.451 Q1416.53 584.887 1416.53 577.78 Q1416.53 570.651 1414.7 567.109 Q1412.89 563.544 1409.26 563.544 M1409.26 559.841 Q1415.07 559.841 1418.13 564.447 Q1421.2 569.03 1421.2 577.78 Q1421.2 586.507 1418.13 591.113 Q1415.07 595.697 1409.26 595.697 Q1403.45 595.697 1400.37 591.113 Q1397.32 586.507 1397.32 577.78 Q1397.32 569.03 1400.37 564.447 Q1403.45 559.841 1409.26 559.841 Z" fill="#000000" fill-rule="nonzero" fill-opacity="1"></path><path clip-path="url(#clip970)" d="M1315.26 218.86 L1344.93 218.86 L1344.93 222.796 L1315.26 222.796 L1315.26 218.86 Z" fill="#000000" fill-rule="nonzero" fill-opacity="1"></path><path clip-path="url(#clip970)" d="M1369.19 217.055 Q1372.55 217.772 1374.42 220.041 Q1376.32 222.309 1376.32 225.643 Q1376.32 230.759 1372.8 233.559 Q1369.28 236.36 1362.8 236.36 Q1360.63 236.36 1358.31 235.921 Q1356.02 235.504 1353.57 234.647 L1353.57 230.134 Q1355.51 231.268 1357.82 231.846 Q1360.14 232.425 1362.66 232.425 Q1367.06 232.425 1369.35 230.689 Q1371.67 228.953 1371.67 225.643 Q1371.67 222.587 1369.51 220.874 Q1367.38 219.138 1363.57 219.138 L1359.54 219.138 L1359.54 215.296 L1363.75 215.296 Q1367.2 215.296 1369.03 213.93 Q1370.86 212.541 1370.86 209.948 Q1370.86 207.286 1368.96 205.874 Q1367.08 204.439 1363.57 204.439 Q1361.64 204.439 1359.45 204.856 Q1357.25 205.273 1354.61 206.152 L1354.61 201.986 Q1357.27 201.245 1359.58 200.874 Q1361.92 200.504 1363.98 200.504 Q1369.31 200.504 1372.41 202.935 Q1375.51 205.342 1375.51 209.462 Q1375.51 212.333 1373.87 214.323 Q1372.22 216.291 1369.19 217.055 Z" fill="#000000" fill-rule="nonzero" fill-opacity="1"></path><path clip-path="url(#clip970)" d="M1385.19 229.809 L1390.07 229.809 L1390.07 235.689 L1385.19 235.689 L1385.19 229.809 Z" fill="#000000" fill-rule="nonzero" fill-opacity="1"></path><path clip-path="url(#clip970)" d="M1400.3 201.129 L1418.66 201.129 L1418.66 205.064 L1404.58 205.064 L1404.58 213.536 Q1405.6 213.189 1406.62 213.027 Q1407.64 212.842 1408.66 212.842 Q1414.44 212.842 1417.82 216.013 Q1421.2 219.185 1421.2 224.601 Q1421.2 230.18 1417.73 233.282 Q1414.26 236.36 1407.94 236.36 Q1405.76 236.36 1403.5 235.99 Q1401.25 235.62 1398.84 234.879 L1398.84 230.18 Q1400.93 231.314 1403.15 231.87 Q1405.37 232.425 1407.85 232.425 Q1411.85 232.425 1414.19 230.319 Q1416.53 228.212 1416.53 224.601 Q1416.53 220.99 1414.19 218.884 Q1411.85 216.777 1407.85 216.777 Q1405.97 216.777 1404.1 217.194 Q1402.25 217.61 1400.3 218.49 L1400.3 201.129 Z" fill="#000000" fill-rule="nonzero" fill-opacity="1"></path><path clip-path="url(#clip970)" d="M1214.48 878.759 L1214.48 872.902 L1264 872.902 L1264 878.759 L1214.48 878.759 Z" fill="#000000" fill-rule="nonzero" fill-opacity="1"></path><path clip-path="url(#clip970)" d="M1232.46 846.835 Q1232.46 851.545 1236.15 854.283 Q1239.81 857.02 1246.21 857.02 Q1252.61 857.02 1256.3 854.314 Q1259.96 851.577 1259.96 846.835 Q1259.96 842.156 1256.27 839.419 Q1252.58 836.681 1246.21 836.681 Q1239.88 836.681 1236.19 839.419 Q1232.46 842.156 1232.46 846.835 M1227.5 846.835 Q1227.5 839.196 1232.46 834.835 Q1237.43 830.475 1246.21 830.475 Q1254.96 830.475 1259.96 834.835 Q1264.93 839.196 1264.93 846.835 Q1264.93 854.505 1259.96 858.866 Q1254.96 863.195 1246.21 863.195 Q1237.43 863.195 1232.46 858.866 Q1227.5 854.505 1227.5 846.835 Z" fill="#000000" fill-rule="nonzero" fill-opacity="1"></path><path clip-path="url(#clip970)" d="M1245.77 797.309 Q1239.4 797.309 1235.9 799.951 Q1232.4 802.561 1232.4 807.304 Q1232.4 812.014 1235.9 814.656 Q1239.4 817.266 1245.77 817.266 Q1252.1 817.266 1255.6 814.656 Q1259.1 812.014 1259.1 807.304 Q1259.1 802.561 1255.6 799.951 Q1252.1 797.309 1245.77 797.309 M1259.58 791.453 Q1268.68 791.453 1273.11 795.495 Q1277.56 799.537 1277.56 807.877 Q1277.56 810.964 1277.09 813.701 Q1276.64 816.438 1275.69 819.016 L1269.99 819.016 Q1271.39 816.438 1272.06 813.924 Q1272.73 811.409 1272.73 808.8 Q1272.73 803.039 1269.7 800.174 Q1266.71 797.309 1260.63 797.309 L1257.73 797.309 Q1260.88 799.124 1262.44 801.956 Q1264 804.789 1264 808.736 Q1264 815.293 1259.01 819.303 Q1254.01 823.313 1245.77 823.313 Q1237.49 823.313 1232.49 819.303 Q1227.5 815.293 1227.5 808.736 Q1227.5 804.789 1229.06 801.956 Q1230.62 799.124 1233.77 797.309 L1228.36 797.309 L1228.36 791.453 L1259.58 791.453 Z" fill="#000000" fill-rule="nonzero" fill-opacity="1"></path><path clip-path="url(#clip970)" d="M1258.59 777.448 L1258.59 766.945 L1222.34 766.945 L1224.63 778.371 L1218.78 778.371 L1216.48 767.009 L1216.48 760.579 L1258.59 760.579 L1258.59 750.076 L1264 750.076 L1264 777.448 L1258.59 777.448 Z" fill="#000000" fill-rule="nonzero" fill-opacity="1"></path><path clip-path="url(#clip970)" d="M1220.72 723.34 Q1220.72 728.305 1225.62 730.82 Q1230.49 733.302 1240.29 733.302 Q1250.06 733.302 1254.96 730.82 Q1259.83 728.305 1259.83 723.34 Q1259.83 718.343 1254.96 715.86 Q1250.06 713.346 1240.29 713.346 Q1230.49 713.346 1225.62 715.86 Q1220.72 718.343 1220.72 723.34 M1215.62 723.34 Q1215.62 715.351 1221.96 711.15 Q1228.26 706.916 1240.29 706.916 Q1252.29 706.916 1258.63 711.15 Q1264.93 715.351 1264.93 723.34 Q1264.93 731.329 1258.63 735.562 Q1252.29 739.763 1240.29 739.763 Q1228.26 739.763 1221.96 735.562 Q1215.62 731.329 1215.62 723.34 Z" fill="#000000" fill-rule="nonzero" fill-opacity="1"></path><path clip-path="url(#clip970)" d="M1214.54 682.377 Q1221.86 686.642 1229.02 688.71 Q1236.19 690.779 1243.54 690.779 Q1250.89 690.779 1258.12 688.71 Q1265.31 686.61 1272.6 682.377 L1272.6 687.469 Q1265.12 692.243 1257.89 694.631 Q1250.67 696.986 1243.54 696.986 Q1236.44 696.986 1229.25 694.631 Q1222.05 692.275 1214.54 687.469 L1214.54 682.377 Z" fill="#000000" fill-rule="nonzero" fill-opacity="1"></path><path clip-path="url(#clip970)" d="M1234.02 645.837 Q1233.61 647.015 1233.29 648.193 Q1232.46 651.344 1232.46 654.718 Q1232.46 660.542 1235.61 663.789 Q1238.54 666.812 1243.92 667.385 L1243.92 645.837 L1248.5 645.837 L1248.5 667.385 Q1253.88 666.812 1256.81 663.789 Q1259.96 660.542 1259.96 654.718 Q1259.96 650.644 1259.13 648.193 L1258.34 645.837 L1263.65 645.837 L1264.23 648.352 Q1264.93 651.662 1264.93 655.068 Q1264.93 663.598 1259.96 668.563 Q1255 673.56 1246.21 673.56 Q1237.43 673.56 1232.46 668.563 Q1227.5 663.598 1227.5 655.068 Q1227.5 651.853 1228.2 648.352 Q1228.45 647.079 1228.83 645.837 L1234.02 645.837 Z" fill="#000000" fill-rule="nonzero" fill-opacity="1"></path><path clip-path="url(#clip970)" d="M1218.23 625.117 L1228.36 625.117 L1228.36 613.054 L1232.91 613.054 L1232.91 625.117 L1252.26 625.117 Q1256.62 625.117 1257.86 623.939 Q1259.1 622.73 1259.1 619.07 L1259.1 613.054 L1264 613.054 L1264 619.07 Q1264 625.849 1261.49 628.427 Q1258.94 631.005 1252.26 631.005 L1232.91 631.005 L1232.91 635.302 L1228.36 635.302 L1228.36 631.005 L1218.23 631.005 L1218.23 625.117 Z" fill="#000000" fill-rule="nonzero" fill-opacity="1"></path><path clip-path="url(#clip970)" d="M1214.54 606.275 L1214.54 601.182 Q1222.05 596.408 1229.25 594.052 Q1236.44 591.665 1243.54 591.665 Q1250.67 591.665 1257.89 594.052 Q1265.12 596.408 1272.6 601.182 L1272.6 606.275 Q1265.31 602.041 1258.12 599.973 Q1250.89 597.872 1243.54 597.872 Q1236.19 597.872 1229.02 599.973 Q1221.86 602.041 1214.54 606.275 Z" fill="#000000" fill-rule="nonzero" fill-opacity="1"></path><circle clip-path="url(#clip973)" cx="1482.55" cy="86.1857" r="14.4" fill="#009af9" fill-rule="evenodd" fill-opacity="1" stroke="#000000" stroke-opacity="1" stroke-width="3.2"></circle>
<circle clip-path="url(#clip973)" cx="1764.17" cy="300.934" r="14.4" fill="#009af9" fill-rule="evenodd" fill-opacity="1" stroke="#000000" stroke-opacity="1" stroke-width="3.2"></circle>
<circle clip-path="url(#clip973)" cx="2045.79" cy="516.486" r="14.4" fill="#009af9" fill-rule="evenodd" fill-opacity="1" stroke="#000000" stroke-opacity="1" stroke-width="3.2"></circle>
<circle clip-path="url(#clip973)" cx="2327.41" cy="732.409" r="14.4" fill="#009af9" fill-rule="evenodd" fill-opacity="1" stroke="#000000" stroke-opacity="1" stroke-width="3.2"></circle>
<polyline clip-path="url(#clip973)" style="stroke:#e26f46; stroke-linecap:round; stroke-linejoin:round; stroke-width:4; stroke-opacity:1; fill:none" points="1482.55,86.1857 1764.17,302.528 2045.79,518.87 2327.41,735.212 "></polyline>
<polyline clip-path="url(#clip973)" style="stroke:#3da44d; stroke-linecap:round; stroke-linejoin:round; stroke-width:4; stroke-opacity:1; fill:none" points="1482.55,86.1857 1764.17,518.87 2045.79,951.554 2327.41,1384.24 "></polyline>
<path clip-path="url(#clip970)" d="M2172.91 300.469 L2322.9 300.469 L2322.9 93.1086 L2172.91 93.1086  Z" fill="#ffffff" fill-rule="evenodd" fill-opacity="1"></path>
<polyline clip-path="url(#clip970)" style="stroke:#000000; stroke-linecap:round; stroke-linejoin:round; stroke-width:4; stroke-opacity:1; fill:none" points="2172.91,300.469 2322.9,300.469 2322.9,93.1086 2172.91,93.1086 2172.91,300.469 "></polyline>
<circle clip-path="url(#clip970)" cx="2212.71" cy="144.949" r="20.48" fill="#009af9" fill-rule="evenodd" fill-opacity="1" stroke="#000000" stroke-opacity="1" stroke-width="4.55111"></circle>
<path clip-path="url(#clip970)" d="M2272.68 140.423 Q2271.82 140.122 2270.96 139.891 Q2268.67 139.289 2266.22 139.289 Q2261.98 139.289 2259.62 141.581 Q2257.42 143.71 2257 147.622 L2272.68 147.622 L2272.68 150.956 L2257 150.956 Q2257.42 154.868 2259.62 156.997 Q2261.98 159.289 2266.22 159.289 Q2269.18 159.289 2270.96 158.687 L2272.68 158.108 L2272.68 161.974 L2270.85 162.391 Q2268.44 162.9 2265.96 162.9 Q2259.76 162.9 2256.15 159.289 Q2252.51 155.678 2252.51 149.289 Q2252.51 142.9 2256.15 139.289 Q2259.76 135.678 2265.96 135.678 Q2268.3 135.678 2270.85 136.187 Q2271.77 136.372 2272.68 136.65 L2272.68 140.423 Z" fill="#000000" fill-rule="nonzero" fill-opacity="1"></path><polyline clip-path="url(#clip970)" style="stroke:#e26f46; stroke-linecap:round; stroke-linejoin:round; stroke-width:4; stroke-opacity:1; fill:none" points="2182.86,196.789 2242.56,196.789 "></polyline>
<path clip-path="url(#clip970)" d="M2268.53 182.68 Q2263.44 182.68 2260.43 186.476 Q2257.44 190.272 2257.44 196.823 Q2257.44 203.351 2260.43 207.147 Q2263.44 210.944 2268.53 210.944 Q2273.63 210.944 2276.59 207.147 Q2279.57 203.351 2279.57 196.823 Q2279.57 190.272 2276.59 186.476 Q2273.63 182.68 2268.53 182.68 M2268.53 178.884 Q2275.8 178.884 2280.15 183.768 Q2284.5 188.629 2284.5 196.823 Q2284.5 204.995 2280.15 209.879 Q2275.8 214.74 2268.53 214.74 Q2261.24 214.74 2256.87 209.879 Q2252.51 205.018 2252.51 196.823 Q2252.51 188.629 2256.87 183.768 Q2261.24 178.884 2268.53 178.884 Z" fill="#000000" fill-rule="nonzero" fill-opacity="1"></path><path clip-path="url(#clip970)" d="M2293.05 210.133 L2300.69 210.133 L2300.69 183.768 L2292.38 185.435 L2292.38 181.175 L2300.64 179.509 L2305.31 179.509 L2305.31 210.133 L2312.95 210.133 L2312.95 214.069 L2293.05 214.069 L2293.05 210.133 Z" fill="#000000" fill-rule="nonzero" fill-opacity="1"></path><polyline clip-path="url(#clip970)" style="stroke:#3da44d; stroke-linecap:round; stroke-linejoin:round; stroke-width:4; stroke-opacity:1; fill:none" points="2182.86,248.629 2242.56,248.629 "></polyline>
<path clip-path="url(#clip970)" d="M2268.53 234.52 Q2263.44 234.52 2260.43 238.316 Q2257.44 242.112 2257.44 248.663 Q2257.44 255.191 2260.43 258.987 Q2263.44 262.784 2268.53 262.784 Q2273.63 262.784 2276.59 258.987 Q2279.57 255.191 2279.57 248.663 Q2279.57 242.112 2276.59 238.316 Q2273.63 234.52 2268.53 234.52 M2268.53 230.724 Q2275.8 230.724 2280.15 235.608 Q2284.5 240.469 2284.5 248.663 Q2284.5 256.835 2280.15 261.719 Q2275.8 266.58 2268.53 266.58 Q2261.24 266.58 2256.87 261.719 Q2252.51 256.858 2252.51 248.663 Q2252.51 240.469 2256.87 235.608 Q2261.24 230.724 2268.53 230.724 Z" fill="#000000" fill-rule="nonzero" fill-opacity="1"></path><path clip-path="url(#clip970)" d="M2296.26 261.973 L2312.58 261.973 L2312.58 265.909 L2290.64 265.909 L2290.64 261.973 Q2293.3 259.219 2297.88 254.589 Q2302.49 249.936 2303.67 248.594 Q2305.92 246.071 2306.8 244.335 Q2307.7 242.575 2307.7 240.886 Q2307.7 238.131 2305.75 236.395 Q2303.83 234.659 2300.73 234.659 Q2298.53 234.659 2296.08 235.423 Q2293.65 236.187 2290.87 237.737 L2290.87 233.015 Q2293.69 231.881 2296.15 231.302 Q2298.6 230.724 2300.64 230.724 Q2306.01 230.724 2309.2 233.409 Q2312.4 236.094 2312.4 240.585 Q2312.4 242.714 2311.59 244.636 Q2310.8 246.534 2308.69 249.126 Q2308.12 249.798 2305.01 253.015 Q2301.91 256.21 2296.26 261.973 Z" fill="#000000" fill-rule="nonzero" fill-opacity="1"></path></svg>