<svg xmlns="http://www.w3.org/2000/svg" xmlns:xlink="http://www.w3.org/1999/xlink" width="600" height="400" viewBox="0 0 2400 1600">
<defs>
  <clipPath id="clip080">
    <rect x="0" y="0" width="2400" height="1600"></rect>
  </clipPath>
</defs>
<path clip-path="url(#clip080)" d="M0 1600 L2400 1600 L2400 8.88178e-14 L0 8.88178e-14  Z" fill="#ffffff" fill-rule="evenodd" fill-opacity="1"></path>
<defs>
  <clipPath id="clip081">
    <rect x="480" y="0" width="1681" height="1600"></rect>
  </clipPath>
</defs>
<path clip-path="url(#clip080)" d="M212.135 1423.18 L2352.76 1423.18 L2352.76 47.2441 L212.135 47.2441  Z" fill="#ffffff" fill-rule="evenodd" fill-opacity="1"></path>
<defs>
  <clipPath id="clip082">
    <rect x="212" y="47" width="2142" height="1377"></rect>
  </clipPath>
</defs>
<polyline clip-path="url(#clip082)" style="stroke:#000000; stroke-linecap:round; stroke-linejoin:round; stroke-width:2; stroke-opacity:0.1; fill:none" points="494.031,1423.18 494.031,47.2441 "></polyline>
<polyline clip-path="url(#clip082)" style="stroke:#000000; stroke-linecap:round; stroke-linejoin:round; stroke-width:2; stroke-opacity:0.1; fill:none" points="941.263,1423.18 941.263,47.2441 "></polyline>
<polyline clip-path="url(#clip082)" style="stroke:#000000; stroke-linecap:round; stroke-linejoin:round; stroke-width:2; stroke-opacity:0.1; fill:none" points="1388.5,1423.18 1388.5,47.2441 "></polyline>
<polyline clip-path="url(#clip082)" style="stroke:#000000; stroke-linecap:round; stroke-linejoin:round; stroke-width:2; stroke-opacity:0.1; fill:none" points="1835.73,1423.18 1835.73,47.2441 "></polyline>
<polyline clip-path="url(#clip082)" style="stroke:#000000; stroke-linecap:round; stroke-linejoin:round; stroke-width:2; stroke-opacity:0.1; fill:none" points="2282.96,1423.18 2282.96,47.2441 "></polyline>
<polyline clip-path="url(#clip080)" style="stroke:#000000; stroke-linecap:round; stroke-linejoin:round; stroke-width:4; stroke-opacity:1; fill:none" points="212.135,1423.18 2352.76,1423.18 "></polyline>
<polyline clip-path="url(#clip080)" style="stroke:#000000; stroke-linecap:round; stroke-linejoin:round; stroke-width:4; stroke-opacity:1; fill:none" points="494.031,1423.18 494.031,1404.28 "></polyline>
<polyline clip-path="url(#clip080)" style="stroke:#000000; stroke-linecap:round; stroke-linejoin:round; stroke-width:4; stroke-opacity:1; fill:none" points="941.263,1423.18 941.263,1404.28 "></polyline>
<polyline clip-path="url(#clip080)" style="stroke:#000000; stroke-linecap:round; stroke-linejoin:round; stroke-width:4; stroke-opacity:1; fill:none" points="1388.5,1423.18 1388.5,1404.28 "></polyline>
<polyline clip-path="url(#clip080)" style="stroke:#000000; stroke-linecap:round; stroke-linejoin:round; stroke-width:4; stroke-opacity:1; fill:none" points="1835.73,1423.18 1835.73,1404.28 "></polyline>
<polyline clip-path="url(#clip080)" style="stroke:#000000; stroke-linecap:round; stroke-linejoin:round; stroke-width:4; stroke-opacity:1; fill:none" points="2282.96,1423.18 2282.96,1404.28 "></polyline>
<path clip-path="url(#clip080)" d="M460.941 1481.64 L468.58 1481.64 L468.58 1455.28 L460.27 1456.95 L460.27 1452.69 L468.534 1451.02 L473.21 1451.02 L473.21 1481.64 L480.848 1481.64 L480.848 1485.58 L460.941 1485.58 L460.941 1481.64 Z" fill="#000000" fill-rule="nonzero" fill-opacity="1"></path><path clip-path="url(#clip080)" d="M490.293 1479.7 L495.177 1479.7 L495.177 1485.58 L490.293 1485.58 L490.293 1479.7 Z" fill="#000000" fill-rule="nonzero" fill-opacity="1"></path><path clip-path="url(#clip080)" d="M518.209 1455.09 L506.404 1473.54 L518.209 1473.54 L518.209 1455.09 M516.982 1451.02 L522.862 1451.02 L522.862 1473.54 L527.793 1473.54 L527.793 1477.43 L522.862 1477.43 L522.862 1485.58 L518.209 1485.58 L518.209 1477.43 L502.608 1477.43 L502.608 1472.92 L516.982 1451.02 Z" fill="#000000" fill-rule="nonzero" fill-opacity="1"></path><path clip-path="url(#clip080)" d="M908.335 1481.64 L915.974 1481.64 L915.974 1455.28 L907.664 1456.95 L907.664 1452.69 L915.928 1451.02 L920.604 1451.02 L920.604 1481.64 L928.242 1481.64 L928.242 1485.58 L908.335 1485.58 L908.335 1481.64 Z" fill="#000000" fill-rule="nonzero" fill-opacity="1"></path><path clip-path="url(#clip080)" d="M937.687 1479.7 L942.571 1479.7 L942.571 1485.58 L937.687 1485.58 L937.687 1479.7 Z" fill="#000000" fill-rule="nonzero" fill-opacity="1"></path><path clip-path="url(#clip080)" d="M963.335 1466.44 Q960.187 1466.44 958.335 1468.59 Q956.506 1470.74 956.506 1474.49 Q956.506 1478.22 958.335 1480.39 Q960.187 1482.55 963.335 1482.55 Q966.483 1482.55 968.312 1480.39 Q970.164 1478.22 970.164 1474.49 Q970.164 1470.74 968.312 1468.59 Q966.483 1466.44 963.335 1466.44 M972.617 1451.78 L972.617 1456.04 Q970.858 1455.21 969.052 1454.77 Q967.27 1454.33 965.511 1454.33 Q960.881 1454.33 958.428 1457.45 Q955.997 1460.58 955.65 1466.9 Q957.015 1464.89 959.076 1463.82 Q961.136 1462.73 963.613 1462.73 Q968.821 1462.73 971.83 1465.9 Q974.863 1469.05 974.863 1474.49 Q974.863 1479.82 971.714 1483.03 Q968.566 1486.25 963.335 1486.25 Q957.34 1486.25 954.168 1481.67 Q950.997 1477.06 950.997 1468.33 Q950.997 1460.14 954.886 1455.28 Q958.775 1450.39 965.326 1450.39 Q967.085 1450.39 968.867 1450.74 Q970.673 1451.09 972.617 1451.78 Z" fill="#000000" fill-rule="nonzero" fill-opacity="1"></path><path clip-path="url(#clip080)" d="M1355.69 1481.64 L1363.33 1481.64 L1363.33 1455.28 L1355.02 1456.95 L1355.02 1452.69 L1363.29 1451.02 L1367.96 1451.02 L1367.96 1481.64 L1375.6 1481.64 L1375.6 1485.58 L1355.69 1485.58 L1355.69 1481.64 Z" fill="#000000" fill-rule="nonzero" fill-opacity="1"></path><path clip-path="url(#clip080)" d="M1385.05 1479.7 L1389.93 1479.7 L1389.93 1485.58 L1385.05 1485.58 L1385.05 1479.7 Z" fill="#000000" fill-rule="nonzero" fill-opacity="1"></path><path clip-path="url(#clip080)" d="M1410.12 1469.17 Q1406.78 1469.17 1404.86 1470.95 Q1402.96 1472.73 1402.96 1475.86 Q1402.96 1478.98 1404.86 1480.77 Q1406.78 1482.55 1410.12 1482.55 Q1413.45 1482.55 1415.37 1480.77 Q1417.29 1478.96 1417.29 1475.86 Q1417.29 1472.73 1415.37 1470.95 Q1413.47 1469.17 1410.12 1469.17 M1405.44 1467.18 Q1402.43 1466.44 1400.74 1464.38 Q1399.07 1462.32 1399.07 1459.35 Q1399.07 1455.21 1402.01 1452.8 Q1404.98 1450.39 1410.12 1450.39 Q1415.28 1450.39 1418.22 1452.8 Q1421.16 1455.21 1421.16 1459.35 Q1421.16 1462.32 1419.47 1464.38 Q1417.8 1466.44 1414.81 1467.18 Q1418.19 1467.96 1420.07 1470.26 Q1421.97 1472.55 1421.97 1475.86 Q1421.97 1480.88 1418.89 1483.57 Q1415.83 1486.25 1410.12 1486.25 Q1404.4 1486.25 1401.32 1483.57 Q1398.26 1480.88 1398.26 1475.86 Q1398.26 1472.55 1400.16 1470.26 Q1402.06 1467.96 1405.44 1467.18 M1403.73 1459.79 Q1403.73 1462.48 1405.39 1463.98 Q1407.08 1465.49 1410.12 1465.49 Q1413.12 1465.49 1414.81 1463.98 Q1416.53 1462.48 1416.53 1459.79 Q1416.53 1457.11 1414.81 1455.6 Q1413.12 1454.1 1410.12 1454.1 Q1407.08 1454.1 1405.39 1455.6 Q1403.73 1457.11 1403.73 1459.79 Z" fill="#000000" fill-rule="nonzero" fill-opacity="1"></path><path clip-path="url(#clip080)" d="M1806.97 1481.64 L1823.29 1481.64 L1823.29 1485.58 L1801.34 1485.58 L1801.34 1481.64 Q1804 1478.89 1808.59 1474.26 Q1813.19 1469.61 1814.37 1468.27 Q1816.62 1465.74 1817.5 1464.01 Q1818.4 1462.25 1818.4 1460.56 Q1818.4 1457.8 1816.46 1456.07 Q1814.54 1454.33 1811.43 1454.33 Q1809.23 1454.33 1806.78 1455.09 Q1804.35 1455.86 1801.57 1457.41 L1801.57 1452.69 Q1804.4 1451.55 1806.85 1450.97 Q1809.3 1450.39 1811.34 1450.39 Q1816.71 1450.39 1819.91 1453.08 Q1823.1 1455.77 1823.1 1460.26 Q1823.1 1462.39 1822.29 1464.31 Q1821.5 1466.2 1819.4 1468.8 Q1818.82 1469.47 1815.72 1472.69 Q1812.61 1475.88 1806.97 1481.64 Z" fill="#000000" fill-rule="nonzero" fill-opacity="1"></path><path clip-path="url(#clip080)" d="M1833.1 1479.7 L1837.98 1479.7 L1837.98 1485.58 L1833.1 1485.58 L1833.1 1479.7 Z" fill="#000000" fill-rule="nonzero" fill-opacity="1"></path><path clip-path="url(#clip080)" d="M1858.17 1454.1 Q1854.56 1454.1 1852.73 1457.66 Q1850.92 1461.2 1850.92 1468.33 Q1850.92 1475.44 1852.73 1479.01 Q1854.56 1482.55 1858.17 1482.55 Q1861.8 1482.55 1863.61 1479.01 Q1865.44 1475.44 1865.44 1468.33 Q1865.44 1461.2 1863.61 1457.66 Q1861.8 1454.1 1858.17 1454.1 M1858.17 1450.39 Q1863.98 1450.39 1867.04 1455 Q1870.11 1459.58 1870.11 1468.33 Q1870.11 1477.06 1867.04 1481.67 Q1863.98 1486.25 1858.17 1486.25 Q1852.36 1486.25 1849.28 1481.67 Q1846.22 1477.06 1846.22 1468.33 Q1846.22 1459.58 1849.28 1455 Q1852.36 1450.39 1858.17 1450.39 Z" fill="#000000" fill-rule="nonzero" fill-opacity="1"></path><path clip-path="url(#clip080)" d="M2255 1481.64 L2271.32 1481.64 L2271.32 1485.58 L2249.37 1485.58 L2249.37 1481.64 Q2252.03 1478.89 2256.62 1474.26 Q2261.22 1469.61 2262.4 1468.27 Q2264.65 1465.74 2265.53 1464.01 Q2266.43 1462.25 2266.43 1460.56 Q2266.43 1457.8 2264.49 1456.07 Q2262.57 1454.33 2259.46 1454.33 Q2257.27 1454.33 2254.81 1455.09 Q2252.38 1455.86 2249.6 1457.41 L2249.6 1452.69 Q2252.43 1451.55 2254.88 1450.97 Q2257.33 1450.39 2259.37 1450.39 Q2264.74 1450.39 2267.94 1453.08 Q2271.13 1455.77 2271.13 1460.26 Q2271.13 1462.39 2270.32 1464.31 Q2269.53 1466.2 2267.43 1468.8 Q2266.85 1469.47 2263.75 1472.69 Q2260.64 1475.88 2255 1481.64 Z" fill="#000000" fill-rule="nonzero" fill-opacity="1"></path><path clip-path="url(#clip080)" d="M2281.13 1479.7 L2286.01 1479.7 L2286.01 1485.58 L2281.13 1485.58 L2281.13 1479.7 Z" fill="#000000" fill-rule="nonzero" fill-opacity="1"></path><path clip-path="url(#clip080)" d="M2300.23 1481.64 L2316.55 1481.64 L2316.55 1485.58 L2294.6 1485.58 L2294.6 1481.64 Q2297.26 1478.89 2301.85 1474.26 Q2306.45 1469.61 2307.64 1468.27 Q2309.88 1465.74 2310.76 1464.01 Q2311.66 1462.25 2311.66 1460.56 Q2311.66 1457.8 2309.72 1456.07 Q2307.8 1454.33 2304.7 1454.33 Q2302.5 1454.33 2300.04 1455.09 Q2297.61 1455.86 2294.83 1457.41 L2294.83 1452.69 Q2297.66 1451.55 2300.11 1450.97 Q2302.57 1450.39 2304.6 1450.39 Q2309.97 1450.39 2313.17 1453.08 Q2316.36 1455.77 2316.36 1460.26 Q2316.36 1462.39 2315.55 1464.31 Q2314.76 1466.2 2312.66 1468.8 Q2312.08 1469.47 2308.98 1472.69 Q2305.88 1475.88 2300.23 1481.64 Z" fill="#000000" fill-rule="nonzero" fill-opacity="1"></path><path clip-path="url(#clip080)" d="M1098.43 1518.52 L1104.29 1518.52 L1104.29 1568.04 L1098.43 1568.04 L1098.43 1518.52 Z" fill="#000000" fill-rule="nonzero" fill-opacity="1"></path><path clip-path="url(#clip080)" d="M1130.35 1536.5 Q1125.64 1536.5 1122.9 1540.19 Q1120.17 1543.85 1120.17 1550.25 Q1120.17 1556.65 1122.87 1560.34 Q1125.61 1564 1130.35 1564 Q1135.03 1564 1137.77 1560.31 Q1140.51 1556.62 1140.51 1550.25 Q1140.51 1543.92 1137.77 1540.23 Q1135.03 1536.5 1130.35 1536.5 M1130.35 1531.54 Q1137.99 1531.54 1142.35 1536.5 Q1146.71 1541.47 1146.71 1550.25 Q1146.71 1559 1142.35 1564 Q1137.99 1568.97 1130.35 1568.97 Q1122.68 1568.97 1118.32 1564 Q1113.99 1559 1113.99 1550.25 Q1113.99 1541.47 1118.32 1536.5 Q1122.68 1531.54 1130.35 1531.54 Z" fill="#000000" fill-rule="nonzero" fill-opacity="1"></path><path clip-path="url(#clip080)" d="M1179.88 1549.81 Q1179.88 1543.44 1177.24 1539.94 Q1174.63 1536.44 1169.88 1536.44 Q1165.17 1536.44 1162.53 1539.94 Q1159.92 1543.44 1159.92 1549.81 Q1159.92 1556.14 1162.53 1559.64 Q1165.17 1563.14 1169.88 1563.14 Q1174.63 1563.14 1177.24 1559.64 Q1179.88 1556.14 1179.88 1549.81 M1185.73 1563.62 Q1185.73 1572.72 1181.69 1577.15 Q1177.65 1581.6 1169.31 1581.6 Q1166.22 1581.6 1163.49 1581.13 Q1160.75 1580.68 1158.17 1579.72 L1158.17 1574.03 Q1160.75 1575.43 1163.26 1576.1 Q1165.78 1576.76 1168.39 1576.76 Q1174.15 1576.76 1177.01 1573.74 Q1179.88 1570.75 1179.88 1564.67 L1179.88 1561.77 Q1178.06 1564.92 1175.23 1566.48 Q1172.4 1568.04 1168.45 1568.04 Q1161.89 1568.04 1157.88 1563.05 Q1153.87 1558.05 1153.87 1549.81 Q1153.87 1541.53 1157.88 1536.53 Q1161.89 1531.54 1168.45 1531.54 Q1172.4 1531.54 1175.23 1533.1 Q1178.06 1534.66 1179.88 1537.81 L1179.88 1532.4 L1185.73 1532.4 L1185.73 1563.62 Z" fill="#000000" fill-rule="nonzero" fill-opacity="1"></path><path clip-path="url(#clip080)" d="M1199.74 1562.63 L1210.24 1562.63 L1210.24 1526.38 L1198.82 1528.67 L1198.82 1522.82 L1210.18 1520.52 L1216.61 1520.52 L1216.61 1562.63 L1227.11 1562.63 L1227.11 1568.04 L1199.74 1568.04 L1199.74 1562.63 Z" fill="#000000" fill-rule="nonzero" fill-opacity="1"></path><path clip-path="url(#clip080)" d="M1253.85 1524.76 Q1248.88 1524.76 1246.37 1529.66 Q1243.89 1534.53 1243.89 1544.33 Q1243.89 1554.1 1246.37 1559 Q1248.88 1563.87 1253.85 1563.87 Q1258.84 1563.87 1261.33 1559 Q1263.84 1554.1 1263.84 1544.33 Q1263.84 1534.53 1261.33 1529.66 Q1258.84 1524.76 1253.85 1524.76 M1253.85 1519.66 Q1261.84 1519.66 1266.04 1526 Q1270.27 1532.3 1270.27 1544.33 Q1270.27 1556.33 1266.04 1562.66 Q1261.84 1568.97 1253.85 1568.97 Q1245.86 1568.97 1241.63 1562.66 Q1237.42 1556.33 1237.42 1544.33 Q1237.42 1532.3 1241.63 1526 Q1245.86 1519.66 1253.85 1519.66 Z" fill="#000000" fill-rule="nonzero" fill-opacity="1"></path><path clip-path="url(#clip080)" d="M1294.81 1518.58 Q1290.55 1525.9 1288.48 1533.06 Q1286.41 1540.23 1286.41 1547.58 Q1286.41 1554.93 1288.48 1562.16 Q1290.58 1569.35 1294.81 1576.64 L1289.72 1576.64 Q1284.94 1569.16 1282.56 1561.93 Q1280.2 1554.71 1280.2 1547.58 Q1280.2 1540.48 1282.56 1533.29 Q1284.91 1526.09 1289.72 1518.58 L1294.81 1518.58 Z" fill="#000000" fill-rule="nonzero" fill-opacity="1"></path><path clip-path="url(#clip080)" d="M1308.12 1562.63 L1318.62 1562.63 L1318.62 1526.38 L1307.19 1528.67 L1307.19 1522.82 L1318.55 1520.52 L1324.98 1520.52 L1324.98 1562.63 L1335.49 1562.63 L1335.49 1568.04 L1308.12 1568.04 L1308.12 1562.63 Z" fill="#000000" fill-rule="nonzero" fill-opacity="1"></path><path clip-path="url(#clip080)" d="M1358.05 1520.52 L1363.46 1520.52 L1346.91 1574.09 L1341.5 1574.09 L1358.05 1520.52 Z" fill="#000000" fill-rule="nonzero" fill-opacity="1"></path><path clip-path="url(#clip080)" d="M1385.74 1526.86 L1372.7 1562.7 L1398.83 1562.7 L1385.74 1526.86 M1363.97 1568.04 L1382.12 1520.52 L1389.41 1520.52 L1407.52 1568.04 L1363.97 1568.04 Z" fill="#000000" fill-rule="nonzero" fill-opacity="1"></path><path clip-path="url(#clip080)" d="M1443.83 1532.4 L1430.94 1549.74 L1444.5 1568.04 L1437.59 1568.04 L1427.22 1554.04 L1416.84 1568.04 L1409.93 1568.04 L1423.78 1549.39 L1411.11 1532.4 L1418.02 1532.4 L1427.47 1545.1 L1436.93 1532.4 L1443.83 1532.4 Z" fill="#000000" fill-rule="nonzero" fill-opacity="1"></path><path clip-path="url(#clip080)" d="M1451.85 1518.58 L1456.95 1518.58 Q1461.72 1526.09 1464.07 1533.29 Q1466.46 1540.48 1466.46 1547.58 Q1466.46 1554.71 1464.07 1561.93 Q1461.72 1569.16 1456.95 1576.64 L1451.85 1576.64 Q1456.09 1569.35 1458.15 1562.16 Q1460.26 1554.93 1460.26 1547.58 Q1460.26 1540.23 1458.15 1533.06 Q1456.09 1525.9 1451.85 1518.58 Z" fill="#000000" fill-rule="nonzero" fill-opacity="1"></path><polyline clip-path="url(#clip082)" style="stroke:#000000; stroke-linecap:round; stroke-linejoin:round; stroke-width:2; stroke-opacity:0.1; fill:none" points="212.135,1308.42 2352.76,1308.42 "></polyline>
<polyline clip-path="url(#clip082)" style="stroke:#000000; stroke-linecap:round; stroke-linejoin:round; stroke-width:2; stroke-opacity:0.1; fill:none" points="212.135,952.731 2352.76,952.731 "></polyline>
<polyline clip-path="url(#clip082)" style="stroke:#000000; stroke-linecap:round; stroke-linejoin:round; stroke-width:2; stroke-opacity:0.1; fill:none" points="212.135,597.037 2352.76,597.037 "></polyline>
<polyline clip-path="url(#clip082)" style="stroke:#000000; stroke-linecap:round; stroke-linejoin:round; stroke-width:2; stroke-opacity:0.1; fill:none" points="212.135,241.343 2352.76,241.343 "></polyline>
<polyline clip-path="url(#clip080)" style="stroke:#000000; stroke-linecap:round; stroke-linejoin:round; stroke-width:4; stroke-opacity:1; fill:none" points="212.135,1423.18 212.135,47.2441 "></polyline>
<polyline clip-path="url(#clip080)" style="stroke:#000000; stroke-linecap:round; stroke-linejoin:round; stroke-width:4; stroke-opacity:1; fill:none" points="212.135,1308.42 231.032,1308.42 "></polyline>
<polyline clip-path="url(#clip080)" style="stroke:#000000; stroke-linecap:round; stroke-linejoin:round; stroke-width:4; stroke-opacity:1; fill:none" points="212.135,952.731 231.032,952.731 "></polyline>
<polyline clip-path="url(#clip080)" style="stroke:#000000; stroke-linecap:round; stroke-linejoin:round; stroke-width:4; stroke-opacity:1; fill:none" points="212.135,597.037 231.032,597.037 "></polyline>
<polyline clip-path="url(#clip080)" style="stroke:#000000; stroke-linecap:round; stroke-linejoin:round; stroke-width:4; stroke-opacity:1; fill:none" points="212.135,241.343 231.032,241.343 "></polyline>
<path clip-path="url(#clip080)" d="M114.607 1308.88 L144.283 1308.88 L144.283 1312.81 L114.607 1312.81 L114.607 1308.88 Z" fill="#000000" fill-rule="nonzero" fill-opacity="1"></path><path clip-path="url(#clip080)" d="M154.515 1324.99 L154.515 1320.73 Q156.274 1321.56 158.079 1322 Q159.885 1322.44 161.621 1322.44 Q166.251 1322.44 168.681 1319.34 Q171.135 1316.21 171.482 1309.87 Q170.139 1311.86 168.079 1312.93 Q166.019 1313.99 163.519 1313.99 Q158.334 1313.99 155.302 1310.87 Q152.292 1307.72 152.292 1302.28 Q152.292 1296.95 155.44 1293.74 Q158.589 1290.52 163.82 1290.52 Q169.815 1290.52 172.964 1295.13 Q176.135 1299.71 176.135 1308.46 Q176.135 1316.63 172.246 1321.52 Q168.38 1326.38 161.829 1326.38 Q160.07 1326.38 158.265 1326.03 Q156.459 1325.68 154.515 1324.99 M163.82 1310.33 Q166.968 1310.33 168.797 1308.18 Q170.649 1306.03 170.649 1302.28 Q170.649 1298.55 168.797 1296.4 Q166.968 1294.22 163.82 1294.22 Q160.672 1294.22 158.82 1296.4 Q156.991 1298.55 156.991 1302.28 Q156.991 1306.03 158.82 1308.18 Q160.672 1310.33 163.82 1310.33 Z" fill="#000000" fill-rule="nonzero" fill-opacity="1"></path><path clip-path="url(#clip080)" d="M114.515 953.182 L144.191 953.182 L144.191 957.117 L114.515 957.117 L114.515 953.182 Z" fill="#000000" fill-rule="nonzero" fill-opacity="1"></path><path clip-path="url(#clip080)" d="M164.283 953.599 Q160.95 953.599 159.028 955.381 Q157.13 957.164 157.13 960.289 Q157.13 963.414 159.028 965.196 Q160.95 966.978 164.283 966.978 Q167.616 966.978 169.538 965.196 Q171.459 963.39 171.459 960.289 Q171.459 957.164 169.538 955.381 Q167.64 953.599 164.283 953.599 M159.607 951.608 Q156.598 950.867 154.908 948.807 Q153.241 946.747 153.241 943.784 Q153.241 939.641 156.181 937.233 Q159.144 934.826 164.283 934.826 Q169.445 934.826 172.385 937.233 Q175.325 939.641 175.325 943.784 Q175.325 946.747 173.635 948.807 Q171.968 950.867 168.982 951.608 Q172.362 952.395 174.237 954.687 Q176.135 956.978 176.135 960.289 Q176.135 965.312 173.056 967.997 Q170.001 970.682 164.283 970.682 Q158.565 970.682 155.487 967.997 Q152.431 965.312 152.431 960.289 Q152.431 956.978 154.329 954.687 Q156.228 952.395 159.607 951.608 M157.894 944.224 Q157.894 946.909 159.561 948.414 Q161.251 949.918 164.283 949.918 Q167.292 949.918 168.982 948.414 Q170.695 946.909 170.695 944.224 Q170.695 941.539 168.982 940.034 Q167.292 938.529 164.283 938.529 Q161.251 938.529 159.561 940.034 Q157.894 941.539 157.894 944.224 Z" fill="#000000" fill-rule="nonzero" fill-opacity="1"></path><path clip-path="url(#clip080)" d="M115.325 597.488 L145.001 597.488 L145.001 601.423 L115.325 601.423 L115.325 597.488 Z" fill="#000000" fill-rule="nonzero" fill-opacity="1"></path><path clip-path="url(#clip080)" d="M153.913 579.757 L176.135 579.757 L176.135 581.747 L163.589 614.317 L158.704 614.317 L170.51 583.692 L153.913 583.692 L153.913 579.757 Z" fill="#000000" fill-rule="nonzero" fill-opacity="1"></path><path clip-path="url(#clip080)" d="M114.26 241.794 L143.936 241.794 L143.936 245.729 L114.26 245.729 L114.26 241.794 Z" fill="#000000" fill-rule="nonzero" fill-opacity="1"></path><path clip-path="url(#clip080)" d="M164.607 239.479 Q161.459 239.479 159.607 241.632 Q157.778 243.785 157.778 247.535 Q157.778 251.262 159.607 253.437 Q161.459 255.59 164.607 255.59 Q167.755 255.59 169.584 253.437 Q171.436 251.262 171.436 247.535 Q171.436 243.785 169.584 241.632 Q167.755 239.479 164.607 239.479 M173.889 224.826 L173.889 229.086 Q172.13 228.252 170.325 227.813 Q168.542 227.373 166.783 227.373 Q162.153 227.373 159.7 230.498 Q157.269 233.623 156.922 239.942 Q158.288 237.928 160.348 236.863 Q162.408 235.775 164.885 235.775 Q170.093 235.775 173.102 238.947 Q176.135 242.095 176.135 247.535 Q176.135 252.859 172.987 256.076 Q169.839 259.294 164.607 259.294 Q158.612 259.294 155.44 254.711 Q152.269 250.104 152.269 241.377 Q152.269 233.183 156.158 228.322 Q160.047 223.438 166.598 223.438 Q168.357 223.438 170.139 223.785 Q171.945 224.132 173.889 224.826 Z" fill="#000000" fill-rule="nonzero" fill-opacity="1"></path><path clip-path="url(#clip080)" d="M14.479 885.268 L14.479 879.411 L64.0042 879.411 L64.0042 885.268 L14.479 885.268 Z" fill="#000000" fill-rule="nonzero" fill-opacity="1"></path><path clip-path="url(#clip080)" d="M32.4621 853.344 Q32.4621 858.054 36.1542 860.791 Q39.8145 863.529 46.212 863.529 Q52.6095 863.529 56.3017 860.823 Q59.9619 858.086 59.9619 853.344 Q59.9619 848.665 56.2698 845.928 Q52.5777 843.19 46.212 843.19 Q39.8781 843.19 36.186 845.928 Q32.4621 848.665 32.4621 853.344 M27.4968 853.344 Q27.4968 845.705 32.4621 841.344 Q37.4273 836.984 46.212 836.984 Q54.9649 836.984 59.9619 841.344 Q64.9272 845.705 64.9272 853.344 Q64.9272 861.014 59.9619 865.375 Q54.9649 869.703 46.212 869.703 Q37.4273 869.703 32.4621 865.375 Q27.4968 861.014 27.4968 853.344 Z" fill="#000000" fill-rule="nonzero" fill-opacity="1"></path><path clip-path="url(#clip080)" d="M45.7664 803.818 Q39.4007 803.818 35.8996 806.46 Q32.3984 809.07 32.3984 813.813 Q32.3984 818.523 35.8996 821.165 Q39.4007 823.775 45.7664 823.775 Q52.1003 823.775 55.6014 821.165 Q59.1026 818.523 59.1026 813.813 Q59.1026 809.07 55.6014 806.46 Q52.1003 803.818 45.7664 803.818 M59.58 797.962 Q68.683 797.962 73.1071 802.004 Q77.5631 806.046 77.5631 814.385 Q77.5631 817.473 77.0857 820.21 Q76.6401 822.947 75.6852 825.525 L69.9879 825.525 Q71.3884 822.947 72.0568 820.433 Q72.7252 817.918 72.7252 815.308 Q72.7252 809.548 69.7015 806.683 Q66.7096 803.818 60.6303 803.818 L57.7339 803.818 Q60.885 805.633 62.4446 808.465 Q64.0042 811.298 64.0042 815.245 Q64.0042 821.801 59.0071 825.812 Q54.01 829.822 45.7664 829.822 Q37.491 829.822 32.4939 825.812 Q27.4968 821.801 27.4968 815.245 Q27.4968 811.298 29.0564 808.465 Q30.616 805.633 33.7671 803.818 L28.3562 803.818 L28.3562 797.962 L59.58 797.962 Z" fill="#000000" fill-rule="nonzero" fill-opacity="1"></path><path clip-path="url(#clip080)" d="M58.5933 783.957 L58.5933 773.454 L22.3406 773.454 L24.6323 784.88 L18.7758 784.88 L16.4842 773.518 L16.4842 767.088 L58.5933 767.088 L58.5933 756.585 L64.0042 756.585 L64.0042 783.957 L58.5933 783.957 Z" fill="#000000" fill-rule="nonzero" fill-opacity="1"></path><path clip-path="url(#clip080)" d="M20.7174 729.849 Q20.7174 734.814 25.6189 737.329 Q30.4887 739.811 40.2919 739.811 Q50.0633 739.811 54.9649 737.329 Q59.8346 734.814 59.8346 729.849 Q59.8346 724.852 54.9649 722.369 Q50.0633 719.855 40.2919 719.855 Q30.4887 719.855 25.6189 722.369 Q20.7174 724.852 20.7174 729.849 M15.6248 729.849 Q15.6248 721.86 21.9587 717.659 Q28.2607 713.425 40.2919 713.425 Q52.2913 713.425 58.6251 717.659 Q64.9272 721.86 64.9272 729.849 Q64.9272 737.838 58.6251 742.071 Q52.2913 746.272 40.2919 746.272 Q28.2607 746.272 21.9587 742.071 Q15.6248 737.838 15.6248 729.849 Z" fill="#000000" fill-rule="nonzero" fill-opacity="1"></path><path clip-path="url(#clip080)" d="M14.5426 688.886 Q21.8632 693.151 29.0246 695.219 Q36.186 697.288 43.5384 697.288 Q50.8908 697.288 58.1159 695.219 Q65.3091 693.119 72.5979 688.886 L72.5979 693.978 Q65.1182 698.752 57.8931 701.14 Q50.668 703.495 43.5384 703.495 Q36.4406 703.495 29.2474 701.14 Q22.0542 698.784 14.5426 693.978 L14.5426 688.886 Z" fill="#000000" fill-rule="nonzero" fill-opacity="1"></path><path clip-path="url(#clip080)" d="M34.0217 652.346 Q33.6079 653.524 33.2896 654.702 Q32.4621 657.853 32.4621 661.227 Q32.4621 667.051 35.6131 670.298 Q38.5413 673.321 43.9204 673.894 L43.9204 652.346 L48.5037 652.346 L48.5037 673.894 Q53.8827 673.321 56.8109 670.298 Q59.9619 667.051 59.9619 661.227 Q59.9619 657.152 59.1344 654.702 L58.3387 652.346 L63.654 652.346 L64.227 654.861 Q64.9272 658.171 64.9272 661.577 Q64.9272 670.107 59.9619 675.072 Q54.9967 680.069 46.212 680.069 Q37.4273 680.069 32.4621 675.072 Q27.4968 670.107 27.4968 661.577 Q27.4968 658.362 28.1971 654.861 Q28.4517 653.588 28.8336 652.346 L34.0217 652.346 Z" fill="#000000" fill-rule="nonzero" fill-opacity="1"></path><path clip-path="url(#clip080)" d="M28.3562 607.786 L45.7028 620.677 L64.0042 607.118 L64.0042 614.025 L49.9996 624.401 L64.0042 634.777 L64.0042 641.684 L45.3526 627.838 L28.3562 640.506 L28.3562 633.599 L41.0558 624.146 L28.3562 614.693 L28.3562 607.786 Z" fill="#000000" fill-rule="nonzero" fill-opacity="1"></path><path clip-path="url(#clip080)" d="M14.5426 599.766 L14.5426 594.673 Q22.0542 589.899 29.2474 587.543 Q36.4406 585.156 43.5384 585.156 Q50.668 585.156 57.8931 587.543 Q65.1182 589.899 72.5979 594.673 L72.5979 599.766 Q65.3091 595.532 58.1159 593.464 Q50.8908 591.363 43.5384 591.363 Q36.186 591.363 29.0246 593.464 Q21.8632 595.532 14.5426 599.766 Z" fill="#000000" fill-rule="nonzero" fill-opacity="1"></path><circle clip-path="url(#clip082)" cx="272.718" cy="86.1857" r="14.4" fill="#009af9" fill-rule="evenodd" fill-opacity="1" stroke="#000000" stroke-opacity="1" stroke-width="3.2"></circle>
<circle clip-path="url(#clip082)" cx="945.87" cy="521.847" r="14.4" fill="#009af9" fill-rule="evenodd" fill-opacity="1" stroke="#000000" stroke-opacity="1" stroke-width="3.2"></circle>
<circle clip-path="url(#clip082)" cx="1619.02" cy="953.967" r="14.4" fill="#009af9" fill-rule="evenodd" fill-opacity="1" stroke="#000000" stroke-opacity="1" stroke-width="3.2"></circle>
<circle clip-path="url(#clip082)" cx="2292.17" cy="1384.24" r="14.4" fill="#009af9" fill-rule="evenodd" fill-opacity="1" stroke="#000000" stroke-opacity="1" stroke-width="3.2"></circle>
<polyline clip-path="url(#clip082)" style="stroke:#e26f46; stroke-linecap:round; stroke-linejoin:round; stroke-width:4; stroke-opacity:1; fill:none" points="272.718,86.1857 945.87,193.26 1619.02,300.335 2292.17,407.409 "></polyline>
<polyline clip-path="url(#clip082)" style="stroke:#3da44d; stroke-linecap:round; stroke-linejoin:round; stroke-width:4; stroke-opacity:1; fill:none" points="272.718,86.1857 945.87,300.335 1619.02,514.484 2292.17,728.633 "></polyline>
<polyline clip-path="url(#clip082)" style="stroke:#c271d2; stroke-linecap:round; stroke-linejoin:round; stroke-width:4; stroke-opacity:1; fill:none" points="272.718,86.1857 945.87,514.484 1619.02,942.782 2292.17,1371.08 "></polyline>
<path clip-path="url(#clip080)" d="M2005.19 352.309 L2281.4 352.309 L2281.4 93.1086 L2005.19 93.1086  Z" fill="#ffffff" fill-rule="evenodd" fill-opacity="1"></path>
<polyline clip-path="url(#clip080)" style="stroke:#000000; stroke-linecap:round; stroke-linejoin:round; stroke-width:4; stroke-opacity:1; fill:none" points="2005.19,352.309 2281.4,352.309 2281.4,93.1086 2005.19,93.1086 2005.19,352.309 "></polyline>
<circle clip-path="url(#clip080)" cx="2100.33" cy="144.949" r="20.48" fill="#009af9" fill-rule="evenodd" fill-opacity="1" stroke="#000000" stroke-opacity="1" stroke-width="4.55111"></circle>
<path clip-path="url(#clip080)" d="M2215.63 140.423 Q2214.77 140.122 2213.91 139.891 Q2211.62 139.289 2209.17 139.289 Q2204.93 139.289 2202.57 141.581 Q2200.37 143.71 2199.96 147.622 L2215.63 147.622 L2215.63 150.956 L2199.96 150.956 Q2200.37 154.868 2202.57 156.997 Q2204.93 159.289 2209.17 159.289 Q2212.13 159.289 2213.91 158.687 L2215.63 158.108 L2215.63 161.974 L2213.8 162.391 Q2211.39 162.9 2208.91 162.9 Q2202.71 162.9 2199.1 159.289 Q2195.46 155.678 2195.46 149.289 Q2195.46 142.9 2199.1 139.289 Q2202.71 135.678 2208.91 135.678 Q2211.25 135.678 2213.8 136.187 Q2214.72 136.372 2215.63 136.65 L2215.63 140.423 Z" fill="#000000" fill-rule="nonzero" fill-opacity="1"></path><polyline clip-path="url(#clip080)" style="stroke:#e26f46; stroke-linecap:round; stroke-linejoin:round; stroke-width:4; stroke-opacity:1; fill:none" points="2028.97,196.789 2171.68,196.789 "></polyline>
<path clip-path="url(#clip080)" d="M2211.48 182.68 Q2206.39 182.68 2203.38 186.476 Q2200.4 190.272 2200.4 196.823 Q2200.4 203.351 2203.38 207.147 Q2206.39 210.944 2211.48 210.944 Q2216.58 210.944 2219.54 207.147 Q2222.52 203.351 2222.52 196.823 Q2222.52 190.272 2219.54 186.476 Q2216.58 182.68 2211.48 182.68 M2211.48 178.884 Q2218.75 178.884 2223.1 183.768 Q2227.46 188.629 2227.46 196.823 Q2227.46 204.995 2223.1 209.879 Q2218.75 214.74 2211.48 214.74 Q2204.19 214.74 2199.82 209.879 Q2195.46 205.018 2195.46 196.823 Q2195.46 188.629 2199.82 183.768 Q2204.19 178.884 2211.48 178.884 Z" fill="#000000" fill-rule="nonzero" fill-opacity="1"></path><path clip-path="url(#clip080)" d="M2236 210.133 L2243.64 210.133 L2243.64 183.768 L2235.33 185.435 L2235.33 181.175 L2243.59 179.509 L2248.27 179.509 L2248.27 210.133 L2255.9 210.133 L2255.9 214.069 L2236 214.069 L2236 210.133 Z" fill="#000000" fill-rule="nonzero" fill-opacity="1"></path><polyline clip-path="url(#clip080)" style="stroke:#3da44d; stroke-linecap:round; stroke-linejoin:round; stroke-width:4; stroke-opacity:1; fill:none" points="2028.97,248.629 2171.68,248.629 "></polyline>
<path clip-path="url(#clip080)" d="M2211.48 234.52 Q2206.39 234.52 2203.38 238.316 Q2200.4 242.112 2200.4 248.663 Q2200.4 255.191 2203.38 258.987 Q2206.39 262.784 2211.48 262.784 Q2216.58 262.784 2219.54 258.987 Q2222.52 255.191 2222.52 248.663 Q2222.52 242.112 2219.54 238.316 Q2216.58 234.52 2211.48 234.52 M2211.48 230.724 Q2218.75 230.724 2223.1 235.608 Q2227.46 240.469 2227.46 248.663 Q2227.46 256.835 2223.1 261.719 Q2218.75 266.58 2211.48 266.58 Q2204.19 266.58 2199.82 261.719 Q2195.46 256.858 2195.46 248.663 Q2195.46 240.469 2199.82 235.608 Q2204.19 230.724 2211.48 230.724 Z" fill="#000000" fill-rule="nonzero" fill-opacity="1"></path><path clip-path="url(#clip080)" d="M2239.21 261.973 L2255.53 261.973 L2255.53 265.909 L2233.59 265.909 L2233.59 261.973 Q2236.25 259.219 2240.83 254.589 Q2245.44 249.936 2246.62 248.594 Q2248.87 246.071 2249.75 244.335 Q2250.65 242.575 2250.65 240.886 Q2250.65 238.131 2248.71 236.395 Q2246.78 234.659 2243.68 234.659 Q2241.48 234.659 2239.03 235.423 Q2236.6 236.187 2233.82 237.737 L2233.82 233.015 Q2236.65 231.881 2239.1 231.302 Q2241.55 230.724 2243.59 230.724 Q2248.96 230.724 2252.15 233.409 Q2255.35 236.094 2255.35 240.585 Q2255.35 242.714 2254.54 244.636 Q2253.75 246.534 2251.65 249.126 Q2251.07 249.798 2247.96 253.015 Q2244.86 256.21 2239.21 261.973 Z" fill="#000000" fill-rule="nonzero" fill-opacity="1"></path><polyline clip-path="url(#clip080)" style="stroke:#c271d2; stroke-linecap:round; stroke-linejoin:round; stroke-width:4; stroke-opacity:1; fill:none" points="2028.97,300.469 2171.68,300.469 "></polyline>
<path clip-path="url(#clip080)" d="M2211.48 286.36 Q2206.39 286.36 2203.38 290.156 Q2200.4 293.952 2200.4 300.503 Q2200.4 307.031 2203.38 310.827 Q2206.39 314.624 2211.48 314.624 Q2216.58 314.624 2219.54 310.827 Q2222.52 307.031 2222.52 300.503 Q2222.52 293.952 2219.54 290.156 Q2216.58 286.36 2211.48 286.36 M2211.48 282.564 Q2218.75 282.564 2223.1 287.448 Q2227.46 292.309 2227.46 300.503 Q2227.46 308.675 2223.1 313.559 Q2218.75 318.42 2211.48 318.42 Q2204.19 318.42 2199.82 313.559 Q2195.46 308.698 2195.46 300.503 Q2195.46 292.309 2199.82 287.448 Q2204.19 282.564 2211.48 282.564 Z" fill="#000000" fill-rule="nonzero" fill-opacity="1"></path><path clip-path="url(#clip080)" d="M2248.03 287.263 L2236.23 305.712 L2248.03 305.712 L2248.03 287.263 M2246.81 283.189 L2252.69 283.189 L2252.69 305.712 L2257.62 305.712 L2257.62 309.601 L2252.69 309.601 L2252.69 317.749 L2248.03 317.749 L2248.03 309.601 L2232.43 309.601 L2232.43 305.087 L2246.81 283.189 Z" fill="#000000" fill-rule="nonzero" fill-opacity="1"></path></svg>