<svg xmlns="http://www.w3.org/2000/svg" xmlns:xlink="http://www.w3.org/1999/xlink" width="600" height="400" viewBox="0 0 2400 1600">
<defs>
  <clipPath id="clip850">
    <rect x="0" y="0" width="2400" height="1600"></rect>
  </clipPath>
</defs>
<path clip-path="url(#clip850)" d="M0 1600 L2400 1600 L2400 8.88178e-14 L0 8.88178e-14  Z" fill="#ffffff" fill-rule="evenodd" fill-opacity="1"></path>
<defs>
  <clipPath id="clip851">
    <rect x="480" y="0" width="1681" height="1600"></rect>
  </clipPath>
</defs>
<path clip-path="url(#clip850)" d="M287.366 1423.18 L1167.84 1423.18 L1167.84 47.2441 L287.366 47.2441  Z" fill="#ffffff" fill-rule="evenodd" fill-opacity="1"></path>
<defs>
  <clipPath id="clip852">
    <rect x="287" y="47" width="881" height="1377"></rect>
  </clipPath>
</defs>
<polyline clip-path="url(#clip852)" style="stroke:#000000; stroke-linecap:round; stroke-linejoin:round; stroke-width:2; stroke-opacity:0.1; fill:none" points="312.285,1423.18 312.285,47.2441 "></polyline>
<polyline clip-path="url(#clip852)" style="stroke:#000000; stroke-linecap:round; stroke-linejoin:round; stroke-width:2; stroke-opacity:0.1; fill:none" points="496.238,1423.18 496.238,47.2441 "></polyline>
<polyline clip-path="url(#clip852)" style="stroke:#000000; stroke-linecap:round; stroke-linejoin:round; stroke-width:2; stroke-opacity:0.1; fill:none" points="680.192,1423.18 680.192,47.2441 "></polyline>
<polyline clip-path="url(#clip852)" style="stroke:#000000; stroke-linecap:round; stroke-linejoin:round; stroke-width:2; stroke-opacity:0.1; fill:none" points="864.145,1423.18 864.145,47.2441 "></polyline>
<polyline clip-path="url(#clip852)" style="stroke:#000000; stroke-linecap:round; stroke-linejoin:round; stroke-width:2; stroke-opacity:0.1; fill:none" points="1048.1,1423.18 1048.1,47.2441 "></polyline>
<polyline clip-path="url(#clip850)" style="stroke:#000000; stroke-linecap:round; stroke-linejoin:round; stroke-width:4; stroke-opacity:1; fill:none" points="287.366,1423.18 1167.84,1423.18 "></polyline>
<polyline clip-path="url(#clip850)" style="stroke:#000000; stroke-linecap:round; stroke-linejoin:round; stroke-width:4; stroke-opacity:1; fill:none" points="312.285,1423.18 312.285,1404.28 "></polyline>
<polyline clip-path="url(#clip850)" style="stroke:#000000; stroke-linecap:round; stroke-linejoin:round; stroke-width:4; stroke-opacity:1; fill:none" points="496.238,1423.18 496.238,1404.28 "></polyline>
<polyline clip-path="url(#clip850)" style="stroke:#000000; stroke-linecap:round; stroke-linejoin:round; stroke-width:4; stroke-opacity:1; fill:none" points="680.192,1423.18 680.192,1404.28 "></polyline>
<polyline clip-path="url(#clip850)" style="stroke:#000000; stroke-linecap:round; stroke-linejoin:round; stroke-width:4; stroke-opacity:1; fill:none" points="864.145,1423.18 864.145,1404.28 "></polyline>
<polyline clip-path="url(#clip850)" style="stroke:#000000; stroke-linecap:round; stroke-linejoin:round; stroke-width:4; stroke-opacity:1; fill:none" points="1048.1,1423.18 1048.1,1404.28 "></polyline>
<path clip-path="url(#clip850)" d="M279.438 1481.64 L287.077 1481.64 L287.077 1455.28 L278.767 1456.95 L278.767 1452.69 L287.03 1451.02 L291.706 1451.02 L291.706 1481.64 L299.345 1481.64 L299.345 1485.58 L279.438 1485.58 L279.438 1481.64 Z" fill="#000000" fill-rule="nonzero" fill-opacity="1"></path><path clip-path="url(#clip850)" d="M308.79 1479.7 L313.674 1479.7 L313.674 1485.58 L308.79 1485.58 L308.79 1479.7 Z" fill="#000000" fill-rule="nonzero" fill-opacity="1"></path><path clip-path="url(#clip850)" d="M333.859 1454.1 Q330.248 1454.1 328.419 1457.66 Q326.614 1461.2 326.614 1468.33 Q326.614 1475.44 328.419 1479.01 Q330.248 1482.55 333.859 1482.55 Q337.493 1482.55 339.299 1479.01 Q341.127 1475.44 341.127 1468.33 Q341.127 1461.2 339.299 1457.66 Q337.493 1454.1 333.859 1454.1 M333.859 1450.39 Q339.669 1450.39 342.725 1455 Q345.803 1459.58 345.803 1468.33 Q345.803 1477.06 342.725 1481.67 Q339.669 1486.25 333.859 1486.25 Q328.049 1486.25 324.97 1481.67 Q321.914 1477.06 321.914 1468.33 Q321.914 1459.58 324.97 1455 Q328.049 1450.39 333.859 1450.39 Z" fill="#000000" fill-rule="nonzero" fill-opacity="1"></path><path clip-path="url(#clip850)" d="M464.19 1481.64 L471.829 1481.64 L471.829 1455.28 L463.519 1456.95 L463.519 1452.69 L471.783 1451.02 L476.458 1451.02 L476.458 1481.64 L484.097 1481.64 L484.097 1485.58 L464.19 1485.58 L464.19 1481.64 Z" fill="#000000" fill-rule="nonzero" fill-opacity="1"></path><path clip-path="url(#clip850)" d="M493.542 1479.7 L498.426 1479.7 L498.426 1485.58 L493.542 1485.58 L493.542 1479.7 Z" fill="#000000" fill-rule="nonzero" fill-opacity="1"></path><path clip-path="url(#clip850)" d="M512.639 1481.64 L528.958 1481.64 L528.958 1485.58 L507.014 1485.58 L507.014 1481.64 Q509.676 1478.89 514.259 1474.26 Q518.866 1469.61 520.046 1468.27 Q522.292 1465.74 523.171 1464.01 Q524.074 1462.25 524.074 1460.56 Q524.074 1457.8 522.129 1456.07 Q520.208 1454.33 517.106 1454.33 Q514.907 1454.33 512.454 1455.09 Q510.023 1455.86 507.245 1457.41 L507.245 1452.69 Q510.069 1451.55 512.523 1450.97 Q514.977 1450.39 517.014 1450.39 Q522.384 1450.39 525.579 1453.08 Q528.773 1455.77 528.773 1460.26 Q528.773 1462.39 527.963 1464.31 Q527.176 1466.2 525.069 1468.8 Q524.491 1469.47 521.389 1472.69 Q518.287 1475.88 512.639 1481.64 Z" fill="#000000" fill-rule="nonzero" fill-opacity="1"></path><path clip-path="url(#clip850)" d="M647.102 1481.64 L654.741 1481.64 L654.741 1455.28 L646.431 1456.95 L646.431 1452.69 L654.694 1451.02 L659.37 1451.02 L659.37 1481.64 L667.009 1481.64 L667.009 1485.58 L647.102 1485.58 L647.102 1481.64 Z" fill="#000000" fill-rule="nonzero" fill-opacity="1"></path><path clip-path="url(#clip850)" d="M676.454 1479.7 L681.338 1479.7 L681.338 1485.58 L676.454 1485.58 L676.454 1479.7 Z" fill="#000000" fill-rule="nonzero" fill-opacity="1"></path><path clip-path="url(#clip850)" d="M704.37 1455.09 L692.565 1473.54 L704.37 1473.54 L704.37 1455.09 M703.143 1451.02 L709.023 1451.02 L709.023 1473.54 L713.953 1473.54 L713.953 1477.43 L709.023 1477.43 L709.023 1485.58 L704.37 1485.58 L704.37 1477.43 L688.768 1477.43 L688.768 1472.92 L703.143 1451.02 Z" fill="#000000" fill-rule="nonzero" fill-opacity="1"></path><path clip-path="url(#clip850)" d="M831.217 1481.64 L838.856 1481.64 L838.856 1455.28 L830.546 1456.95 L830.546 1452.69 L838.81 1451.02 L843.486 1451.02 L843.486 1481.64 L851.125 1481.64 L851.125 1485.58 L831.217 1485.58 L831.217 1481.64 Z" fill="#000000" fill-rule="nonzero" fill-opacity="1"></path><path clip-path="url(#clip850)" d="M860.569 1479.7 L865.453 1479.7 L865.453 1485.58 L860.569 1485.58 L860.569 1479.7 Z" fill="#000000" fill-rule="nonzero" fill-opacity="1"></path><path clip-path="url(#clip850)" d="M886.217 1466.44 Q883.069 1466.44 881.217 1468.59 Q879.388 1470.74 879.388 1474.49 Q879.388 1478.22 881.217 1480.39 Q883.069 1482.55 886.217 1482.55 Q889.365 1482.55 891.194 1480.39 Q893.046 1478.22 893.046 1474.49 Q893.046 1470.74 891.194 1468.59 Q889.365 1466.44 886.217 1466.44 M895.499 1451.78 L895.499 1456.04 Q893.74 1455.21 891.935 1454.77 Q890.152 1454.33 888.393 1454.33 Q883.763 1454.33 881.31 1457.45 Q878.879 1460.58 878.532 1466.9 Q879.898 1464.89 881.958 1463.82 Q884.018 1462.73 886.495 1462.73 Q891.703 1462.73 894.712 1465.9 Q897.745 1469.05 897.745 1474.49 Q897.745 1479.82 894.597 1483.03 Q891.449 1486.25 886.217 1486.25 Q880.222 1486.25 877.051 1481.67 Q873.879 1477.06 873.879 1468.33 Q873.879 1460.14 877.768 1455.28 Q881.657 1450.39 888.208 1450.39 Q889.967 1450.39 891.75 1450.74 Q893.555 1451.09 895.499 1451.78 Z" fill="#000000" fill-rule="nonzero" fill-opacity="1"></path><path clip-path="url(#clip850)" d="M1015.3 1481.64 L1022.94 1481.64 L1022.94 1455.28 L1014.63 1456.95 L1014.63 1452.69 L1022.89 1451.02 L1027.57 1451.02 L1027.57 1481.64 L1035.21 1481.64 L1035.21 1485.58 L1015.3 1485.58 L1015.3 1481.64 Z" fill="#000000" fill-rule="nonzero" fill-opacity="1"></path><path clip-path="url(#clip850)" d="M1044.65 1479.7 L1049.53 1479.7 L1049.53 1485.58 L1044.65 1485.58 L1044.65 1479.7 Z" fill="#000000" fill-rule="nonzero" fill-opacity="1"></path><path clip-path="url(#clip850)" d="M1069.72 1469.17 Q1066.39 1469.17 1064.46 1470.95 Q1062.57 1472.73 1062.57 1475.86 Q1062.57 1478.98 1064.46 1480.77 Q1066.39 1482.55 1069.72 1482.55 Q1073.05 1482.55 1074.97 1480.77 Q1076.9 1478.96 1076.9 1475.86 Q1076.9 1472.73 1074.97 1470.95 Q1073.08 1469.17 1069.72 1469.17 M1065.04 1467.18 Q1062.03 1466.44 1060.34 1464.38 Q1058.68 1462.32 1058.68 1459.35 Q1058.68 1455.21 1061.62 1452.8 Q1064.58 1450.39 1069.72 1450.39 Q1074.88 1450.39 1077.82 1452.8 Q1080.76 1455.21 1080.76 1459.35 Q1080.76 1462.32 1079.07 1464.38 Q1077.4 1466.44 1074.42 1467.18 Q1077.8 1467.96 1079.67 1470.26 Q1081.57 1472.55 1081.57 1475.86 Q1081.57 1480.88 1078.49 1483.57 Q1075.44 1486.25 1069.72 1486.25 Q1064 1486.25 1060.92 1483.57 Q1057.87 1480.88 1057.87 1475.86 Q1057.87 1472.55 1059.77 1470.26 Q1061.66 1467.96 1065.04 1467.18 M1063.33 1459.79 Q1063.33 1462.48 1065 1463.98 Q1066.69 1465.49 1069.72 1465.49 Q1072.73 1465.49 1074.42 1463.98 Q1076.13 1462.48 1076.13 1459.79 Q1076.13 1457.11 1074.42 1455.6 Q1072.73 1454.1 1069.72 1454.1 Q1066.69 1454.1 1065 1455.6 Q1063.33 1457.11 1063.33 1459.79 Z" fill="#000000" fill-rule="nonzero" fill-opacity="1"></path><path clip-path="url(#clip850)" d="M543.585 1518.52 L549.441 1518.52 L549.441 1568.04 L543.585 1568.04 L543.585 1518.52 Z" fill="#000000" fill-rule="nonzero" fill-opacity="1"></path><path clip-path="url(#clip850)" d="M575.509 1536.5 Q570.798 1536.5 568.061 1540.19 Q565.324 1543.85 565.324 1550.25 Q565.324 1556.65 568.029 1560.34 Q570.766 1564 575.509 1564 Q580.188 1564 582.925 1560.31 Q585.662 1556.62 585.662 1550.25 Q585.662 1543.92 582.925 1540.23 Q580.188 1536.5 575.509 1536.5 M575.509 1531.54 Q583.148 1531.54 587.508 1536.5 Q591.869 1541.47 591.869 1550.25 Q591.869 1559 587.508 1564 Q583.148 1568.97 575.509 1568.97 Q567.838 1568.97 563.478 1564 Q559.149 1559 559.149 1550.25 Q559.149 1541.47 563.478 1536.5 Q567.838 1531.54 575.509 1531.54 Z" fill="#000000" fill-rule="nonzero" fill-opacity="1"></path><path clip-path="url(#clip850)" d="M625.034 1549.81 Q625.034 1543.44 622.392 1539.94 Q619.782 1536.44 615.04 1536.44 Q610.329 1536.44 607.687 1539.94 Q605.077 1543.44 605.077 1549.81 Q605.077 1556.14 607.687 1559.64 Q610.329 1563.14 615.04 1563.14 Q619.782 1563.14 622.392 1559.64 Q625.034 1556.14 625.034 1549.81 M630.89 1563.62 Q630.89 1572.72 626.848 1577.15 Q622.806 1581.6 614.467 1581.6 Q611.379 1581.6 608.642 1581.13 Q605.905 1580.68 603.327 1579.72 L603.327 1574.03 Q605.905 1575.43 608.419 1576.1 Q610.934 1576.76 613.544 1576.76 Q619.305 1576.76 622.169 1573.74 Q625.034 1570.75 625.034 1564.67 L625.034 1561.77 Q623.22 1564.92 620.387 1566.48 Q617.554 1568.04 613.607 1568.04 Q607.051 1568.04 603.04 1563.05 Q599.03 1558.05 599.03 1549.81 Q599.03 1541.53 603.04 1536.53 Q607.051 1531.54 613.607 1531.54 Q617.554 1531.54 620.387 1533.1 Q623.22 1534.66 625.034 1537.81 L625.034 1532.4 L630.89 1532.4 L630.89 1563.62 Z" fill="#000000" fill-rule="nonzero" fill-opacity="1"></path><path clip-path="url(#clip850)" d="M644.895 1562.63 L655.398 1562.63 L655.398 1526.38 L643.972 1528.67 L643.972 1522.82 L655.335 1520.52 L661.764 1520.52 L661.764 1562.63 L672.267 1562.63 L672.267 1568.04 L644.895 1568.04 L644.895 1562.63 Z" fill="#000000" fill-rule="nonzero" fill-opacity="1"></path><path clip-path="url(#clip850)" d="M699.003 1524.76 Q694.038 1524.76 691.524 1529.66 Q689.041 1534.53 689.041 1544.33 Q689.041 1554.1 691.524 1559 Q694.038 1563.87 699.003 1563.87 Q704.001 1563.87 706.483 1559 Q708.998 1554.1 708.998 1544.33 Q708.998 1534.53 706.483 1529.66 Q704.001 1524.76 699.003 1524.76 M699.003 1519.66 Q706.992 1519.66 711.194 1526 Q715.427 1532.3 715.427 1544.33 Q715.427 1556.33 711.194 1562.66 Q706.992 1568.97 699.003 1568.97 Q691.014 1568.97 686.781 1562.66 Q682.58 1556.33 682.58 1544.33 Q682.58 1532.3 686.781 1526 Q691.014 1519.66 699.003 1519.66 Z" fill="#000000" fill-rule="nonzero" fill-opacity="1"></path><path clip-path="url(#clip850)" d="M739.967 1518.58 Q735.702 1525.9 733.633 1533.06 Q731.564 1540.23 731.564 1547.58 Q731.564 1554.93 733.633 1562.16 Q735.734 1569.35 739.967 1576.64 L734.874 1576.64 Q730.1 1569.16 727.713 1561.93 Q725.357 1554.71 725.357 1547.58 Q725.357 1540.48 727.713 1533.29 Q730.068 1526.09 734.874 1518.58 L739.967 1518.58 Z" fill="#000000" fill-rule="nonzero" fill-opacity="1"></path><path clip-path="url(#clip850)" d="M753.271 1562.63 L763.775 1562.63 L763.775 1526.38 L752.348 1528.67 L752.348 1522.82 L763.711 1520.52 L770.14 1520.52 L770.14 1562.63 L780.644 1562.63 L780.644 1568.04 L753.271 1568.04 L753.271 1562.63 Z" fill="#000000" fill-rule="nonzero" fill-opacity="1"></path><path clip-path="url(#clip850)" d="M803.21 1520.52 L808.621 1520.52 L792.07 1574.09 L786.659 1574.09 L803.21 1520.52 Z" fill="#000000" fill-rule="nonzero" fill-opacity="1"></path><path clip-path="url(#clip850)" d="M830.901 1526.86 L817.851 1562.7 L843.982 1562.7 L830.901 1526.86 M809.13 1568.04 L827.272 1520.52 L834.561 1520.52 L852.672 1568.04 L809.13 1568.04 Z" fill="#000000" fill-rule="nonzero" fill-opacity="1"></path><path clip-path="url(#clip850)" d="M888.988 1532.4 L876.097 1549.74 L889.656 1568.04 L882.75 1568.04 L872.373 1554.04 L861.997 1568.04 L855.091 1568.04 L868.936 1549.39 L856.268 1532.4 L863.175 1532.4 L872.628 1545.1 L882.081 1532.4 L888.988 1532.4 Z" fill="#000000" fill-rule="nonzero" fill-opacity="1"></path><path clip-path="url(#clip850)" d="M897.009 1518.58 L902.101 1518.58 Q906.876 1526.09 909.231 1533.29 Q911.618 1540.48 911.618 1547.58 Q911.618 1554.71 909.231 1561.93 Q906.876 1569.16 902.101 1576.64 L897.009 1576.64 Q901.242 1569.35 903.311 1562.16 Q905.411 1554.93 905.411 1547.58 Q905.411 1540.23 903.311 1533.06 Q901.242 1525.9 897.009 1518.58 Z" fill="#000000" fill-rule="nonzero" fill-opacity="1"></path><polyline clip-path="url(#clip852)" style="stroke:#000000; stroke-linecap:round; stroke-linejoin:round; stroke-width:2; stroke-opacity:0.1; fill:none" points="287.366,1264.09 1167.84,1264.09 "></polyline>
<polyline clip-path="url(#clip852)" style="stroke:#000000; stroke-linecap:round; stroke-linejoin:round; stroke-width:2; stroke-opacity:0.1; fill:none" points="287.366,1088.81 1167.84,1088.81 "></polyline>
<polyline clip-path="url(#clip852)" style="stroke:#000000; stroke-linecap:round; stroke-linejoin:round; stroke-width:2; stroke-opacity:0.1; fill:none" points="287.366,913.524 1167.84,913.524 "></polyline>
<polyline clip-path="url(#clip852)" style="stroke:#000000; stroke-linecap:round; stroke-linejoin:round; stroke-width:2; stroke-opacity:0.1; fill:none" points="287.366,738.24 1167.84,738.24 "></polyline>
<polyline clip-path="url(#clip852)" style="stroke:#000000; stroke-linecap:round; stroke-linejoin:round; stroke-width:2; stroke-opacity:0.1; fill:none" points="287.366,562.955 1167.84,562.955 "></polyline>
<polyline clip-path="url(#clip852)" style="stroke:#000000; stroke-linecap:round; stroke-linejoin:round; stroke-width:2; stroke-opacity:0.1; fill:none" points="287.366,387.67 1167.84,387.67 "></polyline>
<polyline clip-path="url(#clip852)" style="stroke:#000000; stroke-linecap:round; stroke-linejoin:round; stroke-width:2; stroke-opacity:0.1; fill:none" points="287.366,212.386 1167.84,212.386 "></polyline>
<polyline clip-path="url(#clip850)" style="stroke:#000000; stroke-linecap:round; stroke-linejoin:round; stroke-width:4; stroke-opacity:1; fill:none" points="287.366,1423.18 287.366,47.2441 "></polyline>
<polyline clip-path="url(#clip850)" style="stroke:#000000; stroke-linecap:round; stroke-linejoin:round; stroke-width:4; stroke-opacity:1; fill:none" points="287.366,1264.09 306.264,1264.09 "></polyline>
<polyline clip-path="url(#clip850)" style="stroke:#000000; stroke-linecap:round; stroke-linejoin:round; stroke-width:4; stroke-opacity:1; fill:none" points="287.366,1088.81 306.264,1088.81 "></polyline>
<polyline clip-path="url(#clip850)" style="stroke:#000000; stroke-linecap:round; stroke-linejoin:round; stroke-width:4; stroke-opacity:1; fill:none" points="287.366,913.524 306.264,913.524 "></polyline>
<polyline clip-path="url(#clip850)" style="stroke:#000000; stroke-linecap:round; stroke-linejoin:round; stroke-width:4; stroke-opacity:1; fill:none" points="287.366,738.24 306.264,738.24 "></polyline>
<polyline clip-path="url(#clip850)" style="stroke:#000000; stroke-linecap:round; stroke-linejoin:round; stroke-width:4; stroke-opacity:1; fill:none" points="287.366,562.955 306.264,562.955 "></polyline>
<polyline clip-path="url(#clip850)" style="stroke:#000000; stroke-linecap:round; stroke-linejoin:round; stroke-width:4; stroke-opacity:1; fill:none" points="287.366,387.67 306.264,387.67 "></polyline>
<polyline clip-path="url(#clip850)" style="stroke:#000000; stroke-linecap:round; stroke-linejoin:round; stroke-width:4; stroke-opacity:1; fill:none" points="287.366,212.386 306.264,212.386 "></polyline>
<path clip-path="url(#clip850)" d="M115.256 1264.55 L144.931 1264.55 L144.931 1268.48 L115.256 1268.48 L115.256 1264.55 Z" fill="#000000" fill-rule="nonzero" fill-opacity="1"></path><path clip-path="url(#clip850)" d="M169.19 1262.74 Q172.547 1263.46 174.422 1265.73 Q176.32 1267.99 176.32 1271.33 Q176.32 1276.44 172.802 1279.24 Q169.283 1282.05 162.802 1282.05 Q160.626 1282.05 158.311 1281.61 Q156.019 1281.19 153.566 1280.33 L153.566 1275.82 Q155.51 1276.95 157.825 1277.53 Q160.14 1278.11 162.663 1278.11 Q167.061 1278.11 169.352 1276.37 Q171.667 1274.64 171.667 1271.33 Q171.667 1268.27 169.514 1266.56 Q167.385 1264.82 163.565 1264.82 L159.538 1264.82 L159.538 1260.98 L163.751 1260.98 Q167.2 1260.98 169.028 1259.61 Q170.857 1258.23 170.857 1255.63 Q170.857 1252.97 168.959 1251.56 Q167.084 1250.12 163.565 1250.12 Q161.644 1250.12 159.445 1250.54 Q157.246 1250.96 154.607 1251.84 L154.607 1247.67 Q157.269 1246.93 159.584 1246.56 Q161.922 1246.19 163.982 1246.19 Q169.306 1246.19 172.408 1248.62 Q175.51 1251.03 175.51 1255.15 Q175.51 1258.02 173.866 1260.01 Q172.223 1261.98 169.19 1262.74 Z" fill="#000000" fill-rule="nonzero" fill-opacity="1"></path><path clip-path="url(#clip850)" d="M185.186 1275.49 L190.07 1275.49 L190.07 1281.37 L185.186 1281.37 L185.186 1275.49 Z" fill="#000000" fill-rule="nonzero" fill-opacity="1"></path><path clip-path="url(#clip850)" d="M204.283 1277.44 L220.602 1277.44 L220.602 1281.37 L198.658 1281.37 L198.658 1277.44 Q201.32 1274.68 205.903 1270.05 Q210.51 1265.4 211.69 1264.06 Q213.936 1261.54 214.815 1259.8 Q215.718 1258.04 215.718 1256.35 Q215.718 1253.6 213.774 1251.86 Q211.852 1250.12 208.75 1250.12 Q206.551 1250.12 204.098 1250.89 Q201.667 1251.65 198.889 1253.2 L198.889 1248.48 Q201.713 1247.35 204.167 1246.77 Q206.621 1246.19 208.658 1246.19 Q214.028 1246.19 217.223 1248.87 Q220.417 1251.56 220.417 1256.05 Q220.417 1258.18 219.607 1260.1 Q218.82 1262 216.713 1264.59 Q216.135 1265.26 213.033 1268.48 Q209.931 1271.67 204.283 1277.44 Z" fill="#000000" fill-rule="nonzero" fill-opacity="1"></path><path clip-path="url(#clip850)" d="M230.463 1246.81 L248.82 1246.81 L248.82 1250.75 L234.746 1250.75 L234.746 1259.22 Q235.764 1258.87 236.783 1258.71 Q237.801 1258.53 238.82 1258.53 Q244.607 1258.53 247.986 1261.7 Q251.366 1264.87 251.366 1270.29 Q251.366 1275.86 247.894 1278.97 Q244.421 1282.05 238.102 1282.05 Q235.926 1282.05 233.658 1281.67 Q231.412 1281.3 229.005 1280.56 L229.005 1275.86 Q231.088 1277 233.31 1277.55 Q235.533 1278.11 238.009 1278.11 Q242.014 1278.11 244.352 1276 Q246.69 1273.9 246.69 1270.29 Q246.69 1266.67 244.352 1264.57 Q242.014 1262.46 238.009 1262.46 Q236.135 1262.46 234.26 1262.88 Q232.408 1263.3 230.463 1264.17 L230.463 1246.81 Z" fill="#000000" fill-rule="nonzero" fill-opacity="1"></path><path clip-path="url(#clip850)" d="M114.26 1089.26 L143.936 1089.26 L143.936 1093.2 L114.26 1093.2 L114.26 1089.26 Z" fill="#000000" fill-rule="nonzero" fill-opacity="1"></path><path clip-path="url(#clip850)" d="M168.195 1087.45 Q171.552 1088.17 173.427 1090.44 Q175.325 1092.71 175.325 1096.04 Q175.325 1101.16 171.806 1103.96 Q168.288 1106.76 161.806 1106.76 Q159.63 1106.76 157.315 1106.32 Q155.024 1105.9 152.57 1105.05 L152.57 1100.53 Q154.515 1101.67 156.829 1102.25 Q159.144 1102.83 161.667 1102.83 Q166.065 1102.83 168.357 1101.09 Q170.672 1099.35 170.672 1096.04 Q170.672 1092.99 168.519 1091.27 Q166.39 1089.54 162.57 1089.54 L158.542 1089.54 L158.542 1085.7 L162.755 1085.7 Q166.204 1085.7 168.033 1084.33 Q169.862 1082.94 169.862 1080.35 Q169.862 1077.69 167.964 1076.27 Q166.089 1074.84 162.57 1074.84 Q160.649 1074.84 158.45 1075.26 Q156.251 1075.67 153.612 1076.55 L153.612 1072.39 Q156.274 1071.64 158.589 1071.27 Q160.927 1070.9 162.987 1070.9 Q168.311 1070.9 171.413 1073.33 Q174.514 1075.74 174.514 1079.86 Q174.514 1082.73 172.871 1084.72 Q171.227 1086.69 168.195 1087.45 Z" fill="#000000" fill-rule="nonzero" fill-opacity="1"></path><path clip-path="url(#clip850)" d="M184.19 1100.21 L189.075 1100.21 L189.075 1106.09 L184.19 1106.09 L184.19 1100.21 Z" fill="#000000" fill-rule="nonzero" fill-opacity="1"></path><path clip-path="url(#clip850)" d="M209.26 1074.61 Q205.649 1074.61 203.82 1078.17 Q202.014 1081.71 202.014 1088.84 Q202.014 1095.95 203.82 1099.52 Q205.649 1103.06 209.26 1103.06 Q212.894 1103.06 214.699 1099.52 Q216.528 1095.95 216.528 1088.84 Q216.528 1081.71 214.699 1078.17 Q212.894 1074.61 209.26 1074.61 M209.26 1070.9 Q215.07 1070.9 218.125 1075.51 Q221.204 1080.09 221.204 1088.84 Q221.204 1097.57 218.125 1102.18 Q215.07 1106.76 209.26 1106.76 Q203.449 1106.76 200.371 1102.18 Q197.315 1097.57 197.315 1088.84 Q197.315 1080.09 200.371 1075.51 Q203.449 1070.9 209.26 1070.9 Z" fill="#000000" fill-rule="nonzero" fill-opacity="1"></path><path clip-path="url(#clip850)" d="M239.422 1074.61 Q235.81 1074.61 233.982 1078.17 Q232.176 1081.71 232.176 1088.84 Q232.176 1095.95 233.982 1099.52 Q235.81 1103.06 239.422 1103.06 Q243.056 1103.06 244.861 1099.52 Q246.69 1095.95 246.69 1088.84 Q246.69 1081.71 244.861 1078.17 Q243.056 1074.61 239.422 1074.61 M239.422 1070.9 Q245.232 1070.9 248.287 1075.51 Q251.366 1080.09 251.366 1088.84 Q251.366 1097.57 248.287 1102.18 Q245.232 1106.76 239.422 1106.76 Q233.611 1106.76 230.533 1102.18 Q227.477 1097.57 227.477 1088.84 Q227.477 1080.09 230.533 1075.51 Q233.611 1070.9 239.422 1070.9 Z" fill="#000000" fill-rule="nonzero" fill-opacity="1"></path><path clip-path="url(#clip850)" d="M115.256 913.976 L144.931 913.976 L144.931 917.911 L115.256 917.911 L115.256 913.976 Z" fill="#000000" fill-rule="nonzero" fill-opacity="1"></path><path clip-path="url(#clip850)" d="M159.052 926.869 L175.371 926.869 L175.371 930.804 L153.427 930.804 L153.427 926.869 Q156.089 924.115 160.672 919.485 Q165.278 914.832 166.459 913.49 Q168.704 910.967 169.584 909.23 Q170.487 907.471 170.487 905.781 Q170.487 903.027 168.542 901.291 Q166.621 899.555 163.519 899.555 Q161.32 899.555 158.866 900.318 Q156.436 901.082 153.658 902.633 L153.658 897.911 Q156.482 896.777 158.936 896.198 Q161.39 895.619 163.427 895.619 Q168.797 895.619 171.991 898.305 Q175.186 900.99 175.186 905.48 Q175.186 907.61 174.376 909.531 Q173.589 911.429 171.482 914.022 Q170.903 914.693 167.802 917.911 Q164.7 921.105 159.052 926.869 Z" fill="#000000" fill-rule="nonzero" fill-opacity="1"></path><path clip-path="url(#clip850)" d="M185.186 924.925 L190.07 924.925 L190.07 930.804 L185.186 930.804 L185.186 924.925 Z" fill="#000000" fill-rule="nonzero" fill-opacity="1"></path><path clip-path="url(#clip850)" d="M199.075 896.244 L221.297 896.244 L221.297 898.235 L208.75 930.804 L203.866 930.804 L215.672 900.18 L199.075 900.18 L199.075 896.244 Z" fill="#000000" fill-rule="nonzero" fill-opacity="1"></path><path clip-path="url(#clip850)" d="M230.463 896.244 L248.82 896.244 L248.82 900.18 L234.746 900.18 L234.746 908.652 Q235.764 908.305 236.783 908.142 Q237.801 907.957 238.82 907.957 Q244.607 907.957 247.986 911.129 Q251.366 914.3 251.366 919.716 Q251.366 925.295 247.894 928.397 Q244.421 931.476 238.102 931.476 Q235.926 931.476 233.658 931.105 Q231.412 930.735 229.005 929.994 L229.005 925.295 Q231.088 926.429 233.31 926.985 Q235.533 927.541 238.009 927.541 Q242.014 927.541 244.352 925.434 Q246.69 923.328 246.69 919.716 Q246.69 916.105 244.352 913.999 Q242.014 911.892 238.009 911.892 Q236.135 911.892 234.26 912.309 Q232.408 912.726 230.463 913.605 L230.463 896.244 Z" fill="#000000" fill-rule="nonzero" fill-opacity="1"></path><path clip-path="url(#clip850)" d="M114.26 738.691 L143.936 738.691 L143.936 742.626 L114.26 742.626 L114.26 738.691 Z" fill="#000000" fill-rule="nonzero" fill-opacity="1"></path><path clip-path="url(#clip850)" d="M158.056 751.585 L174.376 751.585 L174.376 755.52 L152.431 755.52 L152.431 751.585 Q155.093 748.83 159.677 744.2 Q164.283 739.548 165.464 738.205 Q167.709 735.682 168.589 733.946 Q169.491 732.186 169.491 730.497 Q169.491 727.742 167.547 726.006 Q165.626 724.27 162.524 724.27 Q160.325 724.27 157.871 725.034 Q155.44 725.798 152.663 727.349 L152.663 722.626 Q155.487 721.492 157.94 720.913 Q160.394 720.335 162.431 720.335 Q167.802 720.335 170.996 723.02 Q174.19 725.705 174.19 730.196 Q174.19 732.325 173.38 734.247 Q172.593 736.145 170.487 738.737 Q169.908 739.409 166.806 742.626 Q163.704 745.821 158.056 751.585 Z" fill="#000000" fill-rule="nonzero" fill-opacity="1"></path><path clip-path="url(#clip850)" d="M184.19 749.64 L189.075 749.64 L189.075 755.52 L184.19 755.52 L184.19 749.64 Z" fill="#000000" fill-rule="nonzero" fill-opacity="1"></path><path clip-path="url(#clip850)" d="M199.306 720.96 L217.662 720.96 L217.662 724.895 L203.588 724.895 L203.588 733.367 Q204.607 733.02 205.625 732.858 Q206.644 732.673 207.662 732.673 Q213.449 732.673 216.829 735.844 Q220.209 739.015 220.209 744.432 Q220.209 750.01 216.736 753.112 Q213.264 756.191 206.945 756.191 Q204.769 756.191 202.5 755.821 Q200.255 755.45 197.848 754.71 L197.848 750.01 Q199.931 751.145 202.153 751.7 Q204.375 752.256 206.852 752.256 Q210.857 752.256 213.195 750.149 Q215.533 748.043 215.533 744.432 Q215.533 740.821 213.195 738.714 Q210.857 736.608 206.852 736.608 Q204.977 736.608 203.102 737.024 Q201.25 737.441 199.306 738.321 L199.306 720.96 Z" fill="#000000" fill-rule="nonzero" fill-opacity="1"></path><path clip-path="url(#clip850)" d="M239.422 724.038 Q235.81 724.038 233.982 727.603 Q232.176 731.145 232.176 738.274 Q232.176 745.381 233.982 748.946 Q235.81 752.487 239.422 752.487 Q243.056 752.487 244.861 748.946 Q246.69 745.381 246.69 738.274 Q246.69 731.145 244.861 727.603 Q243.056 724.038 239.422 724.038 M239.422 720.335 Q245.232 720.335 248.287 724.941 Q251.366 729.524 251.366 738.274 Q251.366 747.001 248.287 751.608 Q245.232 756.191 239.422 756.191 Q233.611 756.191 230.533 751.608 Q227.477 747.001 227.477 738.274 Q227.477 729.524 230.533 724.941 Q233.611 720.335 239.422 720.335 Z" fill="#000000" fill-rule="nonzero" fill-opacity="1"></path><path clip-path="url(#clip850)" d="M115.256 563.406 L144.931 563.406 L144.931 567.342 L115.256 567.342 L115.256 563.406 Z" fill="#000000" fill-rule="nonzero" fill-opacity="1"></path><path clip-path="url(#clip850)" d="M159.052 576.3 L175.371 576.3 L175.371 580.235 L153.427 580.235 L153.427 576.3 Q156.089 573.545 160.672 568.916 Q165.278 564.263 166.459 562.92 Q168.704 560.397 169.584 558.661 Q170.487 556.902 170.487 555.212 Q170.487 552.457 168.542 550.721 Q166.621 548.985 163.519 548.985 Q161.32 548.985 158.866 549.749 Q156.436 550.513 153.658 552.064 L153.658 547.342 Q156.482 546.207 158.936 545.629 Q161.39 545.05 163.427 545.05 Q168.797 545.05 171.991 547.735 Q175.186 550.42 175.186 554.911 Q175.186 557.041 174.376 558.962 Q173.589 560.86 171.482 563.453 Q170.903 564.124 167.802 567.342 Q164.7 570.536 159.052 576.3 Z" fill="#000000" fill-rule="nonzero" fill-opacity="1"></path><path clip-path="url(#clip850)" d="M185.186 574.355 L190.07 574.355 L190.07 580.235 L185.186 580.235 L185.186 574.355 Z" fill="#000000" fill-rule="nonzero" fill-opacity="1"></path><path clip-path="url(#clip850)" d="M204.283 576.3 L220.602 576.3 L220.602 580.235 L198.658 580.235 L198.658 576.3 Q201.32 573.545 205.903 568.916 Q210.51 564.263 211.69 562.92 Q213.936 560.397 214.815 558.661 Q215.718 556.902 215.718 555.212 Q215.718 552.457 213.774 550.721 Q211.852 548.985 208.75 548.985 Q206.551 548.985 204.098 549.749 Q201.667 550.513 198.889 552.064 L198.889 547.342 Q201.713 546.207 204.167 545.629 Q206.621 545.05 208.658 545.05 Q214.028 545.05 217.223 547.735 Q220.417 550.42 220.417 554.911 Q220.417 557.041 219.607 558.962 Q218.82 560.86 216.713 563.453 Q216.135 564.124 213.033 567.342 Q209.931 570.536 204.283 576.3 Z" fill="#000000" fill-rule="nonzero" fill-opacity="1"></path><path clip-path="url(#clip850)" d="M230.463 545.675 L248.82 545.675 L248.82 549.61 L234.746 549.61 L234.746 558.082 Q235.764 557.735 236.783 557.573 Q237.801 557.388 238.82 557.388 Q244.607 557.388 247.986 560.559 Q251.366 563.73 251.366 569.147 Q251.366 574.726 247.894 577.828 Q244.421 580.906 238.102 580.906 Q235.926 580.906 233.658 580.536 Q231.412 580.166 229.005 579.425 L229.005 574.726 Q231.088 575.86 233.31 576.416 Q235.533 576.971 238.009 576.971 Q242.014 576.971 244.352 574.865 Q246.69 572.758 246.69 569.147 Q246.69 565.536 244.352 563.43 Q242.014 561.323 238.009 561.323 Q236.135 561.323 234.26 561.74 Q232.408 562.156 230.463 563.036 L230.463 545.675 Z" fill="#000000" fill-rule="nonzero" fill-opacity="1"></path><path clip-path="url(#clip850)" d="M114.26 388.122 L143.936 388.122 L143.936 392.057 L114.26 392.057 L114.26 388.122 Z" fill="#000000" fill-rule="nonzero" fill-opacity="1"></path><path clip-path="url(#clip850)" d="M158.056 401.015 L174.376 401.015 L174.376 404.95 L152.431 404.95 L152.431 401.015 Q155.093 398.261 159.677 393.631 Q164.283 388.978 165.464 387.636 Q167.709 385.112 168.589 383.376 Q169.491 381.617 169.491 379.927 Q169.491 377.173 167.547 375.437 Q165.626 373.7 162.524 373.7 Q160.325 373.7 157.871 374.464 Q155.44 375.228 152.663 376.779 L152.663 372.057 Q155.487 370.923 157.94 370.344 Q160.394 369.765 162.431 369.765 Q167.802 369.765 170.996 372.45 Q174.19 375.136 174.19 379.626 Q174.19 381.756 173.38 383.677 Q172.593 385.575 170.487 388.168 Q169.908 388.839 166.806 392.057 Q163.704 395.251 158.056 401.015 Z" fill="#000000" fill-rule="nonzero" fill-opacity="1"></path><path clip-path="url(#clip850)" d="M184.19 399.071 L189.075 399.071 L189.075 404.95 L184.19 404.95 L184.19 399.071 Z" fill="#000000" fill-rule="nonzero" fill-opacity="1"></path><path clip-path="url(#clip850)" d="M209.26 373.469 Q205.649 373.469 203.82 377.034 Q202.014 380.575 202.014 387.705 Q202.014 394.811 203.82 398.376 Q205.649 401.918 209.26 401.918 Q212.894 401.918 214.699 398.376 Q216.528 394.811 216.528 387.705 Q216.528 380.575 214.699 377.034 Q212.894 373.469 209.26 373.469 M209.26 369.765 Q215.07 369.765 218.125 374.372 Q221.204 378.955 221.204 387.705 Q221.204 396.432 218.125 401.038 Q215.07 405.622 209.26 405.622 Q203.449 405.622 200.371 401.038 Q197.315 396.432 197.315 387.705 Q197.315 378.955 200.371 374.372 Q203.449 369.765 209.26 369.765 Z" fill="#000000" fill-rule="nonzero" fill-opacity="1"></path><path clip-path="url(#clip850)" d="M239.422 373.469 Q235.81 373.469 233.982 377.034 Q232.176 380.575 232.176 387.705 Q232.176 394.811 233.982 398.376 Q235.81 401.918 239.422 401.918 Q243.056 401.918 244.861 398.376 Q246.69 394.811 246.69 387.705 Q246.69 380.575 244.861 377.034 Q243.056 373.469 239.422 373.469 M239.422 369.765 Q245.232 369.765 248.287 374.372 Q251.366 378.955 251.366 387.705 Q251.366 396.432 248.287 401.038 Q245.232 405.622 239.422 405.622 Q233.611 405.622 230.533 401.038 Q227.477 396.432 227.477 387.705 Q227.477 378.955 230.533 374.372 Q233.611 369.765 239.422 369.765 Z" fill="#000000" fill-rule="nonzero" fill-opacity="1"></path><path clip-path="url(#clip850)" d="M115.256 212.837 L144.931 212.837 L144.931 216.772 L115.256 216.772 L115.256 212.837 Z" fill="#000000" fill-rule="nonzero" fill-opacity="1"></path><path clip-path="url(#clip850)" d="M155.834 225.73 L163.473 225.73 L163.473 199.365 L155.163 201.031 L155.163 196.772 L163.427 195.106 L168.102 195.106 L168.102 225.73 L175.741 225.73 L175.741 229.666 L155.834 229.666 L155.834 225.73 Z" fill="#000000" fill-rule="nonzero" fill-opacity="1"></path><path clip-path="url(#clip850)" d="M185.186 223.786 L190.07 223.786 L190.07 229.666 L185.186 229.666 L185.186 223.786 Z" fill="#000000" fill-rule="nonzero" fill-opacity="1"></path><path clip-path="url(#clip850)" d="M199.075 195.106 L221.297 195.106 L221.297 197.096 L208.75 229.666 L203.866 229.666 L215.672 199.041 L199.075 199.041 L199.075 195.106 Z" fill="#000000" fill-rule="nonzero" fill-opacity="1"></path><path clip-path="url(#clip850)" d="M230.463 195.106 L248.82 195.106 L248.82 199.041 L234.746 199.041 L234.746 207.513 Q235.764 207.166 236.783 207.004 Q237.801 206.818 238.82 206.818 Q244.607 206.818 247.986 209.99 Q251.366 213.161 251.366 218.578 Q251.366 224.156 247.894 227.258 Q244.421 230.337 238.102 230.337 Q235.926 230.337 233.658 229.967 Q231.412 229.596 229.005 228.855 L229.005 224.156 Q231.088 225.291 233.31 225.846 Q235.533 226.402 238.009 226.402 Q242.014 226.402 244.352 224.295 Q246.69 222.189 246.69 218.578 Q246.69 214.967 244.352 212.86 Q242.014 210.754 238.009 210.754 Q236.135 210.754 234.26 211.17 Q232.408 211.587 230.463 212.467 L230.463 195.106 Z" fill="#000000" fill-rule="nonzero" fill-opacity="1"></path><path clip-path="url(#clip850)" d="M14.479 885.268 L14.479 879.411 L64.0042 879.411 L64.0042 885.268 L14.479 885.268 Z" fill="#000000" fill-rule="nonzero" fill-opacity="1"></path><path clip-path="url(#clip850)" d="M32.4621 853.344 Q32.4621 858.054 36.1542 860.791 Q39.8145 863.529 46.212 863.529 Q52.6095 863.529 56.3017 860.823 Q59.9619 858.086 59.9619 853.344 Q59.9619 848.665 56.2698 845.928 Q52.5777 843.19 46.212 843.19 Q39.8781 843.19 36.186 845.928 Q32.4621 848.665 32.4621 853.344 M27.4968 853.344 Q27.4968 845.705 32.4621 841.344 Q37.4273 836.984 46.212 836.984 Q54.9649 836.984 59.9619 841.344 Q64.9272 845.705 64.9272 853.344 Q64.9272 861.014 59.9619 865.375 Q54.9649 869.703 46.212 869.703 Q37.4273 869.703 32.4621 865.375 Q27.4968 861.014 27.4968 853.344 Z" fill="#000000" fill-rule="nonzero" fill-opacity="1"></path><path clip-path="url(#clip850)" d="M45.7664 803.818 Q39.4007 803.818 35.8996 806.46 Q32.3984 809.07 32.3984 813.813 Q32.3984 818.523 35.8996 821.165 Q39.4007 823.775 45.7664 823.775 Q52.1003 823.775 55.6014 821.165 Q59.1026 818.523 59.1026 813.813 Q59.1026 809.07 55.6014 806.46 Q52.1003 803.818 45.7664 803.818 M59.58 797.962 Q68.683 797.962 73.1071 802.004 Q77.5631 806.046 77.5631 814.385 Q77.5631 817.473 77.0857 820.21 Q76.6401 822.947 75.6852 825.525 L69.9879 825.525 Q71.3884 822.947 72.0568 820.433 Q72.7252 817.918 72.7252 815.308 Q72.7252 809.548 69.7015 806.683 Q66.7096 803.818 60.6303 803.818 L57.7339 803.818 Q60.885 805.633 62.4446 808.465 Q64.0042 811.298 64.0042 815.245 Q64.0042 821.801 59.0071 825.812 Q54.01 829.822 45.7664 829.822 Q37.491 829.822 32.4939 825.812 Q27.4968 821.801 27.4968 815.245 Q27.4968 811.298 29.0564 808.465 Q30.616 805.633 33.7671 803.818 L28.3562 803.818 L28.3562 797.962 L59.58 797.962 Z" fill="#000000" fill-rule="nonzero" fill-opacity="1"></path><path clip-path="url(#clip850)" d="M58.5933 783.957 L58.5933 773.454 L22.3406 773.454 L24.6323 784.88 L18.7758 784.88 L16.4842 773.518 L16.4842 767.088 L58.5933 767.088 L58.5933 756.585 L64.0042 756.585 L64.0042 783.957 L58.5933 783.957 Z" fill="#000000" fill-rule="nonzero" fill-opacity="1"></path><path clip-path="url(#clip850)" d="M20.7174 729.849 Q20.7174 734.814 25.6189 737.329 Q30.4887 739.811 40.2919 739.811 Q50.0633 739.811 54.9649 737.329 Q59.8346 734.814 59.8346 729.849 Q59.8346 724.852 54.9649 722.369 Q50.0633 719.855 40.2919 719.855 Q30.4887 719.855 25.6189 722.369 Q20.7174 724.852 20.7174 729.849 M15.6248 729.849 Q15.6248 721.86 21.9587 717.659 Q28.2607 713.425 40.2919 713.425 Q52.2913 713.425 58.6251 717.659 Q64.9272 721.86 64.9272 729.849 Q64.9272 737.838 58.6251 742.071 Q52.2913 746.272 40.2919 746.272 Q28.2607 746.272 21.9587 742.071 Q15.6248 737.838 15.6248 729.849 Z" fill="#000000" fill-rule="nonzero" fill-opacity="1"></path><path clip-path="url(#clip850)" d="M14.5426 688.886 Q21.8632 693.151 29.0246 695.219 Q36.186 697.288 43.5384 697.288 Q50.8908 697.288 58.1159 695.219 Q65.3091 693.119 72.5979 688.886 L72.5979 693.978 Q65.1182 698.752 57.8931 701.14 Q50.668 703.495 43.5384 703.495 Q36.4406 703.495 29.2474 701.14 Q22.0542 698.784 14.5426 693.978 L14.5426 688.886 Z" fill="#000000" fill-rule="nonzero" fill-opacity="1"></path><path clip-path="url(#clip850)" d="M34.0217 652.346 Q33.6079 653.524 33.2896 654.702 Q32.4621 657.853 32.4621 661.227 Q32.4621 667.051 35.6131 670.298 Q38.5413 673.321 43.9204 673.894 L43.9204 652.346 L48.5037 652.346 L48.5037 673.894 Q53.8827 673.321 56.8109 670.298 Q59.9619 667.051 59.9619 661.227 Q59.9619 657.152 59.1344 654.702 L58.3387 652.346 L63.654 652.346 L64.227 654.861 Q64.9272 658.171 64.9272 661.577 Q64.9272 670.107 59.9619 675.072 Q54.9967 680.069 46.212 680.069 Q37.4273 680.069 32.4621 675.072 Q27.4968 670.107 27.4968 661.577 Q27.4968 658.362 28.1971 654.861 Q28.4517 653.588 28.8336 652.346 L34.0217 652.346 Z" fill="#000000" fill-rule="nonzero" fill-opacity="1"></path><path clip-path="url(#clip850)" d="M28.3562 607.786 L45.7028 620.677 L64.0042 607.118 L64.0042 614.025 L49.9996 624.401 L64.0042 634.777 L64.0042 641.684 L45.3526 627.838 L28.3562 640.506 L28.3562 633.599 L41.0558 624.146 L28.3562 614.693 L28.3562 607.786 Z" fill="#000000" fill-rule="nonzero" fill-opacity="1"></path><path clip-path="url(#clip850)" d="M14.5426 599.766 L14.5426 594.673 Q22.0542 589.899 29.2474 587.543 Q36.4406 585.156 43.5384 585.156 Q50.668 585.156 57.8931 587.543 Q65.1182 589.899 72.5979 594.673 L72.5979 599.766 Q65.3091 595.532 58.1159 593.464 Q50.8908 591.363 43.5384 591.363 Q36.186 591.363 29.0246 593.464 Q21.8632 595.532 14.5426 599.766 Z" fill="#000000" fill-rule="nonzero" fill-opacity="1"></path><circle clip-path="url(#clip852)" cx="312.285" cy="86.1857" r="14.4" fill="#009af9" fill-rule="evenodd" fill-opacity="1" stroke="#000000" stroke-opacity="1" stroke-width="3.2"></circle>
<circle clip-path="url(#clip852)" cx="589.163" cy="528.375" r="14.4" fill="#009af9" fill-rule="evenodd" fill-opacity="1" stroke="#000000" stroke-opacity="1" stroke-width="3.2"></circle>
<circle clip-path="url(#clip852)" cx="866.04" cy="966.477" r="14.4" fill="#009af9" fill-rule="evenodd" fill-opacity="1" stroke="#000000" stroke-opacity="1" stroke-width="3.2"></circle>
<circle clip-path="url(#clip852)" cx="1142.92" cy="1384.24" r="14.4" fill="#009af9" fill-rule="evenodd" fill-opacity="1" stroke="#000000" stroke-opacity="1" stroke-width="3.2"></circle>
<polyline clip-path="url(#clip852)" style="stroke:#e26f46; stroke-linecap:round; stroke-linejoin:round; stroke-width:4; stroke-opacity:1; fill:none" points="312.285,86.1857 589.163,297.249 866.04,508.313 1142.92,719.377 "></polyline>
<polyline clip-path="url(#clip852)" style="stroke:#3da44d; stroke-linecap:round; stroke-linejoin:round; stroke-width:4; stroke-opacity:1; fill:none" points="312.285,86.1857 589.163,508.313 866.04,930.441 1142.92,1352.57 "></polyline>
<path clip-path="url(#clip850)" d="M990.001 300.469 L1138.49 300.469 L1138.49 93.1086 L990.001 93.1086  Z" fill="#ffffff" fill-rule="evenodd" fill-opacity="1"></path>
<polyline clip-path="url(#clip850)" style="stroke:#000000; stroke-linecap:round; stroke-linejoin:round; stroke-width:4; stroke-opacity:1; fill:none" points="990.001,300.469 1138.49,300.469 1138.49,93.1086 990.001,93.1086 990.001,300.469 "></polyline>
<circle clip-path="url(#clip850)" cx="1029.13" cy="144.949" r="20.48" fill="#009af9" fill-rule="evenodd" fill-opacity="1" stroke="#000000" stroke-opacity="1" stroke-width="4.55111"></circle>
<path clip-path="url(#clip850)" d="M1088.43 140.423 Q1087.57 140.122 1086.71 139.891 Q1084.42 139.289 1081.97 139.289 Q1077.73 139.289 1075.37 141.581 Q1073.17 143.71 1072.76 147.622 L1088.43 147.622 L1088.43 150.956 L1072.76 150.956 Q1073.17 154.868 1075.37 156.997 Q1077.73 159.289 1081.97 159.289 Q1084.93 159.289 1086.71 158.687 L1088.43 158.108 L1088.43 161.974 L1086.6 162.391 Q1084.19 162.9 1081.71 162.9 Q1075.51 162.9 1071.9 159.289 Q1068.27 155.678 1068.27 149.289 Q1068.27 142.9 1071.9 139.289 Q1075.51 135.678 1081.71 135.678 Q1084.05 135.678 1086.6 136.187 Q1087.52 136.372 1088.43 136.65 L1088.43 140.423 Z" fill="#000000" fill-rule="nonzero" fill-opacity="1"></path><polyline clip-path="url(#clip850)" style="stroke:#e26f46; stroke-linecap:round; stroke-linejoin:round; stroke-width:4; stroke-opacity:1; fill:none" points="999.784,196.789 1058.48,196.789 "></polyline>
<path clip-path="url(#clip850)" d="M1084.28 182.68 Q1079.19 182.68 1076.18 186.476 Q1073.2 190.272 1073.2 196.823 Q1073.2 203.351 1076.18 207.147 Q1079.19 210.944 1084.28 210.944 Q1089.38 210.944 1092.34 207.147 Q1095.33 203.351 1095.33 196.823 Q1095.33 190.272 1092.34 186.476 Q1089.38 182.68 1084.28 182.68 M1084.28 178.884 Q1091.55 178.884 1095.9 183.768 Q1100.26 188.629 1100.26 196.823 Q1100.26 204.995 1095.9 209.879 Q1091.55 214.74 1084.28 214.74 Q1076.99 214.74 1072.62 209.879 Q1068.27 205.018 1068.27 196.823 Q1068.27 188.629 1072.62 183.768 Q1076.99 178.884 1084.28 178.884 Z" fill="#000000" fill-rule="nonzero" fill-opacity="1"></path><path clip-path="url(#clip850)" d="M1108.8 210.133 L1116.44 210.133 L1116.44 183.768 L1108.13 185.435 L1108.13 181.175 L1116.39 179.509 L1121.07 179.509 L1121.07 210.133 L1128.7 210.133 L1128.7 214.069 L1108.8 214.069 L1108.8 210.133 Z" fill="#000000" fill-rule="nonzero" fill-opacity="1"></path><polyline clip-path="url(#clip850)" style="stroke:#3da44d; stroke-linecap:round; stroke-linejoin:round; stroke-width:4; stroke-opacity:1; fill:none" points="999.784,248.629 1058.48,248.629 "></polyline>
<path clip-path="url(#clip850)" d="M1084.28 234.52 Q1079.19 234.52 1076.18 238.316 Q1073.2 242.112 1073.2 248.663 Q1073.2 255.191 1076.18 258.987 Q1079.19 262.784 1084.28 262.784 Q1089.38 262.784 1092.34 258.987 Q1095.33 255.191 1095.33 248.663 Q1095.33 242.112 1092.34 238.316 Q1089.38 234.52 1084.28 234.52 M1084.28 230.724 Q1091.55 230.724 1095.9 235.608 Q1100.26 240.469 1100.26 248.663 Q1100.26 256.835 1095.9 261.719 Q1091.55 266.58 1084.28 266.58 Q1076.99 266.58 1072.62 261.719 Q1068.27 256.858 1068.27 248.663 Q1068.27 240.469 1072.62 235.608 Q1076.99 230.724 1084.28 230.724 Z" fill="#000000" fill-rule="nonzero" fill-opacity="1"></path><path clip-path="url(#clip850)" d="M1112.02 261.973 L1128.33 261.973 L1128.33 265.909 L1106.39 265.909 L1106.39 261.973 Q1109.05 259.219 1113.64 254.589 Q1118.24 249.936 1119.42 248.594 Q1121.67 246.071 1122.55 244.335 Q1123.45 242.575 1123.45 240.886 Q1123.45 238.131 1121.51 236.395 Q1119.58 234.659 1116.48 234.659 Q1114.28 234.659 1111.83 235.423 Q1109.4 236.187 1106.62 237.737 L1106.62 233.015 Q1109.45 231.881 1111.9 231.302 Q1114.35 230.724 1116.39 230.724 Q1121.76 230.724 1124.95 233.409 Q1128.15 236.094 1128.15 240.585 Q1128.15 242.714 1127.34 244.636 Q1126.55 246.534 1124.45 249.126 Q1123.87 249.798 1120.77 253.015 Q1117.66 256.21 1112.02 261.973 Z" fill="#000000" fill-rule="nonzero" fill-opacity="1"></path><path clip-path="url(#clip850)" d="M1472.28 1423.18 L2352.76 1423.18 L2352.76 47.2441 L1472.28 47.2441  Z" fill="#ffffff" fill-rule="evenodd" fill-opacity="1"></path>
<defs>
  <clipPath id="clip853">
    <rect x="1472" y="47" width="881" height="1377"></rect>
  </clipPath>
</defs>
<polyline clip-path="url(#clip853)" style="stroke:#000000; stroke-linecap:round; stroke-linejoin:round; stroke-width:2; stroke-opacity:0.1; fill:none" points="1588.23,1423.18 1588.23,47.2441 "></polyline>
<polyline clip-path="url(#clip853)" style="stroke:#000000; stroke-linecap:round; stroke-linejoin:round; stroke-width:2; stroke-opacity:0.1; fill:none" points="1772.19,1423.18 1772.19,47.2441 "></polyline>
<polyline clip-path="url(#clip853)" style="stroke:#000000; stroke-linecap:round; stroke-linejoin:round; stroke-width:2; stroke-opacity:0.1; fill:none" points="1956.14,1423.18 1956.14,47.2441 "></polyline>
<polyline clip-path="url(#clip853)" style="stroke:#000000; stroke-linecap:round; stroke-linejoin:round; stroke-width:2; stroke-opacity:0.1; fill:none" points="2140.09,1423.18 2140.09,47.2441 "></polyline>
<polyline clip-path="url(#clip853)" style="stroke:#000000; stroke-linecap:round; stroke-linejoin:round; stroke-width:2; stroke-opacity:0.1; fill:none" points="2324.05,1423.18 2324.05,47.2441 "></polyline>
<polyline clip-path="url(#clip850)" style="stroke:#000000; stroke-linecap:round; stroke-linejoin:round; stroke-width:4; stroke-opacity:1; fill:none" points="1472.28,1423.18 2352.76,1423.18 "></polyline>
<polyline clip-path="url(#clip850)" style="stroke:#000000; stroke-linecap:round; stroke-linejoin:round; stroke-width:4; stroke-opacity:1; fill:none" points="1588.23,1423.18 1588.23,1404.28 "></polyline>
<polyline clip-path="url(#clip850)" style="stroke:#000000; stroke-linecap:round; stroke-linejoin:round; stroke-width:4; stroke-opacity:1; fill:none" points="1772.19,1423.18 1772.19,1404.28 "></polyline>
<polyline clip-path="url(#clip850)" style="stroke:#000000; stroke-linecap:round; stroke-linejoin:round; stroke-width:4; stroke-opacity:1; fill:none" points="1956.14,1423.18 1956.14,1404.28 "></polyline>
<polyline clip-path="url(#clip850)" style="stroke:#000000; stroke-linecap:round; stroke-linejoin:round; stroke-width:4; stroke-opacity:1; fill:none" points="2140.09,1423.18 2140.09,1404.28 "></polyline>
<polyline clip-path="url(#clip850)" style="stroke:#000000; stroke-linecap:round; stroke-linejoin:round; stroke-width:4; stroke-opacity:1; fill:none" points="2324.05,1423.18 2324.05,1404.28 "></polyline>
<path clip-path="url(#clip850)" d="M1569.3 1466.95 Q1572.65 1467.66 1574.53 1469.93 Q1576.43 1472.2 1576.43 1475.53 Q1576.43 1480.65 1572.91 1483.45 Q1569.39 1486.25 1562.91 1486.25 Q1560.73 1486.25 1558.42 1485.81 Q1556.13 1485.39 1553.67 1484.54 L1553.67 1480.02 Q1555.62 1481.16 1557.93 1481.74 Q1560.25 1482.32 1562.77 1482.32 Q1567.17 1482.32 1569.46 1480.58 Q1571.78 1478.84 1571.78 1475.53 Q1571.78 1472.48 1569.62 1470.77 Q1567.49 1469.03 1563.67 1469.03 L1559.65 1469.03 L1559.65 1465.19 L1563.86 1465.19 Q1567.31 1465.19 1569.14 1463.82 Q1570.96 1462.43 1570.96 1459.84 Q1570.96 1457.18 1569.07 1455.77 Q1567.19 1454.33 1563.67 1454.33 Q1561.75 1454.33 1559.55 1454.75 Q1557.35 1455.16 1554.72 1456.04 L1554.72 1451.88 Q1557.38 1451.14 1559.69 1450.77 Q1562.03 1450.39 1564.09 1450.39 Q1569.41 1450.39 1572.52 1452.83 Q1575.62 1455.23 1575.62 1459.35 Q1575.62 1462.22 1573.97 1464.21 Q1572.33 1466.18 1569.3 1466.95 Z" fill="#000000" fill-rule="nonzero" fill-opacity="1"></path><path clip-path="url(#clip850)" d="M1585.29 1479.7 L1590.18 1479.7 L1590.18 1485.58 L1585.29 1485.58 L1585.29 1479.7 Z" fill="#000000" fill-rule="nonzero" fill-opacity="1"></path><path clip-path="url(#clip850)" d="M1613.21 1455.09 L1601.4 1473.54 L1613.21 1473.54 L1613.21 1455.09 M1611.98 1451.02 L1617.86 1451.02 L1617.86 1473.54 L1622.79 1473.54 L1622.79 1477.43 L1617.86 1477.43 L1617.86 1485.58 L1613.21 1485.58 L1613.21 1477.43 L1597.61 1477.43 L1597.61 1472.92 L1611.98 1451.02 Z" fill="#000000" fill-rule="nonzero" fill-opacity="1"></path><path clip-path="url(#clip850)" d="M1753.41 1466.95 Q1756.77 1467.66 1758.65 1469.93 Q1760.54 1472.2 1760.54 1475.53 Q1760.54 1480.65 1757.02 1483.45 Q1753.51 1486.25 1747.02 1486.25 Q1744.85 1486.25 1742.53 1485.81 Q1740.24 1485.39 1737.79 1484.54 L1737.79 1480.02 Q1739.73 1481.16 1742.05 1481.74 Q1744.36 1482.32 1746.89 1482.32 Q1751.28 1482.32 1753.58 1480.58 Q1755.89 1478.84 1755.89 1475.53 Q1755.89 1472.48 1753.74 1470.77 Q1751.61 1469.03 1747.79 1469.03 L1743.76 1469.03 L1743.76 1465.19 L1747.97 1465.19 Q1751.42 1465.19 1753.25 1463.82 Q1755.08 1462.43 1755.08 1459.84 Q1755.08 1457.18 1753.18 1455.77 Q1751.31 1454.33 1747.79 1454.33 Q1745.87 1454.33 1743.67 1454.75 Q1741.47 1455.16 1738.83 1456.04 L1738.83 1451.88 Q1741.49 1451.14 1743.81 1450.77 Q1746.15 1450.39 1748.21 1450.39 Q1753.53 1450.39 1756.63 1452.83 Q1759.73 1455.23 1759.73 1459.35 Q1759.73 1462.22 1758.09 1464.21 Q1756.45 1466.18 1753.41 1466.95 Z" fill="#000000" fill-rule="nonzero" fill-opacity="1"></path><path clip-path="url(#clip850)" d="M1769.41 1479.7 L1774.29 1479.7 L1774.29 1485.58 L1769.41 1485.58 L1769.41 1479.7 Z" fill="#000000" fill-rule="nonzero" fill-opacity="1"></path><path clip-path="url(#clip850)" d="M1795.06 1466.44 Q1791.91 1466.44 1790.06 1468.59 Q1788.23 1470.74 1788.23 1474.49 Q1788.23 1478.22 1790.06 1480.39 Q1791.91 1482.55 1795.06 1482.55 Q1798.21 1482.55 1800.03 1480.39 Q1801.89 1478.22 1801.89 1474.49 Q1801.89 1470.74 1800.03 1468.59 Q1798.21 1466.44 1795.06 1466.44 M1804.34 1451.78 L1804.34 1456.04 Q1802.58 1455.21 1800.77 1454.77 Q1798.99 1454.33 1797.23 1454.33 Q1792.6 1454.33 1790.15 1457.45 Q1787.72 1460.58 1787.37 1466.9 Q1788.74 1464.89 1790.8 1463.82 Q1792.86 1462.73 1795.33 1462.73 Q1800.54 1462.73 1803.55 1465.9 Q1806.58 1469.05 1806.58 1474.49 Q1806.58 1479.82 1803.44 1483.03 Q1800.29 1486.25 1795.06 1486.25 Q1789.06 1486.25 1785.89 1481.67 Q1782.72 1477.06 1782.72 1468.33 Q1782.72 1460.14 1786.61 1455.28 Q1790.5 1450.39 1797.05 1450.39 Q1798.81 1450.39 1800.59 1450.74 Q1802.4 1451.09 1804.34 1451.78 Z" fill="#000000" fill-rule="nonzero" fill-opacity="1"></path><path clip-path="url(#clip850)" d="M1937.49 1466.95 Q1940.85 1467.66 1942.73 1469.93 Q1944.62 1472.2 1944.62 1475.53 Q1944.62 1480.65 1941.11 1483.45 Q1937.59 1486.25 1931.11 1486.25 Q1928.93 1486.25 1926.62 1485.81 Q1924.32 1485.39 1921.87 1484.54 L1921.87 1480.02 Q1923.81 1481.16 1926.13 1481.74 Q1928.44 1482.32 1930.97 1482.32 Q1935.37 1482.32 1937.66 1480.58 Q1939.97 1478.84 1939.97 1475.53 Q1939.97 1472.48 1937.82 1470.77 Q1935.69 1469.03 1931.87 1469.03 L1927.84 1469.03 L1927.84 1465.19 L1932.05 1465.19 Q1935.5 1465.19 1937.33 1463.82 Q1939.16 1462.43 1939.16 1459.84 Q1939.16 1457.18 1937.26 1455.77 Q1935.39 1454.33 1931.87 1454.33 Q1929.95 1454.33 1927.75 1454.75 Q1925.55 1455.16 1922.91 1456.04 L1922.91 1451.88 Q1925.57 1451.14 1927.89 1450.77 Q1930.23 1450.39 1932.29 1450.39 Q1937.61 1450.39 1940.71 1452.83 Q1943.81 1455.23 1943.81 1459.35 Q1943.81 1462.22 1942.17 1464.21 Q1940.53 1466.18 1937.49 1466.95 Z" fill="#000000" fill-rule="nonzero" fill-opacity="1"></path><path clip-path="url(#clip850)" d="M1953.49 1479.7 L1958.37 1479.7 L1958.37 1485.58 L1953.49 1485.58 L1953.49 1479.7 Z" fill="#000000" fill-rule="nonzero" fill-opacity="1"></path><path clip-path="url(#clip850)" d="M1978.56 1469.17 Q1975.23 1469.17 1973.3 1470.95 Q1971.41 1472.73 1971.41 1475.86 Q1971.41 1478.98 1973.3 1480.77 Q1975.23 1482.55 1978.56 1482.55 Q1981.89 1482.55 1983.81 1480.77 Q1985.74 1478.96 1985.74 1475.86 Q1985.74 1472.73 1983.81 1470.95 Q1981.92 1469.17 1978.56 1469.17 M1973.88 1467.18 Q1970.87 1466.44 1969.18 1464.38 Q1967.52 1462.32 1967.52 1459.35 Q1967.52 1455.21 1970.46 1452.8 Q1973.42 1450.39 1978.56 1450.39 Q1983.72 1450.39 1986.66 1452.8 Q1989.6 1455.21 1989.6 1459.35 Q1989.6 1462.32 1987.91 1464.38 Q1986.24 1466.44 1983.26 1467.18 Q1986.64 1467.96 1988.51 1470.26 Q1990.41 1472.55 1990.41 1475.86 Q1990.41 1480.88 1987.33 1483.57 Q1984.28 1486.25 1978.56 1486.25 Q1972.84 1486.25 1969.76 1483.57 Q1966.71 1480.88 1966.71 1475.86 Q1966.71 1472.55 1968.61 1470.26 Q1970.5 1467.96 1973.88 1467.18 M1972.17 1459.79 Q1972.17 1462.48 1973.84 1463.98 Q1975.53 1465.49 1978.56 1465.49 Q1981.57 1465.49 1983.26 1463.98 Q1984.97 1462.48 1984.97 1459.79 Q1984.97 1457.11 1983.26 1455.6 Q1981.57 1454.1 1978.56 1454.1 Q1975.53 1454.1 1973.84 1455.6 Q1972.17 1457.11 1972.17 1459.79 Z" fill="#000000" fill-rule="nonzero" fill-opacity="1"></path><path clip-path="url(#clip850)" d="M2120.73 1455.09 L2108.93 1473.54 L2120.73 1473.54 L2120.73 1455.09 M2119.5 1451.02 L2125.38 1451.02 L2125.38 1473.54 L2130.31 1473.54 L2130.31 1477.43 L2125.38 1477.43 L2125.38 1485.58 L2120.73 1485.58 L2120.73 1477.43 L2105.13 1477.43 L2105.13 1472.92 L2119.5 1451.02 Z" fill="#000000" fill-rule="nonzero" fill-opacity="1"></path><path clip-path="url(#clip850)" d="M2138.05 1479.7 L2142.93 1479.7 L2142.93 1485.58 L2138.05 1485.58 L2138.05 1479.7 Z" fill="#000000" fill-rule="nonzero" fill-opacity="1"></path><path clip-path="url(#clip850)" d="M2163.11 1454.1 Q2159.5 1454.1 2157.67 1457.66 Q2155.87 1461.2 2155.87 1468.33 Q2155.87 1475.44 2157.67 1479.01 Q2159.5 1482.55 2163.11 1482.55 Q2166.75 1482.55 2168.55 1479.01 Q2170.38 1475.44 2170.38 1468.33 Q2170.38 1461.2 2168.55 1457.66 Q2166.75 1454.1 2163.11 1454.1 M2163.11 1450.39 Q2168.92 1450.39 2171.98 1455 Q2175.06 1459.58 2175.06 1468.33 Q2175.06 1477.06 2171.98 1481.67 Q2168.92 1486.25 2163.11 1486.25 Q2157.3 1486.25 2154.23 1481.67 Q2151.17 1477.06 2151.17 1468.33 Q2151.17 1459.58 2154.23 1455 Q2157.3 1450.39 2163.11 1450.39 Z" fill="#000000" fill-rule="nonzero" fill-opacity="1"></path><path clip-path="url(#clip850)" d="M2305.48 1455.09 L2293.68 1473.54 L2305.48 1473.54 L2305.48 1455.09 M2304.26 1451.02 L2310.14 1451.02 L2310.14 1473.54 L2315.07 1473.54 L2315.07 1477.43 L2310.14 1477.43 L2310.14 1485.58 L2305.48 1485.58 L2305.48 1477.43 L2289.88 1477.43 L2289.88 1472.92 L2304.26 1451.02 Z" fill="#000000" fill-rule="nonzero" fill-opacity="1"></path><path clip-path="url(#clip850)" d="M2322.8 1479.7 L2327.68 1479.7 L2327.68 1485.58 L2322.8 1485.58 L2322.8 1479.7 Z" fill="#000000" fill-rule="nonzero" fill-opacity="1"></path><path clip-path="url(#clip850)" d="M2341.89 1481.64 L2358.21 1481.64 L2358.21 1485.58 L2336.27 1485.58 L2336.27 1481.64 Q2338.93 1478.89 2343.51 1474.26 Q2348.12 1469.61 2349.3 1468.27 Q2351.55 1465.74 2352.43 1464.01 Q2353.33 1462.25 2353.33 1460.56 Q2353.33 1457.8 2351.39 1456.07 Q2349.46 1454.33 2346.36 1454.33 Q2344.16 1454.33 2341.71 1455.09 Q2339.28 1455.86 2336.5 1457.41 L2336.5 1452.69 Q2339.33 1451.55 2341.78 1450.97 Q2344.23 1450.39 2346.27 1450.39 Q2351.64 1450.39 2354.83 1453.08 Q2358.03 1455.77 2358.03 1460.26 Q2358.03 1462.39 2357.22 1464.31 Q2356.43 1466.2 2354.33 1468.8 Q2353.75 1469.47 2350.64 1472.69 Q2347.54 1475.88 2341.89 1481.64 Z" fill="#000000" fill-rule="nonzero" fill-opacity="1"></path><path clip-path="url(#clip850)" d="M1735.01 1518.52 L1740.87 1518.52 L1740.87 1568.04 L1735.01 1568.04 L1735.01 1518.52 Z" fill="#000000" fill-rule="nonzero" fill-opacity="1"></path><path clip-path="url(#clip850)" d="M1766.94 1536.5 Q1762.23 1536.5 1759.49 1540.19 Q1756.75 1543.85 1756.75 1550.25 Q1756.75 1556.65 1759.46 1560.34 Q1762.19 1564 1766.94 1564 Q1771.62 1564 1774.35 1560.31 Q1777.09 1556.62 1777.09 1550.25 Q1777.09 1543.92 1774.35 1540.23 Q1771.62 1536.5 1766.94 1536.5 M1766.94 1531.54 Q1774.58 1531.54 1778.94 1536.5 Q1783.3 1541.47 1783.3 1550.25 Q1783.3 1559 1778.94 1564 Q1774.58 1568.97 1766.94 1568.97 Q1759.27 1568.97 1754.91 1564 Q1750.58 1559 1750.58 1550.25 Q1750.58 1541.47 1754.91 1536.5 Q1759.27 1531.54 1766.94 1531.54 Z" fill="#000000" fill-rule="nonzero" fill-opacity="1"></path><path clip-path="url(#clip850)" d="M1816.46 1549.81 Q1816.46 1543.44 1813.82 1539.94 Q1811.21 1536.44 1806.47 1536.44 Q1801.76 1536.44 1799.12 1539.94 Q1796.51 1543.44 1796.51 1549.81 Q1796.51 1556.14 1799.12 1559.64 Q1801.76 1563.14 1806.47 1563.14 Q1811.21 1563.14 1813.82 1559.64 Q1816.46 1556.14 1816.46 1549.81 M1822.32 1563.62 Q1822.32 1572.72 1818.28 1577.15 Q1814.23 1581.6 1805.89 1581.6 Q1802.81 1581.6 1800.07 1581.13 Q1797.33 1580.68 1794.75 1579.72 L1794.75 1574.03 Q1797.33 1575.43 1799.85 1576.1 Q1802.36 1576.76 1804.97 1576.76 Q1810.73 1576.76 1813.6 1573.74 Q1816.46 1570.75 1816.46 1564.67 L1816.46 1561.77 Q1814.65 1564.92 1811.81 1566.48 Q1808.98 1568.04 1805.04 1568.04 Q1798.48 1568.04 1794.47 1563.05 Q1790.46 1558.05 1790.46 1549.81 Q1790.46 1541.53 1794.47 1536.53 Q1798.48 1531.54 1805.04 1531.54 Q1808.98 1531.54 1811.81 1533.1 Q1814.65 1534.66 1816.46 1537.81 L1816.46 1532.4 L1822.32 1532.4 L1822.32 1563.62 Z" fill="#000000" fill-rule="nonzero" fill-opacity="1"></path><path clip-path="url(#clip850)" d="M1836.32 1562.63 L1846.83 1562.63 L1846.83 1526.38 L1835.4 1528.67 L1835.4 1522.82 L1846.76 1520.52 L1853.19 1520.52 L1853.19 1562.63 L1863.7 1562.63 L1863.7 1568.04 L1836.32 1568.04 L1836.32 1562.63 Z" fill="#000000" fill-rule="nonzero" fill-opacity="1"></path><path clip-path="url(#clip850)" d="M1890.43 1524.76 Q1885.47 1524.76 1882.95 1529.66 Q1880.47 1534.53 1880.47 1544.33 Q1880.47 1554.1 1882.95 1559 Q1885.47 1563.87 1890.43 1563.87 Q1895.43 1563.87 1897.91 1559 Q1900.43 1554.1 1900.43 1544.33 Q1900.43 1534.53 1897.91 1529.66 Q1895.43 1524.76 1890.43 1524.76 M1890.43 1519.66 Q1898.42 1519.66 1902.62 1526 Q1906.85 1532.3 1906.85 1544.33 Q1906.85 1556.33 1902.62 1562.66 Q1898.42 1568.97 1890.43 1568.97 Q1882.44 1568.97 1878.21 1562.66 Q1874.01 1556.33 1874.01 1544.33 Q1874.01 1532.3 1878.21 1526 Q1882.44 1519.66 1890.43 1519.66 Z" fill="#000000" fill-rule="nonzero" fill-opacity="1"></path><path clip-path="url(#clip850)" d="M1931.39 1518.58 Q1927.13 1525.9 1925.06 1533.06 Q1922.99 1540.23 1922.99 1547.58 Q1922.99 1554.93 1925.06 1562.16 Q1927.16 1569.35 1931.39 1576.64 L1926.3 1576.64 Q1921.53 1569.16 1919.14 1561.93 Q1916.79 1554.71 1916.79 1547.58 Q1916.79 1540.48 1919.14 1533.29 Q1921.5 1526.09 1926.3 1518.58 L1931.39 1518.58 Z" fill="#000000" fill-rule="nonzero" fill-opacity="1"></path><path clip-path="url(#clip850)" d="M1944.7 1562.63 L1955.2 1562.63 L1955.2 1526.38 L1943.78 1528.67 L1943.78 1522.82 L1955.14 1520.52 L1961.57 1520.52 L1961.57 1562.63 L1972.07 1562.63 L1972.07 1568.04 L1944.7 1568.04 L1944.7 1562.63 Z" fill="#000000" fill-rule="nonzero" fill-opacity="1"></path><path clip-path="url(#clip850)" d="M1994.64 1520.52 L2000.05 1520.52 L1983.5 1574.09 L1978.09 1574.09 L1994.64 1520.52 Z" fill="#000000" fill-rule="nonzero" fill-opacity="1"></path><path clip-path="url(#clip850)" d="M2022.33 1526.86 L2009.28 1562.7 L2035.41 1562.7 L2022.33 1526.86 M2000.56 1568.04 L2018.7 1520.52 L2025.99 1520.52 L2044.1 1568.04 L2000.56 1568.04 Z" fill="#000000" fill-rule="nonzero" fill-opacity="1"></path><path clip-path="url(#clip850)" d="M2056.58 1522.27 L2056.58 1532.4 L2068.64 1532.4 L2068.64 1536.95 L2056.58 1536.95 L2056.58 1556.3 Q2056.58 1560.66 2057.75 1561.9 Q2058.96 1563.14 2062.62 1563.14 L2068.64 1563.14 L2068.64 1568.04 L2062.62 1568.04 Q2055.84 1568.04 2053.27 1565.53 Q2050.69 1562.98 2050.69 1556.3 L2050.69 1536.95 L2046.39 1536.95 L2046.39 1532.4 L2050.69 1532.4 L2050.69 1522.27 L2056.58 1522.27 Z" fill="#000000" fill-rule="nonzero" fill-opacity="1"></path><path clip-path="url(#clip850)" d="M2075.42 1518.58 L2080.51 1518.58 Q2085.29 1526.09 2087.64 1533.29 Q2090.03 1540.48 2090.03 1547.58 Q2090.03 1554.71 2087.64 1561.93 Q2085.29 1569.16 2080.51 1576.64 L2075.42 1576.64 Q2079.65 1569.35 2081.72 1562.16 Q2083.82 1554.93 2083.82 1547.58 Q2083.82 1540.23 2081.72 1533.06 Q2079.65 1525.9 2075.42 1518.58 Z" fill="#000000" fill-rule="nonzero" fill-opacity="1"></path><polyline clip-path="url(#clip853)" style="stroke:#000000; stroke-linecap:round; stroke-linejoin:round; stroke-width:2; stroke-opacity:0.1; fill:none" points="1472.28,1167.06 2352.76,1167.06 "></polyline>
<polyline clip-path="url(#clip853)" style="stroke:#000000; stroke-linecap:round; stroke-linejoin:round; stroke-width:2; stroke-opacity:0.1; fill:none" points="1472.28,811.419 2352.76,811.419 "></polyline>
<polyline clip-path="url(#clip853)" style="stroke:#000000; stroke-linecap:round; stroke-linejoin:round; stroke-width:2; stroke-opacity:0.1; fill:none" points="1472.28,455.782 2352.76,455.782 "></polyline>
<polyline clip-path="url(#clip853)" style="stroke:#000000; stroke-linecap:round; stroke-linejoin:round; stroke-width:2; stroke-opacity:0.1; fill:none" points="1472.28,100.145 2352.76,100.145 "></polyline>
<polyline clip-path="url(#clip850)" style="stroke:#000000; stroke-linecap:round; stroke-linejoin:round; stroke-width:4; stroke-opacity:1; fill:none" points="1472.28,1423.18 1472.28,47.2441 "></polyline>
<polyline clip-path="url(#clip850)" style="stroke:#000000; stroke-linecap:round; stroke-linejoin:round; stroke-width:4; stroke-opacity:1; fill:none" points="1472.28,1167.06 1491.18,1167.06 "></polyline>
<polyline clip-path="url(#clip850)" style="stroke:#000000; stroke-linecap:round; stroke-linejoin:round; stroke-width:4; stroke-opacity:1; fill:none" points="1472.28,811.419 1491.18,811.419 "></polyline>
<polyline clip-path="url(#clip850)" style="stroke:#000000; stroke-linecap:round; stroke-linejoin:round; stroke-width:4; stroke-opacity:1; fill:none" points="1472.28,455.782 1491.18,455.782 "></polyline>
<polyline clip-path="url(#clip850)" style="stroke:#000000; stroke-linecap:round; stroke-linejoin:round; stroke-width:4; stroke-opacity:1; fill:none" points="1472.28,100.145 1491.18,100.145 "></polyline>
<path clip-path="url(#clip850)" d="M1330.34 1167.51 L1360.01 1167.51 L1360.01 1171.44 L1330.34 1171.44 L1330.34 1167.51 Z" fill="#000000" fill-rule="nonzero" fill-opacity="1"></path><path clip-path="url(#clip850)" d="M1370.24 1183.62 L1370.24 1179.36 Q1372 1180.19 1373.81 1180.63 Q1375.61 1181.07 1377.35 1181.07 Q1381.98 1181.07 1384.41 1177.97 Q1386.86 1174.85 1387.21 1168.5 Q1385.87 1170.49 1383.81 1171.56 Q1381.75 1172.62 1379.25 1172.62 Q1374.06 1172.62 1371.03 1169.5 Q1368.02 1166.35 1368.02 1160.91 Q1368.02 1155.59 1371.17 1152.37 Q1374.32 1149.15 1379.55 1149.15 Q1385.54 1149.15 1388.69 1153.76 Q1391.86 1158.34 1391.86 1167.09 Q1391.86 1175.26 1387.98 1180.15 Q1384.11 1185.01 1377.56 1185.01 Q1375.8 1185.01 1373.99 1184.66 Q1372.19 1184.31 1370.24 1183.62 M1379.55 1168.97 Q1382.7 1168.97 1384.53 1166.81 Q1386.38 1164.66 1386.38 1160.91 Q1386.38 1157.18 1384.53 1155.03 Q1382.7 1152.86 1379.55 1152.86 Q1376.4 1152.86 1374.55 1155.03 Q1372.72 1157.18 1372.72 1160.91 Q1372.72 1164.66 1374.55 1166.81 Q1376.4 1168.97 1379.55 1168.97 Z" fill="#000000" fill-rule="nonzero" fill-opacity="1"></path><path clip-path="url(#clip850)" d="M1400.27 1178.46 L1405.15 1178.46 L1405.15 1184.34 L1400.27 1184.34 L1400.27 1178.46 Z" fill="#000000" fill-rule="nonzero" fill-opacity="1"></path><path clip-path="url(#clip850)" d="M1415.38 1149.78 L1433.74 1149.78 L1433.74 1153.71 L1419.66 1153.71 L1419.66 1162.18 Q1420.68 1161.84 1421.7 1161.67 Q1422.72 1161.49 1423.74 1161.49 Q1429.53 1161.49 1432.91 1164.66 Q1436.28 1167.83 1436.28 1173.25 Q1436.28 1178.83 1432.81 1181.93 Q1429.34 1185.01 1423.02 1185.01 Q1420.85 1185.01 1418.58 1184.64 Q1416.33 1184.27 1413.92 1183.53 L1413.92 1178.83 Q1416.01 1179.96 1418.23 1180.52 Q1420.45 1181.07 1422.93 1181.07 Q1426.93 1181.07 1429.27 1178.97 Q1431.61 1176.86 1431.61 1173.25 Q1431.61 1169.64 1429.27 1167.53 Q1426.93 1165.42 1422.93 1165.42 Q1421.05 1165.42 1419.18 1165.84 Q1417.33 1166.26 1415.38 1167.14 L1415.38 1149.78 Z" fill="#000000" fill-rule="nonzero" fill-opacity="1"></path><path clip-path="url(#clip850)" d="M1329.34 811.871 L1359.02 811.871 L1359.02 815.806 L1329.34 815.806 L1329.34 811.871 Z" fill="#000000" fill-rule="nonzero" fill-opacity="1"></path><path clip-path="url(#clip850)" d="M1369.25 827.982 L1369.25 823.723 Q1371.01 824.556 1372.81 824.996 Q1374.62 825.435 1376.35 825.435 Q1380.98 825.435 1383.41 822.334 Q1385.87 819.209 1386.22 812.866 Q1384.87 814.857 1382.81 815.922 Q1380.75 816.986 1378.25 816.986 Q1373.07 816.986 1370.04 813.861 Q1367.03 810.713 1367.03 805.274 Q1367.03 799.95 1370.17 796.732 Q1373.32 793.514 1378.55 793.514 Q1384.55 793.514 1387.7 798.121 Q1390.87 802.704 1390.87 811.454 Q1390.87 819.625 1386.98 824.51 Q1383.11 829.371 1376.56 829.371 Q1374.8 829.371 1373 829.023 Q1371.19 828.676 1369.25 827.982 M1378.55 813.329 Q1381.7 813.329 1383.53 811.176 Q1385.38 809.024 1385.38 805.274 Q1385.38 801.547 1383.53 799.394 Q1381.7 797.218 1378.55 797.218 Q1375.41 797.218 1373.55 799.394 Q1371.73 801.547 1371.73 805.274 Q1371.73 809.024 1373.55 811.176 Q1375.41 813.329 1378.55 813.329 Z" fill="#000000" fill-rule="nonzero" fill-opacity="1"></path><path clip-path="url(#clip850)" d="M1399.27 822.82 L1404.16 822.82 L1404.16 828.699 L1399.27 828.699 L1399.27 822.82 Z" fill="#000000" fill-rule="nonzero" fill-opacity="1"></path><path clip-path="url(#clip850)" d="M1424.34 797.218 Q1420.73 797.218 1418.9 800.783 Q1417.1 804.324 1417.1 811.454 Q1417.1 818.561 1418.9 822.125 Q1420.73 825.667 1424.34 825.667 Q1427.97 825.667 1429.78 822.125 Q1431.61 818.561 1431.61 811.454 Q1431.61 804.324 1429.78 800.783 Q1427.97 797.218 1424.34 797.218 M1424.34 793.514 Q1430.15 793.514 1433.21 798.121 Q1436.28 802.704 1436.28 811.454 Q1436.28 820.181 1433.21 824.787 Q1430.15 829.371 1424.34 829.371 Q1418.53 829.371 1415.45 824.787 Q1412.4 820.181 1412.4 811.454 Q1412.4 802.704 1415.45 798.121 Q1418.53 793.514 1424.34 793.514 Z" fill="#000000" fill-rule="nonzero" fill-opacity="1"></path><path clip-path="url(#clip850)" d="M1330.34 456.234 L1360.01 456.234 L1360.01 460.169 L1330.34 460.169 L1330.34 456.234 Z" fill="#000000" fill-rule="nonzero" fill-opacity="1"></path><path clip-path="url(#clip850)" d="M1380.1 456.65 Q1376.77 456.65 1374.85 458.433 Q1372.95 460.215 1372.95 463.34 Q1372.95 466.465 1374.85 468.247 Q1376.77 470.03 1380.1 470.03 Q1383.44 470.03 1385.36 468.247 Q1387.28 466.442 1387.28 463.34 Q1387.28 460.215 1385.36 458.433 Q1383.46 456.65 1380.1 456.65 M1375.43 454.659 Q1372.42 453.919 1370.73 451.859 Q1369.06 449.798 1369.06 446.835 Q1369.06 442.692 1372 440.285 Q1374.97 437.877 1380.1 437.877 Q1385.27 437.877 1388.21 440.285 Q1391.15 442.692 1391.15 446.835 Q1391.15 449.798 1389.46 451.859 Q1387.79 453.919 1384.8 454.659 Q1388.18 455.447 1390.06 457.738 Q1391.96 460.03 1391.96 463.34 Q1391.96 468.363 1388.88 471.048 Q1385.82 473.733 1380.1 473.733 Q1374.39 473.733 1371.31 471.048 Q1368.25 468.363 1368.25 463.34 Q1368.25 460.03 1370.15 457.738 Q1372.05 455.447 1375.43 454.659 M1373.72 447.275 Q1373.72 449.96 1375.38 451.465 Q1377.07 452.97 1380.1 452.97 Q1383.11 452.97 1384.8 451.465 Q1386.52 449.96 1386.52 447.275 Q1386.52 444.59 1384.8 443.085 Q1383.11 441.581 1380.1 441.581 Q1377.07 441.581 1375.38 443.085 Q1373.72 444.59 1373.72 447.275 Z" fill="#000000" fill-rule="nonzero" fill-opacity="1"></path><path clip-path="url(#clip850)" d="M1400.27 467.183 L1405.15 467.183 L1405.15 473.062 L1400.27 473.062 L1400.27 467.183 Z" fill="#000000" fill-rule="nonzero" fill-opacity="1"></path><path clip-path="url(#clip850)" d="M1415.38 438.502 L1433.74 438.502 L1433.74 442.437 L1419.66 442.437 L1419.66 450.909 Q1420.68 450.562 1421.7 450.4 Q1422.72 450.215 1423.74 450.215 Q1429.53 450.215 1432.91 453.386 Q1436.28 456.558 1436.28 461.974 Q1436.28 467.553 1432.81 470.655 Q1429.34 473.733 1423.02 473.733 Q1420.85 473.733 1418.58 473.363 Q1416.33 472.993 1413.92 472.252 L1413.92 467.553 Q1416.01 468.687 1418.23 469.243 Q1420.45 469.798 1422.93 469.798 Q1426.93 469.798 1429.27 467.692 Q1431.61 465.585 1431.61 461.974 Q1431.61 458.363 1429.27 456.257 Q1426.93 454.15 1422.93 454.15 Q1421.05 454.15 1419.18 454.567 Q1417.33 454.984 1415.38 455.863 L1415.38 438.502 Z" fill="#000000" fill-rule="nonzero" fill-opacity="1"></path><path clip-path="url(#clip850)" d="M1329.34 100.596 L1359.02 100.596 L1359.02 104.532 L1329.34 104.532 L1329.34 100.596 Z" fill="#000000" fill-rule="nonzero" fill-opacity="1"></path><path clip-path="url(#clip850)" d="M1379.11 101.013 Q1375.78 101.013 1373.85 102.795 Q1371.96 104.578 1371.96 107.703 Q1371.96 110.828 1373.85 112.61 Q1375.78 114.393 1379.11 114.393 Q1382.44 114.393 1384.36 112.61 Q1386.29 110.805 1386.29 107.703 Q1386.29 104.578 1384.36 102.795 Q1382.47 101.013 1379.11 101.013 M1374.43 99.0223 Q1371.42 98.2815 1369.73 96.2214 Q1368.07 94.1612 1368.07 91.1982 Q1368.07 87.0548 1371.01 84.6474 Q1373.97 82.24 1379.11 82.24 Q1384.27 82.24 1387.21 84.6474 Q1390.15 87.0548 1390.15 91.1982 Q1390.15 94.1612 1388.46 96.2214 Q1386.79 98.2815 1383.81 99.0223 Q1387.19 99.8093 1389.06 102.101 Q1390.96 104.393 1390.96 107.703 Q1390.96 112.726 1387.88 115.411 Q1384.83 118.096 1379.11 118.096 Q1373.39 118.096 1370.31 115.411 Q1367.26 112.726 1367.26 107.703 Q1367.26 104.393 1369.16 102.101 Q1371.05 99.8093 1374.43 99.0223 M1372.72 91.6381 Q1372.72 94.3232 1374.39 95.8279 Q1376.08 97.3325 1379.11 97.3325 Q1382.12 97.3325 1383.81 95.8279 Q1385.52 94.3232 1385.52 91.6381 Q1385.52 88.9529 1383.81 87.4483 Q1382.12 85.9436 1379.11 85.9436 Q1376.08 85.9436 1374.39 87.4483 Q1372.72 88.9529 1372.72 91.6381 Z" fill="#000000" fill-rule="nonzero" fill-opacity="1"></path><path clip-path="url(#clip850)" d="M1399.27 111.545 L1404.16 111.545 L1404.16 117.425 L1399.27 117.425 L1399.27 111.545 Z" fill="#000000" fill-rule="nonzero" fill-opacity="1"></path><path clip-path="url(#clip850)" d="M1424.34 85.9436 Q1420.73 85.9436 1418.9 89.5084 Q1417.1 93.0501 1417.1 100.18 Q1417.1 107.286 1418.9 110.851 Q1420.73 114.393 1424.34 114.393 Q1427.97 114.393 1429.78 110.851 Q1431.61 107.286 1431.61 100.18 Q1431.61 93.0501 1429.78 89.5084 Q1427.97 85.9436 1424.34 85.9436 M1424.34 82.24 Q1430.15 82.24 1433.21 86.8464 Q1436.28 91.4297 1436.28 100.18 Q1436.28 108.906 1433.21 113.513 Q1430.15 118.096 1424.34 118.096 Q1418.53 118.096 1415.45 113.513 Q1412.4 108.906 1412.4 100.18 Q1412.4 91.4297 1415.45 86.8464 Q1418.53 82.24 1424.34 82.24 Z" fill="#000000" fill-rule="nonzero" fill-opacity="1"></path><path clip-path="url(#clip850)" d="M1229.56 878.759 L1229.56 872.902 L1279.09 872.902 L1279.09 878.759 L1229.56 878.759 Z" fill="#000000" fill-rule="nonzero" fill-opacity="1"></path><path clip-path="url(#clip850)" d="M1247.54 846.835 Q1247.54 851.545 1251.24 854.283 Q1254.9 857.02 1261.29 857.02 Q1267.69 857.02 1271.38 854.314 Q1275.04 851.577 1275.04 846.835 Q1275.04 842.156 1271.35 839.419 Q1267.66 836.681 1261.29 836.681 Q1254.96 836.681 1251.27 839.419 Q1247.54 842.156 1247.54 846.835 M1242.58 846.835 Q1242.58 839.196 1247.54 834.835 Q1252.51 830.475 1261.29 830.475 Q1270.05 830.475 1275.04 834.835 Q1280.01 839.196 1280.01 846.835 Q1280.01 854.505 1275.04 858.866 Q1270.05 863.195 1261.29 863.195 Q1252.51 863.195 1247.54 858.866 Q1242.58 854.505 1242.58 846.835 Z" fill="#000000" fill-rule="nonzero" fill-opacity="1"></path><path clip-path="url(#clip850)" d="M1260.85 797.309 Q1254.48 797.309 1250.98 799.951 Q1247.48 802.561 1247.48 807.304 Q1247.48 812.014 1250.98 814.656 Q1254.48 817.266 1260.85 817.266 Q1267.18 817.266 1270.68 814.656 Q1274.18 812.014 1274.18 807.304 Q1274.18 802.561 1270.68 799.951 Q1267.18 797.309 1260.85 797.309 M1274.66 791.453 Q1283.76 791.453 1288.19 795.495 Q1292.64 799.537 1292.64 807.877 Q1292.64 810.964 1292.17 813.701 Q1291.72 816.438 1290.77 819.016 L1285.07 819.016 Q1286.47 816.438 1287.14 813.924 Q1287.81 811.409 1287.81 808.8 Q1287.81 803.039 1284.78 800.174 Q1281.79 797.309 1275.71 797.309 L1272.81 797.309 Q1275.97 799.124 1277.53 801.956 Q1279.09 804.789 1279.09 808.736 Q1279.09 815.293 1274.09 819.303 Q1269.09 823.313 1260.85 823.313 Q1252.57 823.313 1247.57 819.303 Q1242.58 815.293 1242.58 808.736 Q1242.58 804.789 1244.14 801.956 Q1245.7 799.124 1248.85 797.309 L1243.44 797.309 L1243.44 791.453 L1274.66 791.453 Z" fill="#000000" fill-rule="nonzero" fill-opacity="1"></path><path clip-path="url(#clip850)" d="M1273.67 777.448 L1273.67 766.945 L1237.42 766.945 L1239.71 778.371 L1233.86 778.371 L1231.57 767.009 L1231.57 760.579 L1273.67 760.579 L1273.67 750.076 L1279.09 750.076 L1279.09 777.448 L1273.67 777.448 Z" fill="#000000" fill-rule="nonzero" fill-opacity="1"></path><path clip-path="url(#clip850)" d="M1235.8 723.34 Q1235.8 728.305 1240.7 730.82 Q1245.57 733.302 1255.37 733.302 Q1265.14 733.302 1270.05 730.82 Q1274.92 728.305 1274.92 723.34 Q1274.92 718.343 1270.05 715.86 Q1265.14 713.346 1255.37 713.346 Q1245.57 713.346 1240.7 715.86 Q1235.8 718.343 1235.8 723.34 M1230.71 723.34 Q1230.71 715.351 1237.04 711.15 Q1243.34 706.916 1255.37 706.916 Q1267.37 706.916 1273.71 711.15 Q1280.01 715.351 1280.01 723.34 Q1280.01 731.329 1273.71 735.562 Q1267.37 739.763 1255.37 739.763 Q1243.34 739.763 1237.04 735.562 Q1230.71 731.329 1230.71 723.34 Z" fill="#000000" fill-rule="nonzero" fill-opacity="1"></path><path clip-path="url(#clip850)" d="M1229.62 682.377 Q1236.94 686.642 1244.11 688.71 Q1251.27 690.779 1258.62 690.779 Q1265.97 690.779 1273.2 688.71 Q1280.39 686.61 1287.68 682.377 L1287.68 687.469 Q1280.2 692.243 1272.97 694.631 Q1265.75 696.986 1258.62 696.986 Q1251.52 696.986 1244.33 694.631 Q1237.14 692.275 1229.62 687.469 L1229.62 682.377 Z" fill="#000000" fill-rule="nonzero" fill-opacity="1"></path><path clip-path="url(#clip850)" d="M1249.1 645.837 Q1248.69 647.015 1248.37 648.193 Q1247.54 651.344 1247.54 654.718 Q1247.54 660.542 1250.69 663.789 Q1253.62 666.812 1259 667.385 L1259 645.837 L1263.58 645.837 L1263.58 667.385 Q1268.96 666.812 1271.89 663.789 Q1275.04 660.542 1275.04 654.718 Q1275.04 650.644 1274.22 648.193 L1273.42 645.837 L1278.73 645.837 L1279.31 648.352 Q1280.01 651.662 1280.01 655.068 Q1280.01 663.598 1275.04 668.563 Q1270.08 673.56 1261.29 673.56 Q1252.51 673.56 1247.54 668.563 Q1242.58 663.598 1242.58 655.068 Q1242.58 651.853 1243.28 648.352 Q1243.53 647.079 1243.91 645.837 L1249.1 645.837 Z" fill="#000000" fill-rule="nonzero" fill-opacity="1"></path><path clip-path="url(#clip850)" d="M1233.32 625.117 L1243.44 625.117 L1243.44 613.054 L1247.99 613.054 L1247.99 625.117 L1267.34 625.117 Q1271.7 625.117 1272.94 623.939 Q1274.18 622.73 1274.18 619.07 L1274.18 613.054 L1279.09 613.054 L1279.09 619.07 Q1279.09 625.849 1276.57 628.427 Q1274.02 631.005 1267.34 631.005 L1247.99 631.005 L1247.99 635.302 L1243.44 635.302 L1243.44 631.005 L1233.32 631.005 L1233.32 625.117 Z" fill="#000000" fill-rule="nonzero" fill-opacity="1"></path><path clip-path="url(#clip850)" d="M1229.62 606.275 L1229.62 601.182 Q1237.14 596.408 1244.33 594.052 Q1251.52 591.665 1258.62 591.665 Q1265.75 591.665 1272.97 594.052 Q1280.2 596.408 1287.68 601.182 L1287.68 606.275 Q1280.39 602.041 1273.2 599.973 Q1265.97 597.872 1258.62 597.872 Q1251.27 597.872 1244.11 599.973 Q1236.94 602.041 1229.62 606.275 Z" fill="#000000" fill-rule="nonzero" fill-opacity="1"></path><circle clip-path="url(#clip853)" cx="1497.2" cy="86.1857" r="14.4" fill="#009af9" fill-rule="evenodd" fill-opacity="1" stroke="#000000" stroke-opacity="1" stroke-width="3.2"></circle>
<circle clip-path="url(#clip853)" cx="1497.2" cy="86.1857" r="14.4" fill="#009af9" fill-rule="evenodd" fill-opacity="1" stroke="#000000" stroke-opacity="1" stroke-width="3.2"></circle>
<circle clip-path="url(#clip853)" cx="1774.08" cy="521.981" r="14.4" fill="#009af9" fill-rule="evenodd" fill-opacity="1" stroke="#000000" stroke-opacity="1" stroke-width="3.2"></circle>
<circle clip-path="url(#clip853)" cx="2050.96" cy="954.065" r="14.4" fill="#009af9" fill-rule="evenodd" fill-opacity="1" stroke="#000000" stroke-opacity="1" stroke-width="3.2"></circle>
<circle clip-path="url(#clip853)" cx="2327.84" cy="1384.24" r="14.4" fill="#009af9" fill-rule="evenodd" fill-opacity="1" stroke="#000000" stroke-opacity="1" stroke-width="3.2"></circle>
<polyline clip-path="url(#clip853)" style="stroke:#e26f46; stroke-linecap:round; stroke-linejoin:round; stroke-width:4; stroke-opacity:1; fill:none" points="1497.2,86.1857 1497.2,86.1857 1774.08,300.301 2050.96,514.416 2327.84,728.53 "></polyline>
<polyline clip-path="url(#clip853)" style="stroke:#3da44d; stroke-linecap:round; stroke-linejoin:round; stroke-width:4; stroke-opacity:1; fill:none" points="1497.2,86.1857 1497.2,86.1857 1774.08,514.416 2050.96,942.645 2327.84,1370.88 "></polyline>
<path clip-path="url(#clip850)" d="M2174.92 300.469 L2323.41 300.469 L2323.41 93.1086 L2174.92 93.1086  Z" fill="#ffffff" fill-rule="evenodd" fill-opacity="1"></path>
<polyline clip-path="url(#clip850)" style="stroke:#000000; stroke-linecap:round; stroke-linejoin:round; stroke-width:4; stroke-opacity:1; fill:none" points="2174.92,300.469 2323.41,300.469 2323.41,93.1086 2174.92,93.1086 2174.92,300.469 "></polyline>
<circle clip-path="url(#clip850)" cx="2214.05" cy="144.949" r="20.48" fill="#009af9" fill-rule="evenodd" fill-opacity="1" stroke="#000000" stroke-opacity="1" stroke-width="4.55111"></circle>
<path clip-path="url(#clip850)" d="M2273.35 140.423 Q2272.49 140.122 2271.63 139.891 Q2269.34 139.289 2266.89 139.289 Q2262.65 139.289 2260.29 141.581 Q2258.09 143.71 2257.68 147.622 L2273.35 147.622 L2273.35 150.956 L2257.68 150.956 Q2258.09 154.868 2260.29 156.997 Q2262.65 159.289 2266.89 159.289 Q2269.85 159.289 2271.63 158.687 L2273.35 158.108 L2273.35 161.974 L2271.52 162.391 Q2269.11 162.9 2266.63 162.9 Q2260.43 162.9 2256.82 159.289 Q2253.18 155.678 2253.18 149.289 Q2253.18 142.9 2256.82 139.289 Q2260.43 135.678 2266.63 135.678 Q2268.97 135.678 2271.52 136.187 Q2272.44 136.372 2273.35 136.65 L2273.35 140.423 Z" fill="#000000" fill-rule="nonzero" fill-opacity="1"></path><polyline clip-path="url(#clip850)" style="stroke:#e26f46; stroke-linecap:round; stroke-linejoin:round; stroke-width:4; stroke-opacity:1; fill:none" points="2184.7,196.789 2243.4,196.789 "></polyline>
<path clip-path="url(#clip850)" d="M2269.2 182.68 Q2264.11 182.68 2261.1 186.476 Q2258.11 190.272 2258.11 196.823 Q2258.11 203.351 2261.1 207.147 Q2264.11 210.944 2269.2 210.944 Q2274.3 210.944 2277.26 207.147 Q2280.24 203.351 2280.24 196.823 Q2280.24 190.272 2277.26 186.476 Q2274.3 182.68 2269.2 182.68 M2269.2 178.884 Q2276.47 178.884 2280.82 183.768 Q2285.17 188.629 2285.17 196.823 Q2285.17 204.995 2280.82 209.879 Q2276.47 214.74 2269.2 214.74 Q2261.91 214.74 2257.54 209.879 Q2253.18 205.018 2253.18 196.823 Q2253.18 188.629 2257.54 183.768 Q2261.91 178.884 2269.2 178.884 Z" fill="#000000" fill-rule="nonzero" fill-opacity="1"></path><path clip-path="url(#clip850)" d="M2293.72 210.133 L2301.36 210.133 L2301.36 183.768 L2293.05 185.435 L2293.05 181.175 L2301.31 179.509 L2305.99 179.509 L2305.99 210.133 L2313.62 210.133 L2313.62 214.069 L2293.72 214.069 L2293.72 210.133 Z" fill="#000000" fill-rule="nonzero" fill-opacity="1"></path><polyline clip-path="url(#clip850)" style="stroke:#3da44d; stroke-linecap:round; stroke-linejoin:round; stroke-width:4; stroke-opacity:1; fill:none" points="2184.7,248.629 2243.4,248.629 "></polyline>
<path clip-path="url(#clip850)" d="M2269.2 234.52 Q2264.11 234.52 2261.1 238.316 Q2258.11 242.112 2258.11 248.663 Q2258.11 255.191 2261.1 258.987 Q2264.11 262.784 2269.2 262.784 Q2274.3 262.784 2277.26 258.987 Q2280.24 255.191 2280.24 248.663 Q2280.24 242.112 2277.26 238.316 Q2274.3 234.52 2269.2 234.52 M2269.2 230.724 Q2276.47 230.724 2280.82 235.608 Q2285.17 240.469 2285.17 248.663 Q2285.17 256.835 2280.82 261.719 Q2276.47 266.58 2269.2 266.58 Q2261.91 266.58 2257.54 261.719 Q2253.18 256.858 2253.18 248.663 Q2253.18 240.469 2257.54 235.608 Q2261.91 230.724 2269.2 230.724 Z" fill="#000000" fill-rule="nonzero" fill-opacity="1"></path><path clip-path="url(#clip850)" d="M2296.93 261.973 L2313.25 261.973 L2313.25 265.909 L2291.31 265.909 L2291.31 261.973 Q2293.97 259.219 2298.55 254.589 Q2303.16 249.936 2304.34 248.594 Q2306.59 246.071 2307.47 244.335 Q2308.37 242.575 2308.37 240.886 Q2308.37 238.131 2306.42 236.395 Q2304.5 234.659 2301.4 234.659 Q2299.2 234.659 2296.75 235.423 Q2294.32 236.187 2291.54 237.737 L2291.54 233.015 Q2294.36 231.881 2296.82 231.302 Q2299.27 230.724 2301.31 230.724 Q2306.68 230.724 2309.87 233.409 Q2313.07 236.094 2313.07 240.585 Q2313.07 242.714 2312.26 244.636 Q2311.47 246.534 2309.36 249.126 Q2308.79 249.798 2305.68 253.015 Q2302.58 256.21 2296.93 261.973 Z" fill="#000000" fill-rule="nonzero" fill-opacity="1"></path></svg>