<svg xmlns="http://www.w3.org/2000/svg" xmlns:xlink="http://www.w3.org/1999/xlink" width="600" height="400" viewBox="0 0 2400 1600">
<defs>
  <clipPath id="clip540">
    <rect x="0" y="0" width="2400" height="1600"></rect>
  </clipPath>
</defs>
<path clip-path="url(#clip540)" d="M0 1600 L2400 1600 L2400 8.88178e-14 L0 8.88178e-14  Z" fill="#ffffff" fill-rule="evenodd" fill-opacity="1"></path>
<defs>
  <clipPath id="clip541">
    <rect x="480" y="0" width="1681" height="1600"></rect>
  </clipPath>
</defs>
<path clip-path="url(#clip540)" d="M257.204 1423.18 L1160.29 1423.18 L1160.29 47.2441 L257.204 47.2441  Z" fill="#ffffff" fill-rule="evenodd" fill-opacity="1"></path>
<defs>
  <clipPath id="clip542">
    <rect x="257" y="47" width="904" height="1377"></rect>
  </clipPath>
</defs>
<polyline clip-path="url(#clip542)" style="stroke:#000000; stroke-linecap:round; stroke-linejoin:round; stroke-width:2; stroke-opacity:0.1; fill:none" points="278.39,1423.18 278.39,47.2441 "></polyline>
<polyline clip-path="url(#clip542)" style="stroke:#000000; stroke-linecap:round; stroke-linejoin:round; stroke-width:2; stroke-opacity:0.1; fill:none" points="419.899,1423.18 419.899,47.2441 "></polyline>
<polyline clip-path="url(#clip542)" style="stroke:#000000; stroke-linecap:round; stroke-linejoin:round; stroke-width:2; stroke-opacity:0.1; fill:none" points="561.408,1423.18 561.408,47.2441 "></polyline>
<polyline clip-path="url(#clip542)" style="stroke:#000000; stroke-linecap:round; stroke-linejoin:round; stroke-width:2; stroke-opacity:0.1; fill:none" points="702.917,1423.18 702.917,47.2441 "></polyline>
<polyline clip-path="url(#clip542)" style="stroke:#000000; stroke-linecap:round; stroke-linejoin:round; stroke-width:2; stroke-opacity:0.1; fill:none" points="844.426,1423.18 844.426,47.2441 "></polyline>
<polyline clip-path="url(#clip542)" style="stroke:#000000; stroke-linecap:round; stroke-linejoin:round; stroke-width:2; stroke-opacity:0.1; fill:none" points="985.935,1423.18 985.935,47.2441 "></polyline>
<polyline clip-path="url(#clip542)" style="stroke:#000000; stroke-linecap:round; stroke-linejoin:round; stroke-width:2; stroke-opacity:0.1; fill:none" points="1127.44,1423.18 1127.44,47.2441 "></polyline>
<polyline clip-path="url(#clip540)" style="stroke:#000000; stroke-linecap:round; stroke-linejoin:round; stroke-width:4; stroke-opacity:1; fill:none" points="257.204,1423.18 1160.29,1423.18 "></polyline>
<polyline clip-path="url(#clip540)" style="stroke:#000000; stroke-linecap:round; stroke-linejoin:round; stroke-width:4; stroke-opacity:1; fill:none" points="278.39,1423.18 278.39,1404.28 "></polyline>
<polyline clip-path="url(#clip540)" style="stroke:#000000; stroke-linecap:round; stroke-linejoin:round; stroke-width:4; stroke-opacity:1; fill:none" points="419.899,1423.18 419.899,1404.28 "></polyline>
<polyline clip-path="url(#clip540)" style="stroke:#000000; stroke-linecap:round; stroke-linejoin:round; stroke-width:4; stroke-opacity:1; fill:none" points="561.408,1423.18 561.408,1404.28 "></polyline>
<polyline clip-path="url(#clip540)" style="stroke:#000000; stroke-linecap:round; stroke-linejoin:round; stroke-width:4; stroke-opacity:1; fill:none" points="702.917,1423.18 702.917,1404.28 "></polyline>
<polyline clip-path="url(#clip540)" style="stroke:#000000; stroke-linecap:round; stroke-linejoin:round; stroke-width:4; stroke-opacity:1; fill:none" points="844.426,1423.18 844.426,1404.28 "></polyline>
<polyline clip-path="url(#clip540)" style="stroke:#000000; stroke-linecap:round; stroke-linejoin:round; stroke-width:4; stroke-opacity:1; fill:none" points="985.935,1423.18 985.935,1404.28 "></polyline>
<polyline clip-path="url(#clip540)" style="stroke:#000000; stroke-linecap:round; stroke-linejoin:round; stroke-width:4; stroke-opacity:1; fill:none" points="1127.44,1423.18 1127.44,1404.28 "></polyline>
<path clip-path="url(#clip540)" d="M245.636 1481.64 L253.275 1481.64 L253.275 1455.28 L244.965 1456.95 L244.965 1452.69 L253.229 1451.02 L257.904 1451.02 L257.904 1481.64 L265.543 1481.64 L265.543 1485.58 L245.636 1485.58 L245.636 1481.64 Z" fill="#000000" fill-rule="nonzero" fill-opacity="1"></path><path clip-path="url(#clip540)" d="M274.988 1479.7 L279.872 1479.7 L279.872 1485.58 L274.988 1485.58 L274.988 1479.7 Z" fill="#000000" fill-rule="nonzero" fill-opacity="1"></path><path clip-path="url(#clip540)" d="M290.196 1484.86 L290.196 1480.6 Q291.955 1481.44 293.761 1481.88 Q295.566 1482.32 297.302 1482.32 Q301.932 1482.32 304.363 1479.21 Q306.816 1476.09 307.163 1469.75 Q305.821 1471.74 303.761 1472.8 Q301.701 1473.87 299.201 1473.87 Q294.015 1473.87 290.983 1470.74 Q287.974 1467.59 287.974 1462.15 Q287.974 1456.83 291.122 1453.61 Q294.27 1450.39 299.501 1450.39 Q305.497 1450.39 308.645 1455 Q311.816 1459.58 311.816 1468.33 Q311.816 1476.51 307.927 1481.39 Q304.062 1486.25 297.511 1486.25 Q295.751 1486.25 293.946 1485.9 Q292.14 1485.56 290.196 1484.86 M299.501 1470.21 Q302.65 1470.21 304.478 1468.06 Q306.33 1465.9 306.33 1462.15 Q306.33 1458.43 304.478 1456.27 Q302.65 1454.1 299.501 1454.1 Q296.353 1454.1 294.502 1456.27 Q292.673 1458.43 292.673 1462.15 Q292.673 1465.9 294.502 1468.06 Q296.353 1470.21 299.501 1470.21 Z" fill="#000000" fill-rule="nonzero" fill-opacity="1"></path><path clip-path="url(#clip540)" d="M391.138 1481.64 L407.457 1481.64 L407.457 1485.58 L385.513 1485.58 L385.513 1481.64 Q388.175 1478.89 392.758 1474.26 Q397.365 1469.61 398.545 1468.27 Q400.791 1465.74 401.67 1464.01 Q402.573 1462.25 402.573 1460.56 Q402.573 1457.8 400.629 1456.07 Q398.707 1454.33 395.606 1454.33 Q393.406 1454.33 390.953 1455.09 Q388.522 1455.86 385.744 1457.41 L385.744 1452.69 Q388.569 1451.55 391.022 1450.97 Q393.476 1450.39 395.513 1450.39 Q400.883 1450.39 404.078 1453.08 Q407.272 1455.77 407.272 1460.26 Q407.272 1462.39 406.462 1464.31 Q405.675 1466.2 403.568 1468.8 Q402.99 1469.47 399.888 1472.69 Q396.786 1475.88 391.138 1481.64 Z" fill="#000000" fill-rule="nonzero" fill-opacity="1"></path><path clip-path="url(#clip540)" d="M417.272 1479.7 L422.156 1479.7 L422.156 1485.58 L417.272 1485.58 L417.272 1479.7 Z" fill="#000000" fill-rule="nonzero" fill-opacity="1"></path><path clip-path="url(#clip540)" d="M442.341 1454.1 Q438.73 1454.1 436.902 1457.66 Q435.096 1461.2 435.096 1468.33 Q435.096 1475.44 436.902 1479.01 Q438.73 1482.55 442.341 1482.55 Q445.976 1482.55 447.781 1479.01 Q449.61 1475.44 449.61 1468.33 Q449.61 1461.2 447.781 1457.66 Q445.976 1454.1 442.341 1454.1 M442.341 1450.39 Q448.152 1450.39 451.207 1455 Q454.286 1459.58 454.286 1468.33 Q454.286 1477.06 451.207 1481.67 Q448.152 1486.25 442.341 1486.25 Q436.531 1486.25 433.453 1481.67 Q430.397 1477.06 430.397 1468.33 Q430.397 1459.58 433.453 1455 Q436.531 1450.39 442.341 1450.39 Z" fill="#000000" fill-rule="nonzero" fill-opacity="1"></path><path clip-path="url(#clip540)" d="M533.26 1481.64 L549.58 1481.64 L549.58 1485.58 L527.635 1485.58 L527.635 1481.64 Q530.297 1478.89 534.881 1474.26 Q539.487 1469.61 540.668 1468.27 Q542.913 1465.74 543.793 1464.01 Q544.695 1462.25 544.695 1460.56 Q544.695 1457.8 542.751 1456.07 Q540.83 1454.33 537.728 1454.33 Q535.529 1454.33 533.075 1455.09 Q530.645 1455.86 527.867 1457.41 L527.867 1452.69 Q530.691 1451.55 533.145 1450.97 Q535.598 1450.39 537.635 1450.39 Q543.006 1450.39 546.2 1453.08 Q549.394 1455.77 549.394 1460.26 Q549.394 1462.39 548.584 1464.31 Q547.797 1466.2 545.691 1468.8 Q545.112 1469.47 542.01 1472.69 Q538.908 1475.88 533.26 1481.64 Z" fill="#000000" fill-rule="nonzero" fill-opacity="1"></path><path clip-path="url(#clip540)" d="M559.394 1479.7 L564.279 1479.7 L564.279 1485.58 L559.394 1485.58 L559.394 1479.7 Z" fill="#000000" fill-rule="nonzero" fill-opacity="1"></path><path clip-path="url(#clip540)" d="M575.274 1481.64 L582.913 1481.64 L582.913 1455.28 L574.603 1456.95 L574.603 1452.69 L582.866 1451.02 L587.542 1451.02 L587.542 1481.64 L595.181 1481.64 L595.181 1485.58 L575.274 1485.58 L575.274 1481.64 Z" fill="#000000" fill-rule="nonzero" fill-opacity="1"></path><path clip-path="url(#clip540)" d="M674.954 1481.64 L691.274 1481.64 L691.274 1485.58 L669.329 1485.58 L669.329 1481.64 Q671.991 1478.89 676.575 1474.26 Q681.181 1469.61 682.362 1468.27 Q684.607 1465.74 685.487 1464.01 Q686.389 1462.25 686.389 1460.56 Q686.389 1457.8 684.445 1456.07 Q682.524 1454.33 679.422 1454.33 Q677.223 1454.33 674.769 1455.09 Q672.339 1455.86 669.561 1457.41 L669.561 1452.69 Q672.385 1451.55 674.839 1450.97 Q677.292 1450.39 679.329 1450.39 Q684.7 1450.39 687.894 1453.08 Q691.089 1455.77 691.089 1460.26 Q691.089 1462.39 690.278 1464.31 Q689.491 1466.2 687.385 1468.8 Q686.806 1469.47 683.704 1472.69 Q680.602 1475.88 674.954 1481.64 Z" fill="#000000" fill-rule="nonzero" fill-opacity="1"></path><path clip-path="url(#clip540)" d="M701.088 1479.7 L705.973 1479.7 L705.973 1485.58 L701.088 1485.58 L701.088 1479.7 Z" fill="#000000" fill-rule="nonzero" fill-opacity="1"></path><path clip-path="url(#clip540)" d="M720.186 1481.64 L736.505 1481.64 L736.505 1485.58 L714.561 1485.58 L714.561 1481.64 Q717.223 1478.89 721.806 1474.26 Q726.412 1469.61 727.593 1468.27 Q729.838 1465.74 730.718 1464.01 Q731.621 1462.25 731.621 1460.56 Q731.621 1457.8 729.676 1456.07 Q727.755 1454.33 724.653 1454.33 Q722.454 1454.33 720 1455.09 Q717.57 1455.86 714.792 1457.41 L714.792 1452.69 Q717.616 1451.55 720.07 1450.97 Q722.524 1450.39 724.561 1450.39 Q729.931 1450.39 733.125 1453.08 Q736.32 1455.77 736.32 1460.26 Q736.32 1462.39 735.51 1464.31 Q734.723 1466.2 732.616 1468.8 Q732.037 1469.47 728.936 1472.69 Q725.834 1475.88 720.186 1481.64 Z" fill="#000000" fill-rule="nonzero" fill-opacity="1"></path><path clip-path="url(#clip540)" d="M815.989 1481.64 L832.308 1481.64 L832.308 1485.58 L810.364 1485.58 L810.364 1481.64 Q813.026 1478.89 817.609 1474.26 Q822.216 1469.61 823.396 1468.27 Q825.641 1465.74 826.521 1464.01 Q827.424 1462.25 827.424 1460.56 Q827.424 1457.8 825.479 1456.07 Q823.558 1454.33 820.456 1454.33 Q818.257 1454.33 815.804 1455.09 Q813.373 1455.86 810.595 1457.41 L810.595 1452.69 Q813.419 1451.55 815.873 1450.97 Q818.327 1450.39 820.364 1450.39 Q825.734 1450.39 828.928 1453.08 Q832.123 1455.77 832.123 1460.26 Q832.123 1462.39 831.313 1464.31 Q830.526 1466.2 828.419 1468.8 Q827.841 1469.47 824.739 1472.69 Q821.637 1475.88 815.989 1481.64 Z" fill="#000000" fill-rule="nonzero" fill-opacity="1"></path><path clip-path="url(#clip540)" d="M842.123 1479.7 L847.007 1479.7 L847.007 1485.58 L842.123 1485.58 L842.123 1479.7 Z" fill="#000000" fill-rule="nonzero" fill-opacity="1"></path><path clip-path="url(#clip540)" d="M871.359 1466.95 Q874.715 1467.66 876.59 1469.93 Q878.488 1472.2 878.488 1475.53 Q878.488 1480.65 874.97 1483.45 Q871.451 1486.25 864.97 1486.25 Q862.794 1486.25 860.479 1485.81 Q858.188 1485.39 855.734 1484.54 L855.734 1480.02 Q857.678 1481.16 859.993 1481.74 Q862.308 1482.32 864.831 1482.32 Q869.229 1482.32 871.521 1480.58 Q873.836 1478.84 873.836 1475.53 Q873.836 1472.48 871.683 1470.77 Q869.553 1469.03 865.734 1469.03 L861.706 1469.03 L861.706 1465.19 L865.919 1465.19 Q869.368 1465.19 871.197 1463.82 Q873.025 1462.43 873.025 1459.84 Q873.025 1457.18 871.127 1455.77 Q869.252 1454.33 865.734 1454.33 Q863.813 1454.33 861.613 1454.75 Q859.414 1455.16 856.776 1456.04 L856.776 1451.88 Q859.438 1451.14 861.752 1450.77 Q864.09 1450.39 866.15 1450.39 Q871.475 1450.39 874.576 1452.83 Q877.678 1455.23 877.678 1459.35 Q877.678 1462.22 876.035 1464.21 Q874.391 1466.18 871.359 1466.95 Z" fill="#000000" fill-rule="nonzero" fill-opacity="1"></path><path clip-path="url(#clip540)" d="M956.93 1481.64 L973.25 1481.64 L973.25 1485.58 L951.306 1485.58 L951.306 1481.64 Q953.968 1478.89 958.551 1474.26 Q963.157 1469.61 964.338 1468.27 Q966.583 1465.74 967.463 1464.01 Q968.366 1462.25 968.366 1460.56 Q968.366 1457.8 966.421 1456.07 Q964.5 1454.33 961.398 1454.33 Q959.199 1454.33 956.745 1455.09 Q954.315 1455.86 951.537 1457.41 L951.537 1452.69 Q954.361 1451.55 956.815 1450.97 Q959.268 1450.39 961.305 1450.39 Q966.676 1450.39 969.87 1453.08 Q973.065 1455.77 973.065 1460.26 Q973.065 1462.39 972.254 1464.31 Q971.467 1466.2 969.361 1468.8 Q968.782 1469.47 965.68 1472.69 Q962.579 1475.88 956.93 1481.64 Z" fill="#000000" fill-rule="nonzero" fill-opacity="1"></path><path clip-path="url(#clip540)" d="M983.065 1479.7 L987.949 1479.7 L987.949 1485.58 L983.065 1485.58 L983.065 1479.7 Z" fill="#000000" fill-rule="nonzero" fill-opacity="1"></path><path clip-path="url(#clip540)" d="M1010.98 1455.09 L999.176 1473.54 L1010.98 1473.54 L1010.98 1455.09 M1009.75 1451.02 L1015.63 1451.02 L1015.63 1473.54 L1020.56 1473.54 L1020.56 1477.43 L1015.63 1477.43 L1015.63 1485.58 L1010.98 1485.58 L1010.98 1477.43 L995.379 1477.43 L995.379 1472.92 L1009.75 1451.02 Z" fill="#000000" fill-rule="nonzero" fill-opacity="1"></path><path clip-path="url(#clip540)" d="M1099.18 1481.64 L1115.5 1481.64 L1115.5 1485.58 L1093.56 1485.58 L1093.56 1481.64 Q1096.22 1478.89 1100.8 1474.26 Q1105.41 1469.61 1106.59 1468.27 Q1108.83 1465.74 1109.71 1464.01 Q1110.62 1462.25 1110.62 1460.56 Q1110.62 1457.8 1108.67 1456.07 Q1106.75 1454.33 1103.65 1454.33 Q1101.45 1454.33 1098.99 1455.09 Q1096.56 1455.86 1093.79 1457.41 L1093.79 1452.69 Q1096.61 1451.55 1099.06 1450.97 Q1101.52 1450.39 1103.56 1450.39 Q1108.93 1450.39 1112.12 1453.08 Q1115.31 1455.77 1115.31 1460.26 Q1115.31 1462.39 1114.5 1464.31 Q1113.72 1466.2 1111.61 1468.8 Q1111.03 1469.47 1107.93 1472.69 Q1104.83 1475.88 1099.18 1481.64 Z" fill="#000000" fill-rule="nonzero" fill-opacity="1"></path><path clip-path="url(#clip540)" d="M1125.31 1479.7 L1130.2 1479.7 L1130.2 1485.58 L1125.31 1485.58 L1125.31 1479.7 Z" fill="#000000" fill-rule="nonzero" fill-opacity="1"></path><path clip-path="url(#clip540)" d="M1140.43 1451.02 L1158.79 1451.02 L1158.79 1454.96 L1144.71 1454.96 L1144.71 1463.43 Q1145.73 1463.08 1146.75 1462.92 Q1147.77 1462.73 1148.79 1462.73 Q1154.57 1462.73 1157.95 1465.9 Q1161.33 1469.08 1161.33 1474.49 Q1161.33 1480.07 1157.86 1483.17 Q1154.39 1486.25 1148.07 1486.25 Q1145.89 1486.25 1143.62 1485.88 Q1141.38 1485.51 1138.97 1484.77 L1138.97 1480.07 Q1141.05 1481.2 1143.28 1481.76 Q1145.5 1482.32 1147.98 1482.32 Q1151.98 1482.32 1154.32 1480.21 Q1156.66 1478.1 1156.66 1474.49 Q1156.66 1470.88 1154.32 1468.77 Q1151.98 1466.67 1147.98 1466.67 Q1146.1 1466.67 1144.23 1467.08 Q1142.37 1467.5 1140.43 1468.38 L1140.43 1451.02 Z" fill="#000000" fill-rule="nonzero" fill-opacity="1"></path><path clip-path="url(#clip540)" d="M524.731 1518.52 L530.587 1518.52 L530.587 1568.04 L524.731 1568.04 L524.731 1518.52 Z" fill="#000000" fill-rule="nonzero" fill-opacity="1"></path><path clip-path="url(#clip540)" d="M556.655 1536.5 Q551.944 1536.5 549.207 1540.19 Q546.47 1543.85 546.47 1550.25 Q546.47 1556.65 549.175 1560.34 Q551.912 1564 556.655 1564 Q561.333 1564 564.071 1560.31 Q566.808 1556.62 566.808 1550.25 Q566.808 1543.92 564.071 1540.23 Q561.333 1536.5 556.655 1536.5 M556.655 1531.54 Q564.294 1531.54 568.654 1536.5 Q573.015 1541.47 573.015 1550.25 Q573.015 1559 568.654 1564 Q564.294 1568.97 556.655 1568.97 Q548.984 1568.97 544.623 1564 Q540.295 1559 540.295 1550.25 Q540.295 1541.47 544.623 1536.5 Q548.984 1531.54 556.655 1531.54 Z" fill="#000000" fill-rule="nonzero" fill-opacity="1"></path><path clip-path="url(#clip540)" d="M606.18 1549.81 Q606.18 1543.44 603.538 1539.94 Q600.928 1536.44 596.186 1536.44 Q591.475 1536.44 588.833 1539.94 Q586.223 1543.44 586.223 1549.81 Q586.223 1556.14 588.833 1559.64 Q591.475 1563.14 596.186 1563.14 Q600.928 1563.14 603.538 1559.64 Q606.18 1556.14 606.18 1549.81 M612.036 1563.62 Q612.036 1572.72 607.994 1577.15 Q603.952 1581.6 595.613 1581.6 Q592.525 1581.6 589.788 1581.13 Q587.051 1580.68 584.473 1579.72 L584.473 1574.03 Q587.051 1575.43 589.565 1576.1 Q592.08 1576.76 594.69 1576.76 Q600.451 1576.76 603.315 1573.74 Q606.18 1570.75 606.18 1564.67 L606.18 1561.77 Q604.366 1564.92 601.533 1566.48 Q598.7 1568.04 594.753 1568.04 Q588.197 1568.04 584.186 1563.05 Q580.176 1558.05 580.176 1549.81 Q580.176 1541.53 584.186 1536.53 Q588.197 1531.54 594.753 1531.54 Q598.7 1531.54 601.533 1533.1 Q604.366 1534.66 606.18 1537.81 L606.18 1532.4 L612.036 1532.4 L612.036 1563.62 Z" fill="#000000" fill-rule="nonzero" fill-opacity="1"></path><path clip-path="url(#clip540)" d="M626.041 1562.63 L636.544 1562.63 L636.544 1526.38 L625.118 1528.67 L625.118 1522.82 L636.481 1520.52 L642.91 1520.52 L642.91 1562.63 L653.413 1562.63 L653.413 1568.04 L626.041 1568.04 L626.041 1562.63 Z" fill="#000000" fill-rule="nonzero" fill-opacity="1"></path><path clip-path="url(#clip540)" d="M680.149 1524.76 Q675.184 1524.76 672.67 1529.66 Q670.187 1534.53 670.187 1544.33 Q670.187 1554.1 672.67 1559 Q675.184 1563.87 680.149 1563.87 Q685.146 1563.87 687.629 1559 Q690.144 1554.1 690.144 1544.33 Q690.144 1534.53 687.629 1529.66 Q685.146 1524.76 680.149 1524.76 M680.149 1519.66 Q688.138 1519.66 692.34 1526 Q696.573 1532.3 696.573 1544.33 Q696.573 1556.33 692.34 1562.66 Q688.138 1568.97 680.149 1568.97 Q672.16 1568.97 667.927 1562.66 Q663.726 1556.33 663.726 1544.33 Q663.726 1532.3 667.927 1526 Q672.16 1519.66 680.149 1519.66 Z" fill="#000000" fill-rule="nonzero" fill-opacity="1"></path><path clip-path="url(#clip540)" d="M721.113 1518.58 Q716.848 1525.9 714.779 1533.06 Q712.71 1540.23 712.71 1547.58 Q712.71 1554.93 714.779 1562.16 Q716.879 1569.35 721.113 1576.64 L716.02 1576.64 Q711.246 1569.16 708.859 1561.93 Q706.503 1554.71 706.503 1547.58 Q706.503 1540.48 708.859 1533.29 Q711.214 1526.09 716.02 1518.58 L721.113 1518.58 Z" fill="#000000" fill-rule="nonzero" fill-opacity="1"></path><path clip-path="url(#clip540)" d="M734.417 1562.63 L744.92 1562.63 L744.92 1526.38 L733.494 1528.67 L733.494 1522.82 L744.857 1520.52 L751.286 1520.52 L751.286 1562.63 L761.79 1562.63 L761.79 1568.04 L734.417 1568.04 L734.417 1562.63 Z" fill="#000000" fill-rule="nonzero" fill-opacity="1"></path><path clip-path="url(#clip540)" d="M784.356 1520.52 L789.767 1520.52 L773.216 1574.09 L767.805 1574.09 L784.356 1520.52 Z" fill="#000000" fill-rule="nonzero" fill-opacity="1"></path><path clip-path="url(#clip540)" d="M812.047 1526.86 L798.997 1562.7 L825.128 1562.7 L812.047 1526.86 M790.276 1568.04 L808.418 1520.52 L815.707 1520.52 L833.818 1568.04 L790.276 1568.04 Z" fill="#000000" fill-rule="nonzero" fill-opacity="1"></path><path clip-path="url(#clip540)" d="M870.134 1532.4 L857.243 1549.74 L870.802 1568.04 L863.895 1568.04 L853.519 1554.04 L843.143 1568.04 L836.236 1568.04 L850.082 1549.39 L837.414 1532.4 L844.321 1532.4 L853.774 1545.1 L863.227 1532.4 L870.134 1532.4 Z" fill="#000000" fill-rule="nonzero" fill-opacity="1"></path><path clip-path="url(#clip540)" d="M878.155 1518.58 L883.247 1518.58 Q888.022 1526.09 890.377 1533.29 Q892.764 1540.48 892.764 1547.58 Q892.764 1554.71 890.377 1561.93 Q888.022 1569.16 883.247 1576.64 L878.155 1576.64 Q882.388 1569.35 884.457 1562.16 Q886.557 1554.93 886.557 1547.58 Q886.557 1540.23 884.457 1533.06 Q882.388 1525.9 878.155 1518.58 Z" fill="#000000" fill-rule="nonzero" fill-opacity="1"></path><polyline clip-path="url(#clip542)" style="stroke:#000000; stroke-linecap:round; stroke-linejoin:round; stroke-width:2; stroke-opacity:0.1; fill:none" points="257.204,1242.31 1160.29,1242.31 "></polyline>
<polyline clip-path="url(#clip542)" style="stroke:#000000; stroke-linecap:round; stroke-linejoin:round; stroke-width:2; stroke-opacity:0.1; fill:none" points="257.204,974.55 1160.29,974.55 "></polyline>
<polyline clip-path="url(#clip542)" style="stroke:#000000; stroke-linecap:round; stroke-linejoin:round; stroke-width:2; stroke-opacity:0.1; fill:none" points="257.204,706.791 1160.29,706.791 "></polyline>
<polyline clip-path="url(#clip542)" style="stroke:#000000; stroke-linecap:round; stroke-linejoin:round; stroke-width:2; stroke-opacity:0.1; fill:none" points="257.204,439.032 1160.29,439.032 "></polyline>
<polyline clip-path="url(#clip542)" style="stroke:#000000; stroke-linecap:round; stroke-linejoin:round; stroke-width:2; stroke-opacity:0.1; fill:none" points="257.204,171.273 1160.29,171.273 "></polyline>
<polyline clip-path="url(#clip540)" style="stroke:#000000; stroke-linecap:round; stroke-linejoin:round; stroke-width:4; stroke-opacity:1; fill:none" points="257.204,1423.18 257.204,47.2441 "></polyline>
<polyline clip-path="url(#clip540)" style="stroke:#000000; stroke-linecap:round; stroke-linejoin:round; stroke-width:4; stroke-opacity:1; fill:none" points="257.204,1242.31 276.102,1242.31 "></polyline>
<polyline clip-path="url(#clip540)" style="stroke:#000000; stroke-linecap:round; stroke-linejoin:round; stroke-width:4; stroke-opacity:1; fill:none" points="257.204,974.55 276.102,974.55 "></polyline>
<polyline clip-path="url(#clip540)" style="stroke:#000000; stroke-linecap:round; stroke-linejoin:round; stroke-width:4; stroke-opacity:1; fill:none" points="257.204,706.791 276.102,706.791 "></polyline>
<polyline clip-path="url(#clip540)" style="stroke:#000000; stroke-linecap:round; stroke-linejoin:round; stroke-width:4; stroke-opacity:1; fill:none" points="257.204,439.032 276.102,439.032 "></polyline>
<polyline clip-path="url(#clip540)" style="stroke:#000000; stroke-linecap:round; stroke-linejoin:round; stroke-width:4; stroke-opacity:1; fill:none" points="257.204,171.273 276.102,171.273 "></polyline>
<path clip-path="url(#clip540)" d="M114.26 1242.76 L143.936 1242.76 L143.936 1246.7 L114.26 1246.7 L114.26 1242.76 Z" fill="#000000" fill-rule="nonzero" fill-opacity="1"></path><path clip-path="url(#clip540)" d="M154.167 1258.87 L154.167 1254.61 Q155.927 1255.45 157.732 1255.88 Q159.538 1256.32 161.274 1256.32 Q165.903 1256.32 168.334 1253.22 Q170.788 1250.1 171.135 1243.76 Q169.792 1245.75 167.732 1246.81 Q165.672 1247.88 163.172 1247.88 Q157.987 1247.88 154.954 1244.75 Q151.945 1241.6 151.945 1236.16 Q151.945 1230.84 155.093 1227.62 Q158.241 1224.4 163.473 1224.4 Q169.468 1224.4 172.616 1229.01 Q175.788 1233.59 175.788 1242.34 Q175.788 1250.51 171.899 1255.4 Q168.033 1260.26 161.482 1260.26 Q159.723 1260.26 157.917 1259.91 Q156.112 1259.57 154.167 1258.87 M163.473 1244.22 Q166.621 1244.22 168.45 1242.07 Q170.302 1239.91 170.302 1236.16 Q170.302 1232.44 168.45 1230.28 Q166.621 1228.11 163.473 1228.11 Q160.325 1228.11 158.473 1230.28 Q156.644 1232.44 156.644 1236.16 Q156.644 1239.91 158.473 1242.07 Q160.325 1244.22 163.473 1244.22 Z" fill="#000000" fill-rule="nonzero" fill-opacity="1"></path><path clip-path="url(#clip540)" d="M184.19 1253.71 L189.075 1253.71 L189.075 1259.59 L184.19 1259.59 L184.19 1253.71 Z" fill="#000000" fill-rule="nonzero" fill-opacity="1"></path><path clip-path="url(#clip540)" d="M209.26 1228.11 Q205.649 1228.11 203.82 1231.67 Q202.014 1235.21 202.014 1242.34 Q202.014 1249.45 203.82 1253.01 Q205.649 1256.56 209.26 1256.56 Q212.894 1256.56 214.699 1253.01 Q216.528 1249.45 216.528 1242.34 Q216.528 1235.21 214.699 1231.67 Q212.894 1228.11 209.26 1228.11 M209.26 1224.4 Q215.07 1224.4 218.125 1229.01 Q221.204 1233.59 221.204 1242.34 Q221.204 1251.07 218.125 1255.68 Q215.07 1260.26 209.26 1260.26 Q203.449 1260.26 200.371 1255.68 Q197.315 1251.07 197.315 1242.34 Q197.315 1233.59 200.371 1229.01 Q203.449 1224.4 209.26 1224.4 Z" fill="#000000" fill-rule="nonzero" fill-opacity="1"></path><path clip-path="url(#clip540)" d="M115.256 975.001 L144.931 975.001 L144.931 978.936 L115.256 978.936 L115.256 975.001 Z" fill="#000000" fill-rule="nonzero" fill-opacity="1"></path><path clip-path="url(#clip540)" d="M165.024 975.418 Q161.69 975.418 159.769 977.2 Q157.871 978.983 157.871 982.108 Q157.871 985.233 159.769 987.015 Q161.69 988.797 165.024 988.797 Q168.357 988.797 170.278 987.015 Q172.2 985.209 172.2 982.108 Q172.2 978.983 170.278 977.2 Q168.38 975.418 165.024 975.418 M160.348 973.427 Q157.339 972.686 155.649 970.626 Q153.982 968.566 153.982 965.603 Q153.982 961.46 156.922 959.052 Q159.885 956.645 165.024 956.645 Q170.186 956.645 173.126 959.052 Q176.065 961.46 176.065 965.603 Q176.065 968.566 174.376 970.626 Q172.709 972.686 169.723 973.427 Q173.102 974.214 174.977 976.506 Q176.876 978.797 176.876 982.108 Q176.876 987.131 173.797 989.816 Q170.741 992.501 165.024 992.501 Q159.306 992.501 156.228 989.816 Q153.172 987.131 153.172 982.108 Q153.172 978.797 155.07 976.506 Q156.968 974.214 160.348 973.427 M158.635 966.043 Q158.635 968.728 160.302 970.233 Q161.991 971.737 165.024 971.737 Q168.033 971.737 169.723 970.233 Q171.436 968.728 171.436 966.043 Q171.436 963.358 169.723 961.853 Q168.033 960.348 165.024 960.348 Q161.991 960.348 160.302 961.853 Q158.635 963.358 158.635 966.043 Z" fill="#000000" fill-rule="nonzero" fill-opacity="1"></path><path clip-path="url(#clip540)" d="M185.186 985.95 L190.07 985.95 L190.07 991.83 L185.186 991.83 L185.186 985.95 Z" fill="#000000" fill-rule="nonzero" fill-opacity="1"></path><path clip-path="url(#clip540)" d="M200.301 957.27 L218.658 957.27 L218.658 961.205 L204.584 961.205 L204.584 969.677 Q205.602 969.33 206.621 969.168 Q207.639 968.983 208.658 968.983 Q214.445 968.983 217.824 972.154 Q221.204 975.325 221.204 980.742 Q221.204 986.321 217.732 989.422 Q214.26 992.501 207.94 992.501 Q205.764 992.501 203.496 992.131 Q201.25 991.76 198.843 991.02 L198.843 986.321 Q200.926 987.455 203.149 988.01 Q205.371 988.566 207.848 988.566 Q211.852 988.566 214.19 986.459 Q216.528 984.353 216.528 980.742 Q216.528 977.131 214.19 975.024 Q211.852 972.918 207.848 972.918 Q205.973 972.918 204.098 973.334 Q202.246 973.751 200.301 974.631 L200.301 957.27 Z" fill="#000000" fill-rule="nonzero" fill-opacity="1"></path><path clip-path="url(#clip540)" d="M114.26 707.242 L143.936 707.242 L143.936 711.177 L114.26 711.177 L114.26 707.242 Z" fill="#000000" fill-rule="nonzero" fill-opacity="1"></path><path clip-path="url(#clip540)" d="M164.028 707.659 Q160.695 707.659 158.774 709.441 Q156.876 711.224 156.876 714.349 Q156.876 717.474 158.774 719.256 Q160.695 721.038 164.028 721.038 Q167.362 721.038 169.283 719.256 Q171.204 717.451 171.204 714.349 Q171.204 711.224 169.283 709.441 Q167.385 707.659 164.028 707.659 M159.353 705.668 Q156.343 704.927 154.653 702.867 Q152.987 700.807 152.987 697.844 Q152.987 693.701 155.927 691.293 Q158.89 688.886 164.028 688.886 Q169.19 688.886 172.13 691.293 Q175.07 693.701 175.07 697.844 Q175.07 700.807 173.38 702.867 Q171.714 704.927 168.727 705.668 Q172.107 706.455 173.982 708.747 Q175.88 711.039 175.88 714.349 Q175.88 719.372 172.802 722.057 Q169.746 724.742 164.028 724.742 Q158.311 724.742 155.232 722.057 Q152.177 719.372 152.177 714.349 Q152.177 711.039 154.075 708.747 Q155.973 706.455 159.353 705.668 M157.64 698.284 Q157.64 700.969 159.306 702.474 Q160.996 703.978 164.028 703.978 Q167.038 703.978 168.727 702.474 Q170.44 700.969 170.44 698.284 Q170.44 695.599 168.727 694.094 Q167.038 692.59 164.028 692.59 Q160.996 692.59 159.306 694.094 Q157.64 695.599 157.64 698.284 Z" fill="#000000" fill-rule="nonzero" fill-opacity="1"></path><path clip-path="url(#clip540)" d="M184.19 718.191 L189.075 718.191 L189.075 724.071 L184.19 724.071 L184.19 718.191 Z" fill="#000000" fill-rule="nonzero" fill-opacity="1"></path><path clip-path="url(#clip540)" d="M209.26 692.59 Q205.649 692.59 203.82 696.154 Q202.014 699.696 202.014 706.826 Q202.014 713.932 203.82 717.497 Q205.649 721.038 209.26 721.038 Q212.894 721.038 214.699 717.497 Q216.528 713.932 216.528 706.826 Q216.528 699.696 214.699 696.154 Q212.894 692.59 209.26 692.59 M209.26 688.886 Q215.07 688.886 218.125 693.492 Q221.204 698.076 221.204 706.826 Q221.204 715.552 218.125 720.159 Q215.07 724.742 209.26 724.742 Q203.449 724.742 200.371 720.159 Q197.315 715.552 197.315 706.826 Q197.315 698.076 200.371 693.492 Q203.449 688.886 209.26 688.886 Z" fill="#000000" fill-rule="nonzero" fill-opacity="1"></path><path clip-path="url(#clip540)" d="M115.256 439.483 L144.931 439.483 L144.931 443.419 L115.256 443.419 L115.256 439.483 Z" fill="#000000" fill-rule="nonzero" fill-opacity="1"></path><path clip-path="url(#clip540)" d="M153.843 421.752 L176.065 421.752 L176.065 423.743 L163.519 456.312 L158.635 456.312 L170.44 425.687 L153.843 425.687 L153.843 421.752 Z" fill="#000000" fill-rule="nonzero" fill-opacity="1"></path><path clip-path="url(#clip540)" d="M185.186 450.432 L190.07 450.432 L190.07 456.312 L185.186 456.312 L185.186 450.432 Z" fill="#000000" fill-rule="nonzero" fill-opacity="1"></path><path clip-path="url(#clip540)" d="M200.301 421.752 L218.658 421.752 L218.658 425.687 L204.584 425.687 L204.584 434.159 Q205.602 433.812 206.621 433.65 Q207.639 433.465 208.658 433.465 Q214.445 433.465 217.824 436.636 Q221.204 439.807 221.204 445.224 Q221.204 450.803 217.732 453.905 Q214.26 456.983 207.94 456.983 Q205.764 456.983 203.496 456.613 Q201.25 456.243 198.843 455.502 L198.843 450.803 Q200.926 451.937 203.149 452.493 Q205.371 453.048 207.848 453.048 Q211.852 453.048 214.19 450.942 Q216.528 448.835 216.528 445.224 Q216.528 441.613 214.19 439.507 Q211.852 437.4 207.848 437.4 Q205.973 437.4 204.098 437.817 Q202.246 438.233 200.301 439.113 L200.301 421.752 Z" fill="#000000" fill-rule="nonzero" fill-opacity="1"></path><path clip-path="url(#clip540)" d="M114.26 171.725 L143.936 171.725 L143.936 175.66 L114.26 175.66 L114.26 171.725 Z" fill="#000000" fill-rule="nonzero" fill-opacity="1"></path><path clip-path="url(#clip540)" d="M152.848 153.993 L175.07 153.993 L175.07 155.984 L162.524 188.553 L157.64 188.553 L169.445 157.928 L152.848 157.928 L152.848 153.993 Z" fill="#000000" fill-rule="nonzero" fill-opacity="1"></path><path clip-path="url(#clip540)" d="M184.19 182.674 L189.075 182.674 L189.075 188.553 L184.19 188.553 L184.19 182.674 Z" fill="#000000" fill-rule="nonzero" fill-opacity="1"></path><path clip-path="url(#clip540)" d="M209.26 157.072 Q205.649 157.072 203.82 160.637 Q202.014 164.178 202.014 171.308 Q202.014 178.414 203.82 181.979 Q205.649 185.521 209.26 185.521 Q212.894 185.521 214.699 181.979 Q216.528 178.414 216.528 171.308 Q216.528 164.178 214.699 160.637 Q212.894 157.072 209.26 157.072 M209.26 153.368 Q215.07 153.368 218.125 157.975 Q221.204 162.558 221.204 171.308 Q221.204 180.035 218.125 184.641 Q215.07 189.224 209.26 189.224 Q203.449 189.224 200.371 184.641 Q197.315 180.035 197.315 171.308 Q197.315 162.558 200.371 157.975 Q203.449 153.368 209.26 153.368 Z" fill="#000000" fill-rule="nonzero" fill-opacity="1"></path><path clip-path="url(#clip540)" d="M14.479 885.268 L14.479 879.411 L64.0042 879.411 L64.0042 885.268 L14.479 885.268 Z" fill="#000000" fill-rule="nonzero" fill-opacity="1"></path><path clip-path="url(#clip540)" d="M32.4621 853.344 Q32.4621 858.054 36.1542 860.791 Q39.8145 863.529 46.212 863.529 Q52.6095 863.529 56.3017 860.823 Q59.9619 858.086 59.9619 853.344 Q59.9619 848.665 56.2698 845.928 Q52.5777 843.19 46.212 843.19 Q39.8781 843.19 36.186 845.928 Q32.4621 848.665 32.4621 853.344 M27.4968 853.344 Q27.4968 845.705 32.4621 841.344 Q37.4273 836.984 46.212 836.984 Q54.9649 836.984 59.9619 841.344 Q64.9272 845.705 64.9272 853.344 Q64.9272 861.014 59.9619 865.375 Q54.9649 869.703 46.212 869.703 Q37.4273 869.703 32.4621 865.375 Q27.4968 861.014 27.4968 853.344 Z" fill="#000000" fill-rule="nonzero" fill-opacity="1"></path><path clip-path="url(#clip540)" d="M45.7664 803.818 Q39.4007 803.818 35.8996 806.46 Q32.3984 809.07 32.3984 813.813 Q32.3984 818.523 35.8996 821.165 Q39.4007 823.775 45.7664 823.775 Q52.1003 823.775 55.6014 821.165 Q59.1026 818.523 59.1026 813.813 Q59.1026 809.07 55.6014 806.46 Q52.1003 803.818 45.7664 803.818 M59.58 797.962 Q68.683 797.962 73.1071 802.004 Q77.5631 806.046 77.5631 814.385 Q77.5631 817.473 77.0857 820.21 Q76.6401 822.947 75.6852 825.525 L69.9879 825.525 Q71.3884 822.947 72.0568 820.433 Q72.7252 817.918 72.7252 815.308 Q72.7252 809.548 69.7015 806.683 Q66.7096 803.818 60.6303 803.818 L57.7339 803.818 Q60.885 805.633 62.4446 808.465 Q64.0042 811.298 64.0042 815.245 Q64.0042 821.801 59.0071 825.812 Q54.01 829.822 45.7664 829.822 Q37.491 829.822 32.4939 825.812 Q27.4968 821.801 27.4968 815.245 Q27.4968 811.298 29.0564 808.465 Q30.616 805.633 33.7671 803.818 L28.3562 803.818 L28.3562 797.962 L59.58 797.962 Z" fill="#000000" fill-rule="nonzero" fill-opacity="1"></path><path clip-path="url(#clip540)" d="M58.5933 783.957 L58.5933 773.454 L22.3406 773.454 L24.6323 784.88 L18.7758 784.88 L16.4842 773.518 L16.4842 767.088 L58.5933 767.088 L58.5933 756.585 L64.0042 756.585 L64.0042 783.957 L58.5933 783.957 Z" fill="#000000" fill-rule="nonzero" fill-opacity="1"></path><path clip-path="url(#clip540)" d="M20.7174 729.849 Q20.7174 734.814 25.6189 737.329 Q30.4887 739.811 40.2919 739.811 Q50.0633 739.811 54.9649 737.329 Q59.8346 734.814 59.8346 729.849 Q59.8346 724.852 54.9649 722.369 Q50.0633 719.855 40.2919 719.855 Q30.4887 719.855 25.6189 722.369 Q20.7174 724.852 20.7174 729.849 M15.6248 729.849 Q15.6248 721.86 21.9587 717.659 Q28.2607 713.425 40.2919 713.425 Q52.2913 713.425 58.6251 717.659 Q64.9272 721.86 64.9272 729.849 Q64.9272 737.838 58.6251 742.071 Q52.2913 746.272 40.2919 746.272 Q28.2607 746.272 21.9587 742.071 Q15.6248 737.838 15.6248 729.849 Z" fill="#000000" fill-rule="nonzero" fill-opacity="1"></path><path clip-path="url(#clip540)" d="M14.5426 688.886 Q21.8632 693.151 29.0246 695.219 Q36.186 697.288 43.5384 697.288 Q50.8908 697.288 58.1159 695.219 Q65.3091 693.119 72.5979 688.886 L72.5979 693.978 Q65.1182 698.752 57.8931 701.14 Q50.668 703.495 43.5384 703.495 Q36.4406 703.495 29.2474 701.14 Q22.0542 698.784 14.5426 693.978 L14.5426 688.886 Z" fill="#000000" fill-rule="nonzero" fill-opacity="1"></path><path clip-path="url(#clip540)" d="M34.0217 652.346 Q33.6079 653.524 33.2896 654.702 Q32.4621 657.853 32.4621 661.227 Q32.4621 667.051 35.6131 670.298 Q38.5413 673.321 43.9204 673.894 L43.9204 652.346 L48.5037 652.346 L48.5037 673.894 Q53.8827 673.321 56.8109 670.298 Q59.9619 667.051 59.9619 661.227 Q59.9619 657.152 59.1344 654.702 L58.3387 652.346 L63.654 652.346 L64.227 654.861 Q64.9272 658.171 64.9272 661.577 Q64.9272 670.107 59.9619 675.072 Q54.9967 680.069 46.212 680.069 Q37.4273 680.069 32.4621 675.072 Q27.4968 670.107 27.4968 661.577 Q27.4968 658.362 28.1971 654.861 Q28.4517 653.588 28.8336 652.346 L34.0217 652.346 Z" fill="#000000" fill-rule="nonzero" fill-opacity="1"></path><path clip-path="url(#clip540)" d="M28.3562 607.786 L45.7028 620.677 L64.0042 607.118 L64.0042 614.025 L49.9996 624.401 L64.0042 634.777 L64.0042 641.684 L45.3526 627.838 L28.3562 640.506 L28.3562 633.599 L41.0558 624.146 L28.3562 614.693 L28.3562 607.786 Z" fill="#000000" fill-rule="nonzero" fill-opacity="1"></path><path clip-path="url(#clip540)" d="M14.5426 599.766 L14.5426 594.673 Q22.0542 589.899 29.2474 587.543 Q36.4406 585.156 43.5384 585.156 Q50.668 585.156 57.8931 587.543 Q65.1182 589.899 72.5979 594.673 L72.5979 599.766 Q65.3091 595.532 58.1159 593.464 Q50.8908 591.363 43.5384 591.363 Q36.186 591.363 29.0246 593.464 Q21.8632 595.532 14.5426 599.766 Z" fill="#000000" fill-rule="nonzero" fill-opacity="1"></path><circle clip-path="url(#clip542)" cx="282.763" cy="86.1857" r="14.4" fill="#009af9" fill-rule="evenodd" fill-opacity="1" stroke="#000000" stroke-opacity="1" stroke-width="3.2"></circle>
<circle clip-path="url(#clip542)" cx="708.747" cy="731.698" r="14.4" fill="#009af9" fill-rule="evenodd" fill-opacity="1" stroke="#000000" stroke-opacity="1" stroke-width="3.2"></circle>
<circle clip-path="url(#clip542)" cx="1134.73" cy="1384.24" r="14.4" fill="#009af9" fill-rule="evenodd" fill-opacity="1" stroke="#000000" stroke-opacity="1" stroke-width="3.2"></circle>
<polyline clip-path="url(#clip542)" style="stroke:#e26f46; stroke-linecap:round; stroke-linejoin:round; stroke-width:4; stroke-opacity:1; fill:none" points="282.763,86.1857 708.747,247.393 1134.73,408.599 "></polyline>
<polyline clip-path="url(#clip542)" style="stroke:#3da44d; stroke-linecap:round; stroke-linejoin:round; stroke-width:4; stroke-opacity:1; fill:none" points="282.763,86.1857 708.747,408.599 1134.73,731.013 "></polyline>
<polyline clip-path="url(#clip542)" style="stroke:#c271d2; stroke-linecap:round; stroke-linejoin:round; stroke-width:4; stroke-opacity:1; fill:none" points="282.763,86.1857 708.747,731.013 1134.73,1375.84 "></polyline>
<path clip-path="url(#clip540)" d="M977.727 352.309 L1130.19 352.309 L1130.19 93.1086 L977.727 93.1086  Z" fill="#ffffff" fill-rule="evenodd" fill-opacity="1"></path>
<polyline clip-path="url(#clip540)" style="stroke:#000000; stroke-linecap:round; stroke-linejoin:round; stroke-width:4; stroke-opacity:1; fill:none" points="977.727,352.309 1130.19,352.309 1130.19,93.1086 977.727,93.1086 977.727,352.309 "></polyline>
<circle clip-path="url(#clip540)" cx="1017.86" cy="144.949" r="20.48" fill="#009af9" fill-rule="evenodd" fill-opacity="1" stroke="#000000" stroke-opacity="1" stroke-width="4.55111"></circle>
<path clip-path="url(#clip540)" d="M1078.16 140.423 Q1077.31 140.122 1076.45 139.891 Q1074.16 139.289 1071.7 139.289 Q1067.47 139.289 1065.11 141.581 Q1062.91 143.71 1062.49 147.622 L1078.16 147.622 L1078.16 150.956 L1062.49 150.956 Q1062.91 154.868 1065.11 156.997 Q1067.47 159.289 1071.7 159.289 Q1074.67 159.289 1076.45 158.687 L1078.16 158.108 L1078.16 161.974 L1076.33 162.391 Q1073.93 162.9 1071.45 162.9 Q1065.25 162.9 1061.64 159.289 Q1058 155.678 1058 149.289 Q1058 142.9 1061.64 139.289 Q1065.25 135.678 1071.45 135.678 Q1073.79 135.678 1076.33 136.187 Q1077.26 136.372 1078.16 136.65 L1078.16 140.423 Z" fill="#000000" fill-rule="nonzero" fill-opacity="1"></path><polyline clip-path="url(#clip540)" style="stroke:#e26f46; stroke-linecap:round; stroke-linejoin:round; stroke-width:4; stroke-opacity:1; fill:none" points="987.761,196.789 1047.97,196.789 "></polyline>
<path clip-path="url(#clip540)" d="M1074.02 182.68 Q1068.93 182.68 1065.92 186.476 Q1062.93 190.272 1062.93 196.823 Q1062.93 203.351 1065.92 207.147 Q1068.93 210.944 1074.02 210.944 Q1079.11 210.944 1082.07 207.147 Q1085.06 203.351 1085.06 196.823 Q1085.06 190.272 1082.07 186.476 Q1079.11 182.68 1074.02 182.68 M1074.02 178.884 Q1081.29 178.884 1085.64 183.768 Q1089.99 188.629 1089.99 196.823 Q1089.99 204.995 1085.64 209.879 Q1081.29 214.74 1074.02 214.74 Q1066.73 214.74 1062.35 209.879 Q1058 205.018 1058 196.823 Q1058 188.629 1062.35 183.768 Q1066.73 178.884 1074.02 178.884 Z" fill="#000000" fill-rule="nonzero" fill-opacity="1"></path><path clip-path="url(#clip540)" d="M1098.53 210.133 L1106.17 210.133 L1106.17 183.768 L1097.86 185.435 L1097.86 181.175 L1106.13 179.509 L1110.8 179.509 L1110.8 210.133 L1118.44 210.133 L1118.44 214.069 L1098.53 214.069 L1098.53 210.133 Z" fill="#000000" fill-rule="nonzero" fill-opacity="1"></path><polyline clip-path="url(#clip540)" style="stroke:#3da44d; stroke-linecap:round; stroke-linejoin:round; stroke-width:4; stroke-opacity:1; fill:none" points="987.761,248.629 1047.97,248.629 "></polyline>
<path clip-path="url(#clip540)" d="M1074.02 234.52 Q1068.93 234.52 1065.92 238.316 Q1062.93 242.112 1062.93 248.663 Q1062.93 255.191 1065.92 258.987 Q1068.93 262.784 1074.02 262.784 Q1079.11 262.784 1082.07 258.987 Q1085.06 255.191 1085.06 248.663 Q1085.06 242.112 1082.07 238.316 Q1079.11 234.52 1074.02 234.52 M1074.02 230.724 Q1081.29 230.724 1085.64 235.608 Q1089.99 240.469 1089.99 248.663 Q1089.99 256.835 1085.64 261.719 Q1081.29 266.58 1074.02 266.58 Q1066.73 266.58 1062.35 261.719 Q1058 256.858 1058 248.663 Q1058 240.469 1062.35 235.608 Q1066.73 230.724 1074.02 230.724 Z" fill="#000000" fill-rule="nonzero" fill-opacity="1"></path><path clip-path="url(#clip540)" d="M1101.75 261.973 L1118.07 261.973 L1118.07 265.909 L1096.13 265.909 L1096.13 261.973 Q1098.79 259.219 1103.37 254.589 Q1107.98 249.936 1109.16 248.594 Q1111.4 246.071 1112.28 244.335 Q1113.19 242.575 1113.19 240.886 Q1113.19 238.131 1111.24 236.395 Q1109.32 234.659 1106.22 234.659 Q1104.02 234.659 1101.57 235.423 Q1099.14 236.187 1096.36 237.737 L1096.36 233.015 Q1099.18 231.881 1101.63 231.302 Q1104.09 230.724 1106.13 230.724 Q1111.5 230.724 1114.69 233.409 Q1117.88 236.094 1117.88 240.585 Q1117.88 242.714 1117.07 244.636 Q1116.29 246.534 1114.18 249.126 Q1113.6 249.798 1110.5 253.015 Q1107.4 256.21 1101.75 261.973 Z" fill="#000000" fill-rule="nonzero" fill-opacity="1"></path><polyline clip-path="url(#clip540)" style="stroke:#c271d2; stroke-linecap:round; stroke-linejoin:round; stroke-width:4; stroke-opacity:1; fill:none" points="987.761,300.469 1047.97,300.469 "></polyline>
<path clip-path="url(#clip540)" d="M1074.02 286.36 Q1068.93 286.36 1065.92 290.156 Q1062.93 293.952 1062.93 300.503 Q1062.93 307.031 1065.92 310.827 Q1068.93 314.624 1074.02 314.624 Q1079.11 314.624 1082.07 310.827 Q1085.06 307.031 1085.06 300.503 Q1085.06 293.952 1082.07 290.156 Q1079.11 286.36 1074.02 286.36 M1074.02 282.564 Q1081.29 282.564 1085.64 287.448 Q1089.99 292.309 1089.99 300.503 Q1089.99 308.675 1085.64 313.559 Q1081.29 318.42 1074.02 318.42 Q1066.73 318.42 1062.35 313.559 Q1058 308.698 1058 300.503 Q1058 292.309 1062.35 287.448 Q1066.73 282.564 1074.02 282.564 Z" fill="#000000" fill-rule="nonzero" fill-opacity="1"></path><path clip-path="url(#clip540)" d="M1110.57 287.263 L1098.76 305.712 L1110.57 305.712 L1110.57 287.263 M1109.34 283.189 L1115.22 283.189 L1115.22 305.712 L1120.15 305.712 L1120.15 309.601 L1115.22 309.601 L1115.22 317.749 L1110.57 317.749 L1110.57 309.601 L1094.97 309.601 L1094.97 305.087 L1109.34 283.189 Z" fill="#000000" fill-rule="nonzero" fill-opacity="1"></path><path clip-path="url(#clip540)" d="M1449.67 1423.18 L2352.76 1423.18 L2352.76 47.2441 L1449.67 47.2441  Z" fill="#ffffff" fill-rule="evenodd" fill-opacity="1"></path>
<defs>
  <clipPath id="clip543">
    <rect x="1449" y="47" width="904" height="1377"></rect>
  </clipPath>
</defs>
<polyline clip-path="url(#clip543)" style="stroke:#000000; stroke-linecap:round; stroke-linejoin:round; stroke-width:2; stroke-opacity:0.1; fill:none" points="1566.65,1423.18 1566.65,47.2441 "></polyline>
<polyline clip-path="url(#clip543)" style="stroke:#000000; stroke-linecap:round; stroke-linejoin:round; stroke-width:2; stroke-opacity:0.1; fill:none" points="1755.33,1423.18 1755.33,47.2441 "></polyline>
<polyline clip-path="url(#clip543)" style="stroke:#000000; stroke-linecap:round; stroke-linejoin:round; stroke-width:2; stroke-opacity:0.1; fill:none" points="1944.01,1423.18 1944.01,47.2441 "></polyline>
<polyline clip-path="url(#clip543)" style="stroke:#000000; stroke-linecap:round; stroke-linejoin:round; stroke-width:2; stroke-opacity:0.1; fill:none" points="2132.69,1423.18 2132.69,47.2441 "></polyline>
<polyline clip-path="url(#clip543)" style="stroke:#000000; stroke-linecap:round; stroke-linejoin:round; stroke-width:2; stroke-opacity:0.1; fill:none" points="2321.37,1423.18 2321.37,47.2441 "></polyline>
<polyline clip-path="url(#clip540)" style="stroke:#000000; stroke-linecap:round; stroke-linejoin:round; stroke-width:4; stroke-opacity:1; fill:none" points="1449.67,1423.18 2352.76,1423.18 "></polyline>
<polyline clip-path="url(#clip540)" style="stroke:#000000; stroke-linecap:round; stroke-linejoin:round; stroke-width:4; stroke-opacity:1; fill:none" points="1566.65,1423.18 1566.65,1404.28 "></polyline>
<polyline clip-path="url(#clip540)" style="stroke:#000000; stroke-linecap:round; stroke-linejoin:round; stroke-width:4; stroke-opacity:1; fill:none" points="1755.33,1423.18 1755.33,1404.28 "></polyline>
<polyline clip-path="url(#clip540)" style="stroke:#000000; stroke-linecap:round; stroke-linejoin:round; stroke-width:4; stroke-opacity:1; fill:none" points="1944.01,1423.18 1944.01,1404.28 "></polyline>
<polyline clip-path="url(#clip540)" style="stroke:#000000; stroke-linecap:round; stroke-linejoin:round; stroke-width:4; stroke-opacity:1; fill:none" points="2132.69,1423.18 2132.69,1404.28 "></polyline>
<polyline clip-path="url(#clip540)" style="stroke:#000000; stroke-linecap:round; stroke-linejoin:round; stroke-width:4; stroke-opacity:1; fill:none" points="2321.37,1423.18 2321.37,1404.28 "></polyline>
<path clip-path="url(#clip540)" d="M1547.29 1455.09 L1535.48 1473.54 L1547.29 1473.54 L1547.29 1455.09 M1546.06 1451.02 L1551.94 1451.02 L1551.94 1473.54 L1556.87 1473.54 L1556.87 1477.43 L1551.94 1477.43 L1551.94 1485.58 L1547.29 1485.58 L1547.29 1477.43 L1531.69 1477.43 L1531.69 1472.92 L1546.06 1451.02 Z" fill="#000000" fill-rule="nonzero" fill-opacity="1"></path><path clip-path="url(#clip540)" d="M1564.6 1479.7 L1569.49 1479.7 L1569.49 1485.58 L1564.6 1485.58 L1564.6 1479.7 Z" fill="#000000" fill-rule="nonzero" fill-opacity="1"></path><path clip-path="url(#clip540)" d="M1589.67 1454.1 Q1586.06 1454.1 1584.23 1457.66 Q1582.43 1461.2 1582.43 1468.33 Q1582.43 1475.44 1584.23 1479.01 Q1586.06 1482.55 1589.67 1482.55 Q1593.31 1482.55 1595.11 1479.01 Q1596.94 1475.44 1596.94 1468.33 Q1596.94 1461.2 1595.11 1457.66 Q1593.31 1454.1 1589.67 1454.1 M1589.67 1450.39 Q1595.48 1450.39 1598.54 1455 Q1601.62 1459.58 1601.62 1468.33 Q1601.62 1477.06 1598.54 1481.67 Q1595.48 1486.25 1589.67 1486.25 Q1583.86 1486.25 1580.78 1481.67 Q1577.73 1477.06 1577.73 1468.33 Q1577.73 1459.58 1580.78 1455 Q1583.86 1450.39 1589.67 1450.39 Z" fill="#000000" fill-rule="nonzero" fill-opacity="1"></path><path clip-path="url(#clip540)" d="M1736.77 1455.09 L1724.96 1473.54 L1736.77 1473.54 L1736.77 1455.09 M1735.54 1451.02 L1741.42 1451.02 L1741.42 1473.54 L1746.35 1473.54 L1746.35 1477.43 L1741.42 1477.43 L1741.42 1485.58 L1736.77 1485.58 L1736.77 1477.43 L1721.16 1477.43 L1721.16 1472.92 L1735.54 1451.02 Z" fill="#000000" fill-rule="nonzero" fill-opacity="1"></path><path clip-path="url(#clip540)" d="M1754.08 1479.7 L1758.97 1479.7 L1758.97 1485.58 L1754.08 1485.58 L1754.08 1479.7 Z" fill="#000000" fill-rule="nonzero" fill-opacity="1"></path><path clip-path="url(#clip540)" d="M1773.18 1481.64 L1789.5 1481.64 L1789.5 1485.58 L1767.55 1485.58 L1767.55 1481.64 Q1770.22 1478.89 1774.8 1474.26 Q1779.41 1469.61 1780.59 1468.27 Q1782.83 1465.74 1783.71 1464.01 Q1784.61 1462.25 1784.61 1460.56 Q1784.61 1457.8 1782.67 1456.07 Q1780.75 1454.33 1777.65 1454.33 Q1775.45 1454.33 1772.99 1455.09 Q1770.56 1455.86 1767.78 1457.41 L1767.78 1452.69 Q1770.61 1451.55 1773.06 1450.97 Q1775.52 1450.39 1777.55 1450.39 Q1782.92 1450.39 1786.12 1453.08 Q1789.31 1455.77 1789.31 1460.26 Q1789.31 1462.39 1788.5 1464.31 Q1787.72 1466.2 1785.61 1468.8 Q1785.03 1469.47 1781.93 1472.69 Q1778.83 1475.88 1773.18 1481.64 Z" fill="#000000" fill-rule="nonzero" fill-opacity="1"></path><path clip-path="url(#clip540)" d="M1924.4 1455.09 L1912.6 1473.54 L1924.4 1473.54 L1924.4 1455.09 M1923.18 1451.02 L1929.06 1451.02 L1929.06 1473.54 L1933.99 1473.54 L1933.99 1477.43 L1929.06 1477.43 L1929.06 1485.58 L1924.4 1485.58 L1924.4 1477.43 L1908.8 1477.43 L1908.8 1472.92 L1923.18 1451.02 Z" fill="#000000" fill-rule="nonzero" fill-opacity="1"></path><path clip-path="url(#clip540)" d="M1941.72 1479.7 L1946.6 1479.7 L1946.6 1485.58 L1941.72 1485.58 L1941.72 1479.7 Z" fill="#000000" fill-rule="nonzero" fill-opacity="1"></path><path clip-path="url(#clip540)" d="M1969.63 1455.09 L1957.83 1473.54 L1969.63 1473.54 L1969.63 1455.09 M1968.41 1451.02 L1974.29 1451.02 L1974.29 1473.54 L1979.22 1473.54 L1979.22 1477.43 L1974.29 1477.43 L1974.29 1485.58 L1969.63 1485.58 L1969.63 1477.43 L1954.03 1477.43 L1954.03 1472.92 L1968.41 1451.02 Z" fill="#000000" fill-rule="nonzero" fill-opacity="1"></path><path clip-path="url(#clip540)" d="M2113.24 1455.09 L2101.44 1473.54 L2113.24 1473.54 L2113.24 1455.09 M2112.02 1451.02 L2117.9 1451.02 L2117.9 1473.54 L2122.83 1473.54 L2122.83 1477.43 L2117.9 1477.43 L2117.9 1485.58 L2113.24 1485.58 L2113.24 1477.43 L2097.64 1477.43 L2097.64 1472.92 L2112.02 1451.02 Z" fill="#000000" fill-rule="nonzero" fill-opacity="1"></path><path clip-path="url(#clip540)" d="M2130.56 1479.7 L2135.44 1479.7 L2135.44 1485.58 L2130.56 1485.58 L2130.56 1479.7 Z" fill="#000000" fill-rule="nonzero" fill-opacity="1"></path><path clip-path="url(#clip540)" d="M2156.21 1466.44 Q2153.06 1466.44 2151.21 1468.59 Q2149.38 1470.74 2149.38 1474.49 Q2149.38 1478.22 2151.21 1480.39 Q2153.06 1482.55 2156.21 1482.55 Q2159.35 1482.55 2161.18 1480.39 Q2163.04 1478.22 2163.04 1474.49 Q2163.04 1470.74 2161.18 1468.59 Q2159.35 1466.44 2156.21 1466.44 M2165.49 1451.78 L2165.49 1456.04 Q2163.73 1455.21 2161.92 1454.77 Q2160.14 1454.33 2158.38 1454.33 Q2153.75 1454.33 2151.3 1457.45 Q2148.87 1460.58 2148.52 1466.9 Q2149.89 1464.89 2151.95 1463.82 Q2154.01 1462.73 2156.48 1462.73 Q2161.69 1462.73 2164.7 1465.9 Q2167.73 1469.05 2167.73 1474.49 Q2167.73 1479.82 2164.59 1483.03 Q2161.44 1486.25 2156.21 1486.25 Q2150.21 1486.25 2147.04 1481.67 Q2143.87 1477.06 2143.87 1468.33 Q2143.87 1460.14 2147.76 1455.28 Q2151.65 1450.39 2158.2 1450.39 Q2159.96 1450.39 2161.74 1450.74 Q2163.54 1451.09 2165.49 1451.78 Z" fill="#000000" fill-rule="nonzero" fill-opacity="1"></path><path clip-path="url(#clip540)" d="M2302.05 1455.09 L2290.24 1473.54 L2302.05 1473.54 L2302.05 1455.09 M2300.82 1451.02 L2306.7 1451.02 L2306.7 1473.54 L2311.63 1473.54 L2311.63 1477.43 L2306.7 1477.43 L2306.7 1485.58 L2302.05 1485.58 L2302.05 1477.43 L2286.45 1477.43 L2286.45 1472.92 L2300.82 1451.02 Z" fill="#000000" fill-rule="nonzero" fill-opacity="1"></path><path clip-path="url(#clip540)" d="M2319.36 1479.7 L2324.25 1479.7 L2324.25 1485.58 L2319.36 1485.58 L2319.36 1479.7 Z" fill="#000000" fill-rule="nonzero" fill-opacity="1"></path><path clip-path="url(#clip540)" d="M2344.43 1469.17 Q2341.1 1469.17 2339.18 1470.95 Q2337.28 1472.73 2337.28 1475.86 Q2337.28 1478.98 2339.18 1480.77 Q2341.1 1482.55 2344.43 1482.55 Q2347.77 1482.55 2349.69 1480.77 Q2351.61 1478.96 2351.61 1475.86 Q2351.61 1472.73 2349.69 1470.95 Q2347.79 1469.17 2344.43 1469.17 M2339.76 1467.18 Q2336.75 1466.44 2335.06 1464.38 Q2333.39 1462.32 2333.39 1459.35 Q2333.39 1455.21 2336.33 1452.8 Q2339.29 1450.39 2344.43 1450.39 Q2349.6 1450.39 2352.54 1452.8 Q2355.48 1455.21 2355.48 1459.35 Q2355.48 1462.32 2353.79 1464.38 Q2352.12 1466.44 2349.13 1467.18 Q2352.51 1467.96 2354.39 1470.26 Q2356.29 1472.55 2356.29 1475.86 Q2356.29 1480.88 2353.21 1483.57 Q2350.15 1486.25 2344.43 1486.25 Q2338.72 1486.25 2335.64 1483.57 Q2332.58 1480.88 2332.58 1475.86 Q2332.58 1472.55 2334.48 1470.26 Q2336.38 1467.96 2339.76 1467.18 M2338.04 1459.79 Q2338.04 1462.48 2339.71 1463.98 Q2341.4 1465.49 2344.43 1465.49 Q2347.44 1465.49 2349.13 1463.98 Q2350.85 1462.48 2350.85 1459.79 Q2350.85 1457.11 2349.13 1455.6 Q2347.44 1454.1 2344.43 1454.1 Q2341.4 1454.1 2339.71 1455.6 Q2338.04 1457.11 2338.04 1459.79 Z" fill="#000000" fill-rule="nonzero" fill-opacity="1"></path><path clip-path="url(#clip540)" d="M1723.7 1518.52 L1729.56 1518.52 L1729.56 1568.04 L1723.7 1568.04 L1723.7 1518.52 Z" fill="#000000" fill-rule="nonzero" fill-opacity="1"></path><path clip-path="url(#clip540)" d="M1755.63 1536.5 Q1750.92 1536.5 1748.18 1540.19 Q1745.44 1543.85 1745.44 1550.25 Q1745.44 1556.65 1748.15 1560.34 Q1750.89 1564 1755.63 1564 Q1760.31 1564 1763.04 1560.31 Q1765.78 1556.62 1765.78 1550.25 Q1765.78 1543.92 1763.04 1540.23 Q1760.31 1536.5 1755.63 1536.5 M1755.63 1531.54 Q1763.27 1531.54 1767.63 1536.5 Q1771.99 1541.47 1771.99 1550.25 Q1771.99 1559 1767.63 1564 Q1763.27 1568.97 1755.63 1568.97 Q1747.96 1568.97 1743.6 1564 Q1739.27 1559 1739.27 1550.25 Q1739.27 1541.47 1743.6 1536.5 Q1747.96 1531.54 1755.63 1531.54 Z" fill="#000000" fill-rule="nonzero" fill-opacity="1"></path><path clip-path="url(#clip540)" d="M1805.15 1549.81 Q1805.15 1543.44 1802.51 1539.94 Q1799.9 1536.44 1795.16 1536.44 Q1790.45 1536.44 1787.81 1539.94 Q1785.2 1543.44 1785.2 1549.81 Q1785.2 1556.14 1787.81 1559.64 Q1790.45 1563.14 1795.16 1563.14 Q1799.9 1563.14 1802.51 1559.64 Q1805.15 1556.14 1805.15 1549.81 M1811.01 1563.62 Q1811.01 1572.72 1806.97 1577.15 Q1802.93 1581.6 1794.59 1581.6 Q1791.5 1581.6 1788.76 1581.13 Q1786.03 1580.68 1783.45 1579.72 L1783.45 1574.03 Q1786.03 1575.43 1788.54 1576.1 Q1791.05 1576.76 1793.66 1576.76 Q1799.42 1576.76 1802.29 1573.74 Q1805.15 1570.75 1805.15 1564.67 L1805.15 1561.77 Q1803.34 1564.92 1800.51 1566.48 Q1797.67 1568.04 1793.73 1568.04 Q1787.17 1568.04 1783.16 1563.05 Q1779.15 1558.05 1779.15 1549.81 Q1779.15 1541.53 1783.16 1536.53 Q1787.17 1531.54 1793.73 1531.54 Q1797.67 1531.54 1800.51 1533.1 Q1803.34 1534.66 1805.15 1537.81 L1805.15 1532.4 L1811.01 1532.4 L1811.01 1563.62 Z" fill="#000000" fill-rule="nonzero" fill-opacity="1"></path><path clip-path="url(#clip540)" d="M1825.02 1562.63 L1835.52 1562.63 L1835.52 1526.38 L1824.09 1528.67 L1824.09 1522.82 L1835.45 1520.52 L1841.88 1520.52 L1841.88 1562.63 L1852.39 1562.63 L1852.39 1568.04 L1825.02 1568.04 L1825.02 1562.63 Z" fill="#000000" fill-rule="nonzero" fill-opacity="1"></path><path clip-path="url(#clip540)" d="M1879.12 1524.76 Q1874.16 1524.76 1871.64 1529.66 Q1869.16 1534.53 1869.16 1544.33 Q1869.16 1554.1 1871.64 1559 Q1874.16 1563.87 1879.12 1563.87 Q1884.12 1563.87 1886.6 1559 Q1889.12 1554.1 1889.12 1544.33 Q1889.12 1534.53 1886.6 1529.66 Q1884.12 1524.76 1879.12 1524.76 M1879.12 1519.66 Q1887.11 1519.66 1891.31 1526 Q1895.55 1532.3 1895.55 1544.33 Q1895.55 1556.33 1891.31 1562.66 Q1887.11 1568.97 1879.12 1568.97 Q1871.13 1568.97 1866.9 1562.66 Q1862.7 1556.33 1862.7 1544.33 Q1862.7 1532.3 1866.9 1526 Q1871.13 1519.66 1879.12 1519.66 Z" fill="#000000" fill-rule="nonzero" fill-opacity="1"></path><path clip-path="url(#clip540)" d="M1920.09 1518.58 Q1915.82 1525.9 1913.75 1533.06 Q1911.68 1540.23 1911.68 1547.58 Q1911.68 1554.93 1913.75 1562.16 Q1915.85 1569.35 1920.09 1576.64 L1914.99 1576.64 Q1910.22 1569.16 1907.83 1561.93 Q1905.48 1554.71 1905.48 1547.58 Q1905.48 1540.48 1907.83 1533.29 Q1910.19 1526.09 1914.99 1518.58 L1920.09 1518.58 Z" fill="#000000" fill-rule="nonzero" fill-opacity="1"></path><path clip-path="url(#clip540)" d="M1933.39 1562.63 L1943.89 1562.63 L1943.89 1526.38 L1932.47 1528.67 L1932.47 1522.82 L1943.83 1520.52 L1950.26 1520.52 L1950.26 1562.63 L1960.76 1562.63 L1960.76 1568.04 L1933.39 1568.04 L1933.39 1562.63 Z" fill="#000000" fill-rule="nonzero" fill-opacity="1"></path><path clip-path="url(#clip540)" d="M1983.33 1520.52 L1988.74 1520.52 L1972.19 1574.09 L1966.78 1574.09 L1983.33 1520.52 Z" fill="#000000" fill-rule="nonzero" fill-opacity="1"></path><path clip-path="url(#clip540)" d="M2011.02 1526.86 L1997.97 1562.7 L2024.1 1562.7 L2011.02 1526.86 M1989.25 1568.04 L2007.39 1520.52 L2014.68 1520.52 L2032.79 1568.04 L1989.25 1568.04 Z" fill="#000000" fill-rule="nonzero" fill-opacity="1"></path><path clip-path="url(#clip540)" d="M2045.27 1522.27 L2045.27 1532.4 L2057.33 1532.4 L2057.33 1536.95 L2045.27 1536.95 L2045.27 1556.3 Q2045.27 1560.66 2046.45 1561.9 Q2047.66 1563.14 2051.32 1563.14 L2057.33 1563.14 L2057.33 1568.04 L2051.32 1568.04 Q2044.54 1568.04 2041.96 1565.53 Q2039.38 1562.98 2039.38 1556.3 L2039.38 1536.95 L2035.08 1536.95 L2035.08 1532.4 L2039.38 1532.4 L2039.38 1522.27 L2045.27 1522.27 Z" fill="#000000" fill-rule="nonzero" fill-opacity="1"></path><path clip-path="url(#clip540)" d="M2064.11 1518.58 L2069.2 1518.58 Q2073.98 1526.09 2076.33 1533.29 Q2078.72 1540.48 2078.72 1547.58 Q2078.72 1554.71 2076.33 1561.93 Q2073.98 1569.16 2069.2 1576.64 L2064.11 1576.64 Q2068.34 1569.35 2070.41 1562.16 Q2072.51 1554.93 2072.51 1547.58 Q2072.51 1540.23 2070.41 1533.06 Q2068.34 1525.9 2064.11 1518.58 Z" fill="#000000" fill-rule="nonzero" fill-opacity="1"></path><polyline clip-path="url(#clip543)" style="stroke:#000000; stroke-linecap:round; stroke-linejoin:round; stroke-width:2; stroke-opacity:0.1; fill:none" points="1449.67,1149.24 2352.76,1149.24 "></polyline>
<polyline clip-path="url(#clip543)" style="stroke:#000000; stroke-linecap:round; stroke-linejoin:round; stroke-width:2; stroke-opacity:0.1; fill:none" points="1449.67,789.907 2352.76,789.907 "></polyline>
<polyline clip-path="url(#clip543)" style="stroke:#000000; stroke-linecap:round; stroke-linejoin:round; stroke-width:2; stroke-opacity:0.1; fill:none" points="1449.67,430.57 2352.76,430.57 "></polyline>
<polyline clip-path="url(#clip543)" style="stroke:#000000; stroke-linecap:round; stroke-linejoin:round; stroke-width:2; stroke-opacity:0.1; fill:none" points="1449.67,71.2339 2352.76,71.2339 "></polyline>
<polyline clip-path="url(#clip540)" style="stroke:#000000; stroke-linecap:round; stroke-linejoin:round; stroke-width:4; stroke-opacity:1; fill:none" points="1449.67,1423.18 1449.67,47.2441 "></polyline>
<polyline clip-path="url(#clip540)" style="stroke:#000000; stroke-linecap:round; stroke-linejoin:round; stroke-width:4; stroke-opacity:1; fill:none" points="1449.67,1149.24 1468.57,1149.24 "></polyline>
<polyline clip-path="url(#clip540)" style="stroke:#000000; stroke-linecap:round; stroke-linejoin:round; stroke-width:4; stroke-opacity:1; fill:none" points="1449.67,789.907 1468.57,789.907 "></polyline>
<polyline clip-path="url(#clip540)" style="stroke:#000000; stroke-linecap:round; stroke-linejoin:round; stroke-width:4; stroke-opacity:1; fill:none" points="1449.67,430.57 1468.57,430.57 "></polyline>
<polyline clip-path="url(#clip540)" style="stroke:#000000; stroke-linecap:round; stroke-linejoin:round; stroke-width:4; stroke-opacity:1; fill:none" points="1449.67,71.2339 1468.57,71.2339 "></polyline>
<path clip-path="url(#clip540)" d="M1323.02 1149.69 L1352.7 1149.69 L1352.7 1153.63 L1323.02 1153.63 L1323.02 1149.69 Z" fill="#000000" fill-rule="nonzero" fill-opacity="1"></path><path clip-path="url(#clip540)" d="M1363.6 1162.59 L1371.24 1162.59 L1371.24 1136.22 L1362.93 1137.89 L1362.93 1133.63 L1371.19 1131.96 L1375.87 1131.96 L1375.87 1162.59 L1383.51 1162.59 L1383.51 1166.52 L1363.6 1166.52 L1363.6 1162.59 Z" fill="#000000" fill-rule="nonzero" fill-opacity="1"></path><path clip-path="url(#clip540)" d="M1393.76 1162.59 L1401.4 1162.59 L1401.4 1136.22 L1393.09 1137.89 L1393.09 1133.63 L1401.35 1131.96 L1406.03 1131.96 L1406.03 1162.59 L1413.67 1162.59 L1413.67 1166.52 L1393.76 1166.52 L1393.76 1162.59 Z" fill="#000000" fill-rule="nonzero" fill-opacity="1"></path><path clip-path="url(#clip540)" d="M1321.79 790.358 L1351.47 790.358 L1351.47 794.293 L1321.79 794.293 L1321.79 790.358 Z" fill="#000000" fill-rule="nonzero" fill-opacity="1"></path><path clip-path="url(#clip540)" d="M1362.37 803.252 L1370.01 803.252 L1370.01 776.886 L1361.7 778.553 L1361.7 774.293 L1369.97 772.627 L1374.64 772.627 L1374.64 803.252 L1382.28 803.252 L1382.28 807.187 L1362.37 807.187 L1362.37 803.252 Z" fill="#000000" fill-rule="nonzero" fill-opacity="1"></path><path clip-path="url(#clip540)" d="M1401.72 775.706 Q1398.11 775.706 1396.29 779.27 Q1394.48 782.812 1394.48 789.942 Q1394.48 797.048 1396.29 800.613 Q1398.11 804.154 1401.72 804.154 Q1405.36 804.154 1407.16 800.613 Q1408.99 797.048 1408.99 789.942 Q1408.99 782.812 1407.16 779.27 Q1405.36 775.706 1401.72 775.706 M1401.72 772.002 Q1407.54 772.002 1410.59 776.608 Q1413.67 781.192 1413.67 789.942 Q1413.67 798.668 1410.59 803.275 Q1407.54 807.858 1401.72 807.858 Q1395.91 807.858 1392.84 803.275 Q1389.78 798.668 1389.78 789.942 Q1389.78 781.192 1392.84 776.608 Q1395.91 772.002 1401.72 772.002 Z" fill="#000000" fill-rule="nonzero" fill-opacity="1"></path><path clip-path="url(#clip540)" d="M1352.14 431.022 L1381.82 431.022 L1381.82 434.957 L1352.14 434.957 L1352.14 431.022 Z" fill="#000000" fill-rule="nonzero" fill-opacity="1"></path><path clip-path="url(#clip540)" d="M1392.05 447.133 L1392.05 442.874 Q1393.81 443.707 1395.61 444.147 Q1397.42 444.587 1399.16 444.587 Q1403.79 444.587 1406.22 441.485 Q1408.67 438.36 1409.02 432.017 Q1407.67 434.008 1405.61 435.073 Q1403.55 436.137 1401.05 436.137 Q1395.87 436.137 1392.84 433.012 Q1389.83 429.864 1389.83 424.425 Q1389.83 419.101 1392.98 415.883 Q1396.12 412.665 1401.35 412.665 Q1407.35 412.665 1410.5 417.272 Q1413.67 421.855 1413.67 430.605 Q1413.67 438.776 1409.78 443.661 Q1405.91 448.522 1399.36 448.522 Q1397.6 448.522 1395.8 448.174 Q1393.99 447.827 1392.05 447.133 M1401.35 432.48 Q1404.5 432.48 1406.33 430.327 Q1408.18 428.175 1408.18 424.425 Q1408.18 420.698 1406.33 418.545 Q1404.5 416.369 1401.35 416.369 Q1398.21 416.369 1396.35 418.545 Q1394.53 420.698 1394.53 424.425 Q1394.53 428.175 1396.35 430.327 Q1398.21 432.48 1401.35 432.48 Z" fill="#000000" fill-rule="nonzero" fill-opacity="1"></path><path clip-path="url(#clip540)" d="M1352.05 71.6853 L1381.73 71.6853 L1381.73 75.6205 L1352.05 75.6205 L1352.05 71.6853 Z" fill="#000000" fill-rule="nonzero" fill-opacity="1"></path><path clip-path="url(#clip540)" d="M1401.82 72.102 Q1398.48 72.102 1396.56 73.8844 Q1394.66 75.6668 1394.66 78.7918 Q1394.66 81.9167 1396.56 83.6991 Q1398.48 85.4815 1401.82 85.4815 Q1405.15 85.4815 1407.07 83.6991 Q1408.99 81.8936 1408.99 78.7918 Q1408.99 75.6668 1407.07 73.8844 Q1405.17 72.102 1401.82 72.102 M1397.14 70.1113 Q1394.13 69.3705 1392.44 67.3103 Q1390.78 65.2502 1390.78 62.2872 Q1390.78 58.1437 1393.72 55.7363 Q1396.68 53.3289 1401.82 53.3289 Q1406.98 53.3289 1409.92 55.7363 Q1412.86 58.1437 1412.86 62.2872 Q1412.86 65.2502 1411.17 67.3103 Q1409.5 69.3705 1406.52 70.1113 Q1409.9 70.8983 1411.77 73.1899 Q1413.67 75.4816 1413.67 78.7918 Q1413.67 83.8149 1410.59 86.5001 Q1407.54 89.1852 1401.82 89.1852 Q1396.1 89.1852 1393.02 86.5001 Q1389.97 83.8149 1389.97 78.7918 Q1389.97 75.4816 1391.86 73.1899 Q1393.76 70.8983 1397.14 70.1113 M1395.43 62.727 Q1395.43 65.4122 1397.1 66.9168 Q1398.79 68.4214 1401.82 68.4214 Q1404.83 68.4214 1406.52 66.9168 Q1408.23 65.4122 1408.23 62.727 Q1408.23 60.0419 1406.52 58.5372 Q1404.83 57.0326 1401.82 57.0326 Q1398.79 57.0326 1397.1 58.5372 Q1395.43 60.0419 1395.43 62.727 Z" fill="#000000" fill-rule="nonzero" fill-opacity="1"></path><path clip-path="url(#clip540)" d="M1222.01 878.759 L1222.01 872.902 L1271.54 872.902 L1271.54 878.759 L1222.01 878.759 Z" fill="#000000" fill-rule="nonzero" fill-opacity="1"></path><path clip-path="url(#clip540)" d="M1240 846.835 Q1240 851.545 1243.69 854.283 Q1247.35 857.02 1253.75 857.02 Q1260.14 857.02 1263.84 854.314 Q1267.5 851.577 1267.5 846.835 Q1267.5 842.156 1263.8 839.419 Q1260.11 836.681 1253.75 836.681 Q1247.41 836.681 1243.72 839.419 Q1240 842.156 1240 846.835 M1235.03 846.835 Q1235.03 839.196 1240 834.835 Q1244.96 830.475 1253.75 830.475 Q1262.5 830.475 1267.5 834.835 Q1272.46 839.196 1272.46 846.835 Q1272.46 854.505 1267.5 858.866 Q1262.5 863.195 1253.75 863.195 Q1244.96 863.195 1240 858.866 Q1235.03 854.505 1235.03 846.835 Z" fill="#000000" fill-rule="nonzero" fill-opacity="1"></path><path clip-path="url(#clip540)" d="M1253.3 797.309 Q1246.94 797.309 1243.43 799.951 Q1239.93 802.561 1239.93 807.304 Q1239.93 812.014 1243.43 814.656 Q1246.94 817.266 1253.3 817.266 Q1259.63 817.266 1263.14 814.656 Q1266.64 812.014 1266.64 807.304 Q1266.64 802.561 1263.14 799.951 Q1259.63 797.309 1253.3 797.309 M1267.11 791.453 Q1276.22 791.453 1280.64 795.495 Q1285.1 799.537 1285.1 807.877 Q1285.1 810.964 1284.62 813.701 Q1284.17 816.438 1283.22 819.016 L1277.52 819.016 Q1278.92 816.438 1279.59 813.924 Q1280.26 811.409 1280.26 808.8 Q1280.26 803.039 1277.24 800.174 Q1274.24 797.309 1268.17 797.309 L1265.27 797.309 Q1268.42 799.124 1269.98 801.956 Q1271.54 804.789 1271.54 808.736 Q1271.54 815.293 1266.54 819.303 Q1261.54 823.313 1253.3 823.313 Q1245.03 823.313 1240.03 819.303 Q1235.03 815.293 1235.03 808.736 Q1235.03 804.789 1236.59 801.956 Q1238.15 799.124 1241.3 797.309 L1235.89 797.309 L1235.89 791.453 L1267.11 791.453 Z" fill="#000000" fill-rule="nonzero" fill-opacity="1"></path><path clip-path="url(#clip540)" d="M1266.13 777.448 L1266.13 766.945 L1229.88 766.945 L1232.17 778.371 L1226.31 778.371 L1224.02 767.009 L1224.02 760.579 L1266.13 760.579 L1266.13 750.076 L1271.54 750.076 L1271.54 777.448 L1266.13 777.448 Z" fill="#000000" fill-rule="nonzero" fill-opacity="1"></path><path clip-path="url(#clip540)" d="M1228.25 723.34 Q1228.25 728.305 1233.15 730.82 Q1238.02 733.302 1247.83 733.302 Q1257.6 733.302 1262.5 730.82 Q1267.37 728.305 1267.37 723.34 Q1267.37 718.343 1262.5 715.86 Q1257.6 713.346 1247.83 713.346 Q1238.02 713.346 1233.15 715.86 Q1228.25 718.343 1228.25 723.34 M1223.16 723.34 Q1223.16 715.351 1229.49 711.15 Q1235.8 706.916 1247.83 706.916 Q1259.83 706.916 1266.16 711.15 Q1272.46 715.351 1272.46 723.34 Q1272.46 731.329 1266.16 735.562 Q1259.83 739.763 1247.83 739.763 Q1235.8 739.763 1229.49 735.562 Q1223.16 731.329 1223.16 723.34 Z" fill="#000000" fill-rule="nonzero" fill-opacity="1"></path><path clip-path="url(#clip540)" d="M1222.08 682.377 Q1229.4 686.642 1236.56 688.71 Q1243.72 690.779 1251.07 690.779 Q1258.43 690.779 1265.65 688.71 Q1272.84 686.61 1280.13 682.377 L1280.13 687.469 Q1272.65 692.243 1265.43 694.631 Q1258.2 696.986 1251.07 696.986 Q1243.98 696.986 1236.78 694.631 Q1229.59 692.275 1222.08 687.469 L1222.08 682.377 Z" fill="#000000" fill-rule="nonzero" fill-opacity="1"></path><path clip-path="url(#clip540)" d="M1241.56 645.837 Q1241.14 647.015 1240.82 648.193 Q1240 651.344 1240 654.718 Q1240 660.542 1243.15 663.789 Q1246.08 666.812 1251.46 667.385 L1251.46 645.837 L1256.04 645.837 L1256.04 667.385 Q1261.42 666.812 1264.35 663.789 Q1267.5 660.542 1267.5 654.718 Q1267.5 650.644 1266.67 648.193 L1265.87 645.837 L1271.19 645.837 L1271.76 648.352 Q1272.46 651.662 1272.46 655.068 Q1272.46 663.598 1267.5 668.563 Q1262.53 673.56 1253.75 673.56 Q1244.96 673.56 1240 668.563 Q1235.03 663.598 1235.03 655.068 Q1235.03 651.853 1235.73 648.352 Q1235.99 647.079 1236.37 645.837 L1241.56 645.837 Z" fill="#000000" fill-rule="nonzero" fill-opacity="1"></path><path clip-path="url(#clip540)" d="M1225.77 625.117 L1235.89 625.117 L1235.89 613.054 L1240.44 613.054 L1240.44 625.117 L1259.79 625.117 Q1264.15 625.117 1265.4 623.939 Q1266.64 622.73 1266.64 619.07 L1266.64 613.054 L1271.54 613.054 L1271.54 619.07 Q1271.54 625.849 1269.02 628.427 Q1266.48 631.005 1259.79 631.005 L1240.44 631.005 L1240.44 635.302 L1235.89 635.302 L1235.89 631.005 L1225.77 631.005 L1225.77 625.117 Z" fill="#000000" fill-rule="nonzero" fill-opacity="1"></path><path clip-path="url(#clip540)" d="M1222.08 606.275 L1222.08 601.182 Q1229.59 596.408 1236.78 594.052 Q1243.98 591.665 1251.07 591.665 Q1258.2 591.665 1265.43 594.052 Q1272.65 596.408 1280.13 601.182 L1280.13 606.275 Q1272.84 602.041 1265.65 599.973 Q1258.43 597.872 1251.07 597.872 Q1243.72 597.872 1236.56 599.973 Q1229.4 602.041 1222.08 606.275 Z" fill="#000000" fill-rule="nonzero" fill-opacity="1"></path><circle clip-path="url(#clip543)" cx="1475.23" cy="86.1857" r="14.4" fill="#009af9" fill-rule="evenodd" fill-opacity="1" stroke="#000000" stroke-opacity="1" stroke-width="3.2"></circle>
<circle clip-path="url(#clip543)" cx="1759.22" cy="520.193" r="14.4" fill="#009af9" fill-rule="evenodd" fill-opacity="1" stroke="#000000" stroke-opacity="1" stroke-width="3.2"></circle>
<circle clip-path="url(#clip543)" cx="2043.21" cy="952.835" r="14.4" fill="#009af9" fill-rule="evenodd" fill-opacity="1" stroke="#000000" stroke-opacity="1" stroke-width="3.2"></circle>
<circle clip-path="url(#clip543)" cx="2327.2" cy="1312.28" r="14.4" fill="#009af9" fill-rule="evenodd" fill-opacity="1" stroke="#000000" stroke-opacity="1" stroke-width="3.2"></circle>
<polyline clip-path="url(#clip543)" style="stroke:#e26f46; stroke-linecap:round; stroke-linejoin:round; stroke-width:4; stroke-opacity:1; fill:none" points="1475.23,86.1857 1759.22,194.357 2043.21,302.528 2327.2,410.699 "></polyline>
<polyline clip-path="url(#clip543)" style="stroke:#3da44d; stroke-linecap:round; stroke-linejoin:round; stroke-width:4; stroke-opacity:1; fill:none" points="1475.23,86.1857 1759.22,302.528 2043.21,518.87 2327.2,735.212 "></polyline>
<polyline clip-path="url(#clip543)" style="stroke:#c271d2; stroke-linecap:round; stroke-linejoin:round; stroke-width:4; stroke-opacity:1; fill:none" points="1475.23,86.1857 1759.22,518.87 2043.21,951.554 2327.2,1384.24 "></polyline>
<path clip-path="url(#clip540)" d="M2170.19 352.309 L2322.65 352.309 L2322.65 93.1086 L2170.19 93.1086  Z" fill="#ffffff" fill-rule="evenodd" fill-opacity="1"></path>
<polyline clip-path="url(#clip540)" style="stroke:#000000; stroke-linecap:round; stroke-linejoin:round; stroke-width:4; stroke-opacity:1; fill:none" points="2170.19,352.309 2322.65,352.309 2322.65,93.1086 2170.19,93.1086 2170.19,352.309 "></polyline>
<circle clip-path="url(#clip540)" cx="2210.33" cy="144.949" r="20.48" fill="#009af9" fill-rule="evenodd" fill-opacity="1" stroke="#000000" stroke-opacity="1" stroke-width="4.55111"></circle>
<path clip-path="url(#clip540)" d="M2270.63 140.423 Q2269.77 140.122 2268.92 139.891 Q2266.62 139.289 2264.17 139.289 Q2259.93 139.289 2257.57 141.581 Q2255.37 143.71 2254.96 147.622 L2270.63 147.622 L2270.63 150.956 L2254.96 150.956 Q2255.37 154.868 2257.57 156.997 Q2259.93 159.289 2264.17 159.289 Q2267.13 159.289 2268.92 158.687 L2270.63 158.108 L2270.63 161.974 L2268.8 162.391 Q2266.39 162.9 2263.92 162.9 Q2257.71 162.9 2254.1 159.289 Q2250.47 155.678 2250.47 149.289 Q2250.47 142.9 2254.1 139.289 Q2257.71 135.678 2263.92 135.678 Q2266.25 135.678 2268.8 136.187 Q2269.73 136.372 2270.63 136.65 L2270.63 140.423 Z" fill="#000000" fill-rule="nonzero" fill-opacity="1"></path><polyline clip-path="url(#clip540)" style="stroke:#e26f46; stroke-linecap:round; stroke-linejoin:round; stroke-width:4; stroke-opacity:1; fill:none" points="2180.23,196.789 2240.43,196.789 "></polyline>
<path clip-path="url(#clip540)" d="M2266.48 182.68 Q2261.39 182.68 2258.38 186.476 Q2255.4 190.272 2255.4 196.823 Q2255.4 203.351 2258.38 207.147 Q2261.39 210.944 2266.48 210.944 Q2271.58 210.944 2274.54 207.147 Q2277.53 203.351 2277.53 196.823 Q2277.53 190.272 2274.54 186.476 Q2271.58 182.68 2266.48 182.68 M2266.48 178.884 Q2273.75 178.884 2278.11 183.768 Q2282.46 188.629 2282.46 196.823 Q2282.46 204.995 2278.11 209.879 Q2273.75 214.74 2266.48 214.74 Q2259.19 214.74 2254.82 209.879 Q2250.47 205.018 2250.47 196.823 Q2250.47 188.629 2254.82 183.768 Q2259.19 178.884 2266.48 178.884 Z" fill="#000000" fill-rule="nonzero" fill-opacity="1"></path><path clip-path="url(#clip540)" d="M2291 210.133 L2298.64 210.133 L2298.64 183.768 L2290.33 185.435 L2290.33 181.175 L2298.59 179.509 L2303.27 179.509 L2303.27 210.133 L2310.91 210.133 L2310.91 214.069 L2291 214.069 L2291 210.133 Z" fill="#000000" fill-rule="nonzero" fill-opacity="1"></path><polyline clip-path="url(#clip540)" style="stroke:#3da44d; stroke-linecap:round; stroke-linejoin:round; stroke-width:4; stroke-opacity:1; fill:none" points="2180.23,248.629 2240.43,248.629 "></polyline>
<path clip-path="url(#clip540)" d="M2266.48 234.52 Q2261.39 234.52 2258.38 238.316 Q2255.4 242.112 2255.4 248.663 Q2255.4 255.191 2258.38 258.987 Q2261.39 262.784 2266.48 262.784 Q2271.58 262.784 2274.54 258.987 Q2277.53 255.191 2277.53 248.663 Q2277.53 242.112 2274.54 238.316 Q2271.58 234.52 2266.48 234.52 M2266.48 230.724 Q2273.75 230.724 2278.11 235.608 Q2282.46 240.469 2282.46 248.663 Q2282.46 256.835 2278.11 261.719 Q2273.75 266.58 2266.48 266.58 Q2259.19 266.58 2254.82 261.719 Q2250.47 256.858 2250.47 248.663 Q2250.47 240.469 2254.82 235.608 Q2259.19 230.724 2266.48 230.724 Z" fill="#000000" fill-rule="nonzero" fill-opacity="1"></path><path clip-path="url(#clip540)" d="M2294.22 261.973 L2310.54 261.973 L2310.54 265.909 L2288.59 265.909 L2288.59 261.973 Q2291.25 259.219 2295.84 254.589 Q2300.44 249.936 2301.62 248.594 Q2303.87 246.071 2304.75 244.335 Q2305.65 242.575 2305.65 240.886 Q2305.65 238.131 2303.71 236.395 Q2301.79 234.659 2298.68 234.659 Q2296.48 234.659 2294.03 235.423 Q2291.6 236.187 2288.82 237.737 L2288.82 233.015 Q2291.65 231.881 2294.1 231.302 Q2296.55 230.724 2298.59 230.724 Q2303.96 230.724 2307.16 233.409 Q2310.35 236.094 2310.35 240.585 Q2310.35 242.714 2309.54 244.636 Q2308.75 246.534 2306.65 249.126 Q2306.07 249.798 2302.97 253.015 Q2299.86 256.21 2294.22 261.973 Z" fill="#000000" fill-rule="nonzero" fill-opacity="1"></path><polyline clip-path="url(#clip540)" style="stroke:#c271d2; stroke-linecap:round; stroke-linejoin:round; stroke-width:4; stroke-opacity:1; fill:none" points="2180.23,300.469 2240.43,300.469 "></polyline>
<path clip-path="url(#clip540)" d="M2266.48 286.36 Q2261.39 286.36 2258.38 290.156 Q2255.4 293.952 2255.4 300.503 Q2255.4 307.031 2258.38 310.827 Q2261.39 314.624 2266.48 314.624 Q2271.58 314.624 2274.54 310.827 Q2277.53 307.031 2277.53 300.503 Q2277.53 293.952 2274.54 290.156 Q2271.58 286.36 2266.48 286.36 M2266.48 282.564 Q2273.75 282.564 2278.11 287.448 Q2282.46 292.309 2282.46 300.503 Q2282.46 308.675 2278.11 313.559 Q2273.75 318.42 2266.48 318.42 Q2259.19 318.42 2254.82 313.559 Q2250.47 308.698 2250.47 300.503 Q2250.47 292.309 2254.82 287.448 Q2259.19 282.564 2266.48 282.564 Z" fill="#000000" fill-rule="nonzero" fill-opacity="1"></path><path clip-path="url(#clip540)" d="M2303.04 287.263 L2291.23 305.712 L2303.04 305.712 L2303.04 287.263 M2301.81 283.189 L2307.69 283.189 L2307.69 305.712 L2312.62 305.712 L2312.62 309.601 L2307.69 309.601 L2307.69 317.749 L2303.04 317.749 L2303.04 309.601 L2287.43 309.601 L2287.43 305.087 L2301.81 283.189 Z" fill="#000000" fill-rule="nonzero" fill-opacity="1"></path></svg>