<svg xmlns="http://www.w3.org/2000/svg" xmlns:xlink="http://www.w3.org/1999/xlink" width="600" height="400" viewBox="0 0 2400 1600">
<defs>
  <clipPath id="clip810">
    <rect x="0" y="0" width="2400" height="1600"></rect>
  </clipPath>
</defs>
<path clip-path="url(#clip810)" d="M0 1600 L2400 1600 L2400 8.88178e-14 L0 8.88178e-14  Z" fill="#ffffff" fill-rule="evenodd" fill-opacity="1"></path>
<defs>
  <clipPath id="clip811">
    <rect x="480" y="0" width="1681" height="1600"></rect>
  </clipPath>
</defs>
<path clip-path="url(#clip810)" d="M287.366 1423.18 L1152.76 1423.18 L1152.76 47.2441 L287.366 47.2441  Z" fill="#ffffff" fill-rule="evenodd" fill-opacity="1"></path>
<defs>
  <clipPath id="clip812">
    <rect x="287" y="47" width="866" height="1377"></rect>
  </clipPath>
</defs>
<polyline clip-path="url(#clip812)" style="stroke:#000000; stroke-linecap:round; stroke-linejoin:round; stroke-width:2; stroke-opacity:0.1; fill:none" points="311.858,1423.18 311.858,47.2441 "></polyline>
<polyline clip-path="url(#clip812)" style="stroke:#000000; stroke-linecap:round; stroke-linejoin:round; stroke-width:2; stroke-opacity:0.1; fill:none" points="492.661,1423.18 492.661,47.2441 "></polyline>
<polyline clip-path="url(#clip812)" style="stroke:#000000; stroke-linecap:round; stroke-linejoin:round; stroke-width:2; stroke-opacity:0.1; fill:none" points="673.464,1423.18 673.464,47.2441 "></polyline>
<polyline clip-path="url(#clip812)" style="stroke:#000000; stroke-linecap:round; stroke-linejoin:round; stroke-width:2; stroke-opacity:0.1; fill:none" points="854.266,1423.18 854.266,47.2441 "></polyline>
<polyline clip-path="url(#clip812)" style="stroke:#000000; stroke-linecap:round; stroke-linejoin:round; stroke-width:2; stroke-opacity:0.1; fill:none" points="1035.07,1423.18 1035.07,47.2441 "></polyline>
<polyline clip-path="url(#clip810)" style="stroke:#000000; stroke-linecap:round; stroke-linejoin:round; stroke-width:4; stroke-opacity:1; fill:none" points="287.366,1423.18 1152.76,1423.18 "></polyline>
<polyline clip-path="url(#clip810)" style="stroke:#000000; stroke-linecap:round; stroke-linejoin:round; stroke-width:4; stroke-opacity:1; fill:none" points="311.858,1423.18 311.858,1404.28 "></polyline>
<polyline clip-path="url(#clip810)" style="stroke:#000000; stroke-linecap:round; stroke-linejoin:round; stroke-width:4; stroke-opacity:1; fill:none" points="492.661,1423.18 492.661,1404.28 "></polyline>
<polyline clip-path="url(#clip810)" style="stroke:#000000; stroke-linecap:round; stroke-linejoin:round; stroke-width:4; stroke-opacity:1; fill:none" points="673.464,1423.18 673.464,1404.28 "></polyline>
<polyline clip-path="url(#clip810)" style="stroke:#000000; stroke-linecap:round; stroke-linejoin:round; stroke-width:4; stroke-opacity:1; fill:none" points="854.266,1423.18 854.266,1404.28 "></polyline>
<polyline clip-path="url(#clip810)" style="stroke:#000000; stroke-linecap:round; stroke-linejoin:round; stroke-width:4; stroke-opacity:1; fill:none" points="1035.07,1423.18 1035.07,1404.28 "></polyline>
<path clip-path="url(#clip810)" d="M279.011 1481.64 L286.65 1481.64 L286.65 1455.28 L278.34 1456.95 L278.34 1452.69 L286.604 1451.02 L291.279 1451.02 L291.279 1481.64 L298.918 1481.64 L298.918 1485.58 L279.011 1485.58 L279.011 1481.64 Z" fill="#000000" fill-rule="nonzero" fill-opacity="1"></path><path clip-path="url(#clip810)" d="M308.363 1479.7 L313.247 1479.7 L313.247 1485.58 L308.363 1485.58 L308.363 1479.7 Z" fill="#000000" fill-rule="nonzero" fill-opacity="1"></path><path clip-path="url(#clip810)" d="M333.432 1454.1 Q329.821 1454.1 327.992 1457.66 Q326.187 1461.2 326.187 1468.33 Q326.187 1475.44 327.992 1479.01 Q329.821 1482.55 333.432 1482.55 Q337.066 1482.55 338.872 1479.01 Q340.701 1475.44 340.701 1468.33 Q340.701 1461.2 338.872 1457.66 Q337.066 1454.1 333.432 1454.1 M333.432 1450.39 Q339.242 1450.39 342.298 1455 Q345.376 1459.58 345.376 1468.33 Q345.376 1477.06 342.298 1481.67 Q339.242 1486.25 333.432 1486.25 Q327.622 1486.25 324.543 1481.67 Q321.488 1477.06 321.488 1468.33 Q321.488 1459.58 324.543 1455 Q327.622 1450.39 333.432 1450.39 Z" fill="#000000" fill-rule="nonzero" fill-opacity="1"></path><path clip-path="url(#clip810)" d="M460.612 1481.64 L468.251 1481.64 L468.251 1455.28 L459.941 1456.95 L459.941 1452.69 L468.205 1451.02 L472.881 1451.02 L472.881 1481.64 L480.52 1481.64 L480.52 1485.58 L460.612 1485.58 L460.612 1481.64 Z" fill="#000000" fill-rule="nonzero" fill-opacity="1"></path><path clip-path="url(#clip810)" d="M489.964 1479.7 L494.848 1479.7 L494.848 1485.58 L489.964 1485.58 L489.964 1479.7 Z" fill="#000000" fill-rule="nonzero" fill-opacity="1"></path><path clip-path="url(#clip810)" d="M509.061 1481.64 L525.381 1481.64 L525.381 1485.58 L503.436 1485.58 L503.436 1481.64 Q506.098 1478.89 510.682 1474.26 Q515.288 1469.61 516.469 1468.27 Q518.714 1465.74 519.594 1464.01 Q520.496 1462.25 520.496 1460.56 Q520.496 1457.8 518.552 1456.07 Q516.631 1454.33 513.529 1454.33 Q511.33 1454.33 508.876 1455.09 Q506.445 1455.86 503.668 1457.41 L503.668 1452.69 Q506.492 1451.55 508.945 1450.97 Q511.399 1450.39 513.436 1450.39 Q518.806 1450.39 522.001 1453.08 Q525.195 1455.77 525.195 1460.26 Q525.195 1462.39 524.385 1464.31 Q523.598 1466.2 521.492 1468.8 Q520.913 1469.47 517.811 1472.69 Q514.709 1475.88 509.061 1481.64 Z" fill="#000000" fill-rule="nonzero" fill-opacity="1"></path><path clip-path="url(#clip810)" d="M640.373 1481.64 L648.012 1481.64 L648.012 1455.28 L639.702 1456.95 L639.702 1452.69 L647.966 1451.02 L652.642 1451.02 L652.642 1481.64 L660.281 1481.64 L660.281 1485.58 L640.373 1485.58 L640.373 1481.64 Z" fill="#000000" fill-rule="nonzero" fill-opacity="1"></path><path clip-path="url(#clip810)" d="M669.725 1479.7 L674.609 1479.7 L674.609 1485.58 L669.725 1485.58 L669.725 1479.7 Z" fill="#000000" fill-rule="nonzero" fill-opacity="1"></path><path clip-path="url(#clip810)" d="M697.642 1455.09 L685.836 1473.54 L697.642 1473.54 L697.642 1455.09 M696.415 1451.02 L702.294 1451.02 L702.294 1473.54 L707.225 1473.54 L707.225 1477.43 L702.294 1477.43 L702.294 1485.58 L697.642 1485.58 L697.642 1477.43 L682.04 1477.43 L682.04 1472.92 L696.415 1451.02 Z" fill="#000000" fill-rule="nonzero" fill-opacity="1"></path><path clip-path="url(#clip810)" d="M821.338 1481.64 L828.977 1481.64 L828.977 1455.28 L820.667 1456.95 L820.667 1452.69 L828.931 1451.02 L833.607 1451.02 L833.607 1481.64 L841.245 1481.64 L841.245 1485.58 L821.338 1485.58 L821.338 1481.64 Z" fill="#000000" fill-rule="nonzero" fill-opacity="1"></path><path clip-path="url(#clip810)" d="M850.69 1479.7 L855.574 1479.7 L855.574 1485.58 L850.69 1485.58 L850.69 1479.7 Z" fill="#000000" fill-rule="nonzero" fill-opacity="1"></path><path clip-path="url(#clip810)" d="M876.338 1466.44 Q873.19 1466.44 871.338 1468.59 Q869.509 1470.74 869.509 1474.49 Q869.509 1478.22 871.338 1480.39 Q873.19 1482.55 876.338 1482.55 Q879.486 1482.55 881.315 1480.39 Q883.167 1478.22 883.167 1474.49 Q883.167 1470.74 881.315 1468.59 Q879.486 1466.44 876.338 1466.44 M885.62 1451.78 L885.62 1456.04 Q883.861 1455.21 882.055 1454.77 Q880.273 1454.33 878.514 1454.33 Q873.884 1454.33 871.431 1457.45 Q869 1460.58 868.653 1466.9 Q870.018 1464.89 872.079 1463.82 Q874.139 1462.73 876.616 1462.73 Q881.824 1462.73 884.833 1465.9 Q887.866 1469.05 887.866 1474.49 Q887.866 1479.82 884.717 1483.03 Q881.569 1486.25 876.338 1486.25 Q870.343 1486.25 867.171 1481.67 Q864 1477.06 864 1468.33 Q864 1460.14 867.889 1455.28 Q871.778 1450.39 878.329 1450.39 Q880.088 1450.39 881.87 1450.74 Q883.676 1451.09 885.62 1451.78 Z" fill="#000000" fill-rule="nonzero" fill-opacity="1"></path><path clip-path="url(#clip810)" d="M1002.27 1481.64 L1009.91 1481.64 L1009.91 1455.28 L1001.6 1456.95 L1001.6 1452.69 L1009.86 1451.02 L1014.54 1451.02 L1014.54 1481.64 L1022.18 1481.64 L1022.18 1485.58 L1002.27 1485.58 L1002.27 1481.64 Z" fill="#000000" fill-rule="nonzero" fill-opacity="1"></path><path clip-path="url(#clip810)" d="M1031.62 1479.7 L1036.5 1479.7 L1036.5 1485.58 L1031.62 1485.58 L1031.62 1479.7 Z" fill="#000000" fill-rule="nonzero" fill-opacity="1"></path><path clip-path="url(#clip810)" d="M1056.69 1469.17 Q1053.36 1469.17 1051.43 1470.95 Q1049.54 1472.73 1049.54 1475.86 Q1049.54 1478.98 1051.43 1480.77 Q1053.36 1482.55 1056.69 1482.55 Q1060.02 1482.55 1061.94 1480.77 Q1063.87 1478.96 1063.87 1475.86 Q1063.87 1472.73 1061.94 1470.95 Q1060.05 1469.17 1056.69 1469.17 M1052.01 1467.18 Q1049 1466.44 1047.31 1464.38 Q1045.65 1462.32 1045.65 1459.35 Q1045.65 1455.21 1048.59 1452.8 Q1051.55 1450.39 1056.69 1450.39 Q1061.85 1450.39 1064.79 1452.8 Q1067.73 1455.21 1067.73 1459.35 Q1067.73 1462.32 1066.04 1464.38 Q1064.37 1466.44 1061.39 1467.18 Q1064.77 1467.96 1066.64 1470.26 Q1068.54 1472.55 1068.54 1475.86 Q1068.54 1480.88 1065.46 1483.57 Q1062.41 1486.25 1056.69 1486.25 Q1050.97 1486.25 1047.89 1483.57 Q1044.84 1480.88 1044.84 1475.86 Q1044.84 1472.55 1046.74 1470.26 Q1048.63 1467.96 1052.01 1467.18 M1050.3 1459.79 Q1050.3 1462.48 1051.97 1463.98 Q1053.66 1465.49 1056.69 1465.49 Q1059.7 1465.49 1061.39 1463.98 Q1063.1 1462.48 1063.1 1459.79 Q1063.1 1457.11 1061.39 1455.6 Q1059.7 1454.1 1056.69 1454.1 Q1053.66 1454.1 1051.97 1455.6 Q1050.3 1457.11 1050.3 1459.79 Z" fill="#000000" fill-rule="nonzero" fill-opacity="1"></path><path clip-path="url(#clip810)" d="M536.044 1518.52 L541.901 1518.52 L541.901 1568.04 L536.044 1568.04 L536.044 1518.52 Z" fill="#000000" fill-rule="nonzero" fill-opacity="1"></path><path clip-path="url(#clip810)" d="M567.968 1536.5 Q563.258 1536.5 560.52 1540.19 Q557.783 1543.85 557.783 1550.25 Q557.783 1556.65 560.489 1560.34 Q563.226 1564 567.968 1564 Q572.647 1564 575.384 1560.31 Q578.122 1556.62 578.122 1550.25 Q578.122 1543.92 575.384 1540.23 Q572.647 1536.5 567.968 1536.5 M567.968 1531.54 Q575.607 1531.54 579.968 1536.5 Q584.328 1541.47 584.328 1550.25 Q584.328 1559 579.968 1564 Q575.607 1568.97 567.968 1568.97 Q560.298 1568.97 555.937 1564 Q551.608 1559 551.608 1550.25 Q551.608 1541.47 555.937 1536.5 Q560.298 1531.54 567.968 1531.54 Z" fill="#000000" fill-rule="nonzero" fill-opacity="1"></path><path clip-path="url(#clip810)" d="M617.493 1549.81 Q617.493 1543.44 614.852 1539.94 Q612.242 1536.44 607.499 1536.44 Q602.789 1536.44 600.147 1539.94 Q597.537 1543.44 597.537 1549.81 Q597.537 1556.14 600.147 1559.64 Q602.789 1563.14 607.499 1563.14 Q612.242 1563.14 614.852 1559.64 Q617.493 1556.14 617.493 1549.81 M623.35 1563.62 Q623.35 1572.72 619.308 1577.15 Q615.265 1581.6 606.926 1581.6 Q603.839 1581.6 601.102 1581.13 Q598.365 1580.68 595.786 1579.72 L595.786 1574.03 Q598.365 1575.43 600.879 1576.1 Q603.393 1576.76 606.003 1576.76 Q611.764 1576.76 614.629 1573.74 Q617.493 1570.75 617.493 1564.67 L617.493 1561.77 Q615.679 1564.92 612.846 1566.48 Q610.014 1568.04 606.067 1568.04 Q599.51 1568.04 595.5 1563.05 Q591.49 1558.05 591.49 1549.81 Q591.49 1541.53 595.5 1536.53 Q599.51 1531.54 606.067 1531.54 Q610.014 1531.54 612.846 1533.1 Q615.679 1534.66 617.493 1537.81 L617.493 1532.4 L623.35 1532.4 L623.35 1563.62 Z" fill="#000000" fill-rule="nonzero" fill-opacity="1"></path><path clip-path="url(#clip810)" d="M637.354 1562.63 L647.858 1562.63 L647.858 1526.38 L636.431 1528.67 L636.431 1522.82 L647.794 1520.52 L654.224 1520.52 L654.224 1562.63 L664.727 1562.63 L664.727 1568.04 L637.354 1568.04 L637.354 1562.63 Z" fill="#000000" fill-rule="nonzero" fill-opacity="1"></path><path clip-path="url(#clip810)" d="M691.463 1524.76 Q686.498 1524.76 683.983 1529.66 Q681.501 1534.53 681.501 1544.33 Q681.501 1554.1 683.983 1559 Q686.498 1563.87 691.463 1563.87 Q696.46 1563.87 698.943 1559 Q701.457 1554.1 701.457 1544.33 Q701.457 1534.53 698.943 1529.66 Q696.46 1524.76 691.463 1524.76 M691.463 1519.66 Q699.452 1519.66 703.653 1526 Q707.886 1532.3 707.886 1544.33 Q707.886 1556.33 703.653 1562.66 Q699.452 1568.97 691.463 1568.97 Q683.474 1568.97 679.241 1562.66 Q675.039 1556.33 675.039 1544.33 Q675.039 1532.3 679.241 1526 Q683.474 1519.66 691.463 1519.66 Z" fill="#000000" fill-rule="nonzero" fill-opacity="1"></path><path clip-path="url(#clip810)" d="M732.426 1518.58 Q728.161 1525.9 726.092 1533.06 Q724.024 1540.23 724.024 1547.58 Q724.024 1554.93 726.092 1562.16 Q728.193 1569.35 732.426 1576.64 L727.334 1576.64 Q722.559 1569.16 720.172 1561.93 Q717.817 1554.71 717.817 1547.58 Q717.817 1540.48 720.172 1533.29 Q722.528 1526.09 727.334 1518.58 L732.426 1518.58 Z" fill="#000000" fill-rule="nonzero" fill-opacity="1"></path><path clip-path="url(#clip810)" d="M745.731 1562.63 L756.234 1562.63 L756.234 1526.38 L744.808 1528.67 L744.808 1522.82 L756.17 1520.52 L762.6 1520.52 L762.6 1562.63 L773.103 1562.63 L773.103 1568.04 L745.731 1568.04 L745.731 1562.63 Z" fill="#000000" fill-rule="nonzero" fill-opacity="1"></path><path clip-path="url(#clip810)" d="M795.67 1520.52 L801.08 1520.52 L784.53 1574.09 L779.119 1574.09 L795.67 1520.52 Z" fill="#000000" fill-rule="nonzero" fill-opacity="1"></path><path clip-path="url(#clip810)" d="M823.36 1526.86 L810.311 1562.7 L836.442 1562.7 L823.36 1526.86 M801.59 1568.04 L819.732 1520.52 L827.021 1520.52 L845.131 1568.04 L801.59 1568.04 Z" fill="#000000" fill-rule="nonzero" fill-opacity="1"></path><path clip-path="url(#clip810)" d="M881.447 1532.4 L868.557 1549.74 L882.116 1568.04 L875.209 1568.04 L864.833 1554.04 L854.457 1568.04 L847.55 1568.04 L861.396 1549.39 L848.728 1532.4 L855.635 1532.4 L865.088 1545.1 L874.541 1532.4 L881.447 1532.4 Z" fill="#000000" fill-rule="nonzero" fill-opacity="1"></path><path clip-path="url(#clip810)" d="M889.468 1518.58 L894.561 1518.58 Q899.335 1526.09 901.69 1533.29 Q904.078 1540.48 904.078 1547.58 Q904.078 1554.71 901.69 1561.93 Q899.335 1569.16 894.561 1576.64 L889.468 1576.64 Q893.701 1569.35 895.77 1562.16 Q897.871 1554.93 897.871 1547.58 Q897.871 1540.23 895.77 1533.06 Q893.701 1525.9 889.468 1518.58 Z" fill="#000000" fill-rule="nonzero" fill-opacity="1"></path><polyline clip-path="url(#clip812)" style="stroke:#000000; stroke-linecap:round; stroke-linejoin:round; stroke-width:2; stroke-opacity:0.1; fill:none" points="287.366,1285.06 1152.76,1285.06 "></polyline>
<polyline clip-path="url(#clip812)" style="stroke:#000000; stroke-linecap:round; stroke-linejoin:round; stroke-width:2; stroke-opacity:0.1; fill:none" points="287.366,1105.39 1152.76,1105.39 "></polyline>
<polyline clip-path="url(#clip812)" style="stroke:#000000; stroke-linecap:round; stroke-linejoin:round; stroke-width:2; stroke-opacity:0.1; fill:none" points="287.366,925.723 1152.76,925.723 "></polyline>
<polyline clip-path="url(#clip812)" style="stroke:#000000; stroke-linecap:round; stroke-linejoin:round; stroke-width:2; stroke-opacity:0.1; fill:none" points="287.366,746.055 1152.76,746.055 "></polyline>
<polyline clip-path="url(#clip812)" style="stroke:#000000; stroke-linecap:round; stroke-linejoin:round; stroke-width:2; stroke-opacity:0.1; fill:none" points="287.366,566.387 1152.76,566.387 "></polyline>
<polyline clip-path="url(#clip812)" style="stroke:#000000; stroke-linecap:round; stroke-linejoin:round; stroke-width:2; stroke-opacity:0.1; fill:none" points="287.366,386.719 1152.76,386.719 "></polyline>
<polyline clip-path="url(#clip812)" style="stroke:#000000; stroke-linecap:round; stroke-linejoin:round; stroke-width:2; stroke-opacity:0.1; fill:none" points="287.366,207.05 1152.76,207.05 "></polyline>
<polyline clip-path="url(#clip810)" style="stroke:#000000; stroke-linecap:round; stroke-linejoin:round; stroke-width:4; stroke-opacity:1; fill:none" points="287.366,1423.18 287.366,47.2441 "></polyline>
<polyline clip-path="url(#clip810)" style="stroke:#000000; stroke-linecap:round; stroke-linejoin:round; stroke-width:4; stroke-opacity:1; fill:none" points="287.366,1285.06 306.264,1285.06 "></polyline>
<polyline clip-path="url(#clip810)" style="stroke:#000000; stroke-linecap:round; stroke-linejoin:round; stroke-width:4; stroke-opacity:1; fill:none" points="287.366,1105.39 306.264,1105.39 "></polyline>
<polyline clip-path="url(#clip810)" style="stroke:#000000; stroke-linecap:round; stroke-linejoin:round; stroke-width:4; stroke-opacity:1; fill:none" points="287.366,925.723 306.264,925.723 "></polyline>
<polyline clip-path="url(#clip810)" style="stroke:#000000; stroke-linecap:round; stroke-linejoin:round; stroke-width:4; stroke-opacity:1; fill:none" points="287.366,746.055 306.264,746.055 "></polyline>
<polyline clip-path="url(#clip810)" style="stroke:#000000; stroke-linecap:round; stroke-linejoin:round; stroke-width:4; stroke-opacity:1; fill:none" points="287.366,566.387 306.264,566.387 "></polyline>
<polyline clip-path="url(#clip810)" style="stroke:#000000; stroke-linecap:round; stroke-linejoin:round; stroke-width:4; stroke-opacity:1; fill:none" points="287.366,386.719 306.264,386.719 "></polyline>
<polyline clip-path="url(#clip810)" style="stroke:#000000; stroke-linecap:round; stroke-linejoin:round; stroke-width:4; stroke-opacity:1; fill:none" points="287.366,207.05 306.264,207.05 "></polyline>
<path clip-path="url(#clip810)" d="M115.256 1285.51 L144.931 1285.51 L144.931 1289.45 L115.256 1289.45 L115.256 1285.51 Z" fill="#000000" fill-rule="nonzero" fill-opacity="1"></path><path clip-path="url(#clip810)" d="M155.834 1298.4 L163.473 1298.4 L163.473 1272.04 L155.163 1273.71 L155.163 1269.45 L163.427 1267.78 L168.102 1267.78 L168.102 1298.4 L175.741 1298.4 L175.741 1302.34 L155.834 1302.34 L155.834 1298.4 Z" fill="#000000" fill-rule="nonzero" fill-opacity="1"></path><path clip-path="url(#clip810)" d="M185.186 1296.46 L190.07 1296.46 L190.07 1302.34 L185.186 1302.34 L185.186 1296.46 Z" fill="#000000" fill-rule="nonzero" fill-opacity="1"></path><path clip-path="url(#clip810)" d="M204.283 1298.4 L220.602 1298.4 L220.602 1302.34 L198.658 1302.34 L198.658 1298.4 Q201.32 1295.65 205.903 1291.02 Q210.51 1286.37 211.69 1285.03 Q213.936 1282.5 214.815 1280.77 Q215.718 1279.01 215.718 1277.32 Q215.718 1274.56 213.774 1272.83 Q211.852 1271.09 208.75 1271.09 Q206.551 1271.09 204.098 1271.85 Q201.667 1272.62 198.889 1274.17 L198.889 1269.45 Q201.713 1268.31 204.167 1267.73 Q206.621 1267.15 208.658 1267.15 Q214.028 1267.15 217.223 1269.84 Q220.417 1272.53 220.417 1277.02 Q220.417 1279.15 219.607 1281.07 Q218.82 1282.96 216.713 1285.56 Q216.135 1286.23 213.033 1289.45 Q209.931 1292.64 204.283 1298.4 Z" fill="#000000" fill-rule="nonzero" fill-opacity="1"></path><path clip-path="url(#clip810)" d="M230.463 1267.78 L248.82 1267.78 L248.82 1271.71 L234.746 1271.71 L234.746 1280.19 Q235.764 1279.84 236.783 1279.68 Q237.801 1279.49 238.82 1279.49 Q244.607 1279.49 247.986 1282.66 Q251.366 1285.84 251.366 1291.25 Q251.366 1296.83 247.894 1299.93 Q244.421 1303.01 238.102 1303.01 Q235.926 1303.01 233.658 1302.64 Q231.412 1302.27 229.005 1301.53 L229.005 1296.83 Q231.088 1297.96 233.31 1298.52 Q235.533 1299.08 238.009 1299.08 Q242.014 1299.08 244.352 1296.97 Q246.69 1294.86 246.69 1291.25 Q246.69 1287.64 244.352 1285.53 Q242.014 1283.43 238.009 1283.43 Q236.135 1283.43 234.26 1283.84 Q232.408 1284.26 230.463 1285.14 L230.463 1267.78 Z" fill="#000000" fill-rule="nonzero" fill-opacity="1"></path><path clip-path="url(#clip810)" d="M114.26 1105.84 L143.936 1105.84 L143.936 1109.78 L114.26 1109.78 L114.26 1105.84 Z" fill="#000000" fill-rule="nonzero" fill-opacity="1"></path><path clip-path="url(#clip810)" d="M154.839 1118.74 L162.477 1118.74 L162.477 1092.37 L154.167 1094.04 L154.167 1089.78 L162.431 1088.11 L167.107 1088.11 L167.107 1118.74 L174.746 1118.74 L174.746 1122.67 L154.839 1122.67 L154.839 1118.74 Z" fill="#000000" fill-rule="nonzero" fill-opacity="1"></path><path clip-path="url(#clip810)" d="M184.19 1116.79 L189.075 1116.79 L189.075 1122.67 L184.19 1122.67 L184.19 1116.79 Z" fill="#000000" fill-rule="nonzero" fill-opacity="1"></path><path clip-path="url(#clip810)" d="M209.26 1091.19 Q205.649 1091.19 203.82 1094.76 Q202.014 1098.3 202.014 1105.43 Q202.014 1112.53 203.82 1116.1 Q205.649 1119.64 209.26 1119.64 Q212.894 1119.64 214.699 1116.1 Q216.528 1112.53 216.528 1105.43 Q216.528 1098.3 214.699 1094.76 Q212.894 1091.19 209.26 1091.19 M209.26 1087.49 Q215.07 1087.49 218.125 1092.09 Q221.204 1096.68 221.204 1105.43 Q221.204 1114.15 218.125 1118.76 Q215.07 1123.34 209.26 1123.34 Q203.449 1123.34 200.371 1118.76 Q197.315 1114.15 197.315 1105.43 Q197.315 1096.68 200.371 1092.09 Q203.449 1087.49 209.26 1087.49 Z" fill="#000000" fill-rule="nonzero" fill-opacity="1"></path><path clip-path="url(#clip810)" d="M239.422 1091.19 Q235.81 1091.19 233.982 1094.76 Q232.176 1098.3 232.176 1105.43 Q232.176 1112.53 233.982 1116.1 Q235.81 1119.64 239.422 1119.64 Q243.056 1119.64 244.861 1116.1 Q246.69 1112.53 246.69 1105.43 Q246.69 1098.3 244.861 1094.76 Q243.056 1091.19 239.422 1091.19 M239.422 1087.49 Q245.232 1087.49 248.287 1092.09 Q251.366 1096.68 251.366 1105.43 Q251.366 1114.15 248.287 1118.76 Q245.232 1123.34 239.422 1123.34 Q233.611 1123.34 230.533 1118.76 Q227.477 1114.15 227.477 1105.43 Q227.477 1096.68 230.533 1092.09 Q233.611 1087.49 239.422 1087.49 Z" fill="#000000" fill-rule="nonzero" fill-opacity="1"></path><path clip-path="url(#clip810)" d="M115.256 926.175 L144.931 926.175 L144.931 930.11 L115.256 930.11 L115.256 926.175 Z" fill="#000000" fill-rule="nonzero" fill-opacity="1"></path><path clip-path="url(#clip810)" d="M165.024 911.522 Q161.413 911.522 159.584 915.087 Q157.778 918.628 157.778 925.758 Q157.778 932.864 159.584 936.429 Q161.413 939.971 165.024 939.971 Q168.658 939.971 170.464 936.429 Q172.292 932.864 172.292 925.758 Q172.292 918.628 170.464 915.087 Q168.658 911.522 165.024 911.522 M165.024 907.818 Q170.834 907.818 173.889 912.425 Q176.968 917.008 176.968 925.758 Q176.968 934.485 173.889 939.091 Q170.834 943.675 165.024 943.675 Q159.214 943.675 156.135 939.091 Q153.079 934.485 153.079 925.758 Q153.079 917.008 156.135 912.425 Q159.214 907.818 165.024 907.818 Z" fill="#000000" fill-rule="nonzero" fill-opacity="1"></path><path clip-path="url(#clip810)" d="M185.186 937.124 L190.07 937.124 L190.07 943.003 L185.186 943.003 L185.186 937.124 Z" fill="#000000" fill-rule="nonzero" fill-opacity="1"></path><path clip-path="url(#clip810)" d="M199.075 908.443 L221.297 908.443 L221.297 910.434 L208.75 943.003 L203.866 943.003 L215.672 912.378 L199.075 912.378 L199.075 908.443 Z" fill="#000000" fill-rule="nonzero" fill-opacity="1"></path><path clip-path="url(#clip810)" d="M230.463 908.443 L248.82 908.443 L248.82 912.378 L234.746 912.378 L234.746 920.851 Q235.764 920.503 236.783 920.341 Q237.801 920.156 238.82 920.156 Q244.607 920.156 247.986 923.328 Q251.366 926.499 251.366 931.915 Q251.366 937.494 247.894 940.596 Q244.421 943.675 238.102 943.675 Q235.926 943.675 233.658 943.304 Q231.412 942.934 229.005 942.193 L229.005 937.494 Q231.088 938.628 233.31 939.184 Q235.533 939.739 238.009 939.739 Q242.014 939.739 244.352 937.633 Q246.69 935.527 246.69 931.915 Q246.69 928.304 244.352 926.198 Q242.014 924.091 238.009 924.091 Q236.135 924.091 234.26 924.508 Q232.408 924.925 230.463 925.804 L230.463 908.443 Z" fill="#000000" fill-rule="nonzero" fill-opacity="1"></path><path clip-path="url(#clip810)" d="M114.26 746.506 L143.936 746.506 L143.936 750.442 L114.26 750.442 L114.26 746.506 Z" fill="#000000" fill-rule="nonzero" fill-opacity="1"></path><path clip-path="url(#clip810)" d="M164.028 731.854 Q160.417 731.854 158.589 735.419 Q156.783 738.96 156.783 746.09 Q156.783 753.196 158.589 756.761 Q160.417 760.303 164.028 760.303 Q167.663 760.303 169.468 756.761 Q171.297 753.196 171.297 746.09 Q171.297 738.96 169.468 735.419 Q167.663 731.854 164.028 731.854 M164.028 728.15 Q169.839 728.15 172.894 732.757 Q175.973 737.34 175.973 746.09 Q175.973 754.817 172.894 759.423 Q169.839 764.006 164.028 764.006 Q158.218 764.006 155.14 759.423 Q152.084 754.817 152.084 746.09 Q152.084 737.34 155.14 732.757 Q158.218 728.15 164.028 728.15 Z" fill="#000000" fill-rule="nonzero" fill-opacity="1"></path><path clip-path="url(#clip810)" d="M184.19 757.456 L189.075 757.456 L189.075 763.335 L184.19 763.335 L184.19 757.456 Z" fill="#000000" fill-rule="nonzero" fill-opacity="1"></path><path clip-path="url(#clip810)" d="M199.306 728.775 L217.662 728.775 L217.662 732.71 L203.588 732.71 L203.588 741.182 Q204.607 740.835 205.625 740.673 Q206.644 740.488 207.662 740.488 Q213.449 740.488 216.829 743.659 Q220.209 746.831 220.209 752.247 Q220.209 757.826 216.736 760.928 Q213.264 764.006 206.945 764.006 Q204.769 764.006 202.5 763.636 Q200.255 763.266 197.848 762.525 L197.848 757.826 Q199.931 758.96 202.153 759.516 Q204.375 760.071 206.852 760.071 Q210.857 760.071 213.195 757.965 Q215.533 755.858 215.533 752.247 Q215.533 748.636 213.195 746.53 Q210.857 744.423 206.852 744.423 Q204.977 744.423 203.102 744.84 Q201.25 745.256 199.306 746.136 L199.306 728.775 Z" fill="#000000" fill-rule="nonzero" fill-opacity="1"></path><path clip-path="url(#clip810)" d="M239.422 731.854 Q235.81 731.854 233.982 735.419 Q232.176 738.96 232.176 746.09 Q232.176 753.196 233.982 756.761 Q235.81 760.303 239.422 760.303 Q243.056 760.303 244.861 756.761 Q246.69 753.196 246.69 746.09 Q246.69 738.96 244.861 735.419 Q243.056 731.854 239.422 731.854 M239.422 728.15 Q245.232 728.15 248.287 732.757 Q251.366 737.34 251.366 746.09 Q251.366 754.817 248.287 759.423 Q245.232 764.006 239.422 764.006 Q233.611 764.006 230.533 759.423 Q227.477 754.817 227.477 746.09 Q227.477 737.34 230.533 732.757 Q233.611 728.15 239.422 728.15 Z" fill="#000000" fill-rule="nonzero" fill-opacity="1"></path><path clip-path="url(#clip810)" d="M115.256 566.838 L144.931 566.838 L144.931 570.773 L115.256 570.773 L115.256 566.838 Z" fill="#000000" fill-rule="nonzero" fill-opacity="1"></path><path clip-path="url(#clip810)" d="M165.024 552.186 Q161.413 552.186 159.584 555.75 Q157.778 559.292 157.778 566.422 Q157.778 573.528 159.584 577.093 Q161.413 580.634 165.024 580.634 Q168.658 580.634 170.464 577.093 Q172.292 573.528 172.292 566.422 Q172.292 559.292 170.464 555.75 Q168.658 552.186 165.024 552.186 M165.024 548.482 Q170.834 548.482 173.889 553.088 Q176.968 557.672 176.968 566.422 Q176.968 575.148 173.889 579.755 Q170.834 584.338 165.024 584.338 Q159.214 584.338 156.135 579.755 Q153.079 575.148 153.079 566.422 Q153.079 557.672 156.135 553.088 Q159.214 548.482 165.024 548.482 Z" fill="#000000" fill-rule="nonzero" fill-opacity="1"></path><path clip-path="url(#clip810)" d="M185.186 577.787 L190.07 577.787 L190.07 583.667 L185.186 583.667 L185.186 577.787 Z" fill="#000000" fill-rule="nonzero" fill-opacity="1"></path><path clip-path="url(#clip810)" d="M204.283 579.732 L220.602 579.732 L220.602 583.667 L198.658 583.667 L198.658 579.732 Q201.32 576.977 205.903 572.347 Q210.51 567.695 211.69 566.352 Q213.936 563.829 214.815 562.093 Q215.718 560.334 215.718 558.644 Q215.718 555.889 213.774 554.153 Q211.852 552.417 208.75 552.417 Q206.551 552.417 204.098 553.181 Q201.667 553.945 198.889 555.496 L198.889 550.774 Q201.713 549.639 204.167 549.061 Q206.621 548.482 208.658 548.482 Q214.028 548.482 217.223 551.167 Q220.417 553.852 220.417 558.343 Q220.417 560.473 219.607 562.394 Q218.82 564.292 216.713 566.885 Q216.135 567.556 213.033 570.773 Q209.931 573.968 204.283 579.732 Z" fill="#000000" fill-rule="nonzero" fill-opacity="1"></path><path clip-path="url(#clip810)" d="M230.463 549.107 L248.82 549.107 L248.82 553.042 L234.746 553.042 L234.746 561.514 Q235.764 561.167 236.783 561.005 Q237.801 560.82 238.82 560.82 Q244.607 560.82 247.986 563.991 Q251.366 567.162 251.366 572.579 Q251.366 578.158 247.894 581.259 Q244.421 584.338 238.102 584.338 Q235.926 584.338 233.658 583.968 Q231.412 583.597 229.005 582.857 L229.005 578.158 Q231.088 579.292 233.31 579.847 Q235.533 580.403 238.009 580.403 Q242.014 580.403 244.352 578.297 Q246.69 576.19 246.69 572.579 Q246.69 568.968 244.352 566.861 Q242.014 564.755 238.009 564.755 Q236.135 564.755 234.26 565.172 Q232.408 565.588 230.463 566.468 L230.463 549.107 Z" fill="#000000" fill-rule="nonzero" fill-opacity="1"></path><path clip-path="url(#clip810)" d="M164.028 372.517 Q160.417 372.517 158.589 376.082 Q156.783 379.624 156.783 386.753 Q156.783 393.86 158.589 397.425 Q160.417 400.966 164.028 400.966 Q167.663 400.966 169.468 397.425 Q171.297 393.86 171.297 386.753 Q171.297 379.624 169.468 376.082 Q167.663 372.517 164.028 372.517 M164.028 368.814 Q169.839 368.814 172.894 373.42 Q175.973 378.003 175.973 386.753 Q175.973 395.48 172.894 400.087 Q169.839 404.67 164.028 404.67 Q158.218 404.67 155.14 400.087 Q152.084 395.48 152.084 386.753 Q152.084 378.003 155.14 373.42 Q158.218 368.814 164.028 368.814 Z" fill="#000000" fill-rule="nonzero" fill-opacity="1"></path><path clip-path="url(#clip810)" d="M184.19 398.119 L189.075 398.119 L189.075 403.999 L184.19 403.999 L184.19 398.119 Z" fill="#000000" fill-rule="nonzero" fill-opacity="1"></path><path clip-path="url(#clip810)" d="M209.26 372.517 Q205.649 372.517 203.82 376.082 Q202.014 379.624 202.014 386.753 Q202.014 393.86 203.82 397.425 Q205.649 400.966 209.26 400.966 Q212.894 400.966 214.699 397.425 Q216.528 393.86 216.528 386.753 Q216.528 379.624 214.699 376.082 Q212.894 372.517 209.26 372.517 M209.26 368.814 Q215.07 368.814 218.125 373.42 Q221.204 378.003 221.204 386.753 Q221.204 395.48 218.125 400.087 Q215.07 404.67 209.26 404.67 Q203.449 404.67 200.371 400.087 Q197.315 395.48 197.315 386.753 Q197.315 378.003 200.371 373.42 Q203.449 368.814 209.26 368.814 Z" fill="#000000" fill-rule="nonzero" fill-opacity="1"></path><path clip-path="url(#clip810)" d="M239.422 372.517 Q235.81 372.517 233.982 376.082 Q232.176 379.624 232.176 386.753 Q232.176 393.86 233.982 397.425 Q235.81 400.966 239.422 400.966 Q243.056 400.966 244.861 397.425 Q246.69 393.86 246.69 386.753 Q246.69 379.624 244.861 376.082 Q243.056 372.517 239.422 372.517 M239.422 368.814 Q245.232 368.814 248.287 373.42 Q251.366 378.003 251.366 386.753 Q251.366 395.48 248.287 400.087 Q245.232 404.67 239.422 404.67 Q233.611 404.67 230.533 400.087 Q227.477 395.48 227.477 386.753 Q227.477 378.003 230.533 373.42 Q233.611 368.814 239.422 368.814 Z" fill="#000000" fill-rule="nonzero" fill-opacity="1"></path><path clip-path="url(#clip810)" d="M165.024 192.849 Q161.413 192.849 159.584 196.414 Q157.778 199.956 157.778 207.085 Q157.778 214.192 159.584 217.756 Q161.413 221.298 165.024 221.298 Q168.658 221.298 170.464 217.756 Q172.292 214.192 172.292 207.085 Q172.292 199.956 170.464 196.414 Q168.658 192.849 165.024 192.849 M165.024 189.145 Q170.834 189.145 173.889 193.752 Q176.968 198.335 176.968 207.085 Q176.968 215.812 173.889 220.418 Q170.834 225.002 165.024 225.002 Q159.214 225.002 156.135 220.418 Q153.079 215.812 153.079 207.085 Q153.079 198.335 156.135 193.752 Q159.214 189.145 165.024 189.145 Z" fill="#000000" fill-rule="nonzero" fill-opacity="1"></path><path clip-path="url(#clip810)" d="M185.186 218.451 L190.07 218.451 L190.07 224.33 L185.186 224.33 L185.186 218.451 Z" fill="#000000" fill-rule="nonzero" fill-opacity="1"></path><path clip-path="url(#clip810)" d="M204.283 220.395 L220.602 220.395 L220.602 224.33 L198.658 224.33 L198.658 220.395 Q201.32 217.641 205.903 213.011 Q210.51 208.358 211.69 207.016 Q213.936 204.493 214.815 202.756 Q215.718 200.997 215.718 199.307 Q215.718 196.553 213.774 194.817 Q211.852 193.081 208.75 193.081 Q206.551 193.081 204.098 193.844 Q201.667 194.608 198.889 196.159 L198.889 191.437 Q201.713 190.303 204.167 189.724 Q206.621 189.145 208.658 189.145 Q214.028 189.145 217.223 191.831 Q220.417 194.516 220.417 199.006 Q220.417 201.136 219.607 203.057 Q218.82 204.956 216.713 207.548 Q216.135 208.219 213.033 211.437 Q209.931 214.631 204.283 220.395 Z" fill="#000000" fill-rule="nonzero" fill-opacity="1"></path><path clip-path="url(#clip810)" d="M230.463 189.77 L248.82 189.77 L248.82 193.706 L234.746 193.706 L234.746 202.178 Q235.764 201.831 236.783 201.669 Q237.801 201.483 238.82 201.483 Q244.607 201.483 247.986 204.655 Q251.366 207.826 251.366 213.243 Q251.366 218.821 247.894 221.923 Q244.421 225.002 238.102 225.002 Q235.926 225.002 233.658 224.631 Q231.412 224.261 229.005 223.52 L229.005 218.821 Q231.088 219.955 233.31 220.511 Q235.533 221.067 238.009 221.067 Q242.014 221.067 244.352 218.96 Q246.69 216.854 246.69 213.243 Q246.69 209.631 244.352 207.525 Q242.014 205.418 238.009 205.418 Q236.135 205.418 234.26 205.835 Q232.408 206.252 230.463 207.131 L230.463 189.77 Z" fill="#000000" fill-rule="nonzero" fill-opacity="1"></path><path clip-path="url(#clip810)" d="M14.479 885.268 L14.479 879.411 L64.0042 879.411 L64.0042 885.268 L14.479 885.268 Z" fill="#000000" fill-rule="nonzero" fill-opacity="1"></path><path clip-path="url(#clip810)" d="M32.4621 853.344 Q32.4621 858.054 36.1542 860.791 Q39.8145 863.529 46.212 863.529 Q52.6095 863.529 56.3017 860.823 Q59.9619 858.086 59.9619 853.344 Q59.9619 848.665 56.2698 845.928 Q52.5777 843.19 46.212 843.19 Q39.8781 843.19 36.186 845.928 Q32.4621 848.665 32.4621 853.344 M27.4968 853.344 Q27.4968 845.705 32.4621 841.344 Q37.4273 836.984 46.212 836.984 Q54.9649 836.984 59.9619 841.344 Q64.9272 845.705 64.9272 853.344 Q64.9272 861.014 59.9619 865.375 Q54.9649 869.703 46.212 869.703 Q37.4273 869.703 32.4621 865.375 Q27.4968 861.014 27.4968 853.344 Z" fill="#000000" fill-rule="nonzero" fill-opacity="1"></path><path clip-path="url(#clip810)" d="M45.7664 803.818 Q39.4007 803.818 35.8996 806.46 Q32.3984 809.07 32.3984 813.813 Q32.3984 818.523 35.8996 821.165 Q39.4007 823.775 45.7664 823.775 Q52.1003 823.775 55.6014 821.165 Q59.1026 818.523 59.1026 813.813 Q59.1026 809.07 55.6014 806.46 Q52.1003 803.818 45.7664 803.818 M59.58 797.962 Q68.683 797.962 73.1071 802.004 Q77.5631 806.046 77.5631 814.385 Q77.5631 817.473 77.0857 820.21 Q76.6401 822.947 75.6852 825.525 L69.9879 825.525 Q71.3884 822.947 72.0568 820.433 Q72.7252 817.918 72.7252 815.308 Q72.7252 809.548 69.7015 806.683 Q66.7096 803.818 60.6303 803.818 L57.7339 803.818 Q60.885 805.633 62.4446 808.465 Q64.0042 811.298 64.0042 815.245 Q64.0042 821.801 59.0071 825.812 Q54.01 829.822 45.7664 829.822 Q37.491 829.822 32.4939 825.812 Q27.4968 821.801 27.4968 815.245 Q27.4968 811.298 29.0564 808.465 Q30.616 805.633 33.7671 803.818 L28.3562 803.818 L28.3562 797.962 L59.58 797.962 Z" fill="#000000" fill-rule="nonzero" fill-opacity="1"></path><path clip-path="url(#clip810)" d="M58.5933 783.957 L58.5933 773.454 L22.3406 773.454 L24.6323 784.88 L18.7758 784.88 L16.4842 773.518 L16.4842 767.088 L58.5933 767.088 L58.5933 756.585 L64.0042 756.585 L64.0042 783.957 L58.5933 783.957 Z" fill="#000000" fill-rule="nonzero" fill-opacity="1"></path><path clip-path="url(#clip810)" d="M20.7174 729.849 Q20.7174 734.814 25.6189 737.329 Q30.4887 739.811 40.2919 739.811 Q50.0633 739.811 54.9649 737.329 Q59.8346 734.814 59.8346 729.849 Q59.8346 724.852 54.9649 722.369 Q50.0633 719.855 40.2919 719.855 Q30.4887 719.855 25.6189 722.369 Q20.7174 724.852 20.7174 729.849 M15.6248 729.849 Q15.6248 721.86 21.9587 717.659 Q28.2607 713.425 40.2919 713.425 Q52.2913 713.425 58.6251 717.659 Q64.9272 721.86 64.9272 729.849 Q64.9272 737.838 58.6251 742.071 Q52.2913 746.272 40.2919 746.272 Q28.2607 746.272 21.9587 742.071 Q15.6248 737.838 15.6248 729.849 Z" fill="#000000" fill-rule="nonzero" fill-opacity="1"></path><path clip-path="url(#clip810)" d="M14.5426 688.886 Q21.8632 693.151 29.0246 695.219 Q36.186 697.288 43.5384 697.288 Q50.8908 697.288 58.1159 695.219 Q65.3091 693.119 72.5979 688.886 L72.5979 693.978 Q65.1182 698.752 57.8931 701.14 Q50.668 703.495 43.5384 703.495 Q36.4406 703.495 29.2474 701.14 Q22.0542 698.784 14.5426 693.978 L14.5426 688.886 Z" fill="#000000" fill-rule="nonzero" fill-opacity="1"></path><path clip-path="url(#clip810)" d="M34.0217 652.346 Q33.6079 653.524 33.2896 654.702 Q32.4621 657.853 32.4621 661.227 Q32.4621 667.051 35.6131 670.298 Q38.5413 673.321 43.9204 673.894 L43.9204 652.346 L48.5037 652.346 L48.5037 673.894 Q53.8827 673.321 56.8109 670.298 Q59.9619 667.051 59.9619 661.227 Q59.9619 657.152 59.1344 654.702 L58.3387 652.346 L63.654 652.346 L64.227 654.861 Q64.9272 658.171 64.9272 661.577 Q64.9272 670.107 59.9619 675.072 Q54.9967 680.069 46.212 680.069 Q37.4273 680.069 32.4621 675.072 Q27.4968 670.107 27.4968 661.577 Q27.4968 658.362 28.1971 654.861 Q28.4517 653.588 28.8336 652.346 L34.0217 652.346 Z" fill="#000000" fill-rule="nonzero" fill-opacity="1"></path><path clip-path="url(#clip810)" d="M28.3562 607.786 L45.7028 620.677 L64.0042 607.118 L64.0042 614.025 L49.9996 624.401 L64.0042 634.777 L64.0042 641.684 L45.3526 627.838 L28.3562 640.506 L28.3562 633.599 L41.0558 624.146 L28.3562 614.693 L28.3562 607.786 Z" fill="#000000" fill-rule="nonzero" fill-opacity="1"></path><path clip-path="url(#clip810)" d="M14.5426 599.766 L14.5426 594.673 Q22.0542 589.899 29.2474 587.543 Q36.4406 585.156 43.5384 585.156 Q50.668 585.156 57.8931 587.543 Q65.1182 589.899 72.5979 594.673 L72.5979 599.766 Q65.3091 595.532 58.1159 593.464 Q50.8908 591.363 43.5384 591.363 Q36.186 591.363 29.0246 593.464 Q21.8632 595.532 14.5426 599.766 Z" fill="#000000" fill-rule="nonzero" fill-opacity="1"></path><circle clip-path="url(#clip812)" cx="311.858" cy="86.1857" r="14.4" fill="#009af9" fill-rule="evenodd" fill-opacity="1" stroke="#000000" stroke-opacity="1" stroke-width="3.2"></circle>
<circle clip-path="url(#clip812)" cx="583.993" cy="291.444" r="14.4" fill="#009af9" fill-rule="evenodd" fill-opacity="1" stroke="#000000" stroke-opacity="1" stroke-width="3.2"></circle>
<circle clip-path="url(#clip812)" cx="856.129" cy="500.973" r="14.4" fill="#009af9" fill-rule="evenodd" fill-opacity="1" stroke="#000000" stroke-opacity="1" stroke-width="3.2"></circle>
<circle clip-path="url(#clip812)" cx="1128.26" cy="714.545" r="14.4" fill="#009af9" fill-rule="evenodd" fill-opacity="1" stroke="#000000" stroke-opacity="1" stroke-width="3.2"></circle>
<polyline clip-path="url(#clip812)" style="stroke:#e26f46; stroke-linecap:round; stroke-linejoin:round; stroke-width:4; stroke-opacity:1; fill:none" points="311.858,86.1857 583.993,302.528 856.129,518.87 1128.26,735.212 "></polyline>
<polyline clip-path="url(#clip812)" style="stroke:#3da44d; stroke-linecap:round; stroke-linejoin:round; stroke-width:4; stroke-opacity:1; fill:none" points="311.858,86.1857 583.993,518.87 856.129,951.554 1128.26,1384.24 "></polyline>
<path clip-path="url(#clip810)" d="M976.931 300.469 L1123.91 300.469 L1123.91 93.1086 L976.931 93.1086  Z" fill="#ffffff" fill-rule="evenodd" fill-opacity="1"></path>
<polyline clip-path="url(#clip810)" style="stroke:#000000; stroke-linecap:round; stroke-linejoin:round; stroke-width:4; stroke-opacity:1; fill:none" points="976.931,300.469 1123.91,300.469 1123.91,93.1086 976.931,93.1086 976.931,300.469 "></polyline>
<circle clip-path="url(#clip810)" cx="1015.39" cy="144.949" r="20.48" fill="#009af9" fill-rule="evenodd" fill-opacity="1" stroke="#000000" stroke-opacity="1" stroke-width="4.55111"></circle>
<path clip-path="url(#clip810)" d="M1074.02 140.423 Q1073.16 140.122 1072.3 139.891 Q1070.01 139.289 1067.56 139.289 Q1063.32 139.289 1060.96 141.581 Q1058.76 143.71 1058.35 147.622 L1074.02 147.622 L1074.02 150.956 L1058.35 150.956 Q1058.76 154.868 1060.96 156.997 Q1063.32 159.289 1067.56 159.289 Q1070.52 159.289 1072.3 158.687 L1074.02 158.108 L1074.02 161.974 L1072.19 162.391 Q1069.78 162.9 1067.3 162.9 Q1061.1 162.9 1057.49 159.289 Q1053.85 155.678 1053.85 149.289 Q1053.85 142.9 1057.49 139.289 Q1061.1 135.678 1067.3 135.678 Q1069.64 135.678 1072.19 136.187 Q1073.11 136.372 1074.02 136.65 L1074.02 140.423 Z" fill="#000000" fill-rule="nonzero" fill-opacity="1"></path><polyline clip-path="url(#clip810)" style="stroke:#e26f46; stroke-linecap:round; stroke-linejoin:round; stroke-width:4; stroke-opacity:1; fill:none" points="986.547,196.789 1044.24,196.789 "></polyline>
<path clip-path="url(#clip810)" d="M1069.87 182.68 Q1064.78 182.68 1061.77 186.476 Q1058.79 190.272 1058.79 196.823 Q1058.79 203.351 1061.77 207.147 Q1064.78 210.944 1069.87 210.944 Q1074.97 210.944 1077.93 207.147 Q1080.91 203.351 1080.91 196.823 Q1080.91 190.272 1077.93 186.476 Q1074.97 182.68 1069.87 182.68 M1069.87 178.884 Q1077.14 178.884 1081.49 183.768 Q1085.85 188.629 1085.85 196.823 Q1085.85 204.995 1081.49 209.879 Q1077.14 214.74 1069.87 214.74 Q1062.58 214.74 1058.21 209.879 Q1053.85 205.018 1053.85 196.823 Q1053.85 188.629 1058.21 183.768 Q1062.58 178.884 1069.87 178.884 Z" fill="#000000" fill-rule="nonzero" fill-opacity="1"></path><path clip-path="url(#clip810)" d="M1094.39 210.133 L1102.03 210.133 L1102.03 183.768 L1093.72 185.435 L1093.72 181.175 L1101.98 179.509 L1106.66 179.509 L1106.66 210.133 L1114.29 210.133 L1114.29 214.069 L1094.39 214.069 L1094.39 210.133 Z" fill="#000000" fill-rule="nonzero" fill-opacity="1"></path><polyline clip-path="url(#clip810)" style="stroke:#3da44d; stroke-linecap:round; stroke-linejoin:round; stroke-width:4; stroke-opacity:1; fill:none" points="986.547,248.629 1044.24,248.629 "></polyline>
<path clip-path="url(#clip810)" d="M1069.87 234.52 Q1064.78 234.52 1061.77 238.316 Q1058.79 242.112 1058.79 248.663 Q1058.79 255.191 1061.77 258.987 Q1064.78 262.784 1069.87 262.784 Q1074.97 262.784 1077.93 258.987 Q1080.91 255.191 1080.91 248.663 Q1080.91 242.112 1077.93 238.316 Q1074.97 234.52 1069.87 234.52 M1069.87 230.724 Q1077.14 230.724 1081.49 235.608 Q1085.85 240.469 1085.85 248.663 Q1085.85 256.835 1081.49 261.719 Q1077.14 266.58 1069.87 266.58 Q1062.58 266.58 1058.21 261.719 Q1053.85 256.858 1053.85 248.663 Q1053.85 240.469 1058.21 235.608 Q1062.58 230.724 1069.87 230.724 Z" fill="#000000" fill-rule="nonzero" fill-opacity="1"></path><path clip-path="url(#clip810)" d="M1097.6 261.973 L1113.92 261.973 L1113.92 265.909 L1091.98 265.909 L1091.98 261.973 Q1094.64 259.219 1099.22 254.589 Q1103.83 249.936 1105.01 248.594 Q1107.26 246.071 1108.14 244.335 Q1109.04 242.575 1109.04 240.886 Q1109.04 238.131 1107.1 236.395 Q1105.17 234.659 1102.07 234.659 Q1099.87 234.659 1097.42 235.423 Q1094.99 236.187 1092.21 237.737 L1092.21 233.015 Q1095.03 231.881 1097.49 231.302 Q1099.94 230.724 1101.98 230.724 Q1107.35 230.724 1110.54 233.409 Q1113.74 236.094 1113.74 240.585 Q1113.74 242.714 1112.93 244.636 Q1112.14 246.534 1110.03 249.126 Q1109.46 249.798 1106.35 253.015 Q1103.25 256.21 1097.6 261.973 Z" fill="#000000" fill-rule="nonzero" fill-opacity="1"></path><path clip-path="url(#clip810)" d="M1487.37 1423.18 L2352.76 1423.18 L2352.76 47.2441 L1487.37 47.2441  Z" fill="#ffffff" fill-rule="evenodd" fill-opacity="1"></path>
<defs>
  <clipPath id="clip813">
    <rect x="1487" y="47" width="866" height="1377"></rect>
  </clipPath>
</defs>
<polyline clip-path="url(#clip813)" style="stroke:#000000; stroke-linecap:round; stroke-linejoin:round; stroke-width:2; stroke-opacity:0.1; fill:none" points="1601.33,1423.18 1601.33,47.2441 "></polyline>
<polyline clip-path="url(#clip813)" style="stroke:#000000; stroke-linecap:round; stroke-linejoin:round; stroke-width:2; stroke-opacity:0.1; fill:none" points="1782.13,1423.18 1782.13,47.2441 "></polyline>
<polyline clip-path="url(#clip813)" style="stroke:#000000; stroke-linecap:round; stroke-linejoin:round; stroke-width:2; stroke-opacity:0.1; fill:none" points="1962.93,1423.18 1962.93,47.2441 "></polyline>
<polyline clip-path="url(#clip813)" style="stroke:#000000; stroke-linecap:round; stroke-linejoin:round; stroke-width:2; stroke-opacity:0.1; fill:none" points="2143.74,1423.18 2143.74,47.2441 "></polyline>
<polyline clip-path="url(#clip813)" style="stroke:#000000; stroke-linecap:round; stroke-linejoin:round; stroke-width:2; stroke-opacity:0.1; fill:none" points="2324.54,1423.18 2324.54,47.2441 "></polyline>
<polyline clip-path="url(#clip810)" style="stroke:#000000; stroke-linecap:round; stroke-linejoin:round; stroke-width:4; stroke-opacity:1; fill:none" points="1487.37,1423.18 2352.76,1423.18 "></polyline>
<polyline clip-path="url(#clip810)" style="stroke:#000000; stroke-linecap:round; stroke-linejoin:round; stroke-width:4; stroke-opacity:1; fill:none" points="1601.33,1423.18 1601.33,1404.28 "></polyline>
<polyline clip-path="url(#clip810)" style="stroke:#000000; stroke-linecap:round; stroke-linejoin:round; stroke-width:4; stroke-opacity:1; fill:none" points="1782.13,1423.18 1782.13,1404.28 "></polyline>
<polyline clip-path="url(#clip810)" style="stroke:#000000; stroke-linecap:round; stroke-linejoin:round; stroke-width:4; stroke-opacity:1; fill:none" points="1962.93,1423.18 1962.93,1404.28 "></polyline>
<polyline clip-path="url(#clip810)" style="stroke:#000000; stroke-linecap:round; stroke-linejoin:round; stroke-width:4; stroke-opacity:1; fill:none" points="2143.74,1423.18 2143.74,1404.28 "></polyline>
<polyline clip-path="url(#clip810)" style="stroke:#000000; stroke-linecap:round; stroke-linejoin:round; stroke-width:4; stroke-opacity:1; fill:none" points="2324.54,1423.18 2324.54,1404.28 "></polyline>
<path clip-path="url(#clip810)" d="M1582.39 1466.95 Q1585.75 1467.66 1587.62 1469.93 Q1589.52 1472.2 1589.52 1475.53 Q1589.52 1480.65 1586 1483.45 Q1582.49 1486.25 1576 1486.25 Q1573.83 1486.25 1571.51 1485.81 Q1569.22 1485.39 1566.77 1484.54 L1566.77 1480.02 Q1568.71 1481.16 1571.03 1481.74 Q1573.34 1482.32 1575.87 1482.32 Q1580.26 1482.32 1582.56 1480.58 Q1584.87 1478.84 1584.87 1475.53 Q1584.87 1472.48 1582.72 1470.77 Q1580.59 1469.03 1576.77 1469.03 L1572.74 1469.03 L1572.74 1465.19 L1576.95 1465.19 Q1580.4 1465.19 1582.23 1463.82 Q1584.06 1462.43 1584.06 1459.84 Q1584.06 1457.18 1582.16 1455.77 Q1580.29 1454.33 1576.77 1454.33 Q1574.85 1454.33 1572.65 1454.75 Q1570.45 1455.16 1567.81 1456.04 L1567.81 1451.88 Q1570.47 1451.14 1572.79 1450.77 Q1575.12 1450.39 1577.18 1450.39 Q1582.51 1450.39 1585.61 1452.83 Q1588.71 1455.23 1588.71 1459.35 Q1588.71 1462.22 1587.07 1464.21 Q1585.43 1466.18 1582.39 1466.95 Z" fill="#000000" fill-rule="nonzero" fill-opacity="1"></path><path clip-path="url(#clip810)" d="M1598.39 1479.7 L1603.27 1479.7 L1603.27 1485.58 L1598.39 1485.58 L1598.39 1479.7 Z" fill="#000000" fill-rule="nonzero" fill-opacity="1"></path><path clip-path="url(#clip810)" d="M1626.31 1455.09 L1614.5 1473.54 L1626.31 1473.54 L1626.31 1455.09 M1625.08 1451.02 L1630.96 1451.02 L1630.96 1473.54 L1635.89 1473.54 L1635.89 1477.43 L1630.96 1477.43 L1630.96 1485.58 L1626.31 1485.58 L1626.31 1477.43 L1610.7 1477.43 L1610.7 1472.92 L1625.08 1451.02 Z" fill="#000000" fill-rule="nonzero" fill-opacity="1"></path><path clip-path="url(#clip810)" d="M1763.36 1466.95 Q1766.71 1467.66 1768.59 1469.93 Q1770.49 1472.2 1770.49 1475.53 Q1770.49 1480.65 1766.97 1483.45 Q1763.45 1486.25 1756.97 1486.25 Q1754.79 1486.25 1752.48 1485.81 Q1750.19 1485.39 1747.73 1484.54 L1747.73 1480.02 Q1749.68 1481.16 1751.99 1481.74 Q1754.31 1482.32 1756.83 1482.32 Q1761.23 1482.32 1763.52 1480.58 Q1765.83 1478.84 1765.83 1475.53 Q1765.83 1472.48 1763.68 1470.77 Q1761.55 1469.03 1757.73 1469.03 L1753.71 1469.03 L1753.71 1465.19 L1757.92 1465.19 Q1761.37 1465.19 1763.2 1463.82 Q1765.02 1462.43 1765.02 1459.84 Q1765.02 1457.18 1763.13 1455.77 Q1761.25 1454.33 1757.73 1454.33 Q1755.81 1454.33 1753.61 1454.75 Q1751.41 1455.16 1748.77 1456.04 L1748.77 1451.88 Q1751.44 1451.14 1753.75 1450.77 Q1756.09 1450.39 1758.15 1450.39 Q1763.47 1450.39 1766.58 1452.83 Q1769.68 1455.23 1769.68 1459.35 Q1769.68 1462.22 1768.03 1464.21 Q1766.39 1466.18 1763.36 1466.95 Z" fill="#000000" fill-rule="nonzero" fill-opacity="1"></path><path clip-path="url(#clip810)" d="M1779.35 1479.7 L1784.24 1479.7 L1784.24 1485.58 L1779.35 1485.58 L1779.35 1479.7 Z" fill="#000000" fill-rule="nonzero" fill-opacity="1"></path><path clip-path="url(#clip810)" d="M1805 1466.44 Q1801.85 1466.44 1800 1468.59 Q1798.17 1470.74 1798.17 1474.49 Q1798.17 1478.22 1800 1480.39 Q1801.85 1482.55 1805 1482.55 Q1808.15 1482.55 1809.98 1480.39 Q1811.83 1478.22 1811.83 1474.49 Q1811.83 1470.74 1809.98 1468.59 Q1808.15 1466.44 1805 1466.44 M1814.28 1451.78 L1814.28 1456.04 Q1812.52 1455.21 1810.72 1454.77 Q1808.94 1454.33 1807.18 1454.33 Q1802.55 1454.33 1800.09 1457.45 Q1797.66 1460.58 1797.32 1466.9 Q1798.68 1464.89 1800.74 1463.82 Q1802.8 1462.73 1805.28 1462.73 Q1810.49 1462.73 1813.5 1465.9 Q1816.53 1469.05 1816.53 1474.49 Q1816.53 1479.82 1813.38 1483.03 Q1810.23 1486.25 1805 1486.25 Q1799.01 1486.25 1795.83 1481.67 Q1792.66 1477.06 1792.66 1468.33 Q1792.66 1460.14 1796.55 1455.28 Q1800.44 1450.39 1806.99 1450.39 Q1808.75 1450.39 1810.53 1450.74 Q1812.34 1451.09 1814.28 1451.78 Z" fill="#000000" fill-rule="nonzero" fill-opacity="1"></path><path clip-path="url(#clip810)" d="M1944.29 1466.95 Q1947.64 1467.66 1949.52 1469.93 Q1951.42 1472.2 1951.42 1475.53 Q1951.42 1480.65 1947.9 1483.45 Q1944.38 1486.25 1937.9 1486.25 Q1935.72 1486.25 1933.41 1485.81 Q1931.12 1485.39 1928.66 1484.54 L1928.66 1480.02 Q1930.61 1481.16 1932.92 1481.74 Q1935.24 1482.32 1937.76 1482.32 Q1942.16 1482.32 1944.45 1480.58 Q1946.76 1478.84 1946.76 1475.53 Q1946.76 1472.48 1944.61 1470.77 Q1942.48 1469.03 1938.66 1469.03 L1934.64 1469.03 L1934.64 1465.19 L1938.85 1465.19 Q1942.3 1465.19 1944.13 1463.82 Q1945.95 1462.43 1945.95 1459.84 Q1945.95 1457.18 1944.06 1455.77 Q1942.18 1454.33 1938.66 1454.33 Q1936.74 1454.33 1934.54 1454.75 Q1932.34 1455.16 1929.7 1456.04 L1929.7 1451.88 Q1932.37 1451.14 1934.68 1450.77 Q1937.02 1450.39 1939.08 1450.39 Q1944.4 1450.39 1947.51 1452.83 Q1950.61 1455.23 1950.61 1459.35 Q1950.61 1462.22 1948.96 1464.21 Q1947.32 1466.18 1944.29 1466.95 Z" fill="#000000" fill-rule="nonzero" fill-opacity="1"></path><path clip-path="url(#clip810)" d="M1960.28 1479.7 L1965.17 1479.7 L1965.17 1485.58 L1960.28 1485.58 L1960.28 1479.7 Z" fill="#000000" fill-rule="nonzero" fill-opacity="1"></path><path clip-path="url(#clip810)" d="M1985.35 1469.17 Q1982.02 1469.17 1980.1 1470.95 Q1978.2 1472.73 1978.2 1475.86 Q1978.2 1478.98 1980.1 1480.77 Q1982.02 1482.55 1985.35 1482.55 Q1988.69 1482.55 1990.61 1480.77 Q1992.53 1478.96 1992.53 1475.86 Q1992.53 1472.73 1990.61 1470.95 Q1988.71 1469.17 1985.35 1469.17 M1980.68 1467.18 Q1977.67 1466.44 1975.98 1464.38 Q1974.31 1462.32 1974.31 1459.35 Q1974.31 1455.21 1977.25 1452.8 Q1980.21 1450.39 1985.35 1450.39 Q1990.51 1450.39 1993.45 1452.8 Q1996.39 1455.21 1996.39 1459.35 Q1996.39 1462.32 1994.7 1464.38 Q1993.04 1466.44 1990.05 1467.18 Q1993.43 1467.96 1995.31 1470.26 Q1997.2 1472.55 1997.2 1475.86 Q1997.2 1480.88 1994.13 1483.57 Q1991.07 1486.25 1985.35 1486.25 Q1979.64 1486.25 1976.56 1483.57 Q1973.5 1480.88 1973.5 1475.86 Q1973.5 1472.55 1975.4 1470.26 Q1977.3 1467.96 1980.68 1467.18 M1978.96 1459.79 Q1978.96 1462.48 1980.63 1463.98 Q1982.32 1465.49 1985.35 1465.49 Q1988.36 1465.49 1990.05 1463.98 Q1991.76 1462.48 1991.76 1459.79 Q1991.76 1457.11 1990.05 1455.6 Q1988.36 1454.1 1985.35 1454.1 Q1982.32 1454.1 1980.63 1455.6 Q1978.96 1457.11 1978.96 1459.79 Z" fill="#000000" fill-rule="nonzero" fill-opacity="1"></path><path clip-path="url(#clip810)" d="M2124.37 1455.09 L2112.57 1473.54 L2124.37 1473.54 L2124.37 1455.09 M2123.15 1451.02 L2129.03 1451.02 L2129.03 1473.54 L2133.96 1473.54 L2133.96 1477.43 L2129.03 1477.43 L2129.03 1485.58 L2124.37 1485.58 L2124.37 1477.43 L2108.77 1477.43 L2108.77 1472.92 L2123.15 1451.02 Z" fill="#000000" fill-rule="nonzero" fill-opacity="1"></path><path clip-path="url(#clip810)" d="M2141.69 1479.7 L2146.57 1479.7 L2146.57 1485.58 L2141.69 1485.58 L2141.69 1479.7 Z" fill="#000000" fill-rule="nonzero" fill-opacity="1"></path><path clip-path="url(#clip810)" d="M2166.76 1454.1 Q2163.15 1454.1 2161.32 1457.66 Q2159.51 1461.2 2159.51 1468.33 Q2159.51 1475.44 2161.32 1479.01 Q2163.15 1482.55 2166.76 1482.55 Q2170.39 1482.55 2172.2 1479.01 Q2174.03 1475.44 2174.03 1468.33 Q2174.03 1461.2 2172.2 1457.66 Q2170.39 1454.1 2166.76 1454.1 M2166.76 1450.39 Q2172.57 1450.39 2175.62 1455 Q2178.7 1459.58 2178.7 1468.33 Q2178.7 1477.06 2175.62 1481.67 Q2172.57 1486.25 2166.76 1486.25 Q2160.95 1486.25 2157.87 1481.67 Q2154.81 1477.06 2154.81 1468.33 Q2154.81 1459.58 2157.87 1455 Q2160.95 1450.39 2166.76 1450.39 Z" fill="#000000" fill-rule="nonzero" fill-opacity="1"></path><path clip-path="url(#clip810)" d="M2305.97 1455.09 L2294.17 1473.54 L2305.97 1473.54 L2305.97 1455.09 M2304.75 1451.02 L2310.63 1451.02 L2310.63 1473.54 L2315.56 1473.54 L2315.56 1477.43 L2310.63 1477.43 L2310.63 1485.58 L2305.97 1485.58 L2305.97 1477.43 L2290.37 1477.43 L2290.37 1472.92 L2304.75 1451.02 Z" fill="#000000" fill-rule="nonzero" fill-opacity="1"></path><path clip-path="url(#clip810)" d="M2323.29 1479.7 L2328.17 1479.7 L2328.17 1485.58 L2323.29 1485.58 L2323.29 1479.7 Z" fill="#000000" fill-rule="nonzero" fill-opacity="1"></path><path clip-path="url(#clip810)" d="M2342.39 1481.64 L2358.71 1481.64 L2358.71 1485.58 L2336.76 1485.58 L2336.76 1481.64 Q2339.42 1478.89 2344.01 1474.26 Q2348.61 1469.61 2349.79 1468.27 Q2352.04 1465.74 2352.92 1464.01 Q2353.82 1462.25 2353.82 1460.56 Q2353.82 1457.8 2351.88 1456.07 Q2349.96 1454.33 2346.85 1454.33 Q2344.65 1454.33 2342.2 1455.09 Q2339.77 1455.86 2336.99 1457.41 L2336.99 1452.69 Q2339.82 1451.55 2342.27 1450.97 Q2344.72 1450.39 2346.76 1450.39 Q2352.13 1450.39 2355.33 1453.08 Q2358.52 1455.77 2358.52 1460.26 Q2358.52 1462.39 2357.71 1464.31 Q2356.92 1466.2 2354.82 1468.8 Q2354.24 1469.47 2351.14 1472.69 Q2348.03 1475.88 2342.39 1481.64 Z" fill="#000000" fill-rule="nonzero" fill-opacity="1"></path><path clip-path="url(#clip810)" d="M1742.55 1518.52 L1748.41 1518.52 L1748.41 1568.04 L1742.55 1568.04 L1742.55 1518.52 Z" fill="#000000" fill-rule="nonzero" fill-opacity="1"></path><path clip-path="url(#clip810)" d="M1774.48 1536.5 Q1769.77 1536.5 1767.03 1540.19 Q1764.29 1543.85 1764.29 1550.25 Q1764.29 1556.65 1767 1560.34 Q1769.73 1564 1774.48 1564 Q1779.16 1564 1781.89 1560.31 Q1784.63 1556.62 1784.63 1550.25 Q1784.63 1543.92 1781.89 1540.23 Q1779.16 1536.5 1774.48 1536.5 M1774.48 1531.54 Q1782.12 1531.54 1786.48 1536.5 Q1790.84 1541.47 1790.84 1550.25 Q1790.84 1559 1786.48 1564 Q1782.12 1568.97 1774.48 1568.97 Q1766.81 1568.97 1762.45 1564 Q1758.12 1559 1758.12 1550.25 Q1758.12 1541.47 1762.45 1536.5 Q1766.81 1531.54 1774.48 1531.54 Z" fill="#000000" fill-rule="nonzero" fill-opacity="1"></path><path clip-path="url(#clip810)" d="M1824 1549.81 Q1824 1543.44 1821.36 1539.94 Q1818.75 1536.44 1814.01 1536.44 Q1809.3 1536.44 1806.66 1539.94 Q1804.05 1543.44 1804.05 1549.81 Q1804.05 1556.14 1806.66 1559.64 Q1809.3 1563.14 1814.01 1563.14 Q1818.75 1563.14 1821.36 1559.64 Q1824 1556.14 1824 1549.81 M1829.86 1563.62 Q1829.86 1572.72 1825.82 1577.15 Q1821.77 1581.6 1813.44 1581.6 Q1810.35 1581.6 1807.61 1581.13 Q1804.87 1580.68 1802.3 1579.72 L1802.3 1574.03 Q1804.87 1575.43 1807.39 1576.1 Q1809.9 1576.76 1812.51 1576.76 Q1818.27 1576.76 1821.14 1573.74 Q1824 1570.75 1824 1564.67 L1824 1561.77 Q1822.19 1564.92 1819.36 1566.48 Q1816.52 1568.04 1812.58 1568.04 Q1806.02 1568.04 1802.01 1563.05 Q1798 1558.05 1798 1549.81 Q1798 1541.53 1802.01 1536.53 Q1806.02 1531.54 1812.58 1531.54 Q1816.52 1531.54 1819.36 1533.1 Q1822.19 1534.66 1824 1537.81 L1824 1532.4 L1829.86 1532.4 L1829.86 1563.62 Z" fill="#000000" fill-rule="nonzero" fill-opacity="1"></path><path clip-path="url(#clip810)" d="M1843.86 1562.63 L1854.37 1562.63 L1854.37 1526.38 L1842.94 1528.67 L1842.94 1522.82 L1854.3 1520.52 L1860.73 1520.52 L1860.73 1562.63 L1871.24 1562.63 L1871.24 1568.04 L1843.86 1568.04 L1843.86 1562.63 Z" fill="#000000" fill-rule="nonzero" fill-opacity="1"></path><path clip-path="url(#clip810)" d="M1897.97 1524.76 Q1893.01 1524.76 1890.49 1529.66 Q1888.01 1534.53 1888.01 1544.33 Q1888.01 1554.1 1890.49 1559 Q1893.01 1563.87 1897.97 1563.87 Q1902.97 1563.87 1905.45 1559 Q1907.97 1554.1 1907.97 1544.33 Q1907.97 1534.53 1905.45 1529.66 Q1902.97 1524.76 1897.97 1524.76 M1897.97 1519.66 Q1905.96 1519.66 1910.16 1526 Q1914.4 1532.3 1914.4 1544.33 Q1914.4 1556.33 1910.16 1562.66 Q1905.96 1568.97 1897.97 1568.97 Q1889.98 1568.97 1885.75 1562.66 Q1881.55 1556.33 1881.55 1544.33 Q1881.55 1532.3 1885.75 1526 Q1889.98 1519.66 1897.97 1519.66 Z" fill="#000000" fill-rule="nonzero" fill-opacity="1"></path><path clip-path="url(#clip810)" d="M1938.94 1518.58 Q1934.67 1525.9 1932.6 1533.06 Q1930.53 1540.23 1930.53 1547.58 Q1930.53 1554.93 1932.6 1562.16 Q1934.7 1569.35 1938.94 1576.64 L1933.84 1576.64 Q1929.07 1569.16 1926.68 1561.93 Q1924.33 1554.71 1924.33 1547.58 Q1924.33 1540.48 1926.68 1533.29 Q1929.04 1526.09 1933.84 1518.58 L1938.94 1518.58 Z" fill="#000000" fill-rule="nonzero" fill-opacity="1"></path><path clip-path="url(#clip810)" d="M1952.24 1562.63 L1962.74 1562.63 L1962.74 1526.38 L1951.32 1528.67 L1951.32 1522.82 L1962.68 1520.52 L1969.11 1520.52 L1969.11 1562.63 L1979.61 1562.63 L1979.61 1568.04 L1952.24 1568.04 L1952.24 1562.63 Z" fill="#000000" fill-rule="nonzero" fill-opacity="1"></path><path clip-path="url(#clip810)" d="M2002.18 1520.52 L2007.59 1520.52 L1991.04 1574.09 L1985.63 1574.09 L2002.18 1520.52 Z" fill="#000000" fill-rule="nonzero" fill-opacity="1"></path><path clip-path="url(#clip810)" d="M2029.87 1526.86 L2016.82 1562.7 L2042.95 1562.7 L2029.87 1526.86 M2008.1 1568.04 L2026.24 1520.52 L2033.53 1520.52 L2051.64 1568.04 L2008.1 1568.04 Z" fill="#000000" fill-rule="nonzero" fill-opacity="1"></path><path clip-path="url(#clip810)" d="M2064.12 1522.27 L2064.12 1532.4 L2076.18 1532.4 L2076.18 1536.95 L2064.12 1536.95 L2064.12 1556.3 Q2064.12 1560.66 2065.29 1561.9 Q2066.5 1563.14 2070.16 1563.14 L2076.18 1563.14 L2076.18 1568.04 L2070.16 1568.04 Q2063.38 1568.04 2060.81 1565.53 Q2058.23 1562.98 2058.23 1556.3 L2058.23 1536.95 L2053.93 1536.95 L2053.93 1532.4 L2058.23 1532.4 L2058.23 1522.27 L2064.12 1522.27 Z" fill="#000000" fill-rule="nonzero" fill-opacity="1"></path><path clip-path="url(#clip810)" d="M2082.96 1518.58 L2088.05 1518.58 Q2092.83 1526.09 2095.18 1533.29 Q2097.57 1540.48 2097.57 1547.58 Q2097.57 1554.71 2095.18 1561.93 Q2092.83 1569.16 2088.05 1576.64 L2082.96 1576.64 Q2087.19 1569.35 2089.26 1562.16 Q2091.36 1554.93 2091.36 1547.58 Q2091.36 1540.23 2089.26 1533.06 Q2087.19 1525.9 2082.96 1518.58 Z" fill="#000000" fill-rule="nonzero" fill-opacity="1"></path><polyline clip-path="url(#clip813)" style="stroke:#000000; stroke-linecap:round; stroke-linejoin:round; stroke-width:2; stroke-opacity:0.1; fill:none" points="1487.37,1289.86 2352.76,1289.86 "></polyline>
<polyline clip-path="url(#clip813)" style="stroke:#000000; stroke-linecap:round; stroke-linejoin:round; stroke-width:2; stroke-opacity:0.1; fill:none" points="1487.37,1110.19 2352.76,1110.19 "></polyline>
<polyline clip-path="url(#clip813)" style="stroke:#000000; stroke-linecap:round; stroke-linejoin:round; stroke-width:2; stroke-opacity:0.1; fill:none" points="1487.37,930.522 2352.76,930.522 "></polyline>
<polyline clip-path="url(#clip813)" style="stroke:#000000; stroke-linecap:round; stroke-linejoin:round; stroke-width:2; stroke-opacity:0.1; fill:none" points="1487.37,750.854 2352.76,750.854 "></polyline>
<polyline clip-path="url(#clip813)" style="stroke:#000000; stroke-linecap:round; stroke-linejoin:round; stroke-width:2; stroke-opacity:0.1; fill:none" points="1487.37,571.185 2352.76,571.185 "></polyline>
<polyline clip-path="url(#clip813)" style="stroke:#000000; stroke-linecap:round; stroke-linejoin:round; stroke-width:2; stroke-opacity:0.1; fill:none" points="1487.37,391.517 2352.76,391.517 "></polyline>
<polyline clip-path="url(#clip813)" style="stroke:#000000; stroke-linecap:round; stroke-linejoin:round; stroke-width:2; stroke-opacity:0.1; fill:none" points="1487.37,211.849 2352.76,211.849 "></polyline>
<polyline clip-path="url(#clip810)" style="stroke:#000000; stroke-linecap:round; stroke-linejoin:round; stroke-width:4; stroke-opacity:1; fill:none" points="1487.37,1423.18 1487.37,47.2441 "></polyline>
<polyline clip-path="url(#clip810)" style="stroke:#000000; stroke-linecap:round; stroke-linejoin:round; stroke-width:4; stroke-opacity:1; fill:none" points="1487.37,1289.86 1506.26,1289.86 "></polyline>
<polyline clip-path="url(#clip810)" style="stroke:#000000; stroke-linecap:round; stroke-linejoin:round; stroke-width:4; stroke-opacity:1; fill:none" points="1487.37,1110.19 1506.26,1110.19 "></polyline>
<polyline clip-path="url(#clip810)" style="stroke:#000000; stroke-linecap:round; stroke-linejoin:round; stroke-width:4; stroke-opacity:1; fill:none" points="1487.37,930.522 1506.26,930.522 "></polyline>
<polyline clip-path="url(#clip810)" style="stroke:#000000; stroke-linecap:round; stroke-linejoin:round; stroke-width:4; stroke-opacity:1; fill:none" points="1487.37,750.854 1506.26,750.854 "></polyline>
<polyline clip-path="url(#clip810)" style="stroke:#000000; stroke-linecap:round; stroke-linejoin:round; stroke-width:4; stroke-opacity:1; fill:none" points="1487.37,571.185 1506.26,571.185 "></polyline>
<polyline clip-path="url(#clip810)" style="stroke:#000000; stroke-linecap:round; stroke-linejoin:round; stroke-width:4; stroke-opacity:1; fill:none" points="1487.37,391.517 1506.26,391.517 "></polyline>
<polyline clip-path="url(#clip810)" style="stroke:#000000; stroke-linecap:round; stroke-linejoin:round; stroke-width:4; stroke-opacity:1; fill:none" points="1487.37,211.849 1506.26,211.849 "></polyline>
<path clip-path="url(#clip810)" d="M1315.26 1290.31 L1344.93 1290.31 L1344.93 1294.24 L1315.26 1294.24 L1315.26 1290.31 Z" fill="#000000" fill-rule="nonzero" fill-opacity="1"></path><path clip-path="url(#clip810)" d="M1367.87 1276.65 L1356.07 1295.1 L1367.87 1295.1 L1367.87 1276.65 M1366.64 1272.58 L1372.52 1272.58 L1372.52 1295.1 L1377.45 1295.1 L1377.45 1298.99 L1372.52 1298.99 L1372.52 1307.14 L1367.87 1307.14 L1367.87 1298.99 L1352.27 1298.99 L1352.27 1294.48 L1366.64 1272.58 Z" fill="#000000" fill-rule="nonzero" fill-opacity="1"></path><path clip-path="url(#clip810)" d="M1385.19 1301.26 L1390.07 1301.26 L1390.07 1307.14 L1385.19 1307.14 L1385.19 1301.26 Z" fill="#000000" fill-rule="nonzero" fill-opacity="1"></path><path clip-path="url(#clip810)" d="M1404.28 1303.2 L1420.6 1303.2 L1420.6 1307.14 L1398.66 1307.14 L1398.66 1303.2 Q1401.32 1300.45 1405.9 1295.82 Q1410.51 1291.17 1411.69 1289.82 Q1413.94 1287.3 1414.82 1285.56 Q1415.72 1283.81 1415.72 1282.12 Q1415.72 1279.36 1413.77 1277.62 Q1411.85 1275.89 1408.75 1275.89 Q1406.55 1275.89 1404.1 1276.65 Q1401.67 1277.42 1398.89 1278.97 L1398.89 1274.24 Q1401.71 1273.11 1404.17 1272.53 Q1406.62 1271.95 1408.66 1271.95 Q1414.03 1271.95 1417.22 1274.64 Q1420.42 1277.32 1420.42 1281.81 Q1420.42 1283.94 1419.61 1285.87 Q1418.82 1287.76 1416.71 1290.36 Q1416.13 1291.03 1413.03 1294.24 Q1409.93 1297.44 1404.28 1303.2 Z" fill="#000000" fill-rule="nonzero" fill-opacity="1"></path><path clip-path="url(#clip810)" d="M1430.46 1272.58 L1448.82 1272.58 L1448.82 1276.51 L1434.75 1276.51 L1434.75 1284.99 Q1435.76 1284.64 1436.78 1284.48 Q1437.8 1284.29 1438.82 1284.29 Q1444.61 1284.29 1447.99 1287.46 Q1451.37 1290.63 1451.37 1296.05 Q1451.37 1301.63 1447.89 1304.73 Q1444.42 1307.81 1438.1 1307.81 Q1435.93 1307.81 1433.66 1307.44 Q1431.41 1307.07 1429 1306.33 L1429 1301.63 Q1431.09 1302.76 1433.31 1303.32 Q1435.53 1303.87 1438.01 1303.87 Q1442.01 1303.87 1444.35 1301.77 Q1446.69 1299.66 1446.69 1296.05 Q1446.69 1292.44 1444.35 1290.33 Q1442.01 1288.23 1438.01 1288.23 Q1436.13 1288.23 1434.26 1288.64 Q1432.41 1289.06 1430.46 1289.94 L1430.46 1272.58 Z" fill="#000000" fill-rule="nonzero" fill-opacity="1"></path><path clip-path="url(#clip810)" d="M1314.26 1110.64 L1343.94 1110.64 L1343.94 1114.58 L1314.26 1114.58 L1314.26 1110.64 Z" fill="#000000" fill-rule="nonzero" fill-opacity="1"></path><path clip-path="url(#clip810)" d="M1366.88 1096.98 L1355.07 1115.43 L1366.88 1115.43 L1366.88 1096.98 M1365.65 1092.91 L1371.53 1092.91 L1371.53 1115.43 L1376.46 1115.43 L1376.46 1119.32 L1371.53 1119.32 L1371.53 1127.47 L1366.88 1127.47 L1366.88 1119.32 L1351.27 1119.32 L1351.27 1114.81 L1365.65 1092.91 Z" fill="#000000" fill-rule="nonzero" fill-opacity="1"></path><path clip-path="url(#clip810)" d="M1384.19 1121.59 L1389.07 1121.59 L1389.07 1127.47 L1384.19 1127.47 L1384.19 1121.59 Z" fill="#000000" fill-rule="nonzero" fill-opacity="1"></path><path clip-path="url(#clip810)" d="M1409.26 1095.99 Q1405.65 1095.99 1403.82 1099.55 Q1402.01 1103.1 1402.01 1110.22 Q1402.01 1117.33 1403.82 1120.9 Q1405.65 1124.44 1409.26 1124.44 Q1412.89 1124.44 1414.7 1120.9 Q1416.53 1117.33 1416.53 1110.22 Q1416.53 1103.1 1414.7 1099.55 Q1412.89 1095.99 1409.26 1095.99 M1409.26 1092.29 Q1415.07 1092.29 1418.13 1096.89 Q1421.2 1101.47 1421.2 1110.22 Q1421.2 1118.95 1418.13 1123.56 Q1415.07 1128.14 1409.26 1128.14 Q1403.45 1128.14 1400.37 1123.56 Q1397.32 1118.95 1397.32 1110.22 Q1397.32 1101.47 1400.37 1096.89 Q1403.45 1092.29 1409.26 1092.29 Z" fill="#000000" fill-rule="nonzero" fill-opacity="1"></path><path clip-path="url(#clip810)" d="M1439.42 1095.99 Q1435.81 1095.99 1433.98 1099.55 Q1432.18 1103.1 1432.18 1110.22 Q1432.18 1117.33 1433.98 1120.9 Q1435.81 1124.44 1439.42 1124.44 Q1443.06 1124.44 1444.86 1120.9 Q1446.69 1117.33 1446.69 1110.22 Q1446.69 1103.1 1444.86 1099.55 Q1443.06 1095.99 1439.42 1095.99 M1439.42 1092.29 Q1445.23 1092.29 1448.29 1096.89 Q1451.37 1101.47 1451.37 1110.22 Q1451.37 1118.95 1448.29 1123.56 Q1445.23 1128.14 1439.42 1128.14 Q1433.61 1128.14 1430.53 1123.56 Q1427.48 1118.95 1427.48 1110.22 Q1427.48 1101.47 1430.53 1096.89 Q1433.61 1092.29 1439.42 1092.29 Z" fill="#000000" fill-rule="nonzero" fill-opacity="1"></path><path clip-path="url(#clip810)" d="M1315.26 930.973 L1344.93 930.973 L1344.93 934.908 L1315.26 934.908 L1315.26 930.973 Z" fill="#000000" fill-rule="nonzero" fill-opacity="1"></path><path clip-path="url(#clip810)" d="M1369.19 929.168 Q1372.55 929.885 1374.42 932.154 Q1376.32 934.422 1376.32 937.756 Q1376.32 942.871 1372.8 945.672 Q1369.28 948.473 1362.8 948.473 Q1360.63 948.473 1358.31 948.033 Q1356.02 947.617 1353.57 946.76 L1353.57 942.246 Q1355.51 943.381 1357.82 943.959 Q1360.14 944.538 1362.66 944.538 Q1367.06 944.538 1369.35 942.802 Q1371.67 941.066 1371.67 937.756 Q1371.67 934.7 1369.51 932.987 Q1367.38 931.251 1363.57 931.251 L1359.54 931.251 L1359.54 927.408 L1363.75 927.408 Q1367.2 927.408 1369.03 926.043 Q1370.86 924.654 1370.86 922.061 Q1370.86 919.399 1368.96 917.987 Q1367.08 916.552 1363.57 916.552 Q1361.64 916.552 1359.45 916.969 Q1357.25 917.385 1354.61 918.265 L1354.61 914.098 Q1357.27 913.358 1359.58 912.987 Q1361.92 912.617 1363.98 912.617 Q1369.31 912.617 1372.41 915.047 Q1375.51 917.455 1375.51 921.575 Q1375.51 924.445 1373.87 926.436 Q1372.22 928.404 1369.19 929.168 Z" fill="#000000" fill-rule="nonzero" fill-opacity="1"></path><path clip-path="url(#clip810)" d="M1385.19 941.922 L1390.07 941.922 L1390.07 947.802 L1385.19 947.802 L1385.19 941.922 Z" fill="#000000" fill-rule="nonzero" fill-opacity="1"></path><path clip-path="url(#clip810)" d="M1399.07 913.242 L1421.3 913.242 L1421.3 915.233 L1408.75 947.802 L1403.87 947.802 L1415.67 917.177 L1399.07 917.177 L1399.07 913.242 Z" fill="#000000" fill-rule="nonzero" fill-opacity="1"></path><path clip-path="url(#clip810)" d="M1430.46 913.242 L1448.82 913.242 L1448.82 917.177 L1434.75 917.177 L1434.75 925.649 Q1435.76 925.302 1436.78 925.14 Q1437.8 924.955 1438.82 924.955 Q1444.61 924.955 1447.99 928.126 Q1451.37 931.297 1451.37 936.714 Q1451.37 942.293 1447.89 945.394 Q1444.42 948.473 1438.1 948.473 Q1435.93 948.473 1433.66 948.103 Q1431.41 947.732 1429 946.992 L1429 942.293 Q1431.09 943.427 1433.31 943.982 Q1435.53 944.538 1438.01 944.538 Q1442.01 944.538 1444.35 942.431 Q1446.69 940.325 1446.69 936.714 Q1446.69 933.103 1444.35 930.996 Q1442.01 928.89 1438.01 928.89 Q1436.13 928.89 1434.26 929.307 Q1432.41 929.723 1430.46 930.603 L1430.46 913.242 Z" fill="#000000" fill-rule="nonzero" fill-opacity="1"></path><path clip-path="url(#clip810)" d="M1314.26 751.305 L1343.94 751.305 L1343.94 755.24 L1314.26 755.24 L1314.26 751.305 Z" fill="#000000" fill-rule="nonzero" fill-opacity="1"></path><path clip-path="url(#clip810)" d="M1368.2 749.499 Q1371.55 750.217 1373.43 752.486 Q1375.32 754.754 1375.32 758.087 Q1375.32 763.203 1371.81 766.004 Q1368.29 768.805 1361.81 768.805 Q1359.63 768.805 1357.32 768.365 Q1355.02 767.948 1352.57 767.092 L1352.57 762.578 Q1354.51 763.712 1356.83 764.291 Q1359.14 764.87 1361.67 764.87 Q1366.07 764.87 1368.36 763.134 Q1370.67 761.398 1370.67 758.087 Q1370.67 755.032 1368.52 753.319 Q1366.39 751.583 1362.57 751.583 L1358.54 751.583 L1358.54 747.74 L1362.76 747.74 Q1366.2 747.74 1368.03 746.374 Q1369.86 744.986 1369.86 742.393 Q1369.86 739.731 1367.96 738.319 Q1366.09 736.884 1362.57 736.884 Q1360.65 736.884 1358.45 737.3 Q1356.25 737.717 1353.61 738.597 L1353.61 734.43 Q1356.27 733.689 1358.59 733.319 Q1360.93 732.949 1362.99 732.949 Q1368.31 732.949 1371.41 735.379 Q1374.51 737.787 1374.51 741.907 Q1374.51 744.777 1372.87 746.768 Q1371.23 748.736 1368.2 749.499 Z" fill="#000000" fill-rule="nonzero" fill-opacity="1"></path><path clip-path="url(#clip810)" d="M1384.19 762.254 L1389.07 762.254 L1389.07 768.134 L1384.19 768.134 L1384.19 762.254 Z" fill="#000000" fill-rule="nonzero" fill-opacity="1"></path><path clip-path="url(#clip810)" d="M1399.31 733.574 L1417.66 733.574 L1417.66 737.509 L1403.59 737.509 L1403.59 745.981 Q1404.61 745.634 1405.63 745.472 Q1406.64 745.287 1407.66 745.287 Q1413.45 745.287 1416.83 748.458 Q1420.21 751.629 1420.21 757.046 Q1420.21 762.624 1416.74 765.726 Q1413.26 768.805 1406.94 768.805 Q1404.77 768.805 1402.5 768.435 Q1400.26 768.064 1397.85 767.323 L1397.85 762.624 Q1399.93 763.759 1402.15 764.314 Q1404.38 764.87 1406.85 764.87 Q1410.86 764.87 1413.19 762.763 Q1415.53 760.657 1415.53 757.046 Q1415.53 753.435 1413.19 751.328 Q1410.86 749.222 1406.85 749.222 Q1404.98 749.222 1403.1 749.638 Q1401.25 750.055 1399.31 750.935 L1399.31 733.574 Z" fill="#000000" fill-rule="nonzero" fill-opacity="1"></path><path clip-path="url(#clip810)" d="M1439.42 736.652 Q1435.81 736.652 1433.98 740.217 Q1432.18 743.759 1432.18 750.888 Q1432.18 757.995 1433.98 761.56 Q1435.81 765.101 1439.42 765.101 Q1443.06 765.101 1444.86 761.56 Q1446.69 757.995 1446.69 750.888 Q1446.69 743.759 1444.86 740.217 Q1443.06 736.652 1439.42 736.652 M1439.42 732.949 Q1445.23 732.949 1448.29 737.555 Q1451.37 742.138 1451.37 750.888 Q1451.37 759.615 1448.29 764.222 Q1445.23 768.805 1439.42 768.805 Q1433.61 768.805 1430.53 764.222 Q1427.48 759.615 1427.48 750.888 Q1427.48 742.138 1430.53 737.555 Q1433.61 732.949 1439.42 732.949 Z" fill="#000000" fill-rule="nonzero" fill-opacity="1"></path><path clip-path="url(#clip810)" d="M1315.26 571.637 L1344.93 571.637 L1344.93 575.572 L1315.26 575.572 L1315.26 571.637 Z" fill="#000000" fill-rule="nonzero" fill-opacity="1"></path><path clip-path="url(#clip810)" d="M1369.19 569.831 Q1372.55 570.549 1374.42 572.817 Q1376.32 575.086 1376.32 578.419 Q1376.32 583.535 1372.8 586.336 Q1369.28 589.137 1362.8 589.137 Q1360.63 589.137 1358.31 588.697 Q1356.02 588.28 1353.57 587.424 L1353.57 582.91 Q1355.51 584.044 1357.82 584.623 Q1360.14 585.202 1362.66 585.202 Q1367.06 585.202 1369.35 583.465 Q1371.67 581.729 1371.67 578.419 Q1371.67 575.364 1369.51 573.651 Q1367.38 571.915 1363.57 571.915 L1359.54 571.915 L1359.54 568.072 L1363.75 568.072 Q1367.2 568.072 1369.03 566.706 Q1370.86 565.317 1370.86 562.725 Q1370.86 560.063 1368.96 558.651 Q1367.08 557.216 1363.57 557.216 Q1361.64 557.216 1359.45 557.632 Q1357.25 558.049 1354.61 558.929 L1354.61 554.762 Q1357.27 554.021 1359.58 553.651 Q1361.92 553.28 1363.98 553.28 Q1369.31 553.28 1372.41 555.711 Q1375.51 558.118 1375.51 562.239 Q1375.51 565.109 1373.87 567.1 Q1372.22 569.067 1369.19 569.831 Z" fill="#000000" fill-rule="nonzero" fill-opacity="1"></path><path clip-path="url(#clip810)" d="M1385.19 582.586 L1390.07 582.586 L1390.07 588.465 L1385.19 588.465 L1385.19 582.586 Z" fill="#000000" fill-rule="nonzero" fill-opacity="1"></path><path clip-path="url(#clip810)" d="M1404.28 584.53 L1420.6 584.53 L1420.6 588.465 L1398.66 588.465 L1398.66 584.53 Q1401.32 581.776 1405.9 577.146 Q1410.51 572.493 1411.69 571.151 Q1413.94 568.628 1414.82 566.891 Q1415.72 565.132 1415.72 563.442 Q1415.72 560.688 1413.77 558.952 Q1411.85 557.216 1408.75 557.216 Q1406.55 557.216 1404.1 557.979 Q1401.67 558.743 1398.89 560.294 L1398.89 555.572 Q1401.71 554.438 1404.17 553.859 Q1406.62 553.28 1408.66 553.28 Q1414.03 553.28 1417.22 555.966 Q1420.42 558.651 1420.42 563.141 Q1420.42 565.271 1419.61 567.192 Q1418.82 569.09 1416.71 571.683 Q1416.13 572.354 1413.03 575.572 Q1409.93 578.766 1404.28 584.53 Z" fill="#000000" fill-rule="nonzero" fill-opacity="1"></path><path clip-path="url(#clip810)" d="M1430.46 553.905 L1448.82 553.905 L1448.82 557.841 L1434.75 557.841 L1434.75 566.313 Q1435.76 565.966 1436.78 565.803 Q1437.8 565.618 1438.82 565.618 Q1444.61 565.618 1447.99 568.79 Q1451.37 571.961 1451.37 577.377 Q1451.37 582.956 1447.89 586.058 Q1444.42 589.137 1438.1 589.137 Q1435.93 589.137 1433.66 588.766 Q1431.41 588.396 1429 587.655 L1429 582.956 Q1431.09 584.09 1433.31 584.646 Q1435.53 585.202 1438.01 585.202 Q1442.01 585.202 1444.35 583.095 Q1446.69 580.989 1446.69 577.377 Q1446.69 573.766 1444.35 571.66 Q1442.01 569.553 1438.01 569.553 Q1436.13 569.553 1434.26 569.97 Q1432.41 570.387 1430.46 571.266 L1430.46 553.905 Z" fill="#000000" fill-rule="nonzero" fill-opacity="1"></path><path clip-path="url(#clip810)" d="M1314.26 391.969 L1343.94 391.969 L1343.94 395.904 L1314.26 395.904 L1314.26 391.969 Z" fill="#000000" fill-rule="nonzero" fill-opacity="1"></path><path clip-path="url(#clip810)" d="M1368.2 390.163 Q1371.55 390.881 1373.43 393.149 Q1375.32 395.418 1375.32 398.751 Q1375.32 403.867 1371.81 406.668 Q1368.29 409.468 1361.81 409.468 Q1359.63 409.468 1357.32 409.029 Q1355.02 408.612 1352.57 407.756 L1352.57 403.242 Q1354.51 404.376 1356.83 404.955 Q1359.14 405.533 1361.67 405.533 Q1366.07 405.533 1368.36 403.797 Q1370.67 402.061 1370.67 398.751 Q1370.67 395.695 1368.52 393.982 Q1366.39 392.246 1362.57 392.246 L1358.54 392.246 L1358.54 388.404 L1362.76 388.404 Q1366.2 388.404 1368.03 387.038 Q1369.86 385.649 1369.86 383.057 Q1369.86 380.395 1367.96 378.983 Q1366.09 377.547 1362.57 377.547 Q1360.65 377.547 1358.45 377.964 Q1356.25 378.381 1353.61 379.26 L1353.61 375.094 Q1356.27 374.353 1358.59 373.983 Q1360.93 373.612 1362.99 373.612 Q1368.31 373.612 1371.41 376.043 Q1374.51 378.45 1374.51 382.57 Q1374.51 385.441 1372.87 387.432 Q1371.23 389.399 1368.2 390.163 Z" fill="#000000" fill-rule="nonzero" fill-opacity="1"></path><path clip-path="url(#clip810)" d="M1384.19 402.918 L1389.07 402.918 L1389.07 408.797 L1384.19 408.797 L1384.19 402.918 Z" fill="#000000" fill-rule="nonzero" fill-opacity="1"></path><path clip-path="url(#clip810)" d="M1409.26 377.316 Q1405.65 377.316 1403.82 380.881 Q1402.01 384.422 1402.01 391.552 Q1402.01 398.658 1403.82 402.223 Q1405.65 405.765 1409.26 405.765 Q1412.89 405.765 1414.7 402.223 Q1416.53 398.658 1416.53 391.552 Q1416.53 384.422 1414.7 380.881 Q1412.89 377.316 1409.26 377.316 M1409.26 373.612 Q1415.07 373.612 1418.13 378.219 Q1421.2 382.802 1421.2 391.552 Q1421.2 400.279 1418.13 404.885 Q1415.07 409.468 1409.26 409.468 Q1403.45 409.468 1400.37 404.885 Q1397.32 400.279 1397.32 391.552 Q1397.32 382.802 1400.37 378.219 Q1403.45 373.612 1409.26 373.612 Z" fill="#000000" fill-rule="nonzero" fill-opacity="1"></path><path clip-path="url(#clip810)" d="M1439.42 377.316 Q1435.81 377.316 1433.98 380.881 Q1432.18 384.422 1432.18 391.552 Q1432.18 398.658 1433.98 402.223 Q1435.81 405.765 1439.42 405.765 Q1443.06 405.765 1444.86 402.223 Q1446.69 398.658 1446.69 391.552 Q1446.69 384.422 1444.86 380.881 Q1443.06 377.316 1439.42 377.316 M1439.42 373.612 Q1445.23 373.612 1448.29 378.219 Q1451.37 382.802 1451.37 391.552 Q1451.37 400.279 1448.29 404.885 Q1445.23 409.468 1439.42 409.468 Q1433.61 409.468 1430.53 404.885 Q1427.48 400.279 1427.48 391.552 Q1427.48 382.802 1430.53 378.219 Q1433.61 373.612 1439.42 373.612 Z" fill="#000000" fill-rule="nonzero" fill-opacity="1"></path><path clip-path="url(#clip810)" d="M1315.26 212.3 L1344.93 212.3 L1344.93 216.235 L1315.26 216.235 L1315.26 212.3 Z" fill="#000000" fill-rule="nonzero" fill-opacity="1"></path><path clip-path="url(#clip810)" d="M1359.05 225.194 L1375.37 225.194 L1375.37 229.129 L1353.43 229.129 L1353.43 225.194 Q1356.09 222.439 1360.67 217.81 Q1365.28 213.157 1366.46 211.814 Q1368.7 209.291 1369.58 207.555 Q1370.49 205.796 1370.49 204.106 Q1370.49 201.351 1368.54 199.615 Q1366.62 197.879 1363.52 197.879 Q1361.32 197.879 1358.87 198.643 Q1356.44 199.407 1353.66 200.958 L1353.66 196.236 Q1356.48 195.101 1358.94 194.523 Q1361.39 193.944 1363.43 193.944 Q1368.8 193.944 1371.99 196.629 Q1375.19 199.314 1375.19 203.805 Q1375.19 205.935 1374.38 207.856 Q1373.59 209.754 1371.48 212.347 Q1370.9 213.018 1367.8 216.235 Q1364.7 219.43 1359.05 225.194 Z" fill="#000000" fill-rule="nonzero" fill-opacity="1"></path><path clip-path="url(#clip810)" d="M1385.19 223.249 L1390.07 223.249 L1390.07 229.129 L1385.19 229.129 L1385.19 223.249 Z" fill="#000000" fill-rule="nonzero" fill-opacity="1"></path><path clip-path="url(#clip810)" d="M1399.07 194.569 L1421.3 194.569 L1421.3 196.56 L1408.75 229.129 L1403.87 229.129 L1415.67 198.504 L1399.07 198.504 L1399.07 194.569 Z" fill="#000000" fill-rule="nonzero" fill-opacity="1"></path><path clip-path="url(#clip810)" d="M1430.46 194.569 L1448.82 194.569 L1448.82 198.504 L1434.75 198.504 L1434.75 206.976 Q1435.76 206.629 1436.78 206.467 Q1437.8 206.282 1438.82 206.282 Q1444.61 206.282 1447.99 209.453 Q1451.37 212.624 1451.37 218.041 Q1451.37 223.62 1447.89 226.722 Q1444.42 229.8 1438.1 229.8 Q1435.93 229.8 1433.66 229.43 Q1431.41 229.059 1429 228.319 L1429 223.62 Q1431.09 224.754 1433.31 225.31 Q1435.53 225.865 1438.01 225.865 Q1442.01 225.865 1444.35 223.759 Q1446.69 221.652 1446.69 218.041 Q1446.69 214.43 1444.35 212.323 Q1442.01 210.217 1438.01 210.217 Q1436.13 210.217 1434.26 210.634 Q1432.41 211.05 1430.46 211.93 L1430.46 194.569 Z" fill="#000000" fill-rule="nonzero" fill-opacity="1"></path><path clip-path="url(#clip810)" d="M1214.48 878.759 L1214.48 872.902 L1264 872.902 L1264 878.759 L1214.48 878.759 Z" fill="#000000" fill-rule="nonzero" fill-opacity="1"></path><path clip-path="url(#clip810)" d="M1232.46 846.835 Q1232.46 851.545 1236.15 854.283 Q1239.81 857.02 1246.21 857.02 Q1252.61 857.02 1256.3 854.314 Q1259.96 851.577 1259.96 846.835 Q1259.96 842.156 1256.27 839.419 Q1252.58 836.681 1246.21 836.681 Q1239.88 836.681 1236.19 839.419 Q1232.46 842.156 1232.46 846.835 M1227.5 846.835 Q1227.5 839.196 1232.46 834.835 Q1237.43 830.475 1246.21 830.475 Q1254.96 830.475 1259.96 834.835 Q1264.93 839.196 1264.93 846.835 Q1264.93 854.505 1259.96 858.866 Q1254.96 863.195 1246.21 863.195 Q1237.43 863.195 1232.46 858.866 Q1227.5 854.505 1227.5 846.835 Z" fill="#000000" fill-rule="nonzero" fill-opacity="1"></path><path clip-path="url(#clip810)" d="M1245.77 797.309 Q1239.4 797.309 1235.9 799.951 Q1232.4 802.561 1232.4 807.304 Q1232.4 812.014 1235.9 814.656 Q1239.4 817.266 1245.77 817.266 Q1252.1 817.266 1255.6 814.656 Q1259.1 812.014 1259.1 807.304 Q1259.1 802.561 1255.6 799.951 Q1252.1 797.309 1245.77 797.309 M1259.58 791.453 Q1268.68 791.453 1273.11 795.495 Q1277.56 799.537 1277.56 807.877 Q1277.56 810.964 1277.09 813.701 Q1276.64 816.438 1275.69 819.016 L1269.99 819.016 Q1271.39 816.438 1272.06 813.924 Q1272.73 811.409 1272.73 808.8 Q1272.73 803.039 1269.7 800.174 Q1266.71 797.309 1260.63 797.309 L1257.73 797.309 Q1260.88 799.124 1262.44 801.956 Q1264 804.789 1264 808.736 Q1264 815.293 1259.01 819.303 Q1254.01 823.313 1245.77 823.313 Q1237.49 823.313 1232.49 819.303 Q1227.5 815.293 1227.5 808.736 Q1227.5 804.789 1229.06 801.956 Q1230.62 799.124 1233.77 797.309 L1228.36 797.309 L1228.36 791.453 L1259.58 791.453 Z" fill="#000000" fill-rule="nonzero" fill-opacity="1"></path><path clip-path="url(#clip810)" d="M1258.59 777.448 L1258.59 766.945 L1222.34 766.945 L1224.63 778.371 L1218.78 778.371 L1216.48 767.009 L1216.48 760.579 L1258.59 760.579 L1258.59 750.076 L1264 750.076 L1264 777.448 L1258.59 777.448 Z" fill="#000000" fill-rule="nonzero" fill-opacity="1"></path><path clip-path="url(#clip810)" d="M1220.72 723.34 Q1220.72 728.305 1225.62 730.82 Q1230.49 733.302 1240.29 733.302 Q1250.06 733.302 1254.96 730.82 Q1259.83 728.305 1259.83 723.34 Q1259.83 718.343 1254.96 715.86 Q1250.06 713.346 1240.29 713.346 Q1230.49 713.346 1225.62 715.86 Q1220.72 718.343 1220.72 723.34 M1215.62 723.34 Q1215.62 715.351 1221.96 711.15 Q1228.26 706.916 1240.29 706.916 Q1252.29 706.916 1258.63 711.15 Q1264.93 715.351 1264.93 723.34 Q1264.93 731.329 1258.63 735.562 Q1252.29 739.763 1240.29 739.763 Q1228.26 739.763 1221.96 735.562 Q1215.62 731.329 1215.62 723.34 Z" fill="#000000" fill-rule="nonzero" fill-opacity="1"></path><path clip-path="url(#clip810)" d="M1214.54 682.377 Q1221.86 686.642 1229.02 688.71 Q1236.19 690.779 1243.54 690.779 Q1250.89 690.779 1258.12 688.71 Q1265.31 686.61 1272.6 682.377 L1272.6 687.469 Q1265.12 692.243 1257.89 694.631 Q1250.67 696.986 1243.54 696.986 Q1236.44 696.986 1229.25 694.631 Q1222.05 692.275 1214.54 687.469 L1214.54 682.377 Z" fill="#000000" fill-rule="nonzero" fill-opacity="1"></path><path clip-path="url(#clip810)" d="M1234.02 645.837 Q1233.61 647.015 1233.29 648.193 Q1232.46 651.344 1232.46 654.718 Q1232.46 660.542 1235.61 663.789 Q1238.54 666.812 1243.92 667.385 L1243.92 645.837 L1248.5 645.837 L1248.5 667.385 Q1253.88 666.812 1256.81 663.789 Q1259.96 660.542 1259.96 654.718 Q1259.96 650.644 1259.13 648.193 L1258.34 645.837 L1263.65 645.837 L1264.23 648.352 Q1264.93 651.662 1264.93 655.068 Q1264.93 663.598 1259.96 668.563 Q1255 673.56 1246.21 673.56 Q1237.43 673.56 1232.46 668.563 Q1227.5 663.598 1227.5 655.068 Q1227.5 651.853 1228.2 648.352 Q1228.45 647.079 1228.83 645.837 L1234.02 645.837 Z" fill="#000000" fill-rule="nonzero" fill-opacity="1"></path><path clip-path="url(#clip810)" d="M1218.23 625.117 L1228.36 625.117 L1228.36 613.054 L1232.91 613.054 L1232.91 625.117 L1252.26 625.117 Q1256.62 625.117 1257.86 623.939 Q1259.1 622.73 1259.1 619.07 L1259.1 613.054 L1264 613.054 L1264 619.07 Q1264 625.849 1261.49 628.427 Q1258.94 631.005 1252.26 631.005 L1232.91 631.005 L1232.91 635.302 L1228.36 635.302 L1228.36 631.005 L1218.23 631.005 L1218.23 625.117 Z" fill="#000000" fill-rule="nonzero" fill-opacity="1"></path><path clip-path="url(#clip810)" d="M1214.54 606.275 L1214.54 601.182 Q1222.05 596.408 1229.25 594.052 Q1236.44 591.665 1243.54 591.665 Q1250.67 591.665 1257.89 594.052 Q1265.12 596.408 1272.6 601.182 L1272.6 606.275 Q1265.31 602.041 1258.12 599.973 Q1250.89 597.872 1243.54 597.872 Q1236.19 597.872 1229.02 599.973 Q1221.86 602.041 1214.54 606.275 Z" fill="#000000" fill-rule="nonzero" fill-opacity="1"></path><circle clip-path="url(#clip813)" cx="1511.86" cy="86.1857" r="14.4" fill="#009af9" fill-rule="evenodd" fill-opacity="1" stroke="#000000" stroke-opacity="1" stroke-width="3.2"></circle>
<circle clip-path="url(#clip813)" cx="1511.86" cy="86.1857" r="14.4" fill="#009af9" fill-rule="evenodd" fill-opacity="1" stroke="#000000" stroke-opacity="1" stroke-width="3.2"></circle>
<circle clip-path="url(#clip813)" cx="1783.99" cy="301.138" r="14.4" fill="#009af9" fill-rule="evenodd" fill-opacity="1" stroke="#000000" stroke-opacity="1" stroke-width="3.2"></circle>
<circle clip-path="url(#clip813)" cx="2056.13" cy="516.724" r="14.4" fill="#009af9" fill-rule="evenodd" fill-opacity="1" stroke="#000000" stroke-opacity="1" stroke-width="3.2"></circle>
<circle clip-path="url(#clip813)" cx="2328.26" cy="732.674" r="14.4" fill="#009af9" fill-rule="evenodd" fill-opacity="1" stroke="#000000" stroke-opacity="1" stroke-width="3.2"></circle>
<polyline clip-path="url(#clip813)" style="stroke:#e26f46; stroke-linecap:round; stroke-linejoin:round; stroke-width:4; stroke-opacity:1; fill:none" points="1511.86,86.1857 1511.86,86.1857 1783.99,302.528 2056.13,518.87 2328.26,735.212 "></polyline>
<polyline clip-path="url(#clip813)" style="stroke:#3da44d; stroke-linecap:round; stroke-linejoin:round; stroke-width:4; stroke-opacity:1; fill:none" points="1511.86,86.1857 1511.86,86.1857 1783.99,518.87 2056.13,951.554 2328.26,1384.24 "></polyline>
<path clip-path="url(#clip810)" d="M2176.93 300.469 L2323.91 300.469 L2323.91 93.1086 L2176.93 93.1086  Z" fill="#ffffff" fill-rule="evenodd" fill-opacity="1"></path>
<polyline clip-path="url(#clip810)" style="stroke:#000000; stroke-linecap:round; stroke-linejoin:round; stroke-width:4; stroke-opacity:1; fill:none" points="2176.93,300.469 2323.91,300.469 2323.91,93.1086 2176.93,93.1086 2176.93,300.469 "></polyline>
<circle clip-path="url(#clip810)" cx="2215.39" cy="144.949" r="20.48" fill="#009af9" fill-rule="evenodd" fill-opacity="1" stroke="#000000" stroke-opacity="1" stroke-width="4.55111"></circle>
<path clip-path="url(#clip810)" d="M2274.02 140.423 Q2273.16 140.122 2272.3 139.891 Q2270.01 139.289 2267.56 139.289 Q2263.32 139.289 2260.96 141.581 Q2258.76 143.71 2258.35 147.622 L2274.02 147.622 L2274.02 150.956 L2258.35 150.956 Q2258.76 154.868 2260.96 156.997 Q2263.32 159.289 2267.56 159.289 Q2270.52 159.289 2272.3 158.687 L2274.02 158.108 L2274.02 161.974 L2272.19 162.391 Q2269.78 162.9 2267.3 162.9 Q2261.1 162.9 2257.49 159.289 Q2253.85 155.678 2253.85 149.289 Q2253.85 142.9 2257.49 139.289 Q2261.1 135.678 2267.3 135.678 Q2269.64 135.678 2272.19 136.187 Q2273.11 136.372 2274.02 136.65 L2274.02 140.423 Z" fill="#000000" fill-rule="nonzero" fill-opacity="1"></path><polyline clip-path="url(#clip810)" style="stroke:#e26f46; stroke-linecap:round; stroke-linejoin:round; stroke-width:4; stroke-opacity:1; fill:none" points="2186.55,196.789 2244.24,196.789 "></polyline>
<path clip-path="url(#clip810)" d="M2269.87 182.68 Q2264.78 182.68 2261.77 186.476 Q2258.79 190.272 2258.79 196.823 Q2258.79 203.351 2261.77 207.147 Q2264.78 210.944 2269.87 210.944 Q2274.97 210.944 2277.93 207.147 Q2280.91 203.351 2280.91 196.823 Q2280.91 190.272 2277.93 186.476 Q2274.97 182.68 2269.87 182.68 M2269.87 178.884 Q2277.14 178.884 2281.49 183.768 Q2285.85 188.629 2285.85 196.823 Q2285.85 204.995 2281.49 209.879 Q2277.14 214.74 2269.87 214.74 Q2262.58 214.74 2258.21 209.879 Q2253.85 205.018 2253.85 196.823 Q2253.85 188.629 2258.21 183.768 Q2262.58 178.884 2269.87 178.884 Z" fill="#000000" fill-rule="nonzero" fill-opacity="1"></path><path clip-path="url(#clip810)" d="M2294.39 210.133 L2302.03 210.133 L2302.03 183.768 L2293.72 185.435 L2293.72 181.175 L2301.98 179.509 L2306.66 179.509 L2306.66 210.133 L2314.29 210.133 L2314.29 214.069 L2294.39 214.069 L2294.39 210.133 Z" fill="#000000" fill-rule="nonzero" fill-opacity="1"></path><polyline clip-path="url(#clip810)" style="stroke:#3da44d; stroke-linecap:round; stroke-linejoin:round; stroke-width:4; stroke-opacity:1; fill:none" points="2186.55,248.629 2244.24,248.629 "></polyline>
<path clip-path="url(#clip810)" d="M2269.87 234.52 Q2264.78 234.52 2261.77 238.316 Q2258.79 242.112 2258.79 248.663 Q2258.79 255.191 2261.77 258.987 Q2264.78 262.784 2269.87 262.784 Q2274.97 262.784 2277.93 258.987 Q2280.91 255.191 2280.91 248.663 Q2280.91 242.112 2277.93 238.316 Q2274.97 234.52 2269.87 234.52 M2269.87 230.724 Q2277.14 230.724 2281.49 235.608 Q2285.85 240.469 2285.85 248.663 Q2285.85 256.835 2281.49 261.719 Q2277.14 266.58 2269.87 266.58 Q2262.58 266.58 2258.21 261.719 Q2253.85 256.858 2253.85 248.663 Q2253.85 240.469 2258.21 235.608 Q2262.58 230.724 2269.87 230.724 Z" fill="#000000" fill-rule="nonzero" fill-opacity="1"></path><path clip-path="url(#clip810)" d="M2297.6 261.973 L2313.92 261.973 L2313.92 265.909 L2291.98 265.909 L2291.98 261.973 Q2294.64 259.219 2299.22 254.589 Q2303.83 249.936 2305.01 248.594 Q2307.26 246.071 2308.14 244.335 Q2309.04 242.575 2309.04 240.886 Q2309.04 238.131 2307.1 236.395 Q2305.17 234.659 2302.07 234.659 Q2299.87 234.659 2297.42 235.423 Q2294.99 236.187 2292.21 237.737 L2292.21 233.015 Q2295.03 231.881 2297.49 231.302 Q2299.94 230.724 2301.98 230.724 Q2307.35 230.724 2310.54 233.409 Q2313.74 236.094 2313.74 240.585 Q2313.74 242.714 2312.93 244.636 Q2312.14 246.534 2310.03 249.126 Q2309.46 249.798 2306.35 253.015 Q2303.25 256.21 2297.6 261.973 Z" fill="#000000" fill-rule="nonzero" fill-opacity="1"></path></svg>