<svg xmlns="http://www.w3.org/2000/svg" xmlns:xlink="http://www.w3.org/1999/xlink" width="600" height="400" viewBox="0 0 2400 1600">
<defs>
  <clipPath id="clip260">
    <rect x="0" y="0" width="2400" height="1600"></rect>
  </clipPath>
</defs>
<path clip-path="url(#clip260)" d="M0 1600 L2400 1600 L2400 8.88178e-14 L0 8.88178e-14  Z" fill="#ffffff" fill-rule="evenodd" fill-opacity="1"></path>
<defs>
  <clipPath id="clip261">
    <rect x="480" y="0" width="1681" height="1600"></rect>
  </clipPath>
</defs>
<path clip-path="url(#clip260)" d="M257.204 1423.18 L2352.76 1423.18 L2352.76 47.2441 L257.204 47.2441  Z" fill="#ffffff" fill-rule="evenodd" fill-opacity="1"></path>
<defs>
  <clipPath id="clip262">
    <rect x="257" y="47" width="2097" height="1377"></rect>
  </clipPath>
</defs>
<polyline clip-path="url(#clip262)" style="stroke:#000000; stroke-linecap:round; stroke-linejoin:round; stroke-width:2; stroke-opacity:0.1; fill:none" points="514.206,1423.18 514.206,47.2441 "></polyline>
<polyline clip-path="url(#clip262)" style="stroke:#000000; stroke-linecap:round; stroke-linejoin:round; stroke-width:2; stroke-opacity:0.1; fill:none" points="909.593,1423.18 909.593,47.2441 "></polyline>
<polyline clip-path="url(#clip262)" style="stroke:#000000; stroke-linecap:round; stroke-linejoin:round; stroke-width:2; stroke-opacity:0.1; fill:none" points="1304.98,1423.18 1304.98,47.2441 "></polyline>
<polyline clip-path="url(#clip262)" style="stroke:#000000; stroke-linecap:round; stroke-linejoin:round; stroke-width:2; stroke-opacity:0.1; fill:none" points="1700.37,1423.18 1700.37,47.2441 "></polyline>
<polyline clip-path="url(#clip262)" style="stroke:#000000; stroke-linecap:round; stroke-linejoin:round; stroke-width:2; stroke-opacity:0.1; fill:none" points="2095.75,1423.18 2095.75,47.2441 "></polyline>
<polyline clip-path="url(#clip260)" style="stroke:#000000; stroke-linecap:round; stroke-linejoin:round; stroke-width:4; stroke-opacity:1; fill:none" points="257.204,1423.18 2352.76,1423.18 "></polyline>
<polyline clip-path="url(#clip260)" style="stroke:#000000; stroke-linecap:round; stroke-linejoin:round; stroke-width:4; stroke-opacity:1; fill:none" points="514.206,1423.18 514.206,1404.28 "></polyline>
<polyline clip-path="url(#clip260)" style="stroke:#000000; stroke-linecap:round; stroke-linejoin:round; stroke-width:4; stroke-opacity:1; fill:none" points="909.593,1423.18 909.593,1404.28 "></polyline>
<polyline clip-path="url(#clip260)" style="stroke:#000000; stroke-linecap:round; stroke-linejoin:round; stroke-width:4; stroke-opacity:1; fill:none" points="1304.98,1423.18 1304.98,1404.28 "></polyline>
<polyline clip-path="url(#clip260)" style="stroke:#000000; stroke-linecap:round; stroke-linejoin:round; stroke-width:4; stroke-opacity:1; fill:none" points="1700.37,1423.18 1700.37,1404.28 "></polyline>
<polyline clip-path="url(#clip260)" style="stroke:#000000; stroke-linecap:round; stroke-linejoin:round; stroke-width:4; stroke-opacity:1; fill:none" points="2095.75,1423.18 2095.75,1404.28 "></polyline>
<path clip-path="url(#clip260)" d="M460.491 1468.75 L490.166 1468.75 L490.166 1472.69 L460.491 1472.69 L460.491 1468.75 Z" fill="#000000" fill-rule="nonzero" fill-opacity="1"></path><path clip-path="url(#clip260)" d="M510.259 1454.1 Q506.648 1454.1 504.819 1457.66 Q503.014 1461.2 503.014 1468.33 Q503.014 1475.44 504.819 1479.01 Q506.648 1482.55 510.259 1482.55 Q513.893 1482.55 515.699 1479.01 Q517.527 1475.44 517.527 1468.33 Q517.527 1461.2 515.699 1457.66 Q513.893 1454.1 510.259 1454.1 M510.259 1450.39 Q516.069 1450.39 519.125 1455 Q522.203 1459.58 522.203 1468.33 Q522.203 1477.06 519.125 1481.67 Q516.069 1486.25 510.259 1486.25 Q504.449 1486.25 501.37 1481.67 Q498.315 1477.06 498.315 1468.33 Q498.315 1459.58 501.37 1455 Q504.449 1450.39 510.259 1450.39 Z" fill="#000000" fill-rule="nonzero" fill-opacity="1"></path><path clip-path="url(#clip260)" d="M530.421 1479.7 L535.305 1479.7 L535.305 1485.58 L530.421 1485.58 L530.421 1479.7 Z" fill="#000000" fill-rule="nonzero" fill-opacity="1"></path><path clip-path="url(#clip260)" d="M558.337 1455.09 L546.532 1473.54 L558.337 1473.54 L558.337 1455.09 M557.111 1451.02 L562.99 1451.02 L562.99 1473.54 L567.921 1473.54 L567.921 1477.43 L562.99 1477.43 L562.99 1485.58 L558.337 1485.58 L558.337 1477.43 L542.736 1477.43 L542.736 1472.92 L557.111 1451.02 Z" fill="#000000" fill-rule="nonzero" fill-opacity="1"></path><path clip-path="url(#clip260)" d="M856.919 1468.75 L886.595 1468.75 L886.595 1472.69 L856.919 1472.69 L856.919 1468.75 Z" fill="#000000" fill-rule="nonzero" fill-opacity="1"></path><path clip-path="url(#clip260)" d="M906.688 1454.1 Q903.077 1454.1 901.248 1457.66 Q899.442 1461.2 899.442 1468.33 Q899.442 1475.44 901.248 1479.01 Q903.077 1482.55 906.688 1482.55 Q910.322 1482.55 912.128 1479.01 Q913.956 1475.44 913.956 1468.33 Q913.956 1461.2 912.128 1457.66 Q910.322 1454.1 906.688 1454.1 M906.688 1450.39 Q912.498 1450.39 915.553 1455 Q918.632 1459.58 918.632 1468.33 Q918.632 1477.06 915.553 1481.67 Q912.498 1486.25 906.688 1486.25 Q900.878 1486.25 897.799 1481.67 Q894.743 1477.06 894.743 1468.33 Q894.743 1459.58 897.799 1455 Q900.878 1450.39 906.688 1450.39 Z" fill="#000000" fill-rule="nonzero" fill-opacity="1"></path><path clip-path="url(#clip260)" d="M926.85 1479.7 L931.734 1479.7 L931.734 1485.58 L926.85 1485.58 L926.85 1479.7 Z" fill="#000000" fill-rule="nonzero" fill-opacity="1"></path><path clip-path="url(#clip260)" d="M945.947 1481.64 L962.266 1481.64 L962.266 1485.58 L940.322 1485.58 L940.322 1481.64 Q942.984 1478.89 947.567 1474.26 Q952.174 1469.61 953.354 1468.27 Q955.6 1465.74 956.479 1464.01 Q957.382 1462.25 957.382 1460.56 Q957.382 1457.8 955.437 1456.07 Q953.516 1454.33 950.414 1454.33 Q948.215 1454.33 945.762 1455.09 Q943.331 1455.86 940.553 1457.41 L940.553 1452.69 Q943.377 1451.55 945.831 1450.97 Q948.285 1450.39 950.322 1450.39 Q955.692 1450.39 958.887 1453.08 Q962.081 1455.77 962.081 1460.26 Q962.081 1462.39 961.271 1464.31 Q960.484 1466.2 958.377 1468.8 Q957.799 1469.47 954.697 1472.69 Q951.595 1475.88 945.947 1481.64 Z" fill="#000000" fill-rule="nonzero" fill-opacity="1"></path><path clip-path="url(#clip260)" d="M1282.36 1454.1 Q1278.75 1454.1 1276.92 1457.66 Q1275.12 1461.2 1275.12 1468.33 Q1275.12 1475.44 1276.92 1479.01 Q1278.75 1482.55 1282.36 1482.55 Q1286 1482.55 1287.8 1479.01 Q1289.63 1475.44 1289.63 1468.33 Q1289.63 1461.2 1287.8 1457.66 Q1286 1454.1 1282.36 1454.1 M1282.36 1450.39 Q1288.17 1450.39 1291.23 1455 Q1294.31 1459.58 1294.31 1468.33 Q1294.31 1477.06 1291.23 1481.67 Q1288.17 1486.25 1282.36 1486.25 Q1276.55 1486.25 1273.48 1481.67 Q1270.42 1477.06 1270.42 1468.33 Q1270.42 1459.58 1273.48 1455 Q1276.55 1450.39 1282.36 1450.39 Z" fill="#000000" fill-rule="nonzero" fill-opacity="1"></path><path clip-path="url(#clip260)" d="M1302.53 1479.7 L1307.41 1479.7 L1307.41 1485.58 L1302.53 1485.58 L1302.53 1479.7 Z" fill="#000000" fill-rule="nonzero" fill-opacity="1"></path><path clip-path="url(#clip260)" d="M1327.6 1454.1 Q1323.98 1454.1 1322.16 1457.66 Q1320.35 1461.2 1320.35 1468.33 Q1320.35 1475.44 1322.16 1479.01 Q1323.98 1482.55 1327.6 1482.55 Q1331.23 1482.55 1333.04 1479.01 Q1334.86 1475.44 1334.86 1468.33 Q1334.86 1461.2 1333.04 1457.66 Q1331.23 1454.1 1327.6 1454.1 M1327.6 1450.39 Q1333.41 1450.39 1336.46 1455 Q1339.54 1459.58 1339.54 1468.33 Q1339.54 1477.06 1336.46 1481.67 Q1333.41 1486.25 1327.6 1486.25 Q1321.79 1486.25 1318.71 1481.67 Q1315.65 1477.06 1315.65 1468.33 Q1315.65 1459.58 1318.71 1455 Q1321.79 1450.39 1327.6 1450.39 Z" fill="#000000" fill-rule="nonzero" fill-opacity="1"></path><path clip-path="url(#clip260)" d="M1678.55 1454.1 Q1674.94 1454.1 1673.11 1457.66 Q1671.3 1461.2 1671.3 1468.33 Q1671.3 1475.44 1673.11 1479.01 Q1674.94 1482.55 1678.55 1482.55 Q1682.18 1482.55 1683.99 1479.01 Q1685.82 1475.44 1685.82 1468.33 Q1685.82 1461.2 1683.99 1457.66 Q1682.18 1454.1 1678.55 1454.1 M1678.55 1450.39 Q1684.36 1450.39 1687.42 1455 Q1690.49 1459.58 1690.49 1468.33 Q1690.49 1477.06 1687.42 1481.67 Q1684.36 1486.25 1678.55 1486.25 Q1672.74 1486.25 1669.66 1481.67 Q1666.61 1477.06 1666.61 1468.33 Q1666.61 1459.58 1669.66 1455 Q1672.74 1450.39 1678.55 1450.39 Z" fill="#000000" fill-rule="nonzero" fill-opacity="1"></path><path clip-path="url(#clip260)" d="M1698.71 1479.7 L1703.6 1479.7 L1703.6 1485.58 L1698.71 1485.58 L1698.71 1479.7 Z" fill="#000000" fill-rule="nonzero" fill-opacity="1"></path><path clip-path="url(#clip260)" d="M1717.81 1481.64 L1734.13 1481.64 L1734.13 1485.58 L1712.18 1485.58 L1712.18 1481.64 Q1714.85 1478.89 1719.43 1474.26 Q1724.04 1469.61 1725.22 1468.27 Q1727.46 1465.74 1728.34 1464.01 Q1729.24 1462.25 1729.24 1460.56 Q1729.24 1457.8 1727.3 1456.07 Q1725.38 1454.33 1722.28 1454.33 Q1720.08 1454.33 1717.62 1455.09 Q1715.19 1455.86 1712.42 1457.41 L1712.42 1452.69 Q1715.24 1451.55 1717.69 1450.97 Q1720.15 1450.39 1722.18 1450.39 Q1727.55 1450.39 1730.75 1453.08 Q1733.94 1455.77 1733.94 1460.26 Q1733.94 1462.39 1733.13 1464.31 Q1732.35 1466.2 1730.24 1468.8 Q1729.66 1469.47 1726.56 1472.69 Q1723.46 1475.88 1717.81 1481.64 Z" fill="#000000" fill-rule="nonzero" fill-opacity="1"></path><path clip-path="url(#clip260)" d="M2072.9 1454.1 Q2069.28 1454.1 2067.46 1457.66 Q2065.65 1461.2 2065.65 1468.33 Q2065.65 1475.44 2067.46 1479.01 Q2069.28 1482.55 2072.9 1482.55 Q2076.53 1482.55 2078.34 1479.01 Q2080.16 1475.44 2080.16 1468.33 Q2080.16 1461.2 2078.34 1457.66 Q2076.53 1454.1 2072.9 1454.1 M2072.9 1450.39 Q2078.71 1450.39 2081.76 1455 Q2084.84 1459.58 2084.84 1468.33 Q2084.84 1477.06 2081.76 1481.67 Q2078.71 1486.25 2072.9 1486.25 Q2067.09 1486.25 2064.01 1481.67 Q2060.95 1477.06 2060.95 1468.33 Q2060.95 1459.58 2064.01 1455 Q2067.09 1450.39 2072.9 1450.39 Z" fill="#000000" fill-rule="nonzero" fill-opacity="1"></path><path clip-path="url(#clip260)" d="M2093.06 1479.7 L2097.94 1479.7 L2097.94 1485.58 L2093.06 1485.58 L2093.06 1479.7 Z" fill="#000000" fill-rule="nonzero" fill-opacity="1"></path><path clip-path="url(#clip260)" d="M2120.97 1455.09 L2109.17 1473.54 L2120.97 1473.54 L2120.97 1455.09 M2119.75 1451.02 L2125.63 1451.02 L2125.63 1473.54 L2130.56 1473.54 L2130.56 1477.43 L2125.63 1477.43 L2125.63 1485.58 L2120.97 1485.58 L2120.97 1477.43 L2105.37 1477.43 L2105.37 1472.92 L2119.75 1451.02 Z" fill="#000000" fill-rule="nonzero" fill-opacity="1"></path><path clip-path="url(#clip260)" d="M1321.59 1532.4 L1308.7 1549.74 L1322.26 1568.04 L1315.36 1568.04 L1304.98 1554.04 L1294.6 1568.04 L1287.7 1568.04 L1301.54 1549.39 L1288.87 1532.4 L1295.78 1532.4 L1305.23 1545.1 L1314.69 1532.4 L1321.59 1532.4 Z" fill="#000000" fill-rule="nonzero" fill-opacity="1"></path><polyline clip-path="url(#clip262)" style="stroke:#000000; stroke-linecap:round; stroke-linejoin:round; stroke-width:2; stroke-opacity:0.1; fill:none" points="257.204,1384.25 2352.76,1384.25 "></polyline>
<polyline clip-path="url(#clip262)" style="stroke:#000000; stroke-linecap:round; stroke-linejoin:round; stroke-width:2; stroke-opacity:0.1; fill:none" points="257.204,1059.73 2352.76,1059.73 "></polyline>
<polyline clip-path="url(#clip262)" style="stroke:#000000; stroke-linecap:round; stroke-linejoin:round; stroke-width:2; stroke-opacity:0.1; fill:none" points="257.204,735.213 2352.76,735.213 "></polyline>
<polyline clip-path="url(#clip262)" style="stroke:#000000; stroke-linecap:round; stroke-linejoin:round; stroke-width:2; stroke-opacity:0.1; fill:none" points="257.204,410.696 2352.76,410.696 "></polyline>
<polyline clip-path="url(#clip262)" style="stroke:#000000; stroke-linecap:round; stroke-linejoin:round; stroke-width:2; stroke-opacity:0.1; fill:none" points="257.204,86.1782 2352.76,86.1782 "></polyline>
<polyline clip-path="url(#clip260)" style="stroke:#000000; stroke-linecap:round; stroke-linejoin:round; stroke-width:4; stroke-opacity:1; fill:none" points="257.204,1423.18 257.204,47.2441 "></polyline>
<polyline clip-path="url(#clip260)" style="stroke:#000000; stroke-linecap:round; stroke-linejoin:round; stroke-width:4; stroke-opacity:1; fill:none" points="257.204,1384.25 276.102,1384.25 "></polyline>
<polyline clip-path="url(#clip260)" style="stroke:#000000; stroke-linecap:round; stroke-linejoin:round; stroke-width:4; stroke-opacity:1; fill:none" points="257.204,1059.73 276.102,1059.73 "></polyline>
<polyline clip-path="url(#clip260)" style="stroke:#000000; stroke-linecap:round; stroke-linejoin:round; stroke-width:4; stroke-opacity:1; fill:none" points="257.204,735.213 276.102,735.213 "></polyline>
<polyline clip-path="url(#clip260)" style="stroke:#000000; stroke-linecap:round; stroke-linejoin:round; stroke-width:4; stroke-opacity:1; fill:none" points="257.204,410.696 276.102,410.696 "></polyline>
<polyline clip-path="url(#clip260)" style="stroke:#000000; stroke-linecap:round; stroke-linejoin:round; stroke-width:4; stroke-opacity:1; fill:none" points="257.204,86.1782 276.102,86.1782 "></polyline>
<path clip-path="url(#clip260)" d="M114.26 1384.7 L143.936 1384.7 L143.936 1388.63 L114.26 1388.63 L114.26 1384.7 Z" fill="#000000" fill-rule="nonzero" fill-opacity="1"></path><path clip-path="url(#clip260)" d="M154.839 1397.59 L162.477 1397.59 L162.477 1371.23 L154.167 1372.89 L154.167 1368.63 L162.431 1366.97 L167.107 1366.97 L167.107 1397.59 L174.746 1397.59 L174.746 1401.53 L154.839 1401.53 L154.839 1397.59 Z" fill="#000000" fill-rule="nonzero" fill-opacity="1"></path><path clip-path="url(#clip260)" d="M184.19 1395.65 L189.075 1395.65 L189.075 1401.53 L184.19 1401.53 L184.19 1395.65 Z" fill="#000000" fill-rule="nonzero" fill-opacity="1"></path><path clip-path="url(#clip260)" d="M209.26 1370.05 Q205.649 1370.05 203.82 1373.61 Q202.014 1377.15 202.014 1384.28 Q202.014 1391.39 203.82 1394.95 Q205.649 1398.5 209.26 1398.5 Q212.894 1398.5 214.699 1394.95 Q216.528 1391.39 216.528 1384.28 Q216.528 1377.15 214.699 1373.61 Q212.894 1370.05 209.26 1370.05 M209.26 1366.34 Q215.07 1366.34 218.125 1370.95 Q221.204 1375.53 221.204 1384.28 Q221.204 1393.01 218.125 1397.62 Q215.07 1402.2 209.26 1402.2 Q203.449 1402.2 200.371 1397.62 Q197.315 1393.01 197.315 1384.28 Q197.315 1375.53 200.371 1370.95 Q203.449 1366.34 209.26 1366.34 Z" fill="#000000" fill-rule="nonzero" fill-opacity="1"></path><path clip-path="url(#clip260)" d="M115.256 1060.18 L144.931 1060.18 L144.931 1064.12 L115.256 1064.12 L115.256 1060.18 Z" fill="#000000" fill-rule="nonzero" fill-opacity="1"></path><path clip-path="url(#clip260)" d="M165.024 1045.53 Q161.413 1045.53 159.584 1049.09 Q157.778 1052.64 157.778 1059.77 Q157.778 1066.87 159.584 1070.44 Q161.413 1073.98 165.024 1073.98 Q168.658 1073.98 170.464 1070.44 Q172.292 1066.87 172.292 1059.77 Q172.292 1052.64 170.464 1049.09 Q168.658 1045.53 165.024 1045.53 M165.024 1041.83 Q170.834 1041.83 173.889 1046.43 Q176.968 1051.02 176.968 1059.77 Q176.968 1068.49 173.889 1073.1 Q170.834 1077.68 165.024 1077.68 Q159.214 1077.68 156.135 1073.1 Q153.079 1068.49 153.079 1059.77 Q153.079 1051.02 156.135 1046.43 Q159.214 1041.83 165.024 1041.83 Z" fill="#000000" fill-rule="nonzero" fill-opacity="1"></path><path clip-path="url(#clip260)" d="M185.186 1071.13 L190.07 1071.13 L190.07 1077.01 L185.186 1077.01 L185.186 1071.13 Z" fill="#000000" fill-rule="nonzero" fill-opacity="1"></path><path clip-path="url(#clip260)" d="M200.301 1042.45 L218.658 1042.45 L218.658 1046.39 L204.584 1046.39 L204.584 1054.86 Q205.602 1054.51 206.621 1054.35 Q207.639 1054.16 208.658 1054.16 Q214.445 1054.16 217.824 1057.33 Q221.204 1060.51 221.204 1065.92 Q221.204 1071.5 217.732 1074.6 Q214.26 1077.68 207.94 1077.68 Q205.764 1077.68 203.496 1077.31 Q201.25 1076.94 198.843 1076.2 L198.843 1071.5 Q200.926 1072.64 203.149 1073.19 Q205.371 1073.75 207.848 1073.75 Q211.852 1073.75 214.19 1071.64 Q216.528 1069.53 216.528 1065.92 Q216.528 1062.31 214.19 1060.21 Q211.852 1058.1 207.848 1058.1 Q205.973 1058.1 204.098 1058.52 Q202.246 1058.93 200.301 1059.81 L200.301 1042.45 Z" fill="#000000" fill-rule="nonzero" fill-opacity="1"></path><path clip-path="url(#clip260)" d="M164.028 721.012 Q160.417 721.012 158.589 724.577 Q156.783 728.118 156.783 735.248 Q156.783 742.354 158.589 745.919 Q160.417 749.461 164.028 749.461 Q167.663 749.461 169.468 745.919 Q171.297 742.354 171.297 735.248 Q171.297 728.118 169.468 724.577 Q167.663 721.012 164.028 721.012 M164.028 717.308 Q169.839 717.308 172.894 721.915 Q175.973 726.498 175.973 735.248 Q175.973 743.975 172.894 748.581 Q169.839 753.164 164.028 753.164 Q158.218 753.164 155.14 748.581 Q152.084 743.975 152.084 735.248 Q152.084 726.498 155.14 721.915 Q158.218 717.308 164.028 717.308 Z" fill="#000000" fill-rule="nonzero" fill-opacity="1"></path><path clip-path="url(#clip260)" d="M184.19 746.614 L189.075 746.614 L189.075 752.493 L184.19 752.493 L184.19 746.614 Z" fill="#000000" fill-rule="nonzero" fill-opacity="1"></path><path clip-path="url(#clip260)" d="M209.26 721.012 Q205.649 721.012 203.82 724.577 Q202.014 728.118 202.014 735.248 Q202.014 742.354 203.82 745.919 Q205.649 749.461 209.26 749.461 Q212.894 749.461 214.699 745.919 Q216.528 742.354 216.528 735.248 Q216.528 728.118 214.699 724.577 Q212.894 721.012 209.26 721.012 M209.26 717.308 Q215.07 717.308 218.125 721.915 Q221.204 726.498 221.204 735.248 Q221.204 743.975 218.125 748.581 Q215.07 753.164 209.26 753.164 Q203.449 753.164 200.371 748.581 Q197.315 743.975 197.315 735.248 Q197.315 726.498 200.371 721.915 Q203.449 717.308 209.26 717.308 Z" fill="#000000" fill-rule="nonzero" fill-opacity="1"></path><path clip-path="url(#clip260)" d="M165.024 396.494 Q161.413 396.494 159.584 400.059 Q157.778 403.601 157.778 410.73 Q157.778 417.837 159.584 421.402 Q161.413 424.943 165.024 424.943 Q168.658 424.943 170.464 421.402 Q172.292 417.837 172.292 410.73 Q172.292 403.601 170.464 400.059 Q168.658 396.494 165.024 396.494 M165.024 392.791 Q170.834 392.791 173.889 397.397 Q176.968 401.98 176.968 410.73 Q176.968 419.457 173.889 424.064 Q170.834 428.647 165.024 428.647 Q159.214 428.647 156.135 424.064 Q153.079 419.457 153.079 410.73 Q153.079 401.98 156.135 397.397 Q159.214 392.791 165.024 392.791 Z" fill="#000000" fill-rule="nonzero" fill-opacity="1"></path><path clip-path="url(#clip260)" d="M185.186 422.096 L190.07 422.096 L190.07 427.976 L185.186 427.976 L185.186 422.096 Z" fill="#000000" fill-rule="nonzero" fill-opacity="1"></path><path clip-path="url(#clip260)" d="M200.301 393.416 L218.658 393.416 L218.658 397.351 L204.584 397.351 L204.584 405.823 Q205.602 405.476 206.621 405.314 Q207.639 405.129 208.658 405.129 Q214.445 405.129 217.824 408.3 Q221.204 411.471 221.204 416.888 Q221.204 422.466 217.732 425.568 Q214.26 428.647 207.94 428.647 Q205.764 428.647 203.496 428.277 Q201.25 427.906 198.843 427.165 L198.843 422.466 Q200.926 423.601 203.149 424.156 Q205.371 424.712 207.848 424.712 Q211.852 424.712 214.19 422.605 Q216.528 420.499 216.528 416.888 Q216.528 413.277 214.19 411.17 Q211.852 409.064 207.848 409.064 Q205.973 409.064 204.098 409.48 Q202.246 409.897 200.301 410.777 L200.301 393.416 Z" fill="#000000" fill-rule="nonzero" fill-opacity="1"></path><path clip-path="url(#clip260)" d="M154.839 99.523 L162.477 99.523 L162.477 73.1574 L154.167 74.8241 L154.167 70.5648 L162.431 68.8982 L167.107 68.8982 L167.107 99.523 L174.746 99.523 L174.746 103.458 L154.839 103.458 L154.839 99.523 Z" fill="#000000" fill-rule="nonzero" fill-opacity="1"></path><path clip-path="url(#clip260)" d="M184.19 97.5786 L189.075 97.5786 L189.075 103.458 L184.19 103.458 L184.19 97.5786 Z" fill="#000000" fill-rule="nonzero" fill-opacity="1"></path><path clip-path="url(#clip260)" d="M209.26 71.9769 Q205.649 71.9769 203.82 75.5416 Q202.014 79.0833 202.014 86.2129 Q202.014 93.3193 203.82 96.8841 Q205.649 100.426 209.26 100.426 Q212.894 100.426 214.699 96.8841 Q216.528 93.3193 216.528 86.2129 Q216.528 79.0833 214.699 75.5416 Q212.894 71.9769 209.26 71.9769 M209.26 68.2732 Q215.07 68.2732 218.125 72.8796 Q221.204 77.4629 221.204 86.2129 Q221.204 94.9397 218.125 99.5461 Q215.07 104.129 209.26 104.129 Q203.449 104.129 200.371 99.5461 Q197.315 94.9397 197.315 86.2129 Q197.315 77.4629 200.371 72.8796 Q203.449 68.2732 209.26 68.2732 Z" fill="#000000" fill-rule="nonzero" fill-opacity="1"></path><path clip-path="url(#clip260)" d="M49.9359 750.14 L28.3562 750.14 L28.3562 744.283 L49.7131 744.283 Q54.7739 744.283 57.3202 742.31 Q59.8346 740.336 59.8346 736.39 Q59.8346 731.647 56.8109 728.91 Q53.7872 726.141 48.5673 726.141 L28.3562 726.141 L28.3562 720.284 L64.0042 720.284 L64.0042 726.141 L58.5296 726.141 Q61.7762 728.273 63.3676 731.106 Q64.9272 733.907 64.9272 737.631 Q64.9272 743.774 61.1078 746.957 Q57.2883 750.14 49.9359 750.14 M27.4968 735.403 L27.4968 735.403 Z" fill="#000000" fill-rule="nonzero" fill-opacity="1"></path><polyline clip-path="url(#clip262)" style="stroke:#009af9; stroke-linecap:round; stroke-linejoin:round; stroke-width:4; stroke-opacity:1; fill:none" points="316.512,1159.45 320.474,1167.27 324.436,1174.98 328.397,1182.58 332.359,1190.06 336.321,1197.42 340.283,1204.67 344.245,1211.79 348.206,1218.79 352.168,1225.67 356.13,1232.42 360.092,1239.05 364.054,1245.54 368.015,1251.9 371.977,1258.13 375.939,1264.23 379.901,1270.19 383.863,1276.01 387.824,1281.7 391.786,1287.24 395.748,1292.64 399.71,1297.9 403.672,1303.01 407.633,1307.98 411.595,1312.8 415.557,1317.47 419.519,1321.99 423.481,1326.36 427.442,1330.58 431.404,1334.65 435.366,1338.56 439.328,1342.32 443.29,1345.92 447.251,1349.36 451.213,1352.65 455.175,1355.78 459.137,1358.75 463.099,1361.55 467.06,1364.2 471.022,1366.69 474.984,1369.01 478.946,1371.17 482.907,1373.17 486.869,1375 490.831,1376.67 494.793,1378.17 498.755,1379.51 502.716,1380.68 506.678,1381.69 510.64,1382.53 514.602,1383.2 518.564,1383.71 522.525,1384.05 526.487,1384.22 530.449,1384.23 534.411,1384.07 538.373,1383.74 542.334,1383.25 546.296,1382.59 550.258,1381.77 554.22,1380.77 558.182,1379.62 562.143,1378.29 566.105,1376.8 570.067,1375.15 574.029,1373.33 577.991,1371.35 581.952,1369.2 585.914,1366.89 589.876,1364.42 593.838,1361.79 597.8,1359 601.761,1356.04 605.723,1352.93 609.685,1349.65 613.647,1346.22 617.609,1342.64 621.57,1338.89 625.532,1334.99 629.494,1330.94 633.456,1326.73 637.418,1322.38 641.379,1317.87 645.341,1313.21 649.303,1308.4 653.265,1303.45 657.226,1298.35 661.188,1293.1 665.15,1287.71 669.112,1282.18 673.074,1276.51 677.035,1270.7 680.997,1264.75 684.959,1258.67 688.921,1252.45 692.883,1246.09 696.844,1239.61 700.806,1233 704.768,1226.26 708.73,1219.39 712.692,1212.4 716.653,1205.29 720.615,1198.05 724.577,1190.7 728.539,1183.23 732.501,1175.64 736.462,1167.94 740.424,1160.13 744.386,1152.21 748.348,1144.18 752.31,1136.05 756.271,1127.82 760.233,1119.48 764.195,1111.05 768.157,1102.51 772.119,1093.89 776.08,1085.17 780.042,1076.36 784.004,1067.47 787.966,1058.49 791.928,1049.42 795.889,1040.28 799.851,1031.06 803.813,1021.76 807.775,1012.38 811.736,1002.94 815.698,993.427 819.66,983.847 823.622,974.204 827.584,964.5 831.545,954.736 835.507,944.916 839.469,935.042 843.431,925.117 847.393,915.143 851.354,905.123 855.316,895.059 859.278,884.954 863.24,874.811 867.202,864.631 871.163,854.419 875.125,844.176 879.087,833.904 883.049,823.608 887.011,813.288 890.972,802.949 894.934,792.592 898.896,782.221 902.858,771.837 906.82,761.444 910.781,751.044 914.743,740.64 918.705,730.235 922.667,719.831 926.629,709.431 930.59,699.038 934.552,688.654 938.514,678.281 942.476,667.924 946.438,657.584 950.399,647.263 954.361,636.966 958.323,626.693 962.285,616.449 966.246,606.235 970.208,596.054 974.17,585.909 978.132,575.802 982.094,565.737 986.055,555.714 990.017,545.738 993.979,535.811 997.941,525.935 1001.9,516.113 1005.86,506.347 1009.83,496.64 1013.79,486.994 1017.75,477.412 1021.71,467.896 1025.67,458.449 1029.64,449.073 1033.6,439.771 1037.56,430.544 1041.52,421.396 1045.48,412.329 1049.44,403.344 1053.41,394.445 1057.37,385.633 1061.33,376.911 1065.29,368.282 1069.25,359.746 1073.21,351.308 1077.18,342.967 1081.14,334.728 1085.1,326.592 1089.06,318.56 1093.02,310.636 1096.99,302.821 1100.95,295.117 1104.91,287.526 1108.87,280.05 1112.83,272.691 1116.79,265.451 1120.76,258.331 1124.72,251.335 1128.68,244.462 1132.64,237.716 1136.6,231.098 1140.57,224.609 1144.53,218.252 1148.49,212.027 1152.45,205.937 1156.41,199.982 1160.37,194.166 1164.34,188.488 1168.3,182.951 1172.26,177.556 1176.22,172.305 1180.18,167.197 1184.15,162.236 1188.11,157.423 1192.07,152.757 1196.03,148.242 1199.99,143.877 1203.95,139.664 1207.92,135.604 1211.88,131.699 1215.84,127.948 1219.8,124.354 1223.76,120.917 1227.72,117.637 1231.69,114.517 1235.65,111.555 1239.61,108.754 1243.57,106.114 1247.53,103.636 1251.5,101.32 1255.46,99.1674 1259.42,97.1779 1263.38,95.3524 1267.34,93.6914 1271.3,92.1952 1275.27,90.8643 1279.23,89.699 1283.19,88.6997 1287.15,87.8665 1291.11,87.1997 1295.08,86.6994 1299.04,86.3658 1303,86.199 1306.96,86.199 1310.92,86.3658 1314.88,86.6994 1318.85,87.1997 1322.81,87.8665 1326.77,88.6997 1330.73,89.699 1334.69,90.8643 1338.66,92.1952 1342.62,93.6914 1346.58,95.3524 1350.54,97.1779 1354.5,99.1674 1358.46,101.32 1362.43,103.636 1366.39,106.114 1370.35,108.754 1374.31,111.555 1378.27,114.517 1382.23,117.637 1386.2,120.917 1390.16,124.354 1394.12,127.948 1398.08,131.699 1402.04,135.604 1406.01,139.664 1409.97,143.877 1413.93,148.242 1417.89,152.757 1421.85,157.423 1425.81,162.236 1429.78,167.197 1433.74,172.305 1437.7,177.556 1441.66,182.951 1445.62,188.488 1449.59,194.166 1453.55,199.982 1457.51,205.937 1461.47,212.027 1465.43,218.252 1469.39,224.609 1473.36,231.098 1477.32,237.716 1481.28,244.462 1485.24,251.335 1489.2,258.331 1493.17,265.451 1497.13,272.691 1501.09,280.05 1505.05,287.526 1509.01,295.117 1512.97,302.821 1516.94,310.636 1520.9,318.56 1524.86,326.592 1528.82,334.728 1532.78,342.967 1536.74,351.308 1540.71,359.746 1544.67,368.282 1548.63,376.911 1552.59,385.633 1556.55,394.445 1560.52,403.344 1564.48,412.329 1568.44,421.396 1572.4,430.544 1576.36,439.771 1580.32,449.073 1584.29,458.449 1588.25,467.896 1592.21,477.412 1596.17,486.994 1600.13,496.64 1604.1,506.347 1608.06,516.113 1612.02,525.935 1615.98,535.811 1619.94,545.738 1623.9,555.714 1627.87,565.737 1631.83,575.802 1635.79,585.909 1639.75,596.054 1643.71,606.235 1647.68,616.449 1651.64,626.693 1655.6,636.966 1659.56,647.263 1663.52,657.584 1667.48,667.924 1671.45,678.281 1675.41,688.654 1679.37,699.038 1683.33,709.431 1687.29,719.831 1691.25,730.235 1695.22,740.64 1699.18,751.044 1703.14,761.444 1707.1,771.837 1711.06,782.221 1715.03,792.592 1718.99,802.949 1722.95,813.288 1726.91,823.608 1730.87,833.904 1734.83,844.176 1738.8,854.419 1742.76,864.631 1746.72,874.811 1750.68,884.954 1754.64,895.059 1758.61,905.123 1762.57,915.143 1766.53,925.117 1770.49,935.042 1774.45,944.916 1778.41,954.736 1782.38,964.5 1786.34,974.204 1790.3,983.847 1794.26,993.427 1798.22,1002.94 1802.19,1012.38 1806.15,1021.76 1810.11,1031.06 1814.07,1040.28 1818.03,1049.42 1821.99,1058.49 1825.96,1067.47 1829.92,1076.36 1833.88,1085.17 1837.84,1093.89 1841.8,1102.51 1845.76,1111.05 1849.73,1119.48 1853.69,1127.82 1857.65,1136.05 1861.61,1144.18 1865.57,1152.21 1869.54,1160.13 1873.5,1167.94 1877.46,1175.64 1881.42,1183.23 1885.38,1190.7 1889.34,1198.05 1893.31,1205.29 1897.27,1212.4 1901.23,1219.39 1905.19,1226.26 1909.15,1233 1913.12,1239.61 1917.08,1246.09 1921.04,1252.45 1925,1258.67 1928.96,1264.75 1932.92,1270.7 1936.89,1276.51 1940.85,1282.18 1944.81,1287.71 1948.77,1293.1 1952.73,1298.35 1956.7,1303.45 1960.66,1308.4 1964.62,1313.21 1968.58,1317.87 1972.54,1322.38 1976.5,1326.73 1980.47,1330.94 1984.43,1334.99 1988.39,1338.89 1992.35,1342.64 1996.31,1346.22 2000.27,1349.65 2004.24,1352.93 2008.2,1356.04 2012.16,1359 2016.12,1361.79 2020.08,1364.42 2024.05,1366.89 2028.01,1369.2 2031.97,1371.35 2035.93,1373.33 2039.89,1375.15 2043.85,1376.8 2047.82,1378.29 2051.78,1379.62 2055.74,1380.77 2059.7,1381.77 2063.66,1382.59 2067.63,1383.25 2071.59,1383.74 2075.55,1384.07 2079.51,1384.23 2083.47,1384.22 2087.43,1384.05 2091.4,1383.71 2095.36,1383.2 2099.32,1382.53 2103.28,1381.69 2107.24,1380.68 2111.21,1379.51 2115.17,1378.17 2119.13,1376.67 2123.09,1375 2127.05,1373.17 2131.01,1371.17 2134.98,1369.01 2138.94,1366.69 2142.9,1364.2 2146.86,1361.55 2150.82,1358.75 2154.79,1355.78 2158.75,1352.65 2162.71,1349.36 2166.67,1345.92 2170.63,1342.32 2174.59,1338.56 2178.56,1334.65 2182.52,1330.58 2186.48,1326.36 2190.44,1321.99 2194.4,1317.47 2198.36,1312.8 2202.33,1307.98 2206.29,1303.01 2210.25,1297.9 2214.21,1292.64 2218.17,1287.24 2222.14,1281.7 2226.1,1276.01 2230.06,1270.19 2234.02,1264.23 2237.98,1258.13 2241.94,1251.9 2245.91,1245.54 2249.87,1239.05 2253.83,1232.42 2257.79,1225.67 2261.75,1218.79 2265.72,1211.79 2269.68,1204.67 2273.64,1197.42 2277.6,1190.06 2281.56,1182.58 2285.52,1174.98 2289.49,1167.27 2293.45,1159.45 "></polyline>
<polyline clip-path="url(#clip262)" style="stroke:#e26f46; stroke-linecap:round; stroke-linejoin:round; stroke-width:4; stroke-opacity:1; fill:none" points="316.512,934.683 320.474,944.559 324.436,954.381 328.397,964.146 332.359,973.853 336.321,983.498 340.283,993.08 344.245,1002.6 348.206,1012.04 352.168,1021.42 356.13,1030.72 360.092,1039.94 364.054,1049.09 368.015,1058.16 371.977,1067.14 375.939,1076.04 379.901,1084.85 383.863,1093.57 387.824,1102.2 391.786,1110.74 395.748,1119.18 399.71,1127.52 403.672,1135.75 407.633,1143.89 411.595,1151.92 415.557,1159.84 419.519,1167.66 423.481,1175.36 427.442,1182.95 431.404,1190.43 435.366,1197.79 439.328,1205.02 443.29,1212.14 447.251,1219.14 451.213,1226.01 455.175,1232.76 459.137,1239.37 463.099,1245.86 467.06,1252.22 471.022,1258.44 474.984,1264.53 478.946,1270.48 482.907,1276.3 486.869,1281.98 490.831,1287.51 494.793,1292.91 498.755,1298.16 502.716,1303.26 506.678,1308.22 510.64,1313.04 514.602,1317.7 518.564,1322.21 522.525,1326.58 526.487,1330.79 530.449,1334.85 534.411,1338.75 538.373,1342.5 542.334,1346.1 546.296,1349.53 550.258,1352.81 554.22,1355.93 558.182,1358.89 562.143,1361.69 566.105,1364.33 570.067,1366.81 574.029,1369.12 577.991,1371.27 581.952,1373.26 585.914,1375.09 589.876,1376.75 593.838,1378.24 597.8,1379.57 601.761,1380.73 605.723,1381.73 609.685,1382.56 613.647,1383.23 617.609,1383.73 621.57,1384.06 625.532,1384.23 629.494,1384.23 633.456,1384.06 637.418,1383.72 641.379,1383.22 645.341,1382.55 649.303,1381.72 653.265,1380.72 657.226,1379.55 661.188,1378.22 665.15,1376.72 669.112,1375.06 673.074,1373.24 677.035,1371.24 680.997,1369.09 684.959,1366.77 688.921,1364.29 692.883,1361.65 696.844,1358.85 700.806,1355.89 704.768,1352.77 708.73,1349.49 712.692,1346.05 716.653,1342.45 720.615,1338.7 724.577,1334.79 728.539,1330.73 732.501,1326.52 736.462,1322.15 740.424,1317.64 744.386,1312.97 748.348,1308.16 752.31,1303.19 756.271,1298.09 760.233,1292.83 764.195,1287.44 768.157,1281.9 772.119,1276.22 776.08,1270.4 780.042,1264.45 784.004,1258.36 787.966,1252.13 791.928,1245.77 795.889,1239.28 799.851,1232.66 803.813,1225.92 807.775,1219.04 811.736,1212.05 815.698,1204.93 819.66,1197.69 823.622,1190.33 827.584,1182.85 831.545,1175.26 835.507,1167.55 839.469,1159.74 843.431,1151.81 847.393,1143.78 851.354,1135.64 855.316,1127.4 859.278,1119.06 863.24,1110.62 867.202,1102.09 871.163,1093.46 875.125,1084.73 879.087,1075.92 883.049,1067.02 887.011,1058.04 890.972,1048.97 894.934,1039.82 898.896,1030.59 902.858,1021.29 906.82,1011.91 910.781,1002.47 914.743,992.949 918.705,983.367 922.667,973.72 926.629,964.013 930.59,954.247 934.552,944.424 938.514,934.547 942.476,924.62 946.438,914.643 950.399,904.621 954.361,894.555 958.323,884.448 962.285,874.303 966.246,864.122 970.208,853.907 974.17,843.663 978.132,833.39 982.094,823.092 986.055,812.772 990.017,802.432 993.979,792.074 997.941,781.702 1001.9,771.318 1005.86,760.924 1009.83,750.524 1013.79,740.12 1017.75,729.715 1021.71,719.311 1025.67,708.911 1029.64,698.518 1033.6,688.135 1037.56,677.763 1041.52,667.406 1045.48,657.067 1049.44,646.748 1053.41,636.452 1057.37,626.18 1061.33,615.937 1065.29,605.725 1069.25,595.546 1073.21,585.403 1077.18,575.298 1081.14,565.234 1085.1,555.215 1089.06,545.241 1093.02,535.316 1096.99,525.443 1100.95,515.623 1104.91,505.86 1108.87,496.156 1112.83,486.513 1116.79,476.934 1120.76,467.422 1124.72,457.978 1128.68,448.606 1132.64,439.307 1136.6,430.085 1140.57,420.941 1144.53,411.877 1148.49,402.897 1152.45,394.002 1156.41,385.195 1160.37,376.478 1164.34,367.853 1168.3,359.322 1172.26,350.888 1176.22,342.553 1180.18,334.319 1184.15,326.187 1188.11,318.161 1192.07,310.242 1196.03,302.433 1199.99,294.734 1203.95,287.149 1207.92,279.679 1211.88,272.326 1215.84,265.092 1219.8,257.979 1223.76,250.988 1227.72,244.122 1231.69,237.382 1235.65,230.77 1239.61,224.288 1243.57,217.937 1247.53,211.719 1251.5,205.636 1255.46,199.688 1259.42,193.879 1263.38,188.208 1267.34,182.678 1271.3,177.29 1275.27,172.046 1279.23,166.946 1283.19,161.992 1287.15,157.186 1291.11,152.528 1295.08,148.02 1299.04,143.663 1303,139.458 1306.96,135.406 1310.92,131.508 1314.88,127.765 1318.85,124.178 1322.81,120.749 1326.77,117.477 1330.73,114.365 1334.69,111.411 1338.66,108.619 1342.62,105.987 1346.58,103.517 1350.54,101.209 1354.5,99.064 1358.46,97.0827 1362.43,95.2654 1366.39,93.6126 1370.35,92.1247 1374.31,90.8021 1378.27,89.6451 1382.23,88.6541 1386.2,87.8292 1390.16,87.1707 1394.12,86.6788 1398.08,86.3535 1402.04,86.1951 1406.01,86.2034 1409.97,86.3785 1413.93,86.7205 1417.89,87.2291 1421.85,87.9042 1425.81,88.7457 1429.78,89.7534 1433.74,90.9269 1437.7,92.2661 1441.66,93.7705 1445.62,95.4398 1449.59,97.2735 1453.55,99.2712 1457.51,101.432 1461.47,103.756 1465.43,106.243 1469.39,108.891 1473.36,111.7 1477.32,114.669 1481.28,117.797 1485.24,121.085 1489.2,124.53 1493.17,128.132 1497.13,131.891 1501.09,135.804 1505.05,139.871 1509.01,144.092 1512.97,148.464 1516.94,152.987 1520.9,157.66 1524.86,162.481 1528.82,167.449 1532.78,172.564 1536.74,177.823 1540.71,183.225 1544.67,188.769 1548.63,194.453 1552.59,200.277 1556.55,206.238 1560.52,212.335 1564.48,218.566 1568.44,224.93 1572.4,231.426 1576.36,238.05 1580.32,244.803 1584.29,251.682 1588.25,258.685 1592.21,265.81 1596.17,273.056 1600.13,280.421 1604.1,287.902 1608.06,295.499 1612.02,303.209 1615.98,311.029 1619.94,318.959 1623.9,326.996 1627.87,335.138 1631.83,343.382 1635.79,351.727 1639.75,360.171 1643.71,368.711 1647.68,377.345 1651.64,386.072 1655.6,394.888 1659.56,403.791 1663.52,412.78 1667.48,421.852 1671.45,431.004 1675.41,440.234 1679.37,449.54 1683.33,458.92 1687.29,468.37 1691.25,477.889 1695.22,487.475 1699.18,497.124 1703.14,506.834 1707.1,516.603 1711.06,526.428 1715.03,536.306 1718.99,546.236 1722.95,556.214 1726.91,566.239 1730.87,576.307 1734.83,586.415 1738.8,596.562 1742.76,606.745 1746.72,616.96 1750.68,627.206 1754.64,637.48 1758.61,647.779 1762.57,658.1 1766.53,668.441 1770.49,678.8 1774.45,689.172 1778.41,699.557 1782.38,709.951 1786.34,720.351 1790.3,730.755 1794.26,741.161 1798.22,751.564 1802.19,761.964 1806.15,772.356 1810.11,782.74 1814.07,793.11 1818.03,803.466 1821.99,813.805 1825.96,824.123 1829.92,834.419 1833.88,844.688 1837.84,854.93 1841.8,865.141 1845.76,875.319 1849.73,885.46 1853.69,895.563 1857.65,905.625 1861.61,915.643 1865.57,925.615 1869.54,935.537 1873.5,945.409 1877.46,955.226 1881.42,964.986 1885.38,974.688 1889.34,984.328 1893.31,993.904 1897.27,1003.41 1901.23,1012.85 1905.19,1022.22 1909.15,1031.52 1913.12,1040.74 1917.08,1049.88 1921.04,1058.94 1925,1067.91 1928.96,1076.81 1932.92,1085.61 1936.89,1094.32 1940.85,1102.94 1944.81,1111.47 1948.77,1119.9 1952.73,1128.23 1956.7,1136.46 1960.66,1144.59 1964.62,1152.61 1968.58,1160.52 1972.54,1168.33 1976.5,1176.02 1980.47,1183.6 1984.43,1191.07 1988.39,1198.41 1992.35,1205.64 1996.31,1212.75 2000.27,1219.74 2004.24,1226.6 2008.2,1233.33 2012.16,1239.94 2016.12,1246.42 2020.08,1252.76 2024.05,1258.97 2028.01,1265.05 2031.97,1270.99 2035.93,1276.8 2039.89,1282.46 2043.85,1287.98 2047.82,1293.37 2051.78,1298.6 2055.74,1303.7 2059.7,1308.64 2063.66,1313.44 2067.63,1318.1 2071.59,1322.6 2075.55,1326.95 2079.51,1331.15 2083.47,1335.19 2087.43,1339.08 2091.4,1342.82 2095.36,1346.4 2099.32,1349.82 2103.28,1353.09 2107.24,1356.19 2111.21,1359.14 2115.17,1361.92 2119.13,1364.55 2123.09,1367.01 2127.05,1369.31 2131.01,1371.45 2134.98,1373.43 2138.94,1375.24 2142.9,1376.88 2146.86,1378.36 2150.82,1379.68 2154.79,1380.83 2158.75,1381.81 2162.71,1382.63 2166.67,1383.28 2170.63,1383.76 2174.59,1384.08 2178.56,1384.23 2182.52,1384.22 2186.48,1384.04 2190.44,1383.69 2194.4,1383.17 2198.36,1382.49 2202.33,1381.64 2206.29,1380.63 2210.25,1379.44 2214.21,1378.1 2218.17,1376.59 2222.14,1374.91 2226.1,1373.07 2230.06,1371.07 2234.02,1368.9 2237.98,1366.57 2241.94,1364.07 2245.91,1361.42 2249.87,1358.6 2253.83,1355.63 2257.79,1352.49 2261.75,1349.2 2265.72,1345.74 2269.68,1342.13 2273.64,1338.37 2277.6,1334.45 2281.56,1330.38 2285.52,1326.15 2289.49,1321.77 2293.45,1317.24 "></polyline>
<polyline clip-path="url(#clip262)" style="stroke:#3da44d; stroke-linecap:round; stroke-linejoin:round; stroke-width:4; stroke-opacity:1; fill:none" points="316.512,678.423 320.474,688.796 324.436,699.18 328.397,709.573 332.359,719.973 336.321,730.377 340.283,740.783 344.245,751.186 348.206,761.586 352.168,771.979 356.13,782.363 360.092,792.734 364.054,803.091 368.015,813.43 371.977,823.749 375.939,834.045 379.901,844.316 383.863,854.559 387.824,864.771 391.786,874.95 395.748,885.093 399.71,895.197 403.672,905.261 407.633,915.28 411.595,925.253 415.557,935.178 419.519,945.051 423.481,954.87 427.442,964.633 431.404,974.337 435.366,983.979 439.328,993.557 443.29,1003.07 447.251,1012.51 451.213,1021.88 455.175,1031.18 459.137,1040.4 463.099,1049.55 467.06,1058.61 471.022,1067.59 474.984,1076.48 478.946,1085.29 482.907,1094.01 486.869,1102.63 490.831,1111.16 494.793,1119.6 498.755,1127.93 502.716,1136.16 506.678,1144.29 510.64,1152.32 514.602,1160.24 518.564,1168.05 522.525,1175.74 526.487,1183.33 530.449,1190.8 534.411,1198.15 538.373,1205.38 542.334,1212.5 546.296,1219.49 550.258,1226.35 554.22,1233.09 558.182,1239.7 562.143,1246.18 566.105,1252.53 570.067,1258.75 574.029,1264.83 577.991,1270.78 581.952,1276.59 585.914,1282.26 589.876,1287.79 593.838,1293.17 597.8,1298.42 601.761,1303.51 605.723,1308.47 609.685,1313.27 613.647,1317.93 617.609,1322.44 621.57,1326.79 625.532,1331 629.494,1335.05 633.456,1338.94 637.418,1342.69 641.379,1346.27 645.341,1349.7 649.303,1352.97 653.265,1356.08 657.226,1359.03 661.188,1361.83 665.15,1364.46 669.112,1366.93 673.074,1369.23 677.035,1371.38 680.997,1373.36 684.959,1375.17 688.921,1376.82 692.883,1378.31 696.844,1379.63 700.806,1380.79 704.768,1381.78 708.73,1382.6 712.692,1383.26 716.653,1383.75 720.615,1384.07 724.577,1384.23 728.539,1384.22 732.501,1384.05 736.462,1383.7 740.424,1383.19 744.386,1382.52 748.348,1381.67 752.31,1380.67 756.271,1379.49 760.233,1378.15 764.195,1376.64 768.157,1374.97 772.119,1373.14 776.08,1371.14 780.042,1368.98 784.004,1366.65 787.966,1364.17 791.928,1361.52 795.889,1358.71 799.851,1355.74 803.813,1352.61 807.775,1349.32 811.736,1345.87 815.698,1342.27 819.66,1338.51 823.622,1334.6 827.584,1330.53 831.545,1326.31 835.507,1321.93 839.469,1317.41 843.431,1312.73 847.393,1307.91 851.354,1302.94 855.316,1297.83 859.278,1292.57 863.24,1287.16 867.202,1281.62 871.163,1275.93 875.125,1270.11 879.087,1264.15 883.049,1258.05 887.011,1251.82 890.972,1245.45 894.934,1238.96 898.896,1232.33 902.858,1225.58 906.82,1218.7 910.781,1211.69 914.743,1204.57 918.705,1197.32 922.667,1189.95 926.629,1182.47 930.59,1174.87 934.552,1167.16 938.514,1159.34 942.476,1151.41 946.438,1143.38 950.399,1135.23 954.361,1126.99 958.323,1118.64 962.285,1110.2 966.246,1101.66 970.208,1093.02 974.17,1084.29 978.132,1075.48 982.094,1066.57 986.055,1057.58 990.017,1048.51 993.979,1039.36 997.941,1030.13 1001.9,1020.82 1005.86,1011.44 1009.83,1001.99 1013.79,992.472 1017.75,982.886 1021.71,973.236 1025.67,963.526 1029.64,953.757 1033.6,943.931 1037.56,934.052 1041.52,924.122 1045.48,914.143 1049.44,904.119 1053.41,894.051 1057.37,883.942 1061.33,873.794 1065.29,863.612 1069.25,853.396 1073.21,843.15 1077.18,832.876 1081.14,822.577 1085.1,812.255 1089.06,801.914 1093.02,791.556 1096.99,781.183 1100.95,770.798 1104.91,760.404 1108.87,750.004 1112.83,739.6 1116.79,729.195 1120.76,718.791 1124.72,708.391 1128.68,697.999 1132.64,687.616 1136.6,677.245 1140.57,666.889 1144.53,656.551 1148.49,646.233 1152.45,635.937 1156.41,625.668 1160.37,615.426 1164.34,605.215 1168.3,595.038 1172.26,584.897 1176.22,574.794 1180.18,564.732 1184.15,554.715 1188.11,544.743 1192.07,534.821 1196.03,524.95 1199.99,515.134 1203.95,505.373 1207.92,495.672 1211.88,486.033 1215.84,476.457 1219.8,466.948 1223.76,457.508 1227.72,448.139 1231.69,438.845 1235.65,429.626 1239.61,420.486 1243.57,411.426 1247.53,402.45 1251.5,393.56 1255.46,384.757 1259.42,376.044 1263.38,367.424 1267.34,358.898 1271.3,350.469 1275.27,342.139 1279.23,333.91 1283.19,325.784 1287.15,317.763 1291.11,309.849 1295.08,302.045 1299.04,294.352 1303,286.773 1306.96,279.309 1310.92,271.961 1314.88,264.733 1318.85,257.626 1322.81,250.642 1326.77,243.782 1330.73,237.049 1334.69,230.443 1338.66,223.967 1342.62,217.623 1346.58,211.412 1350.54,205.335 1354.5,199.395 1358.46,193.592 1362.43,187.928 1366.39,182.405 1370.35,177.025 1374.31,171.787 1378.27,166.695 1382.23,161.748 1386.2,156.949 1390.16,152.299 1394.12,147.798 1398.08,143.449 1402.04,139.251 1406.01,135.207 1409.97,131.317 1413.93,127.582 1417.89,124.003 1421.85,120.582 1425.81,117.318 1429.78,114.213 1433.74,111.268 1437.7,108.483 1441.66,105.859 1445.62,103.397 1449.59,101.098 1453.55,98.9611 1457.51,96.988 1461.47,95.1789 1465.43,93.5343 1469.39,92.0547 1473.36,90.7403 1477.32,89.5916 1481.28,88.6089 1485.24,87.7923 1489.2,87.1421 1493.17,86.6585 1497.13,86.3416 1501.09,86.1915 1505.05,86.2082 1509.01,86.3917 1512.97,86.7419 1516.94,87.2589 1520.9,87.9423 1524.86,88.7921 1528.82,89.8081 1532.78,90.99 1536.74,92.3374 1540.71,93.85 1544.67,95.5276 1548.63,97.3695 1552.59,99.3753 1556.55,101.545 1560.52,103.877 1564.48,106.371 1568.44,109.027 1572.4,111.844 1576.36,114.821 1580.32,117.958 1584.29,121.253 1588.25,124.706 1592.21,128.317 1596.17,132.083 1600.13,136.004 1604.1,140.079 1608.06,144.307 1612.02,148.686 1615.98,153.217 1619.94,157.897 1623.9,162.726 1627.87,167.702 1631.83,172.823 1635.79,178.089 1639.75,183.499 1643.71,189.05 1647.68,194.741 1651.64,200.572 1655.6,206.54 1659.56,212.643 1663.52,218.881 1667.48,225.252 1671.45,231.754 1675.41,238.385 1679.37,245.144 1683.33,252.029 1687.29,259.038 1691.25,266.169 1695.22,273.421 1699.18,280.792 1703.14,288.28 1707.1,295.882 1711.06,303.597 1715.03,311.423 1718.99,319.358 1722.95,327.4 1726.91,335.547 1730.87,343.797 1734.83,352.147 1738.8,360.596 1742.76,369.141 1746.72,377.78 1750.68,386.51 1754.64,395.331 1758.61,404.239 1762.57,413.232 1766.53,422.307 1770.49,431.463 1774.45,440.697 1778.41,450.007 1782.38,459.39 1786.34,468.845 1790.3,478.367 1794.26,487.956 1798.22,497.608 1802.19,507.321 1806.15,517.092 1810.11,526.92 1814.07,536.802 1818.03,546.734 1821.99,556.715 1825.96,566.741 1829.92,576.811 1833.88,586.922 1837.84,597.071 1841.8,607.255 1845.76,617.472 1849.73,627.719 1853.69,637.994 1857.65,648.294 1861.61,658.617 1865.57,668.959 1869.54,679.318 1873.5,689.691 1877.46,700.077 1881.42,710.471 1885.38,720.871 1889.34,731.276 1893.31,741.681 1897.27,752.084 1901.23,762.484 1905.19,772.876 1909.15,783.258 1913.12,793.629 1917.08,803.984 1921.04,814.321 1925,824.638 1928.96,834.933 1932.92,845.201 1936.89,855.442 1940.85,865.651 1944.81,875.827 1948.77,885.967 1952.73,896.067 1956.7,906.127 1960.66,916.143 1964.62,926.112 1968.58,936.032 1972.54,945.901 1976.5,955.715 1980.47,965.473 1984.43,975.171 1988.39,984.808 1992.35,994.381 1996.31,1003.89 2000.27,1013.32 2004.24,1022.69 2008.2,1031.98 2012.16,1041.2 2016.12,1050.33 2020.08,1059.39 2024.05,1068.36 2028.01,1077.25 2031.97,1086.05 2035.93,1094.76 2039.89,1103.37 2043.85,1111.89 2047.82,1120.32 2051.78,1128.64 2055.74,1136.87 2059.7,1144.99 2063.66,1153.01 2067.63,1160.92 2071.59,1168.72 2075.55,1176.4 2079.51,1183.98 2083.47,1191.44 2087.43,1198.78 2091.4,1206 2095.36,1213.1 2099.32,1220.08 2103.28,1226.94 2107.24,1233.67 2111.21,1240.27 2115.17,1246.74 2119.13,1253.07 2123.09,1259.28 2127.05,1265.35 2131.01,1271.28 2134.98,1277.08 2138.94,1282.74 2142.9,1288.26 2146.86,1293.63 2150.82,1298.86 2154.79,1303.95 2158.75,1308.89 2162.71,1313.68 2166.67,1318.32 2170.63,1322.82 2174.59,1327.16 2178.56,1331.35 2182.52,1335.39 2186.48,1339.27 2190.44,1343 2194.4,1346.57 2198.36,1349.99 2202.33,1353.25 2206.29,1356.34 2210.25,1359.28 2214.21,1362.06 2218.17,1364.68 2222.14,1367.13 2226.1,1369.42 2230.06,1371.55 2234.02,1373.52 2237.98,1375.32 2241.94,1376.96 2245.91,1378.43 2249.87,1379.74 2253.83,1380.88 2257.79,1381.86 2261.75,1382.67 2265.72,1383.31 2269.68,1383.78 2273.64,1384.09 2277.6,1384.24 2281.56,1384.21 2285.52,1384.02 2289.49,1383.67 2293.45,1383.14 "></polyline>
<polyline clip-path="url(#clip262)" style="stroke:#c271d2; stroke-linecap:round; stroke-linejoin:round; stroke-width:4; stroke-opacity:1; fill:none" points="316.512,431.129 320.474,440.361 324.436,449.668 328.397,459.048 332.359,468.5 336.321,478.02 340.283,487.606 344.245,497.256 348.206,506.967 352.168,516.737 356.13,526.562 360.092,536.442 364.054,546.372 368.015,556.351 371.977,566.376 375.939,576.445 379.901,586.554 383.863,596.701 387.824,606.884 391.786,617.1 395.748,627.347 399.71,637.621 403.672,647.92 407.633,658.242 411.595,668.583 415.557,678.942 419.519,689.314 423.481,699.699 427.442,710.093 431.404,720.494 435.366,730.898 439.328,741.303 443.29,751.707 447.251,762.106 451.213,772.499 455.175,782.882 459.137,793.252 463.099,803.608 467.06,813.946 471.022,824.264 474.984,834.559 478.946,844.829 482.907,855.07 486.869,865.281 490.831,875.458 494.793,885.599 498.755,895.701 502.716,905.763 506.678,915.78 510.64,925.751 514.602,935.673 518.564,945.543 522.525,955.36 526.487,965.119 530.449,974.82 534.411,984.459 538.373,994.034 542.334,1003.54 546.296,1012.98 550.258,1022.35 554.22,1031.65 558.182,1040.86 562.143,1050 566.105,1059.06 570.067,1068.04 574.029,1076.93 577.991,1085.73 581.952,1094.44 585.914,1103.06 589.876,1111.59 593.838,1120.01 597.8,1128.34 601.761,1136.57 605.723,1144.7 609.685,1152.72 613.647,1160.63 617.609,1168.43 621.57,1176.13 625.532,1183.7 629.494,1191.17 633.456,1198.51 637.418,1205.74 641.379,1212.85 645.341,1219.83 649.303,1226.69 653.265,1233.42 657.226,1240.03 661.188,1246.5 665.15,1252.85 669.112,1259.06 673.074,1265.13 677.035,1271.07 680.997,1276.87 684.959,1282.54 688.921,1288.06 692.883,1293.44 696.844,1298.67 700.806,1303.77 704.768,1308.71 708.73,1313.51 712.692,1318.16 716.653,1322.66 720.615,1327.01 724.577,1331.2 728.539,1335.25 732.501,1339.14 736.462,1342.87 740.424,1346.45 744.386,1349.87 748.348,1353.13 752.31,1356.23 756.271,1359.18 760.233,1361.96 764.195,1364.58 768.157,1367.05 772.119,1369.34 776.08,1371.48 780.042,1373.45 784.004,1375.26 787.966,1376.9 791.928,1378.38 795.889,1379.69 799.851,1380.84 803.813,1381.82 807.775,1382.64 811.736,1383.29 815.698,1383.77 819.66,1384.09 823.622,1384.24 827.584,1384.22 831.545,1384.03 835.507,1383.68 839.469,1383.16 843.431,1382.48 847.393,1381.63 851.354,1380.61 855.316,1379.43 859.278,1378.08 863.24,1376.57 867.202,1374.89 871.163,1373.04 875.125,1371.04 879.087,1368.87 883.049,1366.53 887.011,1364.04 890.972,1361.38 894.934,1358.56 898.896,1355.58 902.858,1352.45 906.82,1349.15 910.781,1345.7 914.743,1342.08 918.705,1338.32 922.667,1334.4 926.629,1330.32 930.59,1326.09 934.552,1321.71 938.514,1317.18 942.476,1312.5 946.438,1307.67 950.399,1302.69 954.361,1297.57 958.323,1292.3 962.285,1286.89 966.246,1281.34 970.208,1275.65 974.17,1269.81 978.132,1263.85 982.094,1257.74 986.055,1251.5 990.017,1245.13 993.979,1238.63 997.941,1232 1001.9,1225.24 1005.86,1218.35 1009.83,1211.34 1013.79,1204.21 1017.75,1196.95 1021.71,1189.58 1025.67,1182.1 1029.64,1174.49 1033.6,1166.78 1037.56,1158.95 1041.52,1151.01 1045.48,1142.97 1049.44,1134.82 1053.41,1126.57 1057.37,1118.22 1061.33,1109.77 1065.29,1101.23 1069.25,1092.59 1073.21,1083.86 1077.18,1075.03 1081.14,1066.13 1085.1,1057.13 1089.06,1048.06 1093.02,1038.9 1096.99,1029.67 1100.95,1020.35 1104.91,1010.97 1108.87,1001.52 1112.83,991.994 1116.79,982.405 1120.76,972.752 1124.72,963.039 1128.68,953.267 1132.64,943.439 1136.6,933.557 1140.57,923.624 1144.53,913.643 1148.49,903.616 1152.45,893.546 1156.41,883.435 1160.37,873.286 1164.34,863.102 1168.3,852.884 1172.26,842.637 1176.22,832.361 1180.18,822.061 1184.15,811.739 1188.11,801.397 1192.07,791.037 1196.03,780.664 1199.99,770.279 1203.95,759.884 1207.92,749.484 1211.88,739.08 1215.84,728.674 1219.8,718.271 1223.76,707.872 1227.72,697.479 1231.69,687.097 1235.65,676.727 1239.61,666.372 1243.57,656.034 1247.53,645.717 1251.5,635.423 1255.46,625.155 1259.42,614.915 1263.38,604.706 1267.34,594.53 1271.3,584.39 1275.27,574.29 1279.23,564.23 1283.19,554.215 1287.15,544.246 1291.11,534.326 1295.08,524.458 1299.04,514.644 1303,504.887 1306.96,495.189 1310.92,485.552 1314.88,475.98 1318.85,466.474 1322.81,457.038 1326.77,447.673 1330.73,438.382 1334.69,429.167 1338.66,420.031 1342.62,410.976 1346.58,402.004 1350.54,393.117 1354.5,384.319 1358.46,375.611 1362.43,366.995 1366.39,358.474 1370.35,350.05 1374.31,341.725 1378.27,333.501 1382.23,325.38 1386.2,317.365 1390.16,309.457 1394.12,301.658 1398.08,293.971 1402.04,286.397 1406.01,278.938 1409.97,271.597 1413.93,264.375 1417.89,257.274 1421.85,250.296 1425.81,243.442 1429.78,236.715 1433.74,230.116 1437.7,223.647 1441.66,217.309 1445.62,211.105 1449.59,205.035 1453.55,199.101 1457.51,193.305 1461.47,187.649 1465.43,182.133 1469.39,176.759 1473.36,171.529 1477.32,166.444 1481.28,161.505 1485.24,156.713 1489.2,152.07 1493.17,147.577 1497.13,143.235 1501.09,139.045 1505.05,135.009 1509.01,131.126 1512.97,127.399 1516.94,123.828 1520.9,120.415 1524.86,117.159 1528.82,114.062 1532.78,111.125 1536.74,108.348 1540.71,105.732 1544.67,103.278 1548.63,100.987 1552.59,98.8585 1556.55,96.8936 1560.52,95.0927 1564.48,93.4564 1568.44,91.985 1572.4,90.679 1576.36,89.5386 1580.32,88.5641 1584.29,87.7558 1588.25,87.114 1592.21,86.6387 1596.17,86.3302 1600.13,86.1884 1604.1,86.2134 1608.06,86.4052 1612.02,86.7638 1615.98,87.2891 1619.94,87.9809 1623.9,88.839 1627.87,89.8633 1631.83,91.0534 1635.79,92.4091 1639.75,93.93 1643.71,95.6158 1647.68,97.4659 1651.64,99.4799 1655.6,101.657 1659.56,103.998 1663.52,106.5 1667.48,109.164 1671.45,111.989 1675.41,114.974 1679.37,118.119 1683.33,121.422 1687.29,124.883 1691.25,128.501 1695.22,132.275 1699.18,136.204 1703.14,140.286 1707.1,144.522 1711.06,148.909 1715.03,153.448 1718.99,158.135 1722.95,162.971 1726.91,167.954 1730.87,173.083 1734.83,178.356 1738.8,183.773 1742.76,189.331 1746.72,195.03 1750.68,200.867 1754.64,206.842 1758.61,212.952 1762.57,219.197 1766.53,225.574 1770.49,232.082 1774.45,238.72 1778.41,245.485 1782.38,252.376 1786.34,259.392 1790.3,266.529 1794.26,273.787 1798.22,281.164 1802.19,288.657 1806.15,296.265 1810.11,303.986 1814.07,311.818 1818.03,319.758 1821.99,327.805 1825.96,335.957 1829.92,344.212 1833.88,352.567 1837.84,361.021 1841.8,369.57 1845.76,378.214 1849.73,386.949 1853.69,395.774 1857.65,404.686 1861.61,413.683 1865.57,422.763 1869.54,431.923 1873.5,441.161 1877.46,450.475 1881.42,459.862 1885.38,469.319 1889.34,478.845 1893.31,488.437 1897.27,498.092 1901.23,507.808 1905.19,517.583 1909.15,527.413 1913.12,537.297 1917.08,547.232 1921.04,557.215 1925,567.244 1928.96,577.316 1932.92,587.428 1936.89,597.579 1940.85,607.765 1944.81,617.984 1948.77,628.233 1952.73,638.509 1956.7,648.81 1960.66,659.134 1964.62,669.476 1968.58,679.836 1972.54,690.21 1976.5,700.596 1980.47,710.991 1984.43,721.391 1988.39,731.796 1992.35,742.201 1996.31,752.604 2000.27,763.003 2004.24,773.395 2008.2,783.777 2012.16,794.147 2016.12,804.501 2020.08,814.838 2024.05,825.154 2028.01,835.447 2031.97,845.714 2035.93,855.953 2039.89,866.161 2043.85,876.335 2047.82,886.473 2051.78,896.571 2055.74,906.629 2059.7,916.642 2063.66,926.609 2067.63,936.527 2071.59,946.393 2075.55,956.204 2079.51,965.959 2083.47,975.655 2087.43,985.288 2091.4,994.858 2095.36,1004.36 2099.32,1013.79 2103.28,1023.16 2107.24,1032.44 2111.21,1041.66 2115.17,1050.79 2119.13,1059.84 2123.09,1068.81 2127.05,1077.69 2131.01,1086.48 2134.98,1095.19 2138.94,1103.8 2142.9,1112.32 2146.86,1120.74 2150.82,1129.06 2154.79,1137.28 2158.75,1145.39 2162.71,1153.41 2166.67,1161.31 2170.63,1169.1 2174.59,1176.78 2178.56,1184.35 2182.52,1191.81 2186.48,1199.14 2190.44,1206.36 2194.4,1213.46 2198.36,1220.43 2202.33,1227.28 2206.29,1234 2210.25,1240.59 2214.21,1247.06 2218.17,1253.39 2222.14,1259.59 2226.1,1265.65 2230.06,1271.58 2234.02,1277.37 2237.98,1283.02 2241.94,1288.53 2245.91,1293.9 2249.87,1299.12 2253.83,1304.2 2257.79,1309.13 2261.75,1313.92 2265.72,1318.55 2269.68,1323.04 2273.64,1327.37 2277.6,1331.56 2281.56,1335.59 2285.52,1339.46 2289.49,1343.18 2293.45,1346.75 "></polyline>
<polyline clip-path="url(#clip262)" style="stroke:#ac8d18; stroke-linecap:round; stroke-linejoin:round; stroke-width:4; stroke-opacity:1; fill:none" points="316.512,231.844 320.474,238.477 324.436,245.237 328.397,252.124 332.359,259.135 336.321,266.268 340.283,273.521 344.245,280.894 348.206,288.383 352.168,295.987 356.13,303.703 360.092,311.531 364.054,319.468 368.015,327.511 371.977,335.66 375.939,343.91 379.901,352.262 383.863,360.712 387.824,369.258 391.786,377.898 395.748,386.63 399.71,395.452 403.672,404.361 407.633,413.355 411.595,422.432 415.557,431.589 419.519,440.824 423.481,450.135 427.442,459.519 431.404,468.974 435.366,478.498 439.328,488.087 443.29,497.74 447.251,507.454 451.213,517.227 455.175,527.055 459.137,536.937 463.099,546.87 467.06,556.852 471.022,566.879 474.984,576.949 478.946,587.06 482.907,597.21 486.869,607.394 490.831,617.612 494.793,627.86 498.755,638.135 502.716,648.436 506.678,658.758 510.64,669.101 514.602,679.46 518.564,689.833 522.525,700.219 526.487,710.613 530.449,721.014 534.411,731.418 538.373,741.823 542.334,752.227 546.296,762.626 550.258,773.018 554.22,783.4 558.182,793.77 562.143,804.125 566.105,814.463 570.067,824.779 574.029,835.073 577.991,845.342 581.952,855.581 585.914,865.79 589.876,875.966 593.838,886.105 597.8,896.205 601.761,906.264 605.723,916.28 609.685,926.248 613.647,936.168 617.609,946.035 621.57,955.849 625.532,965.606 629.494,975.304 633.456,984.94 637.418,994.511 641.379,1004.02 645.341,1013.45 649.303,1022.82 653.265,1032.11 657.226,1041.32 661.188,1050.46 665.15,1059.51 669.112,1068.48 673.074,1077.37 677.035,1086.17 680.997,1094.87 684.959,1103.49 688.921,1112.01 692.883,1120.43 696.844,1128.76 700.806,1136.98 704.768,1145.1 708.73,1153.12 712.692,1161.02 716.653,1168.82 720.615,1176.51 724.577,1184.08 728.539,1191.54 732.501,1198.88 736.462,1206.1 740.424,1213.2 744.386,1220.18 748.348,1227.03 752.31,1233.76 756.271,1240.35 760.233,1246.82 764.195,1253.16 768.157,1259.36 772.119,1265.43 776.08,1271.37 780.042,1277.16 784.004,1282.82 787.966,1288.33 791.928,1293.7 795.889,1298.93 799.851,1304.02 803.813,1308.95 807.775,1313.75 811.736,1318.39 815.698,1322.88 819.66,1327.22 823.622,1331.41 827.584,1335.44 831.545,1339.33 835.507,1343.05 839.469,1346.62 843.431,1350.03 847.393,1353.29 851.354,1356.38 855.316,1359.32 859.278,1362.1 863.24,1364.71 867.202,1367.16 871.163,1369.45 875.125,1371.58 879.087,1373.55 883.049,1375.35 887.011,1376.98 890.972,1378.45 894.934,1379.76 898.896,1380.89 902.858,1381.87 906.82,1382.68 910.781,1383.32 914.743,1383.79 918.705,1384.1 922.667,1384.24 926.629,1384.21 930.59,1384.02 934.552,1383.66 938.514,1383.13 942.476,1382.44 946.438,1381.58 950.399,1380.56 954.361,1379.36 958.323,1378.01 962.285,1376.49 966.246,1374.8 970.208,1372.95 974.17,1370.93 978.132,1368.75 982.094,1366.41 986.055,1363.91 990.017,1361.24 993.979,1358.42 997.941,1355.43 1001.9,1352.29 1005.86,1348.98 1009.83,1345.52 1013.79,1341.9 1017.75,1338.13 1021.71,1334.2 1025.67,1330.11 1029.64,1325.87 1033.6,1321.49 1037.56,1316.95 1041.52,1312.26 1045.48,1307.42 1049.44,1302.44 1053.41,1297.31 1057.37,1292.03 1061.33,1286.62 1065.29,1281.06 1069.25,1275.36 1073.21,1269.52 1077.18,1263.54 1081.14,1257.43 1085.1,1251.19 1089.06,1244.81 1093.02,1238.3 1096.99,1231.66 1100.95,1224.89 1104.91,1218 1108.87,1210.99 1112.83,1203.85 1116.79,1196.59 1120.76,1189.21 1124.72,1181.72 1128.68,1174.11 1132.64,1166.39 1136.6,1158.55 1140.57,1150.61 1144.53,1142.57 1148.49,1134.41 1152.45,1126.16 1156.41,1117.8 1160.37,1109.35 1164.34,1100.8 1168.3,1092.15 1172.26,1083.42 1176.22,1074.59 1180.18,1065.68 1184.15,1056.68 1188.11,1047.6 1192.07,1038.44 1196.03,1029.2 1199.99,1019.89 1203.95,1010.5 1207.92,1001.04 1211.88,991.516 1215.84,981.924 1219.8,972.268 1223.76,962.552 1227.72,952.777 1231.69,942.946 1235.65,933.061 1239.61,923.126 1243.57,913.143 1247.53,903.114 1251.5,893.041 1255.46,882.929 1259.42,872.778 1263.38,862.591 1267.34,852.373 1271.3,842.124 1275.27,831.847 1279.23,821.546 1283.19,811.222 1287.15,800.879 1291.11,790.519 1295.08,780.145 1299.04,769.759 1303,759.364 1306.96,748.964 1310.92,738.559 1314.88,728.154 1318.85,717.751 1322.81,707.352 1326.77,696.96 1330.73,686.578 1334.69,676.209 1338.66,665.854 1342.62,655.518 1346.58,645.202 1350.54,634.909 1354.5,624.642 1358.46,614.404 1362.43,604.196 1366.39,594.022 1370.35,583.885 1374.31,573.786 1378.27,563.729 1382.23,553.715 1386.2,543.749 1390.16,533.832 1394.12,523.966 1398.08,514.155 1402.04,504.401 1406.01,494.705 1409.97,485.072 1413.93,475.503 1417.89,466.001 1421.85,456.568 1425.81,447.207 1429.78,437.919 1433.74,428.708 1437.7,419.576 1441.66,410.525 1445.62,401.557 1449.59,392.675 1453.55,383.882 1457.51,375.178 1461.47,366.567 1465.43,358.051 1469.39,349.632 1473.36,341.311 1477.32,333.092 1481.28,324.977 1485.24,316.967 1489.2,309.064 1493.17,301.271 1497.13,293.589 1501.09,286.021 1505.05,278.568 1509.01,271.233 1512.97,264.017 1516.94,256.922 1520.9,249.95 1524.86,243.103 1528.82,236.382 1532.78,229.79 1536.74,223.327 1540.71,216.996 1544.67,210.798 1548.63,204.735 1552.59,198.808 1556.55,193.019 1560.52,187.37 1564.48,181.861 1568.44,176.494 1572.4,171.271 1576.36,166.194 1580.32,161.262 1584.29,156.478 1588.25,151.842 1592.21,147.357 1596.17,143.022 1600.13,138.84 1604.1,134.811 1608.06,130.936 1612.02,127.217 1615.98,123.654 1619.94,120.248 1623.9,117 1627.87,113.911 1631.83,110.982 1635.79,108.213 1639.75,105.606 1643.71,103.16 1647.68,100.877 1651.64,98.7564 1655.6,96.7997 1659.56,95.007 1663.52,93.3789 1667.48,91.9158 1671.45,90.618 1675.41,89.4859 1679.37,88.5197 1683.33,87.7198 1687.29,87.0863 1691.25,86.6194 1695.22,86.3191 1699.18,86.1857 1703.14,86.219 1707.1,86.4192 1711.06,86.7861 1715.03,87.3197 1718.99,88.0198 1722.95,88.8863 1726.91,89.9188 1730.87,91.1173 1734.83,92.4812 1738.8,94.0104 1742.76,95.7044 1746.72,97.5627 1750.68,99.5849 1754.64,101.771 1758.61,104.119 1762.57,106.63 1766.53,109.302 1770.49,112.135 1774.45,115.128 1778.41,118.28 1782.38,121.592 1786.34,125.06 1790.3,128.686 1794.26,132.468 1798.22,136.404 1802.19,140.495 1806.15,144.738 1810.11,149.133 1814.07,153.678 1818.03,158.373 1821.99,163.217 1825.96,168.207 1829.92,173.343 1833.88,178.624 1837.84,184.047 1841.8,189.613 1845.76,195.318 1849.73,201.162 1853.69,207.144 1857.65,213.261 1861.61,219.512 1865.57,225.896 1869.54,232.411 1873.5,239.055 1877.46,245.827 1881.42,252.724 1885.38,259.746 1889.34,266.889 1893.31,274.153 1897.27,281.536 1901.23,289.035 1905.19,296.648 1909.15,304.375 1913.12,312.212 1917.08,320.158 1921.04,328.211 1925,336.368 1928.96,344.627 1932.92,352.988 1936.89,361.446 1940.85,370 1944.81,378.649 1948.77,387.388 1952.73,396.218 1956.7,405.134 1960.66,414.135 1964.62,423.219 1968.58,432.383 1972.54,441.625 1976.5,450.942 1980.47,460.333 1984.43,469.794 1988.39,479.323 1992.35,488.918 1996.31,498.576 2000.27,508.295 2004.24,518.073 2008.2,527.906 2012.16,537.793 2016.12,547.73 2020.08,557.715 2024.05,567.746 2028.01,577.82 2031.97,587.935 2035.93,598.087 2039.89,608.275 2043.85,618.495 2047.82,628.746 2051.78,639.023 2055.74,649.326 2059.7,659.65 2063.66,669.994 2067.63,680.355 2071.59,690.729 2075.55,701.116 2079.51,711.511 2083.47,721.912 2087.43,732.316 2091.4,742.721 2095.36,753.125 2099.32,763.523 2103.28,773.915 2107.24,784.296 2111.21,794.665 2115.17,805.018 2119.13,815.354 2123.09,825.669 2127.05,835.961 2131.01,846.227 2134.98,856.464 2138.94,866.67 2142.9,876.842 2146.86,886.978 2150.82,897.075 2154.79,907.131 2158.75,917.142 2162.71,927.106 2166.67,937.021 2170.63,946.885 2174.59,956.693 2178.56,966.445 2182.52,976.138 2186.48,985.768 2190.44,995.335 2194.4,1004.83 2198.36,1014.26 2202.33,1023.62 2206.29,1032.91 2210.25,1042.11 2214.21,1051.24 2218.17,1060.29 2222.14,1069.25 2226.1,1078.13 2230.06,1086.92 2234.02,1095.62 2237.98,1104.23 2241.94,1112.74 2245.91,1121.16 2249.87,1129.47 2253.83,1137.69 2257.79,1145.8 2261.75,1153.8 2265.72,1161.7 2269.68,1169.49 2273.64,1177.17 2277.6,1184.73 2281.56,1192.18 2285.52,1199.51 2289.49,1206.72 2293.45,1213.81 "></polyline>
<path clip-path="url(#clip260)" d="M1883.77 404.149 L2282.9 404.149 L2282.9 93.1086 L1883.77 93.1086  Z" fill="#ffffff" fill-rule="evenodd" fill-opacity="1"></path>
<polyline clip-path="url(#clip260)" style="stroke:#000000; stroke-linecap:round; stroke-linejoin:round; stroke-width:4; stroke-opacity:1; fill:none" points="1883.77,404.149 2282.9,404.149 2282.9,93.1086 1883.77,93.1086 1883.77,404.149 "></polyline>
<polyline clip-path="url(#clip260)" style="stroke:#009af9; stroke-linecap:round; stroke-linejoin:round; stroke-width:4; stroke-opacity:1; fill:none" points="1907.05,144.949 2046.75,144.949 "></polyline>
<path clip-path="url(#clip260)" d="M2077.45 128.942 L2077.45 136.303 L2086.22 136.303 L2086.22 139.613 L2077.45 139.613 L2077.45 153.687 Q2077.45 156.858 2078.3 157.761 Q2079.18 158.664 2081.84 158.664 L2086.22 158.664 L2086.22 162.229 L2081.84 162.229 Q2076.91 162.229 2075.04 160.4 Q2073.16 158.548 2073.16 153.687 L2073.16 139.613 L2070.04 139.613 L2070.04 136.303 L2073.16 136.303 L2073.16 128.942 L2077.45 128.942 Z" fill="#000000" fill-rule="nonzero" fill-opacity="1"></path><path clip-path="url(#clip260)" d="M2107.45 140.701 L2137.12 140.701 L2137.12 144.59 L2107.45 144.59 L2107.45 140.701 M2107.45 150.145 L2137.12 150.145 L2137.12 154.081 L2107.45 154.081 L2107.45 150.145 Z" fill="#000000" fill-rule="nonzero" fill-opacity="1"></path><path clip-path="url(#clip260)" d="M2172.28 130.747 Q2168.67 130.747 2166.84 134.312 Q2165.04 137.854 2165.04 144.983 Q2165.04 152.09 2166.84 155.655 Q2168.67 159.196 2172.28 159.196 Q2175.92 159.196 2177.72 155.655 Q2179.55 152.09 2179.55 144.983 Q2179.55 137.854 2177.72 134.312 Q2175.92 130.747 2172.28 130.747 M2172.28 127.044 Q2178.09 127.044 2181.15 131.65 Q2184.23 136.233 2184.23 144.983 Q2184.23 153.71 2181.15 158.317 Q2178.09 162.9 2172.28 162.9 Q2166.47 162.9 2163.39 158.317 Q2160.34 153.71 2160.34 144.983 Q2160.34 136.233 2163.39 131.65 Q2166.47 127.044 2172.28 127.044 Z" fill="#000000" fill-rule="nonzero" fill-opacity="1"></path><path clip-path="url(#clip260)" d="M2192.44 156.349 L2197.33 156.349 L2197.33 162.229 L2192.44 162.229 L2192.44 156.349 Z" fill="#000000" fill-rule="nonzero" fill-opacity="1"></path><path clip-path="url(#clip260)" d="M2217.51 130.747 Q2213.9 130.747 2212.07 134.312 Q2210.27 137.854 2210.27 144.983 Q2210.27 152.09 2212.07 155.655 Q2213.9 159.196 2217.51 159.196 Q2221.15 159.196 2222.95 155.655 Q2224.78 152.09 2224.78 144.983 Q2224.78 137.854 2222.95 134.312 Q2221.15 130.747 2217.51 130.747 M2217.51 127.044 Q2223.32 127.044 2226.38 131.65 Q2229.46 136.233 2229.46 144.983 Q2229.46 153.71 2226.38 158.317 Q2223.32 162.9 2217.51 162.9 Q2211.7 162.9 2208.63 158.317 Q2205.57 153.71 2205.57 144.983 Q2205.57 136.233 2208.63 131.65 Q2211.7 127.044 2217.51 127.044 Z" fill="#000000" fill-rule="nonzero" fill-opacity="1"></path><path clip-path="url(#clip260)" d="M2247.68 130.747 Q2244.06 130.747 2242.24 134.312 Q2240.43 137.854 2240.43 144.983 Q2240.43 152.09 2242.24 155.655 Q2244.06 159.196 2247.68 159.196 Q2251.31 159.196 2253.12 155.655 Q2254.94 152.09 2254.94 144.983 Q2254.94 137.854 2253.12 134.312 Q2251.31 130.747 2247.68 130.747 M2247.68 127.044 Q2253.49 127.044 2256.54 131.65 Q2259.62 136.233 2259.62 144.983 Q2259.62 153.71 2256.54 158.317 Q2253.49 162.9 2247.68 162.9 Q2241.87 162.9 2238.79 158.317 Q2235.73 153.71 2235.73 144.983 Q2235.73 136.233 2238.79 131.65 Q2241.87 127.044 2247.68 127.044 Z" fill="#000000" fill-rule="nonzero" fill-opacity="1"></path><polyline clip-path="url(#clip260)" style="stroke:#e26f46; stroke-linecap:round; stroke-linejoin:round; stroke-width:4; stroke-opacity:1; fill:none" points="1907.05,196.789 2046.75,196.789 "></polyline>
<path clip-path="url(#clip260)" d="M2077.45 180.782 L2077.45 188.143 L2086.22 188.143 L2086.22 191.453 L2077.45 191.453 L2077.45 205.527 Q2077.45 208.698 2078.3 209.601 Q2079.18 210.504 2081.84 210.504 L2086.22 210.504 L2086.22 214.069 L2081.84 214.069 Q2076.91 214.069 2075.04 212.24 Q2073.16 210.388 2073.16 205.527 L2073.16 191.453 L2070.04 191.453 L2070.04 188.143 L2073.16 188.143 L2073.16 180.782 L2077.45 180.782 Z" fill="#000000" fill-rule="nonzero" fill-opacity="1"></path><path clip-path="url(#clip260)" d="M2107.45 192.541 L2137.12 192.541 L2137.12 196.43 L2107.45 196.43 L2107.45 192.541 M2107.45 201.985 L2137.12 201.985 L2137.12 205.921 L2107.45 205.921 L2107.45 201.985 Z" fill="#000000" fill-rule="nonzero" fill-opacity="1"></path><path clip-path="url(#clip260)" d="M2172.28 182.587 Q2168.67 182.587 2166.84 186.152 Q2165.04 189.694 2165.04 196.823 Q2165.04 203.93 2166.84 207.495 Q2168.67 211.036 2172.28 211.036 Q2175.92 211.036 2177.72 207.495 Q2179.55 203.93 2179.55 196.823 Q2179.55 189.694 2177.72 186.152 Q2175.92 182.587 2172.28 182.587 M2172.28 178.884 Q2178.09 178.884 2181.15 183.49 Q2184.23 188.073 2184.23 196.823 Q2184.23 205.55 2181.15 210.157 Q2178.09 214.74 2172.28 214.74 Q2166.47 214.74 2163.39 210.157 Q2160.34 205.55 2160.34 196.823 Q2160.34 188.073 2163.39 183.49 Q2166.47 178.884 2172.28 178.884 Z" fill="#000000" fill-rule="nonzero" fill-opacity="1"></path><path clip-path="url(#clip260)" d="M2192.44 208.189 L2197.33 208.189 L2197.33 214.069 L2192.44 214.069 L2192.44 208.189 Z" fill="#000000" fill-rule="nonzero" fill-opacity="1"></path><path clip-path="url(#clip260)" d="M2217.51 182.587 Q2213.9 182.587 2212.07 186.152 Q2210.27 189.694 2210.27 196.823 Q2210.27 203.93 2212.07 207.495 Q2213.9 211.036 2217.51 211.036 Q2221.15 211.036 2222.95 207.495 Q2224.78 203.93 2224.78 196.823 Q2224.78 189.694 2222.95 186.152 Q2221.15 182.587 2217.51 182.587 M2217.51 178.884 Q2223.32 178.884 2226.38 183.49 Q2229.46 188.073 2229.46 196.823 Q2229.46 205.55 2226.38 210.157 Q2223.32 214.74 2217.51 214.74 Q2211.7 214.74 2208.63 210.157 Q2205.57 205.55 2205.57 196.823 Q2205.57 188.073 2208.63 183.49 Q2211.7 178.884 2217.51 178.884 Z" fill="#000000" fill-rule="nonzero" fill-opacity="1"></path><path clip-path="url(#clip260)" d="M2237.72 179.509 L2256.08 179.509 L2256.08 183.444 L2242 183.444 L2242 191.916 Q2243.02 191.569 2244.04 191.407 Q2245.06 191.222 2246.08 191.222 Q2251.87 191.222 2255.25 194.393 Q2258.62 197.564 2258.62 202.981 Q2258.62 208.559 2255.15 211.661 Q2251.68 214.74 2245.36 214.74 Q2243.19 214.74 2240.92 214.37 Q2238.67 213.999 2236.26 213.258 L2236.26 208.559 Q2238.35 209.694 2240.57 210.249 Q2242.79 210.805 2245.27 210.805 Q2249.27 210.805 2251.61 208.698 Q2253.95 206.592 2253.95 202.981 Q2253.95 199.37 2251.61 197.263 Q2249.27 195.157 2245.27 195.157 Q2243.39 195.157 2241.52 195.573 Q2239.67 195.99 2237.72 196.87 L2237.72 179.509 Z" fill="#000000" fill-rule="nonzero" fill-opacity="1"></path><polyline clip-path="url(#clip260)" style="stroke:#3da44d; stroke-linecap:round; stroke-linejoin:round; stroke-width:4; stroke-opacity:1; fill:none" points="1907.05,248.629 2046.75,248.629 "></polyline>
<path clip-path="url(#clip260)" d="M2077.45 232.622 L2077.45 239.983 L2086.22 239.983 L2086.22 243.293 L2077.45 243.293 L2077.45 257.367 Q2077.45 260.538 2078.3 261.441 Q2079.18 262.344 2081.84 262.344 L2086.22 262.344 L2086.22 265.909 L2081.84 265.909 Q2076.91 265.909 2075.04 264.08 Q2073.16 262.228 2073.16 257.367 L2073.16 243.293 L2070.04 243.293 L2070.04 239.983 L2073.16 239.983 L2073.16 232.622 L2077.45 232.622 Z" fill="#000000" fill-rule="nonzero" fill-opacity="1"></path><path clip-path="url(#clip260)" d="M2107.45 244.381 L2137.12 244.381 L2137.12 248.27 L2107.45 248.27 L2107.45 244.381 M2107.45 253.825 L2137.12 253.825 L2137.12 257.761 L2107.45 257.761 L2107.45 253.825 Z" fill="#000000" fill-rule="nonzero" fill-opacity="1"></path><path clip-path="url(#clip260)" d="M2172.28 234.427 Q2168.67 234.427 2166.84 237.992 Q2165.04 241.534 2165.04 248.663 Q2165.04 255.77 2166.84 259.335 Q2168.67 262.876 2172.28 262.876 Q2175.92 262.876 2177.72 259.335 Q2179.55 255.77 2179.55 248.663 Q2179.55 241.534 2177.72 237.992 Q2175.92 234.427 2172.28 234.427 M2172.28 230.724 Q2178.09 230.724 2181.15 235.33 Q2184.23 239.913 2184.23 248.663 Q2184.23 257.39 2181.15 261.997 Q2178.09 266.58 2172.28 266.58 Q2166.47 266.58 2163.39 261.997 Q2160.34 257.39 2160.34 248.663 Q2160.34 239.913 2163.39 235.33 Q2166.47 230.724 2172.28 230.724 Z" fill="#000000" fill-rule="nonzero" fill-opacity="1"></path><path clip-path="url(#clip260)" d="M2192.44 260.029 L2197.33 260.029 L2197.33 265.909 L2192.44 265.909 L2192.44 260.029 Z" fill="#000000" fill-rule="nonzero" fill-opacity="1"></path><path clip-path="url(#clip260)" d="M2208.32 261.973 L2215.96 261.973 L2215.96 235.608 L2207.65 237.275 L2207.65 233.015 L2215.92 231.349 L2220.59 231.349 L2220.59 261.973 L2228.23 261.973 L2228.23 265.909 L2208.32 265.909 L2208.32 261.973 Z" fill="#000000" fill-rule="nonzero" fill-opacity="1"></path><path clip-path="url(#clip260)" d="M2247.68 234.427 Q2244.06 234.427 2242.24 237.992 Q2240.43 241.534 2240.43 248.663 Q2240.43 255.77 2242.24 259.335 Q2244.06 262.876 2247.68 262.876 Q2251.31 262.876 2253.12 259.335 Q2254.94 255.77 2254.94 248.663 Q2254.94 241.534 2253.12 237.992 Q2251.31 234.427 2247.68 234.427 M2247.68 230.724 Q2253.49 230.724 2256.54 235.33 Q2259.62 239.913 2259.62 248.663 Q2259.62 257.39 2256.54 261.997 Q2253.49 266.58 2247.68 266.58 Q2241.87 266.58 2238.79 261.997 Q2235.73 257.39 2235.73 248.663 Q2235.73 239.913 2238.79 235.33 Q2241.87 230.724 2247.68 230.724 Z" fill="#000000" fill-rule="nonzero" fill-opacity="1"></path><polyline clip-path="url(#clip260)" style="stroke:#c271d2; stroke-linecap:round; stroke-linejoin:round; stroke-width:4; stroke-opacity:1; fill:none" points="1907.05,300.469 2046.75,300.469 "></polyline>
<path clip-path="url(#clip260)" d="M2077.45 284.462 L2077.45 291.823 L2086.22 291.823 L2086.22 295.133 L2077.45 295.133 L2077.45 309.207 Q2077.45 312.378 2078.3 313.281 Q2079.18 314.184 2081.84 314.184 L2086.22 314.184 L2086.22 317.749 L2081.84 317.749 Q2076.91 317.749 2075.04 315.92 Q2073.16 314.068 2073.16 309.207 L2073.16 295.133 L2070.04 295.133 L2070.04 291.823 L2073.16 291.823 L2073.16 284.462 L2077.45 284.462 Z" fill="#000000" fill-rule="nonzero" fill-opacity="1"></path><path clip-path="url(#clip260)" d="M2107.45 296.221 L2137.12 296.221 L2137.12 300.11 L2107.45 300.11 L2107.45 296.221 M2107.45 305.665 L2137.12 305.665 L2137.12 309.601 L2107.45 309.601 L2107.45 305.665 Z" fill="#000000" fill-rule="nonzero" fill-opacity="1"></path><path clip-path="url(#clip260)" d="M2172.28 286.267 Q2168.67 286.267 2166.84 289.832 Q2165.04 293.374 2165.04 300.503 Q2165.04 307.61 2166.84 311.175 Q2168.67 314.716 2172.28 314.716 Q2175.92 314.716 2177.72 311.175 Q2179.55 307.61 2179.55 300.503 Q2179.55 293.374 2177.72 289.832 Q2175.92 286.267 2172.28 286.267 M2172.28 282.564 Q2178.09 282.564 2181.15 287.17 Q2184.23 291.753 2184.23 300.503 Q2184.23 309.23 2181.15 313.837 Q2178.09 318.42 2172.28 318.42 Q2166.47 318.42 2163.39 313.837 Q2160.34 309.23 2160.34 300.503 Q2160.34 291.753 2163.39 287.17 Q2166.47 282.564 2172.28 282.564 Z" fill="#000000" fill-rule="nonzero" fill-opacity="1"></path><path clip-path="url(#clip260)" d="M2192.44 311.869 L2197.33 311.869 L2197.33 317.749 L2192.44 317.749 L2192.44 311.869 Z" fill="#000000" fill-rule="nonzero" fill-opacity="1"></path><path clip-path="url(#clip260)" d="M2208.32 313.813 L2215.96 313.813 L2215.96 287.448 L2207.65 289.115 L2207.65 284.855 L2215.92 283.189 L2220.59 283.189 L2220.59 313.813 L2228.23 313.813 L2228.23 317.749 L2208.32 317.749 L2208.32 313.813 Z" fill="#000000" fill-rule="nonzero" fill-opacity="1"></path><path clip-path="url(#clip260)" d="M2237.72 283.189 L2256.08 283.189 L2256.08 287.124 L2242 287.124 L2242 295.596 Q2243.02 295.249 2244.04 295.087 Q2245.06 294.902 2246.08 294.902 Q2251.87 294.902 2255.25 298.073 Q2258.62 301.244 2258.62 306.661 Q2258.62 312.239 2255.15 315.341 Q2251.68 318.42 2245.36 318.42 Q2243.19 318.42 2240.92 318.05 Q2238.67 317.679 2236.26 316.938 L2236.26 312.239 Q2238.35 313.374 2240.57 313.929 Q2242.79 314.485 2245.27 314.485 Q2249.27 314.485 2251.61 312.378 Q2253.95 310.272 2253.95 306.661 Q2253.95 303.05 2251.61 300.943 Q2249.27 298.837 2245.27 298.837 Q2243.39 298.837 2241.52 299.253 Q2239.67 299.67 2237.72 300.55 L2237.72 283.189 Z" fill="#000000" fill-rule="nonzero" fill-opacity="1"></path><polyline clip-path="url(#clip260)" style="stroke:#ac8d18; stroke-linecap:round; stroke-linejoin:round; stroke-width:4; stroke-opacity:1; fill:none" points="1907.05,352.309 2046.75,352.309 "></polyline>
<path clip-path="url(#clip260)" d="M2077.45 336.302 L2077.45 343.663 L2086.22 343.663 L2086.22 346.973 L2077.45 346.973 L2077.45 361.047 Q2077.45 364.218 2078.3 365.121 Q2079.18 366.024 2081.84 366.024 L2086.22 366.024 L2086.22 369.589 L2081.84 369.589 Q2076.91 369.589 2075.04 367.76 Q2073.16 365.908 2073.16 361.047 L2073.16 346.973 L2070.04 346.973 L2070.04 343.663 L2073.16 343.663 L2073.16 336.302 L2077.45 336.302 Z" fill="#000000" fill-rule="nonzero" fill-opacity="1"></path><path clip-path="url(#clip260)" d="M2107.45 348.061 L2137.12 348.061 L2137.12 351.95 L2107.45 351.95 L2107.45 348.061 M2107.45 357.505 L2137.12 357.505 L2137.12 361.441 L2107.45 361.441 L2107.45 357.505 Z" fill="#000000" fill-rule="nonzero" fill-opacity="1"></path><path clip-path="url(#clip260)" d="M2172.28 338.107 Q2168.67 338.107 2166.84 341.672 Q2165.04 345.214 2165.04 352.343 Q2165.04 359.45 2166.84 363.015 Q2168.67 366.556 2172.28 366.556 Q2175.92 366.556 2177.72 363.015 Q2179.55 359.45 2179.55 352.343 Q2179.55 345.214 2177.72 341.672 Q2175.92 338.107 2172.28 338.107 M2172.28 334.404 Q2178.09 334.404 2181.15 339.01 Q2184.23 343.593 2184.23 352.343 Q2184.23 361.07 2181.15 365.677 Q2178.09 370.26 2172.28 370.26 Q2166.47 370.26 2163.39 365.677 Q2160.34 361.07 2160.34 352.343 Q2160.34 343.593 2163.39 339.01 Q2166.47 334.404 2172.28 334.404 Z" fill="#000000" fill-rule="nonzero" fill-opacity="1"></path><path clip-path="url(#clip260)" d="M2192.44 363.709 L2197.33 363.709 L2197.33 369.589 L2192.44 369.589 L2192.44 363.709 Z" fill="#000000" fill-rule="nonzero" fill-opacity="1"></path><path clip-path="url(#clip260)" d="M2211.54 365.653 L2227.86 365.653 L2227.86 369.589 L2205.92 369.589 L2205.92 365.653 Q2208.58 362.899 2213.16 358.269 Q2217.77 353.616 2218.95 352.274 Q2221.19 349.751 2222.07 348.015 Q2222.98 346.255 2222.98 344.566 Q2222.98 341.811 2221.03 340.075 Q2219.11 338.339 2216.01 338.339 Q2213.81 338.339 2211.36 339.103 Q2208.93 339.867 2206.15 341.417 L2206.15 336.695 Q2208.97 335.561 2211.43 334.982 Q2213.88 334.404 2215.92 334.404 Q2221.29 334.404 2224.48 337.089 Q2227.68 339.774 2227.68 344.265 Q2227.68 346.394 2226.87 348.316 Q2226.08 350.214 2223.97 352.806 Q2223.39 353.478 2220.29 356.695 Q2217.19 359.89 2211.54 365.653 Z" fill="#000000" fill-rule="nonzero" fill-opacity="1"></path><path clip-path="url(#clip260)" d="M2247.68 338.107 Q2244.06 338.107 2242.24 341.672 Q2240.43 345.214 2240.43 352.343 Q2240.43 359.45 2242.24 363.015 Q2244.06 366.556 2247.68 366.556 Q2251.31 366.556 2253.12 363.015 Q2254.94 359.45 2254.94 352.343 Q2254.94 345.214 2253.12 341.672 Q2251.31 338.107 2247.68 338.107 M2247.68 334.404 Q2253.49 334.404 2256.54 339.01 Q2259.62 343.593 2259.62 352.343 Q2259.62 361.07 2256.54 365.677 Q2253.49 370.26 2247.68 370.26 Q2241.87 370.26 2238.79 365.677 Q2235.73 361.07 2235.73 352.343 Q2235.73 343.593 2238.79 339.01 Q2241.87 334.404 2247.68 334.404 Z" fill="#000000" fill-rule="nonzero" fill-opacity="1"></path></svg>